<?xml version="1.0" encoding="UTF-8" standalone="no"?>
<!-- Created with Inkscape (http://www.inkscape.org/) -->

<svg
   version="1.1"
   id="svg2"
   xml:space="preserve"
   width="466.66666"
   height="302.66666"
   viewBox="0 0 466.66666 302.66666"
   sodipodi:docname="cook_kinematic_tex.svg"
   inkscape:version="1.1.1 (3bf5ae0d25, 2021-09-20)"
   xmlns:inkscape="http://www.inkscape.org/namespaces/inkscape"
   xmlns:sodipodi="http://sodipodi.sourceforge.net/DTD/sodipodi-0.dtd"
   xmlns="http://www.w3.org/2000/svg"
   xmlns:svg="http://www.w3.org/2000/svg"><defs
     id="defs6"><clipPath
       clipPathUnits="userSpaceOnUse"
       id="clipPath270"><path
         d="m 305,184 h 2 v 7.281 h -2 z"
         id="path268" /></clipPath><clipPath
       clipPathUnits="userSpaceOnUse"
       id="clipPath280"><path
         d="m 305,174.238 h 2 V 182 h -2 z"
         id="path278" /></clipPath><clipPath
       clipPathUnits="userSpaceOnUse"
       id="clipPath290"><path
         d="M 297.359,182 H 305 v 2 h -7.641 z"
         id="path288" /></clipPath><clipPath
       clipPathUnits="userSpaceOnUse"
       id="clipPath300"><path
         d="m 307,182 h 7.398 v 2 H 307 Z"
         id="path298" /></clipPath></defs><sodipodi:namedview
     id="namedview4"
     pagecolor="#ffffff"
     bordercolor="#666666"
     borderopacity="1.0"
     inkscape:pageshadow="2"
     inkscape:pageopacity="0.0"
     inkscape:pagecheckerboard="0"
     showgrid="false"
     inkscape:zoom="5.3785715"
     inkscape:cx="185.92297"
     inkscape:cy="92.496678"
     inkscape:window-width="3440"
     inkscape:window-height="1369"
     inkscape:window-x="-8"
     inkscape:window-y="-8"
     inkscape:window-maximized="1"
     inkscape:current-layer="g10" /><g
     id="g8"
     inkscape:groupmode="layer"
     inkscape:label="cook_kinematic_v"
     transform="matrix(1.3333333,0,0,1.3333333,0,1.09e-5)"><g
       id="g10"><path
         d="M 0,0 H 350 V 227 H 0 Z"
         style="fill:#ffffff;fill-opacity:1;fill-rule:nonzero;stroke:none"
         id="path12" /><path
         d="M 0,0 H 350.16 V 227.039 H 0 Z"
         style="fill:none;stroke:#ffffff;stroke-width:1;stroke-linecap:butt;stroke-linejoin:miter;stroke-miterlimit:10;stroke-dasharray:none;stroke-opacity:1"
         id="path14" /><path
         d="m 38.684,110.977 3.386,-0.25 3.383,-0.25 3.383,-0.254 3.387,-0.289 3.382,-0.559 1.696,-1 0.765,-1.668 0.719,-2.773 1.348,-7 2.359,-15.028 3.383,-23.484 3.387,-22.805 h 0.023 l 0.051,0.004 0.098,0.008 0.199,0.016 0.39,0.027 0.786,0.058 1.566,0.114 3.094,0.222 3.386,0.246 6.766,0.5 3.387,0.25 3.383,0.25 3.386,0.258 3.383,0.266 3.387,0.305 3.383,0.394 3.382,0.637 3.387,1.644 1.692,2.954 0.382,1.136 0.739,2.66 1.34,5.875 1.121,5.719 2.031,11.735 1.695,10.5 3.071,20.156 3.386,23.152 3.383,23.899 3.387,24.527 3.383,3.168 0.027,-0.004 0.051,-0.004 0.097,-0.004 0.196,-0.015 0.394,-0.028 0.785,-0.058 1.551,-0.114 3.074,-0.222 3.383,-0.246 3.383,-0.25 3.387,-0.25 3.383,-0.25 3.386,-0.25 3.383,-0.258 3.387,-0.266 3.383,-0.305 3.382,-0.394 3.387,-0.633 3.383,-1.644 1.691,-2.961 0.387,-1.137 0.734,-2.668 0.672,-2.785 1.254,-5.981 1.137,-6.125 2.066,-12.222 3.387,-21.711 1.691,-11.274 3.075,-21.121 3.383,-23.972 3.386,-23.872 0.024,0.004 0.05,0.004 0.098,0.008 0.199,0.012 0.391,0.031 0.785,0.055 1.555,0.113 3.07,0.223 3.387,0.246 6.765,0.5 3.387,0.25 3.383,0.25 3.387,0.258 3.383,0.265 3.382,0.305 3.387,0.394 3.383,0.633 3.387,1.641 1.691,2.945 0.383,1.137 0.738,2.668 0.617,2.547 1.121,5.261 1.047,5.536 1.965,11.449 3.383,21.547 3.387,22.757 3.382,23.602 3.383,24.285 3.387,21.168 0.027,-0.004 0.047,-0.004 0.102,-0.007 0.195,-0.012 0.395,-0.031 0.781,-0.055 1.554,-0.113 3.071,-0.223 3.387,-0.246 3.382,-0.25 3.387,-0.25 6.766,-0.5 3.386,-0.258 3.383,-0.266 3.387,-0.304 0.344,-0.035"
         style="fill:none;stroke:#009a5f;stroke-width:1.6;stroke-linecap:square;stroke-linejoin:miter;stroke-miterlimit:3.25;stroke-dasharray:none;stroke-opacity:1"
         id="path16" /><path
         d="m 41,111 c 0,-0.531 -0.211,-1.039 -0.586,-1.414 C 40.039,109.211 39.531,109 39,109 c -0.531,0 -1.039,0.211 -1.414,0.586 C 37.211,109.961 37,110.469 37,111 c 0,0.531 0.211,1.039 0.586,1.414 0.375,0.375 0.883,0.586 1.414,0.586 0.531,0 1.039,-0.211 1.414,-0.586 C 40.789,112.039 41,111.531 41,111 Z"
         style="fill:#009a5f;fill-opacity:1;fill-rule:evenodd;stroke:none"
         id="path18" /><path
         d="m 44,111 c 0,-0.531 -0.211,-1.039 -0.586,-1.414 C 43.039,109.211 42.531,109 42,109 c -0.531,0 -1.039,0.211 -1.414,0.586 C 40.211,109.961 40,110.469 40,111 c 0,0.531 0.211,1.039 0.586,1.414 0.375,0.375 0.883,0.586 1.414,0.586 0.531,0 1.039,-0.211 1.414,-0.586 C 43.789,112.039 44,111.531 44,111 Z"
         style="fill:#c13441;fill-opacity:1;fill-rule:evenodd;stroke:none"
         id="path20" /><path
         d="m 47,110 c 0,-0.531 -0.211,-1.039 -0.586,-1.414 C 46.039,108.211 45.531,108 45,108 c -0.531,0 -1.039,0.211 -1.414,0.586 C 43.211,108.961 43,109.469 43,110 c 0,0.531 0.211,1.039 0.586,1.414 0.375,0.375 0.883,0.586 1.414,0.586 0.531,0 1.039,-0.211 1.414,-0.586 C 46.789,111.039 47,110.531 47,110 Z"
         style="fill:#009a5f;fill-opacity:1;fill-rule:evenodd;stroke:none"
         id="path22" /><path
         d="m 51,110 c 0,-0.531 -0.211,-1.039 -0.586,-1.414 C 50.039,108.211 49.531,108 49,108 c -0.531,0 -1.039,0.211 -1.414,0.586 C 47.211,108.961 47,109.469 47,110 c 0,0.531 0.211,1.039 0.586,1.414 0.375,0.375 0.883,0.586 1.414,0.586 0.531,0 1.039,-0.211 1.414,-0.586 C 50.789,111.039 51,110.531 51,110 Z"
         style="fill:#009a5f;fill-opacity:1;fill-rule:evenodd;stroke:none"
         id="path24" /><path
         d="m 54,110 c 0,-0.531 -0.211,-1.039 -0.586,-1.414 C 53.039,108.211 52.531,108 52,108 c -0.531,0 -1.039,0.211 -1.414,0.586 C 50.211,108.961 50,109.469 50,110 c 0,0.531 0.211,1.039 0.586,1.414 0.375,0.375 0.883,0.586 1.414,0.586 0.531,0 1.039,-0.211 1.414,-0.586 C 53.789,111.039 54,110.531 54,110 Z"
         style="fill:#009a5f;fill-opacity:1;fill-rule:evenodd;stroke:none"
         id="path26" /><path
         d="m 58,109 c 0,-0.531 -0.211,-1.039 -0.586,-1.414 C 57.039,107.211 56.531,107 56,107 c -0.531,0 -1.039,0.211 -1.414,0.586 C 54.211,107.961 54,108.469 54,109 c 0,0.531 0.211,1.039 0.586,1.414 0.375,0.375 0.883,0.586 1.414,0.586 0.531,0 1.039,-0.211 1.414,-0.586 C 57.789,110.039 58,109.531 58,109 Z"
         style="fill:#009a5f;fill-opacity:1;fill-rule:evenodd;stroke:none"
         id="path28" /><path
         d="m 59,108 c 0,-0.531 -0.211,-1.039 -0.586,-1.414 C 58.039,106.211 57.531,106 57,106 c -0.531,0 -1.039,0.211 -1.414,0.586 C 55.211,106.961 55,107.469 55,108 c 0,0.531 0.211,1.039 0.586,1.414 0.375,0.375 0.883,0.586 1.414,0.586 0.531,0 1.039,-0.211 1.414,-0.586 C 58.789,109.039 59,108.531 59,108 Z"
         style="fill:#009a5f;fill-opacity:1;fill-rule:evenodd;stroke:none"
         id="path30" /><path
         d="m 60,107 c 0,-0.531 -0.211,-1.039 -0.586,-1.414 C 59.039,105.211 58.531,105 58,105 c -0.531,0 -1.039,0.211 -1.414,0.586 C 56.211,105.961 56,106.469 56,107 c 0,0.531 0.211,1.039 0.586,1.414 0.375,0.375 0.883,0.586 1.414,0.586 0.531,0 1.039,-0.211 1.414,-0.586 C 59.789,108.039 60,107.531 60,107 Z"
         style="fill:#009a5f;fill-opacity:1;fill-rule:evenodd;stroke:none"
         id="path32" /><path
         d="m 61,104 c 0,-0.531 -0.211,-1.039 -0.586,-1.414 C 60.039,102.211 59.531,102 59,102 c -0.531,0 -1.039,0.211 -1.414,0.586 C 57.211,102.961 57,103.469 57,104 c 0,0.531 0.211,1.039 0.586,1.414 0.375,0.375 0.883,0.586 1.414,0.586 0.531,0 1.039,-0.211 1.414,-0.586 C 60.789,105.039 61,104.531 61,104 Z"
         style="fill:#009a5f;fill-opacity:1;fill-rule:evenodd;stroke:none"
         id="path34" /><path
         d="M 62,97 C 62,96.469 61.789,95.961 61.414,95.586 61.039,95.211 60.531,95 60,95 59.469,95 58.961,95.211 58.586,95.586 58.211,95.961 58,96.469 58,97 c 0,0.531 0.211,1.039 0.586,1.414 C 58.961,98.789 59.469,99 60,99 60.531,99 61.039,98.789 61.414,98.414 61.789,98.039 62,97.531 62,97 Z"
         style="fill:#009a5f;fill-opacity:1;fill-rule:evenodd;stroke:none"
         id="path36" /><path
         d="M 64,82 C 64,81.469 63.789,80.961 63.414,80.586 63.039,80.211 62.531,80 62,80 61.469,80 60.961,80.211 60.586,80.586 60.211,80.961 60,81.469 60,82 c 0,0.531 0.211,1.039 0.586,1.414 C 60.961,83.789 61.469,84 62,84 62.531,84 63.039,83.789 63.414,83.414 63.789,83.039 64,82.531 64,82 Z"
         style="fill:#c13441;fill-opacity:1;fill-rule:evenodd;stroke:none"
         id="path38" /><path
         d="M 68,58 C 68,57.469 67.789,56.961 67.414,56.586 67.039,56.211 66.531,56 66,56 65.469,56 64.961,56.211 64.586,56.586 64.211,56.961 64,57.469 64,58 c 0,0.531 0.211,1.039 0.586,1.414 C 64.961,59.789 65.469,60 66,60 66.531,60 67.039,59.789 67.414,59.414 67.789,59.039 68,58.531 68,58 Z"
         style="fill:#009a5f;fill-opacity:1;fill-rule:evenodd;stroke:none"
         id="path40" /><path
         d="M 71,36 C 71,35.469 70.789,34.961 70.414,34.586 70.039,34.211 69.531,34 69,34 68.469,34 67.961,34.211 67.586,34.586 67.211,34.961 67,35.469 67,36 c 0,0.531 0.211,1.039 0.586,1.414 C 67.961,37.789 68.469,38 69,38 69.531,38 70.039,37.789 70.414,37.414 70.789,37.039 71,36.531 71,36 Z"
         style="fill:#009a5f;fill-opacity:1;fill-rule:evenodd;stroke:none"
         id="path42" /><path
         d="M 71,36 C 71,35.469 70.789,34.961 70.414,34.586 70.039,34.211 69.531,34 69,34 68.469,34 67.961,34.211 67.586,34.586 67.211,34.961 67,35.469 67,36 c 0,0.531 0.211,1.039 0.586,1.414 C 67.961,37.789 68.469,38 69,38 69.531,38 70.039,37.789 70.414,37.414 70.789,37.039 71,36.531 71,36 Z"
         style="fill:#009a5f;fill-opacity:1;fill-rule:evenodd;stroke:none"
         id="path44" /><path
         d="M 71,36 C 71,35.469 70.789,34.961 70.414,34.586 70.039,34.211 69.531,34 69,34 68.469,34 67.961,34.211 67.586,34.586 67.211,34.961 67,35.469 67,36 c 0,0.531 0.211,1.039 0.586,1.414 C 67.961,37.789 68.469,38 69,38 69.531,38 70.039,37.789 70.414,37.414 70.789,37.039 71,36.531 71,36 Z"
         style="fill:#009a5f;fill-opacity:1;fill-rule:evenodd;stroke:none"
         id="path46" /><path
         d="M 71,36 C 71,35.469 70.789,34.961 70.414,34.586 70.039,34.211 69.531,34 69,34 68.469,34 67.961,34.211 67.586,34.586 67.211,34.961 67,35.469 67,36 c 0,0.531 0.211,1.039 0.586,1.414 C 67.961,37.789 68.469,38 69,38 69.531,38 70.039,37.789 70.414,37.414 70.789,37.039 71,36.531 71,36 Z"
         style="fill:#009a5f;fill-opacity:1;fill-rule:evenodd;stroke:none"
         id="path48" /><path
         d="M 72,36 C 72,35.469 71.789,34.961 71.414,34.586 71.039,34.211 70.531,34 70,34 69.469,34 68.961,34.211 68.586,34.586 68.211,34.961 68,35.469 68,36 c 0,0.531 0.211,1.039 0.586,1.414 C 68.961,37.789 69.469,38 70,38 70.531,38 71.039,37.789 71.414,37.414 71.789,37.039 72,36.531 72,36 Z"
         style="fill:#009a5f;fill-opacity:1;fill-rule:evenodd;stroke:none"
         id="path50" /><path
         d="M 72,36 C 72,35.469 71.789,34.961 71.414,34.586 71.039,34.211 70.531,34 70,34 69.469,34 68.961,34.211 68.586,34.586 68.211,34.961 68,35.469 68,36 c 0,0.531 0.211,1.039 0.586,1.414 C 68.961,37.789 69.469,38 70,38 70.531,38 71.039,37.789 71.414,37.414 71.789,37.039 72,36.531 72,36 Z"
         style="fill:#009a5f;fill-opacity:1;fill-rule:evenodd;stroke:none"
         id="path52" /><path
         d="M 73,36 C 73,35.469 72.789,34.961 72.414,34.586 72.039,34.211 71.531,34 71,34 70.469,34 69.961,34.211 69.586,34.586 69.211,34.961 69,35.469 69,36 c 0,0.531 0.211,1.039 0.586,1.414 C 69.961,37.789 70.469,38 71,38 71.531,38 72.039,37.789 72.414,37.414 72.789,37.039 73,36.531 73,36 Z"
         style="fill:#c13441;fill-opacity:1;fill-rule:evenodd;stroke:none"
         id="path54" /><path
         d="M 74,36 C 74,35.469 73.789,34.961 73.414,34.586 73.039,34.211 72.531,34 72,34 71.469,34 70.961,34.211 70.586,34.586 70.211,34.961 70,35.469 70,36 c 0,0.531 0.211,1.039 0.586,1.414 C 70.961,37.789 71.469,38 72,38 72.531,38 73.039,37.789 73.414,37.414 73.789,37.039 74,36.531 74,36 Z"
         style="fill:#c13441;fill-opacity:1;fill-rule:evenodd;stroke:none"
         id="path56" /><path
         d="M 77,36 C 77,35.469 76.789,34.961 76.414,34.586 76.039,34.211 75.531,34 75,34 74.469,34 73.961,34.211 73.586,34.586 73.211,34.961 73,35.469 73,36 c 0,0.531 0.211,1.039 0.586,1.414 C 73.961,37.789 74.469,38 75,38 75.531,38 76.039,37.789 76.414,37.414 76.789,37.039 77,36.531 77,36 Z"
         style="fill:#009a5f;fill-opacity:1;fill-rule:evenodd;stroke:none"
         id="path58" /><path
         d="M 81,36 C 81,35.469 80.789,34.961 80.414,34.586 80.039,34.211 79.531,34 79,34 78.469,34 77.961,34.211 77.586,34.586 77.211,34.961 77,35.469 77,36 c 0,0.531 0.211,1.039 0.586,1.414 C 77.961,37.789 78.469,38 79,38 79.531,38 80.039,37.789 80.414,37.414 80.789,37.039 81,36.531 81,36 Z"
         style="fill:#009a5f;fill-opacity:1;fill-rule:evenodd;stroke:none"
         id="path60" /><path
         d="M 84,37 C 84,36.469 83.789,35.961 83.414,35.586 83.039,35.211 82.531,35 82,35 81.469,35 80.961,35.211 80.586,35.586 80.211,35.961 80,36.469 80,37 c 0,0.531 0.211,1.039 0.586,1.414 C 80.961,38.789 81.469,39 82,39 82.531,39 83.039,38.789 83.414,38.414 83.789,38.039 84,37.531 84,37 Z"
         style="fill:#009a5f;fill-opacity:1;fill-rule:evenodd;stroke:none"
         id="path62" /><path
         d="M 88,37 C 88,36.469 87.789,35.961 87.414,35.586 87.039,35.211 86.531,35 86,35 85.469,35 84.961,35.211 84.586,35.586 84.211,35.961 84,36.469 84,37 c 0,0.531 0.211,1.039 0.586,1.414 C 84.961,38.789 85.469,39 86,39 86.531,39 87.039,38.789 87.414,38.414 87.789,38.039 88,37.531 88,37 Z"
         style="fill:#009a5f;fill-opacity:1;fill-rule:evenodd;stroke:none"
         id="path64" /><path
         d="M 91,37 C 91,36.469 90.789,35.961 90.414,35.586 90.039,35.211 89.531,35 89,35 88.469,35 87.961,35.211 87.586,35.586 87.211,35.961 87,36.469 87,37 c 0,0.531 0.211,1.039 0.586,1.414 C 87.961,38.789 88.469,39 89,39 89.531,39 90.039,38.789 90.414,38.414 90.789,38.039 91,37.531 91,37 Z"
         style="fill:#009a5f;fill-opacity:1;fill-rule:evenodd;stroke:none"
         id="path66" /><path
         d="M 94,37 C 94,36.469 93.789,35.961 93.414,35.586 93.039,35.211 92.531,35 92,35 91.469,35 90.961,35.211 90.586,35.586 90.211,35.961 90,36.469 90,37 c 0,0.531 0.211,1.039 0.586,1.414 C 90.961,38.789 91.469,39 92,39 92.531,39 93.039,38.789 93.414,38.414 93.789,38.039 94,37.531 94,37 Z"
         style="fill:#009a5f;fill-opacity:1;fill-rule:evenodd;stroke:none"
         id="path68" /><path
         d="M 98,38 C 98,37.469 97.789,36.961 97.414,36.586 97.039,36.211 96.531,36 96,36 95.469,36 94.961,36.211 94.586,36.586 94.211,36.961 94,37.469 94,38 c 0,0.531 0.211,1.039 0.586,1.414 C 94.961,39.789 95.469,40 96,40 96.531,40 97.039,39.789 97.414,39.414 97.789,39.039 98,38.531 98,38 Z"
         style="fill:#009a5f;fill-opacity:1;fill-rule:evenodd;stroke:none"
         id="path70" /><path
         d="m 101,38 c 0,-0.531 -0.211,-1.039 -0.586,-1.414 C 100.039,36.211 99.531,36 99,36 98.469,36 97.961,36.211 97.586,36.586 97.211,36.961 97,37.469 97,38 c 0,0.531 0.211,1.039 0.586,1.414 C 97.961,39.789 98.469,40 99,40 c 0.531,0 1.039,-0.211 1.414,-0.586 C 100.789,39.039 101,38.531 101,38 Z"
         style="fill:#009a5f;fill-opacity:1;fill-rule:evenodd;stroke:none"
         id="path72" /><path
         d="m 105,38 c 0,-0.531 -0.211,-1.039 -0.586,-1.414 C 104.039,36.211 103.531,36 103,36 c -0.531,0 -1.039,0.211 -1.414,0.586 C 101.211,36.961 101,37.469 101,38 c 0,0.531 0.211,1.039 0.586,1.414 0.375,0.375 0.883,0.586 1.414,0.586 0.531,0 1.039,-0.211 1.414,-0.586 C 104.789,39.039 105,38.531 105,38 Z"
         style="fill:#009a5f;fill-opacity:1;fill-rule:evenodd;stroke:none"
         id="path74" /><path
         d="m 108,39 c 0,-0.531 -0.211,-1.039 -0.586,-1.414 C 107.039,37.211 106.531,37 106,37 c -0.531,0 -1.039,0.211 -1.414,0.586 C 104.211,37.961 104,38.469 104,39 c 0,0.531 0.211,1.039 0.586,1.414 0.375,0.375 0.883,0.586 1.414,0.586 0.531,0 1.039,-0.211 1.414,-0.586 C 107.789,40.039 108,39.531 108,39 Z"
         style="fill:#009a5f;fill-opacity:1;fill-rule:evenodd;stroke:none"
         id="path76" /><path
         d="m 111,39 c 0,-0.531 -0.211,-1.039 -0.586,-1.414 C 110.039,37.211 109.531,37 109,37 c -0.531,0 -1.039,0.211 -1.414,0.586 C 107.211,37.961 107,38.469 107,39 c 0,0.531 0.211,1.039 0.586,1.414 0.375,0.375 0.883,0.586 1.414,0.586 0.531,0 1.039,-0.211 1.414,-0.586 C 110.789,40.039 111,39.531 111,39 Z"
         style="fill:#009a5f;fill-opacity:1;fill-rule:evenodd;stroke:none"
         id="path78" /><path
         d="m 115,41 c 0,-0.531 -0.211,-1.039 -0.586,-1.414 C 114.039,39.211 113.531,39 113,39 c -0.531,0 -1.039,0.211 -1.414,0.586 C 111.211,39.961 111,40.469 111,41 c 0,0.531 0.211,1.039 0.586,1.414 0.375,0.375 0.883,0.586 1.414,0.586 0.531,0 1.039,-0.211 1.414,-0.586 C 114.789,42.039 115,41.531 115,41 Z"
         style="fill:#009a5f;fill-opacity:1;fill-rule:evenodd;stroke:none"
         id="path80" /><path
         d="m 116,44 c 0,-0.531 -0.211,-1.039 -0.586,-1.414 C 115.039,42.211 114.531,42 114,42 c -0.531,0 -1.039,0.211 -1.414,0.586 C 112.211,42.961 112,43.469 112,44 c 0,0.531 0.211,1.039 0.586,1.414 0.375,0.375 0.883,0.586 1.414,0.586 0.531,0 1.039,-0.211 1.414,-0.586 C 115.789,45.039 116,44.531 116,44 Z"
         style="fill:#009a5f;fill-opacity:1;fill-rule:evenodd;stroke:none"
         id="path82" /><path
         d="m 117,45 c 0,-0.531 -0.211,-1.039 -0.586,-1.414 C 116.039,43.211 115.531,43 115,43 c -0.531,0 -1.039,0.211 -1.414,0.586 C 113.211,43.961 113,44.469 113,45 c 0,0.531 0.211,1.039 0.586,1.414 0.375,0.375 0.883,0.586 1.414,0.586 0.531,0 1.039,-0.211 1.414,-0.586 C 116.789,46.039 117,45.531 117,45 Z"
         style="fill:#009a5f;fill-opacity:1;fill-rule:evenodd;stroke:none"
         id="path84" /><path
         d="m 118,48 c 0,-0.531 -0.211,-1.039 -0.586,-1.414 C 117.039,46.211 116.531,46 116,46 c -0.531,0 -1.039,0.211 -1.414,0.586 C 114.211,46.961 114,47.469 114,48 c 0,0.531 0.211,1.039 0.586,1.414 0.375,0.375 0.883,0.586 1.414,0.586 0.531,0 1.039,-0.211 1.414,-0.586 C 117.789,49.039 118,48.531 118,48 Z"
         style="fill:#009a5f;fill-opacity:1;fill-rule:evenodd;stroke:none"
         id="path86" /><path
         d="m 119,53 c 0,-0.531 -0.211,-1.039 -0.586,-1.414 C 118.039,51.211 117.531,51 117,51 c -0.531,0 -1.039,0.211 -1.414,0.586 C 115.211,51.961 115,52.469 115,53 c 0,0.531 0.211,1.039 0.586,1.414 0.375,0.375 0.883,0.586 1.414,0.586 0.531,0 1.039,-0.211 1.414,-0.586 C 118.789,54.039 119,53.531 119,53 Z"
         style="fill:#009a5f;fill-opacity:1;fill-rule:evenodd;stroke:none"
         id="path88" /><path
         d="m 120,59 c 0,-0.531 -0.211,-1.039 -0.586,-1.414 C 119.039,57.211 118.531,57 118,57 c -0.531,0 -1.039,0.211 -1.414,0.586 C 116.211,57.961 116,58.469 116,59 c 0,0.531 0.211,1.039 0.586,1.414 0.375,0.375 0.883,0.586 1.414,0.586 0.531,0 1.039,-0.211 1.414,-0.586 C 119.789,60.039 120,59.531 120,59 Z"
         style="fill:#009a5f;fill-opacity:1;fill-rule:evenodd;stroke:none"
         id="path90" /><path
         d="m 122,71 c 0,-0.531 -0.211,-1.039 -0.586,-1.414 C 121.039,69.211 120.531,69 120,69 c -0.531,0 -1.039,0.211 -1.414,0.586 C 118.211,69.961 118,70.469 118,71 c 0,0.531 0.211,1.039 0.586,1.414 0.375,0.375 0.883,0.586 1.414,0.586 0.531,0 1.039,-0.211 1.414,-0.586 C 121.789,72.039 122,71.531 122,71 Z"
         style="fill:#009a5f;fill-opacity:1;fill-rule:evenodd;stroke:none"
         id="path92" /><path
         d="m 124,81 c 0,-0.531 -0.211,-1.039 -0.586,-1.414 C 123.039,79.211 122.531,79 122,79 c -0.531,0 -1.039,0.211 -1.414,0.586 C 120.211,79.961 120,80.469 120,81 c 0,0.531 0.211,1.039 0.586,1.414 0.375,0.375 0.883,0.586 1.414,0.586 0.531,0 1.039,-0.211 1.414,-0.586 C 123.789,82.039 124,81.531 124,81 Z"
         style="fill:#009a5f;fill-opacity:1;fill-rule:evenodd;stroke:none"
         id="path94" /><path
         d="m 127,102 c 0,-0.531 -0.211,-1.039 -0.586,-1.414 C 126.039,100.211 125.531,100 125,100 c -0.531,0 -1.039,0.211 -1.414,0.586 -0.375,0.375 -0.586,0.883 -0.586,1.414 0,0.531 0.211,1.039 0.586,1.414 0.375,0.375 0.883,0.586 1.414,0.586 0.531,0 1.039,-0.211 1.414,-0.586 C 126.789,103.039 127,102.531 127,102 Z"
         style="fill:#009a5f;fill-opacity:1;fill-rule:evenodd;stroke:none"
         id="path96" /><path
         d="m 130,125 c 0,-0.531 -0.211,-1.039 -0.586,-1.414 C 129.039,123.211 128.531,123 128,123 c -0.531,0 -1.039,0.211 -1.414,0.586 -0.375,0.375 -0.586,0.883 -0.586,1.414 0,0.531 0.211,1.039 0.586,1.414 0.375,0.375 0.883,0.586 1.414,0.586 0.531,0 1.039,-0.211 1.414,-0.586 C 129.789,126.039 130,125.531 130,125 Z"
         style="fill:#009a5f;fill-opacity:1;fill-rule:evenodd;stroke:none"
         id="path98" /><path
         d="m 134,149 c 0,-0.531 -0.211,-1.039 -0.586,-1.414 C 133.039,147.211 132.531,147 132,147 c -0.531,0 -1.039,0.211 -1.414,0.586 -0.375,0.375 -0.586,0.883 -0.586,1.414 0,0.531 0.211,1.039 0.586,1.414 0.375,0.375 0.883,0.586 1.414,0.586 0.531,0 1.039,-0.211 1.414,-0.586 C 133.789,150.039 134,149.531 134,149 Z"
         style="fill:#009a5f;fill-opacity:1;fill-rule:evenodd;stroke:none"
         id="path100" /><path
         d="m 137,173 c 0,-0.531 -0.211,-1.039 -0.586,-1.414 C 136.039,171.211 135.531,171 135,171 c -0.531,0 -1.039,0.211 -1.414,0.586 -0.375,0.375 -0.586,0.883 -0.586,1.414 0,0.531 0.211,1.039 0.586,1.414 0.375,0.375 0.883,0.586 1.414,0.586 0.531,0 1.039,-0.211 1.414,-0.586 C 136.789,174.039 137,173.531 137,173 Z"
         style="fill:#009a5f;fill-opacity:1;fill-rule:evenodd;stroke:none"
         id="path102" /><path
         d="m 140,176 c 0,-0.531 -0.211,-1.039 -0.586,-1.414 C 139.039,174.211 138.531,174 138,174 c -0.531,0 -1.039,0.211 -1.414,0.586 -0.375,0.375 -0.586,0.883 -0.586,1.414 0,0.531 0.211,1.039 0.586,1.414 0.375,0.375 0.883,0.586 1.414,0.586 0.531,0 1.039,-0.211 1.414,-0.586 C 139.789,177.039 140,176.531 140,176 Z"
         style="fill:#009a5f;fill-opacity:1;fill-rule:evenodd;stroke:none"
         id="path104" /><path
         d="m 140,176 c 0,-0.531 -0.211,-1.039 -0.586,-1.414 C 139.039,174.211 138.531,174 138,174 c -0.531,0 -1.039,0.211 -1.414,0.586 -0.375,0.375 -0.586,0.883 -0.586,1.414 0,0.531 0.211,1.039 0.586,1.414 0.375,0.375 0.883,0.586 1.414,0.586 0.531,0 1.039,-0.211 1.414,-0.586 C 139.789,177.039 140,176.531 140,176 Z"
         style="fill:#009a5f;fill-opacity:1;fill-rule:evenodd;stroke:none"
         id="path106" /><path
         d="m 140,176 c 0,-0.531 -0.211,-1.039 -0.586,-1.414 C 139.039,174.211 138.531,174 138,174 c -0.531,0 -1.039,0.211 -1.414,0.586 -0.375,0.375 -0.586,0.883 -0.586,1.414 0,0.531 0.211,1.039 0.586,1.414 0.375,0.375 0.883,0.586 1.414,0.586 0.531,0 1.039,-0.211 1.414,-0.586 C 139.789,177.039 140,176.531 140,176 Z"
         style="fill:#009a5f;fill-opacity:1;fill-rule:evenodd;stroke:none"
         id="path108" /><path
         d="m 140,176 c 0,-0.531 -0.211,-1.039 -0.586,-1.414 C 139.039,174.211 138.531,174 138,174 c -0.531,0 -1.039,0.211 -1.414,0.586 -0.375,0.375 -0.586,0.883 -0.586,1.414 0,0.531 0.211,1.039 0.586,1.414 0.375,0.375 0.883,0.586 1.414,0.586 0.531,0 1.039,-0.211 1.414,-0.586 C 139.789,177.039 140,176.531 140,176 Z"
         style="fill:#009a5f;fill-opacity:1;fill-rule:evenodd;stroke:none"
         id="path110" /><path
         d="m 141,176 c 0,-0.531 -0.211,-1.039 -0.586,-1.414 C 140.039,174.211 139.531,174 139,174 c -0.531,0 -1.039,0.211 -1.414,0.586 -0.375,0.375 -0.586,0.883 -0.586,1.414 0,0.531 0.211,1.039 0.586,1.414 0.375,0.375 0.883,0.586 1.414,0.586 0.531,0 1.039,-0.211 1.414,-0.586 C 140.789,177.039 141,176.531 141,176 Z"
         style="fill:#009a5f;fill-opacity:1;fill-rule:evenodd;stroke:none"
         id="path112" /><path
         d="m 141,176 c 0,-0.531 -0.211,-1.039 -0.586,-1.414 C 140.039,174.211 139.531,174 139,174 c -0.531,0 -1.039,0.211 -1.414,0.586 -0.375,0.375 -0.586,0.883 -0.586,1.414 0,0.531 0.211,1.039 0.586,1.414 0.375,0.375 0.883,0.586 1.414,0.586 0.531,0 1.039,-0.211 1.414,-0.586 C 140.789,177.039 141,176.531 141,176 Z"
         style="fill:#009a5f;fill-opacity:1;fill-rule:evenodd;stroke:none"
         id="path114" /><path
         d="m 142,176 c 0,-0.531 -0.211,-1.039 -0.586,-1.414 C 141.039,174.211 140.531,174 140,174 c -0.531,0 -1.039,0.211 -1.414,0.586 -0.375,0.375 -0.586,0.883 -0.586,1.414 0,0.531 0.211,1.039 0.586,1.414 0.375,0.375 0.883,0.586 1.414,0.586 0.531,0 1.039,-0.211 1.414,-0.586 C 141.789,177.039 142,176.531 142,176 Z"
         style="fill:#009a5f;fill-opacity:1;fill-rule:evenodd;stroke:none"
         id="path116" /><path
         d="m 143,176 c 0,-0.531 -0.211,-1.039 -0.586,-1.414 C 142.039,174.211 141.531,174 141,174 c -0.531,0 -1.039,0.211 -1.414,0.586 -0.375,0.375 -0.586,0.883 -0.586,1.414 0,0.531 0.211,1.039 0.586,1.414 0.375,0.375 0.883,0.586 1.414,0.586 0.531,0 1.039,-0.211 1.414,-0.586 C 142.789,177.039 143,176.531 143,176 Z"
         style="fill:#009a5f;fill-opacity:1;fill-rule:evenodd;stroke:none"
         id="path118" /><path
         d="m 146,176 c 0,-0.531 -0.211,-1.039 -0.586,-1.414 C 145.039,174.211 144.531,174 144,174 c -0.531,0 -1.039,0.211 -1.414,0.586 -0.375,0.375 -0.586,0.883 -0.586,1.414 0,0.531 0.211,1.039 0.586,1.414 0.375,0.375 0.883,0.586 1.414,0.586 0.531,0 1.039,-0.211 1.414,-0.586 C 145.789,177.039 146,176.531 146,176 Z"
         style="fill:#009a5f;fill-opacity:1;fill-rule:evenodd;stroke:none"
         id="path120" /><path
         d="m 150,176 c 0,-0.531 -0.211,-1.039 -0.586,-1.414 C 149.039,174.211 148.531,174 148,174 c -0.531,0 -1.039,0.211 -1.414,0.586 -0.375,0.375 -0.586,0.883 -0.586,1.414 0,0.531 0.211,1.039 0.586,1.414 0.375,0.375 0.883,0.586 1.414,0.586 0.531,0 1.039,-0.211 1.414,-0.586 C 149.789,177.039 150,176.531 150,176 Z"
         style="fill:#009a5f;fill-opacity:1;fill-rule:evenodd;stroke:none"
         id="path122" /><path
         d="m 153,175 c 0,-0.531 -0.211,-1.039 -0.586,-1.414 C 152.039,173.211 151.531,173 151,173 c -0.531,0 -1.039,0.211 -1.414,0.586 -0.375,0.375 -0.586,0.883 -0.586,1.414 0,0.531 0.211,1.039 0.586,1.414 0.375,0.375 0.883,0.586 1.414,0.586 0.531,0 1.039,-0.211 1.414,-0.586 C 152.789,176.039 153,175.531 153,175 Z"
         style="fill:#009a5f;fill-opacity:1;fill-rule:evenodd;stroke:none"
         id="path124" /><path
         d="m 157,175 c 0,-0.531 -0.211,-1.039 -0.586,-1.414 C 156.039,173.211 155.531,173 155,173 c -0.531,0 -1.039,0.211 -1.414,0.586 -0.375,0.375 -0.586,0.883 -0.586,1.414 0,0.531 0.211,1.039 0.586,1.414 0.375,0.375 0.883,0.586 1.414,0.586 0.531,0 1.039,-0.211 1.414,-0.586 C 156.789,176.039 157,175.531 157,175 Z"
         style="fill:#009a5f;fill-opacity:1;fill-rule:evenodd;stroke:none"
         id="path126" /><path
         d="m 160,175 c 0,-0.531 -0.211,-1.039 -0.586,-1.414 C 159.039,173.211 158.531,173 158,173 c -0.531,0 -1.039,0.211 -1.414,0.586 -0.375,0.375 -0.586,0.883 -0.586,1.414 0,0.531 0.211,1.039 0.586,1.414 0.375,0.375 0.883,0.586 1.414,0.586 0.531,0 1.039,-0.211 1.414,-0.586 C 159.789,176.039 160,175.531 160,175 Z"
         style="fill:#009a5f;fill-opacity:1;fill-rule:evenodd;stroke:none"
         id="path128" /><path
         d="m 163,175 c 0,-0.531 -0.211,-1.039 -0.586,-1.414 C 162.039,173.211 161.531,173 161,173 c -0.531,0 -1.039,0.211 -1.414,0.586 -0.375,0.375 -0.586,0.883 -0.586,1.414 0,0.531 0.211,1.039 0.586,1.414 0.375,0.375 0.883,0.586 1.414,0.586 0.531,0 1.039,-0.211 1.414,-0.586 C 162.789,176.039 163,175.531 163,175 Z"
         style="fill:#009a5f;fill-opacity:1;fill-rule:evenodd;stroke:none"
         id="path130" /><path
         d="m 167,174 c 0,-0.531 -0.211,-1.039 -0.586,-1.414 C 166.039,172.211 165.531,172 165,172 c -0.531,0 -1.039,0.211 -1.414,0.586 -0.375,0.375 -0.586,0.883 -0.586,1.414 0,0.531 0.211,1.039 0.586,1.414 0.375,0.375 0.883,0.586 1.414,0.586 0.531,0 1.039,-0.211 1.414,-0.586 C 166.789,175.039 167,174.531 167,174 Z"
         style="fill:#009a5f;fill-opacity:1;fill-rule:evenodd;stroke:none"
         id="path132" /><path
         d="m 170,174 c 0,-0.531 -0.211,-1.039 -0.586,-1.414 C 169.039,172.211 168.531,172 168,172 c -0.531,0 -1.039,0.211 -1.414,0.586 -0.375,0.375 -0.586,0.883 -0.586,1.414 0,0.531 0.211,1.039 0.586,1.414 0.375,0.375 0.883,0.586 1.414,0.586 0.531,0 1.039,-0.211 1.414,-0.586 C 169.789,175.039 170,174.531 170,174 Z"
         style="fill:#009a5f;fill-opacity:1;fill-rule:evenodd;stroke:none"
         id="path134" /><path
         d="m 174,174 c 0,-0.531 -0.211,-1.039 -0.586,-1.414 C 173.039,172.211 172.531,172 172,172 c -0.531,0 -1.039,0.211 -1.414,0.586 -0.375,0.375 -0.586,0.883 -0.586,1.414 0,0.531 0.211,1.039 0.586,1.414 0.375,0.375 0.883,0.586 1.414,0.586 0.531,0 1.039,-0.211 1.414,-0.586 C 173.789,175.039 174,174.531 174,174 Z"
         style="fill:#c13441;fill-opacity:1;fill-rule:evenodd;stroke:none"
         id="path136" /><path
         d="m 177,173 c 0,-0.531 -0.211,-1.039 -0.586,-1.414 C 176.039,171.211 175.531,171 175,171 c -0.531,0 -1.039,0.211 -1.414,0.586 -0.375,0.375 -0.586,0.883 -0.586,1.414 0,0.531 0.211,1.039 0.586,1.414 0.375,0.375 0.883,0.586 1.414,0.586 0.531,0 1.039,-0.211 1.414,-0.586 C 176.789,174.039 177,173.531 177,173 Z"
         style="fill:#009a5f;fill-opacity:1;fill-rule:evenodd;stroke:none"
         id="path138" /><path
         d="m 180,173 c 0,-0.531 -0.211,-1.039 -0.586,-1.414 C 179.039,171.211 178.531,171 178,171 c -0.531,0 -1.039,0.211 -1.414,0.586 -0.375,0.375 -0.586,0.883 -0.586,1.414 0,0.531 0.211,1.039 0.586,1.414 0.375,0.375 0.883,0.586 1.414,0.586 0.531,0 1.039,-0.211 1.414,-0.586 C 179.789,174.039 180,173.531 180,173 Z"
         style="fill:#009a5f;fill-opacity:1;fill-rule:evenodd;stroke:none"
         id="path140" /><path
         d="m 184,171 c 0,-0.531 -0.211,-1.039 -0.586,-1.414 C 183.039,169.211 182.531,169 182,169 c -0.531,0 -1.039,0.211 -1.414,0.586 -0.375,0.375 -0.586,0.883 -0.586,1.414 0,0.531 0.211,1.039 0.586,1.414 0.375,0.375 0.883,0.586 1.414,0.586 0.531,0 1.039,-0.211 1.414,-0.586 C 183.789,172.039 184,171.531 184,171 Z"
         style="fill:#009a5f;fill-opacity:1;fill-rule:evenodd;stroke:none"
         id="path142" /><path
         d="m 185,168 c 0,-0.531 -0.211,-1.039 -0.586,-1.414 C 184.039,166.211 183.531,166 183,166 c -0.531,0 -1.039,0.211 -1.414,0.586 -0.375,0.375 -0.586,0.883 -0.586,1.414 0,0.531 0.211,1.039 0.586,1.414 0.375,0.375 0.883,0.586 1.414,0.586 0.531,0 1.039,-0.211 1.414,-0.586 C 184.789,169.039 185,168.531 185,168 Z"
         style="fill:#009a5f;fill-opacity:1;fill-rule:evenodd;stroke:none"
         id="path144" /><path
         d="m 186,167 c 0,-0.531 -0.211,-1.039 -0.586,-1.414 C 185.039,165.211 184.531,165 184,165 c -0.531,0 -1.039,0.211 -1.414,0.586 -0.375,0.375 -0.586,0.883 -0.586,1.414 0,0.531 0.211,1.039 0.586,1.414 0.375,0.375 0.883,0.586 1.414,0.586 0.531,0 1.039,-0.211 1.414,-0.586 C 185.789,168.039 186,167.531 186,167 Z"
         style="fill:#009a5f;fill-opacity:1;fill-rule:evenodd;stroke:none"
         id="path146" /><path
         d="m 187,164 c 0,-0.531 -0.211,-1.039 -0.586,-1.414 C 186.039,162.211 185.531,162 185,162 c -0.531,0 -1.039,0.211 -1.414,0.586 -0.375,0.375 -0.586,0.883 -0.586,1.414 0,0.531 0.211,1.039 0.586,1.414 0.375,0.375 0.883,0.586 1.414,0.586 0.531,0 1.039,-0.211 1.414,-0.586 C 186.789,165.039 187,164.531 187,164 Z"
         style="fill:#009a5f;fill-opacity:1;fill-rule:evenodd;stroke:none"
         id="path148" /><path
         d="m 187,162 c 0,-0.531 -0.211,-1.039 -0.586,-1.414 C 186.039,160.211 185.531,160 185,160 c -0.531,0 -1.039,0.211 -1.414,0.586 -0.375,0.375 -0.586,0.883 -0.586,1.414 0,0.531 0.211,1.039 0.586,1.414 0.375,0.375 0.883,0.586 1.414,0.586 0.531,0 1.039,-0.211 1.414,-0.586 C 186.789,163.039 187,162.531 187,162 Z"
         style="fill:#009a5f;fill-opacity:1;fill-rule:evenodd;stroke:none"
         id="path150" /><path
         d="m 188,156 c 0,-0.531 -0.211,-1.039 -0.586,-1.414 C 187.039,154.211 186.531,154 186,154 c -0.531,0 -1.039,0.211 -1.414,0.586 -0.375,0.375 -0.586,0.883 -0.586,1.414 0,0.531 0.211,1.039 0.586,1.414 0.375,0.375 0.883,0.586 1.414,0.586 0.531,0 1.039,-0.211 1.414,-0.586 C 187.789,157.039 188,156.531 188,156 Z"
         style="fill:#009a5f;fill-opacity:1;fill-rule:evenodd;stroke:none"
         id="path152" /><path
         d="m 190,149 c 0,-0.531 -0.211,-1.039 -0.586,-1.414 C 189.039,147.211 188.531,147 188,147 c -0.531,0 -1.039,0.211 -1.414,0.586 -0.375,0.375 -0.586,0.883 -0.586,1.414 0,0.531 0.211,1.039 0.586,1.414 0.375,0.375 0.883,0.586 1.414,0.586 0.531,0 1.039,-0.211 1.414,-0.586 C 189.789,150.039 190,149.531 190,149 Z"
         style="fill:#009a5f;fill-opacity:1;fill-rule:evenodd;stroke:none"
         id="path154" /><path
         d="m 192,137 c 0,-0.531 -0.211,-1.039 -0.586,-1.414 C 191.039,135.211 190.531,135 190,135 c -0.531,0 -1.039,0.211 -1.414,0.586 -0.375,0.375 -0.586,0.883 -0.586,1.414 0,0.531 0.211,1.039 0.586,1.414 0.375,0.375 0.883,0.586 1.414,0.586 0.531,0 1.039,-0.211 1.414,-0.586 C 191.789,138.039 192,137.531 192,137 Z"
         style="fill:#009a5f;fill-opacity:1;fill-rule:evenodd;stroke:none"
         id="path156" /><path
         d="m 195,116 c 0,-0.531 -0.211,-1.039 -0.586,-1.414 C 194.039,114.211 193.531,114 193,114 c -0.531,0 -1.039,0.211 -1.414,0.586 -0.375,0.375 -0.586,0.883 -0.586,1.414 0,0.531 0.211,1.039 0.586,1.414 0.375,0.375 0.883,0.586 1.414,0.586 0.531,0 1.039,-0.211 1.414,-0.586 C 194.789,117.039 195,116.531 195,116 Z"
         style="fill:#009a5f;fill-opacity:1;fill-rule:evenodd;stroke:none"
         id="path158" /><path
         d="m 197,104 c 0,-0.531 -0.211,-1.039 -0.586,-1.414 C 196.039,102.211 195.531,102 195,102 c -0.531,0 -1.039,0.211 -1.414,0.586 -0.375,0.375 -0.586,0.883 -0.586,1.414 0,0.531 0.211,1.039 0.586,1.414 0.375,0.375 0.883,0.586 1.414,0.586 0.531,0 1.039,-0.211 1.414,-0.586 C 196.789,105.039 197,104.531 197,104 Z"
         style="fill:#009a5f;fill-opacity:1;fill-rule:evenodd;stroke:none"
         id="path160" /><path
         d="m 200,83 c 0,-0.531 -0.211,-1.039 -0.586,-1.414 C 199.039,81.211 198.531,81 198,81 c -0.531,0 -1.039,0.211 -1.414,0.586 C 196.211,81.961 196,82.469 196,83 c 0,0.531 0.211,1.039 0.586,1.414 0.375,0.375 0.883,0.586 1.414,0.586 0.531,0 1.039,-0.211 1.414,-0.586 C 199.789,84.039 200,83.531 200,83 Z"
         style="fill:#009a5f;fill-opacity:1;fill-rule:evenodd;stroke:none"
         id="path162" /><path
         d="m 203,59 c 0,-0.531 -0.211,-1.039 -0.586,-1.414 C 202.039,57.211 201.531,57 201,57 c -0.531,0 -1.039,0.211 -1.414,0.586 C 199.211,57.961 199,58.469 199,59 c 0,0.531 0.211,1.039 0.586,1.414 0.375,0.375 0.883,0.586 1.414,0.586 0.531,0 1.039,-0.211 1.414,-0.586 C 202.789,60.039 203,59.531 203,59 Z"
         style="fill:#009a5f;fill-opacity:1;fill-rule:evenodd;stroke:none"
         id="path164" /><path
         d="m 207,35 c 0,-0.531 -0.211,-1.039 -0.586,-1.414 C 206.039,33.211 205.531,33 205,33 c -0.531,0 -1.039,0.211 -1.414,0.586 C 203.211,33.961 203,34.469 203,35 c 0,0.531 0.211,1.039 0.586,1.414 0.375,0.375 0.883,0.586 1.414,0.586 0.531,0 1.039,-0.211 1.414,-0.586 C 206.789,36.039 207,35.531 207,35 Z"
         style="fill:#009a5f;fill-opacity:1;fill-rule:evenodd;stroke:none"
         id="path166" /><path
         d="m 207,35 c 0,-0.531 -0.211,-1.039 -0.586,-1.414 C 206.039,33.211 205.531,33 205,33 c -0.531,0 -1.039,0.211 -1.414,0.586 C 203.211,33.961 203,34.469 203,35 c 0,0.531 0.211,1.039 0.586,1.414 0.375,0.375 0.883,0.586 1.414,0.586 0.531,0 1.039,-0.211 1.414,-0.586 C 206.789,36.039 207,35.531 207,35 Z"
         style="fill:#009a5f;fill-opacity:1;fill-rule:evenodd;stroke:none"
         id="path168" /><path
         d="m 207,35 c 0,-0.531 -0.211,-1.039 -0.586,-1.414 C 206.039,33.211 205.531,33 205,33 c -0.531,0 -1.039,0.211 -1.414,0.586 C 203.211,33.961 203,34.469 203,35 c 0,0.531 0.211,1.039 0.586,1.414 0.375,0.375 0.883,0.586 1.414,0.586 0.531,0 1.039,-0.211 1.414,-0.586 C 206.789,36.039 207,35.531 207,35 Z"
         style="fill:#009a5f;fill-opacity:1;fill-rule:evenodd;stroke:none"
         id="path170" /><path
         d="m 207,35 c 0,-0.531 -0.211,-1.039 -0.586,-1.414 C 206.039,33.211 205.531,33 205,33 c -0.531,0 -1.039,0.211 -1.414,0.586 C 203.211,33.961 203,34.469 203,35 c 0,0.531 0.211,1.039 0.586,1.414 0.375,0.375 0.883,0.586 1.414,0.586 0.531,0 1.039,-0.211 1.414,-0.586 C 206.789,36.039 207,35.531 207,35 Z"
         style="fill:#009a5f;fill-opacity:1;fill-rule:evenodd;stroke:none"
         id="path172" /><path
         d="m 207,35 c 0,-0.531 -0.211,-1.039 -0.586,-1.414 C 206.039,33.211 205.531,33 205,33 c -0.531,0 -1.039,0.211 -1.414,0.586 C 203.211,33.961 203,34.469 203,35 c 0,0.531 0.211,1.039 0.586,1.414 0.375,0.375 0.883,0.586 1.414,0.586 0.531,0 1.039,-0.211 1.414,-0.586 C 206.789,36.039 207,35.531 207,35 Z"
         style="fill:#009a5f;fill-opacity:1;fill-rule:evenodd;stroke:none"
         id="path174" /><path
         d="m 207,35 c 0,-0.531 -0.211,-1.039 -0.586,-1.414 C 206.039,33.211 205.531,33 205,33 c -0.531,0 -1.039,0.211 -1.414,0.586 C 203.211,33.961 203,34.469 203,35 c 0,0.531 0.211,1.039 0.586,1.414 0.375,0.375 0.883,0.586 1.414,0.586 0.531,0 1.039,-0.211 1.414,-0.586 C 206.789,36.039 207,35.531 207,35 Z"
         style="fill:#009a5f;fill-opacity:1;fill-rule:evenodd;stroke:none"
         id="path176" /><path
         d="m 208,35 c 0,-0.531 -0.211,-1.039 -0.586,-1.414 C 207.039,33.211 206.531,33 206,33 c -0.531,0 -1.039,0.211 -1.414,0.586 C 204.211,33.961 204,34.469 204,35 c 0,0.531 0.211,1.039 0.586,1.414 0.375,0.375 0.883,0.586 1.414,0.586 0.531,0 1.039,-0.211 1.414,-0.586 C 207.789,36.039 208,35.531 208,35 Z"
         style="fill:#009a5f;fill-opacity:1;fill-rule:evenodd;stroke:none"
         id="path178" /><path
         d="m 210,35 c 0,-0.531 -0.211,-1.039 -0.586,-1.414 C 209.039,33.211 208.531,33 208,33 c -0.531,0 -1.039,0.211 -1.414,0.586 C 206.211,33.961 206,34.469 206,35 c 0,0.531 0.211,1.039 0.586,1.414 0.375,0.375 0.883,0.586 1.414,0.586 0.531,0 1.039,-0.211 1.414,-0.586 C 209.789,36.039 210,35.531 210,35 Z"
         style="fill:#009a5f;fill-opacity:1;fill-rule:evenodd;stroke:none"
         id="path180" /><path
         d="m 213,36 c 0,-0.531 -0.211,-1.039 -0.586,-1.414 C 212.039,34.211 211.531,34 211,34 c -0.531,0 -1.039,0.211 -1.414,0.586 C 209.211,34.961 209,35.469 209,36 c 0,0.531 0.211,1.039 0.586,1.414 0.375,0.375 0.883,0.586 1.414,0.586 0.531,0 1.039,-0.211 1.414,-0.586 C 212.789,37.039 213,36.531 213,36 Z"
         style="fill:#009a5f;fill-opacity:1;fill-rule:evenodd;stroke:none"
         id="path182" /><path
         d="m 216,36 c 0,-0.531 -0.211,-1.039 -0.586,-1.414 C 215.039,34.211 214.531,34 214,34 c -0.531,0 -1.039,0.211 -1.414,0.586 C 212.211,34.961 212,35.469 212,36 c 0,0.531 0.211,1.039 0.586,1.414 0.375,0.375 0.883,0.586 1.414,0.586 0.531,0 1.039,-0.211 1.414,-0.586 C 215.789,37.039 216,36.531 216,36 Z"
         style="fill:#009a5f;fill-opacity:1;fill-rule:evenodd;stroke:none"
         id="path184" /><path
         d="m 220,36 c 0,-0.531 -0.211,-1.039 -0.586,-1.414 C 219.039,34.211 218.531,34 218,34 c -0.531,0 -1.039,0.211 -1.414,0.586 C 216.211,34.961 216,35.469 216,36 c 0,0.531 0.211,1.039 0.586,1.414 0.375,0.375 0.883,0.586 1.414,0.586 0.531,0 1.039,-0.211 1.414,-0.586 C 219.789,37.039 220,36.531 220,36 Z"
         style="fill:#009a5f;fill-opacity:1;fill-rule:evenodd;stroke:none"
         id="path186" /><path
         d="m 223,36 c 0,-0.531 -0.211,-1.039 -0.586,-1.414 C 222.039,34.211 221.531,34 221,34 c -0.531,0 -1.039,0.211 -1.414,0.586 C 219.211,34.961 219,35.469 219,36 c 0,0.531 0.211,1.039 0.586,1.414 0.375,0.375 0.883,0.586 1.414,0.586 0.531,0 1.039,-0.211 1.414,-0.586 C 222.789,37.039 223,36.531 223,36 Z"
         style="fill:#009a5f;fill-opacity:1;fill-rule:evenodd;stroke:none"
         id="path188" /><path
         d="m 226,37 c 0,-0.531 -0.211,-1.039 -0.586,-1.414 C 225.039,35.211 224.531,35 224,35 c -0.531,0 -1.039,0.211 -1.414,0.586 C 222.211,35.961 222,36.469 222,37 c 0,0.531 0.211,1.039 0.586,1.414 0.375,0.375 0.883,0.586 1.414,0.586 0.531,0 1.039,-0.211 1.414,-0.586 C 225.789,38.039 226,37.531 226,37 Z"
         style="fill:#009a5f;fill-opacity:1;fill-rule:evenodd;stroke:none"
         id="path190" /><path
         d="m 230,37 c 0,-0.531 -0.211,-1.039 -0.586,-1.414 C 229.039,35.211 228.531,35 228,35 c -0.531,0 -1.039,0.211 -1.414,0.586 C 226.211,35.961 226,36.469 226,37 c 0,0.531 0.211,1.039 0.586,1.414 0.375,0.375 0.883,0.586 1.414,0.586 0.531,0 1.039,-0.211 1.414,-0.586 C 229.789,38.039 230,37.531 230,37 Z"
         style="fill:#009a5f;fill-opacity:1;fill-rule:evenodd;stroke:none"
         id="path192" /><path
         d="m 233,37 c 0,-0.531 -0.211,-1.039 -0.586,-1.414 C 232.039,35.211 231.531,35 231,35 c -0.531,0 -1.039,0.211 -1.414,0.586 C 229.211,35.961 229,36.469 229,37 c 0,0.531 0.211,1.039 0.586,1.414 0.375,0.375 0.883,0.586 1.414,0.586 0.531,0 1.039,-0.211 1.414,-0.586 C 232.789,38.039 233,37.531 233,37 Z"
         style="fill:#009a5f;fill-opacity:1;fill-rule:evenodd;stroke:none"
         id="path194" /><path
         d="m 236,37 c 0,-0.531 -0.211,-1.039 -0.586,-1.414 C 235.039,35.211 234.531,35 234,35 c -0.531,0 -1.039,0.211 -1.414,0.586 C 232.211,35.961 232,36.469 232,37 c 0,0.531 0.211,1.039 0.586,1.414 0.375,0.375 0.883,0.586 1.414,0.586 0.531,0 1.039,-0.211 1.414,-0.586 C 235.789,38.039 236,37.531 236,37 Z"
         style="fill:#009a5f;fill-opacity:1;fill-rule:evenodd;stroke:none"
         id="path196" /><path
         d="m 240,38 c 0,-0.531 -0.211,-1.039 -0.586,-1.414 C 239.039,36.211 238.531,36 238,36 c -0.531,0 -1.039,0.211 -1.414,0.586 C 236.211,36.961 236,37.469 236,38 c 0,0.531 0.211,1.039 0.586,1.414 0.375,0.375 0.883,0.586 1.414,0.586 0.531,0 1.039,-0.211 1.414,-0.586 C 239.789,39.039 240,38.531 240,38 Z"
         style="fill:#009a5f;fill-opacity:1;fill-rule:evenodd;stroke:none"
         id="path198" /><path
         d="m 243,38 c 0,-0.531 -0.211,-1.039 -0.586,-1.414 C 242.039,36.211 241.531,36 241,36 c -0.531,0 -1.039,0.211 -1.414,0.586 C 239.211,36.961 239,37.469 239,38 c 0,0.531 0.211,1.039 0.586,1.414 0.375,0.375 0.883,0.586 1.414,0.586 0.531,0 1.039,-0.211 1.414,-0.586 C 242.789,39.039 243,38.531 243,38 Z"
         style="fill:#c13441;fill-opacity:1;fill-rule:evenodd;stroke:none"
         id="path200" /><path
         d="m 247,39 c 0,-0.531 -0.211,-1.039 -0.586,-1.414 C 246.039,37.211 245.531,37 245,37 c -0.531,0 -1.039,0.211 -1.414,0.586 C 243.211,37.961 243,38.469 243,39 c 0,0.531 0.211,1.039 0.586,1.414 0.375,0.375 0.883,0.586 1.414,0.586 0.531,0 1.039,-0.211 1.414,-0.586 C 246.789,40.039 247,39.531 247,39 Z"
         style="fill:#009a5f;fill-opacity:1;fill-rule:evenodd;stroke:none"
         id="path202" /><path
         d="m 250,40 c 0,-0.531 -0.211,-1.039 -0.586,-1.414 C 249.039,38.211 248.531,38 248,38 c -0.531,0 -1.039,0.211 -1.414,0.586 C 246.211,38.961 246,39.469 246,40 c 0,0.531 0.211,1.039 0.586,1.414 0.375,0.375 0.883,0.586 1.414,0.586 0.531,0 1.039,-0.211 1.414,-0.586 C 249.789,41.039 250,40.531 250,40 Z"
         style="fill:#009a5f;fill-opacity:1;fill-rule:evenodd;stroke:none"
         id="path204" /><path
         d="m 252,43 c 0,-0.531 -0.211,-1.039 -0.586,-1.414 C 251.039,41.211 250.531,41 250,41 c -0.531,0 -1.039,0.211 -1.414,0.586 C 248.211,41.961 248,42.469 248,43 c 0,0.531 0.211,1.039 0.586,1.414 0.375,0.375 0.883,0.586 1.414,0.586 0.531,0 1.039,-0.211 1.414,-0.586 C 251.789,44.039 252,43.531 252,43 Z"
         style="fill:#009a5f;fill-opacity:1;fill-rule:evenodd;stroke:none"
         id="path206" /><path
         d="m 252,45 c 0,-0.531 -0.211,-1.039 -0.586,-1.414 C 251.039,43.211 250.531,43 250,43 c -0.531,0 -1.039,0.211 -1.414,0.586 C 248.211,43.961 248,44.469 248,45 c 0,0.531 0.211,1.039 0.586,1.414 0.375,0.375 0.883,0.586 1.414,0.586 0.531,0 1.039,-0.211 1.414,-0.586 C 251.789,46.039 252,45.531 252,45 Z"
         style="fill:#009a5f;fill-opacity:1;fill-rule:evenodd;stroke:none"
         id="path208" /><path
         d="m 253,47 c 0,-0.531 -0.211,-1.039 -0.586,-1.414 C 252.039,45.211 251.531,45 251,45 c -0.531,0 -1.039,0.211 -1.414,0.586 C 249.211,45.961 249,46.469 249,47 c 0,0.531 0.211,1.039 0.586,1.414 0.375,0.375 0.883,0.586 1.414,0.586 0.531,0 1.039,-0.211 1.414,-0.586 C 252.789,48.039 253,47.531 253,47 Z"
         style="fill:#009a5f;fill-opacity:1;fill-rule:evenodd;stroke:none"
         id="path210" /><path
         d="m 253,50 c 0,-0.531 -0.211,-1.039 -0.586,-1.414 C 252.039,48.211 251.531,48 251,48 c -0.531,0 -1.039,0.211 -1.414,0.586 C 249.211,48.961 249,49.469 249,50 c 0,0.531 0.211,1.039 0.586,1.414 0.375,0.375 0.883,0.586 1.414,0.586 0.531,0 1.039,-0.211 1.414,-0.586 C 252.789,51.039 253,50.531 253,50 Z"
         style="fill:#009a5f;fill-opacity:1;fill-rule:evenodd;stroke:none"
         id="path212" /><path
         d="m 255,55 c 0,-0.531 -0.211,-1.039 -0.586,-1.414 C 254.039,53.211 253.531,53 253,53 c -0.531,0 -1.039,0.211 -1.414,0.586 C 251.211,53.961 251,54.469 251,55 c 0,0.531 0.211,1.039 0.586,1.414 0.375,0.375 0.883,0.586 1.414,0.586 0.531,0 1.039,-0.211 1.414,-0.586 C 254.789,56.039 255,55.531 255,55 Z"
         style="fill:#009a5f;fill-opacity:1;fill-rule:evenodd;stroke:none"
         id="path214" /><path
         d="m 256,61 c 0,-0.531 -0.211,-1.039 -0.586,-1.414 C 255.039,59.211 254.531,59 254,59 c -0.531,0 -1.039,0.211 -1.414,0.586 C 252.211,59.961 252,60.469 252,61 c 0,0.531 0.211,1.039 0.586,1.414 0.375,0.375 0.883,0.586 1.414,0.586 0.531,0 1.039,-0.211 1.414,-0.586 C 255.789,62.039 256,61.531 256,61 Z"
         style="fill:#009a5f;fill-opacity:1;fill-rule:evenodd;stroke:none"
         id="path216" /><path
         d="m 258,72 c 0,-0.531 -0.211,-1.039 -0.586,-1.414 C 257.039,70.211 256.531,70 256,70 c -0.531,0 -1.039,0.211 -1.414,0.586 C 254.211,70.961 254,71.469 254,72 c 0,0.531 0.211,1.039 0.586,1.414 0.375,0.375 0.883,0.586 1.414,0.586 0.531,0 1.039,-0.211 1.414,-0.586 C 257.789,73.039 258,72.531 258,72 Z"
         style="fill:#009a5f;fill-opacity:1;fill-rule:evenodd;stroke:none"
         id="path218" /><path
         d="m 261,94 c 0,-0.531 -0.211,-1.039 -0.586,-1.414 C 260.039,92.211 259.531,92 259,92 c -0.531,0 -1.039,0.211 -1.414,0.586 C 257.211,92.961 257,93.469 257,94 c 0,0.531 0.211,1.039 0.586,1.414 0.375,0.375 0.883,0.586 1.414,0.586 0.531,0 1.039,-0.211 1.414,-0.586 C 260.789,95.039 261,94.531 261,94 Z"
         style="fill:#009a5f;fill-opacity:1;fill-rule:evenodd;stroke:none"
         id="path220" /><path
         d="m 264,116 c 0,-0.531 -0.211,-1.039 -0.586,-1.414 C 263.039,114.211 262.531,114 262,114 c -0.531,0 -1.039,0.211 -1.414,0.586 -0.375,0.375 -0.586,0.883 -0.586,1.414 0,0.531 0.211,1.039 0.586,1.414 0.375,0.375 0.883,0.586 1.414,0.586 0.531,0 1.039,-0.211 1.414,-0.586 C 263.789,117.039 264,116.531 264,116 Z"
         style="fill:#009a5f;fill-opacity:1;fill-rule:evenodd;stroke:none"
         id="path222" /><path
         d="m 268,140 c 0,-0.531 -0.211,-1.039 -0.586,-1.414 C 267.039,138.211 266.531,138 266,138 c -0.531,0 -1.039,0.211 -1.414,0.586 -0.375,0.375 -0.586,0.883 -0.586,1.414 0,0.531 0.211,1.039 0.586,1.414 0.375,0.375 0.883,0.586 1.414,0.586 0.531,0 1.039,-0.211 1.414,-0.586 C 267.789,141.039 268,140.531 268,140 Z"
         style="fill:#009a5f;fill-opacity:1;fill-rule:evenodd;stroke:none"
         id="path224" /><path
         d="m 271,164 c 0,-0.531 -0.211,-1.039 -0.586,-1.414 C 270.039,162.211 269.531,162 269,162 c -0.531,0 -1.039,0.211 -1.414,0.586 -0.375,0.375 -0.586,0.883 -0.586,1.414 0,0.531 0.211,1.039 0.586,1.414 0.375,0.375 0.883,0.586 1.414,0.586 0.531,0 1.039,-0.211 1.414,-0.586 C 270.789,165.039 271,164.531 271,164 Z"
         style="fill:#009a5f;fill-opacity:1;fill-rule:evenodd;stroke:none"
         id="path226" /><path
         d="m 274,185 c 0,-0.531 -0.211,-1.039 -0.586,-1.414 C 273.039,183.211 272.531,183 272,183 c -0.531,0 -1.039,0.211 -1.414,0.586 -0.375,0.375 -0.586,0.883 -0.586,1.414 0,0.531 0.211,1.039 0.586,1.414 0.375,0.375 0.883,0.586 1.414,0.586 0.531,0 1.039,-0.211 1.414,-0.586 C 273.789,186.039 274,185.531 274,185 Z"
         style="fill:#009a5f;fill-opacity:1;fill-rule:evenodd;stroke:none"
         id="path228" /><path
         d="m 274,185 c 0,-0.531 -0.211,-1.039 -0.586,-1.414 C 273.039,183.211 272.531,183 272,183 c -0.531,0 -1.039,0.211 -1.414,0.586 -0.375,0.375 -0.586,0.883 -0.586,1.414 0,0.531 0.211,1.039 0.586,1.414 0.375,0.375 0.883,0.586 1.414,0.586 0.531,0 1.039,-0.211 1.414,-0.586 C 273.789,186.039 274,185.531 274,185 Z"
         style="fill:#009a5f;fill-opacity:1;fill-rule:evenodd;stroke:none"
         id="path230" /><path
         d="m 275,185 c 0,-0.531 -0.211,-1.039 -0.586,-1.414 C 274.039,183.211 273.531,183 273,183 c -0.531,0 -1.039,0.211 -1.414,0.586 -0.375,0.375 -0.586,0.883 -0.586,1.414 0,0.531 0.211,1.039 0.586,1.414 0.375,0.375 0.883,0.586 1.414,0.586 0.531,0 1.039,-0.211 1.414,-0.586 C 274.789,186.039 275,185.531 275,185 Z"
         style="fill:#009a5f;fill-opacity:1;fill-rule:evenodd;stroke:none"
         id="path232" /><path
         d="m 275,185 c 0,-0.531 -0.211,-1.039 -0.586,-1.414 C 274.039,183.211 273.531,183 273,183 c -0.531,0 -1.039,0.211 -1.414,0.586 -0.375,0.375 -0.586,0.883 -0.586,1.414 0,0.531 0.211,1.039 0.586,1.414 0.375,0.375 0.883,0.586 1.414,0.586 0.531,0 1.039,-0.211 1.414,-0.586 C 274.789,186.039 275,185.531 275,185 Z"
         style="fill:#009a5f;fill-opacity:1;fill-rule:evenodd;stroke:none"
         id="path234" /><path
         d="m 275,185 c 0,-0.531 -0.211,-1.039 -0.586,-1.414 C 274.039,183.211 273.531,183 273,183 c -0.531,0 -1.039,0.211 -1.414,0.586 -0.375,0.375 -0.586,0.883 -0.586,1.414 0,0.531 0.211,1.039 0.586,1.414 0.375,0.375 0.883,0.586 1.414,0.586 0.531,0 1.039,-0.211 1.414,-0.586 C 274.789,186.039 275,185.531 275,185 Z"
         style="fill:#009a5f;fill-opacity:1;fill-rule:evenodd;stroke:none"
         id="path236" /><path
         d="m 275,185 c 0,-0.531 -0.211,-1.039 -0.586,-1.414 C 274.039,183.211 273.531,183 273,183 c -0.531,0 -1.039,0.211 -1.414,0.586 -0.375,0.375 -0.586,0.883 -0.586,1.414 0,0.531 0.211,1.039 0.586,1.414 0.375,0.375 0.883,0.586 1.414,0.586 0.531,0 1.039,-0.211 1.414,-0.586 C 274.789,186.039 275,185.531 275,185 Z"
         style="fill:#009a5f;fill-opacity:1;fill-rule:evenodd;stroke:none"
         id="path238" /><path
         d="m 276,185 c 0,-0.531 -0.211,-1.039 -0.586,-1.414 C 275.039,183.211 274.531,183 274,183 c -0.531,0 -1.039,0.211 -1.414,0.586 -0.375,0.375 -0.586,0.883 -0.586,1.414 0,0.531 0.211,1.039 0.586,1.414 0.375,0.375 0.883,0.586 1.414,0.586 0.531,0 1.039,-0.211 1.414,-0.586 C 275.789,186.039 276,185.531 276,185 Z"
         style="fill:#009a5f;fill-opacity:1;fill-rule:evenodd;stroke:none"
         id="path240" /><path
         d="m 278,185 c 0,-0.531 -0.211,-1.039 -0.586,-1.414 C 277.039,183.211 276.531,183 276,183 c -0.531,0 -1.039,0.211 -1.414,0.586 -0.375,0.375 -0.586,0.883 -0.586,1.414 0,0.531 0.211,1.039 0.586,1.414 0.375,0.375 0.883,0.586 1.414,0.586 0.531,0 1.039,-0.211 1.414,-0.586 C 277.789,186.039 278,185.531 278,185 Z"
         style="fill:#009a5f;fill-opacity:1;fill-rule:evenodd;stroke:none"
         id="path242" /><path
         d="m 281,185 c 0,-0.531 -0.211,-1.039 -0.586,-1.414 C 280.039,183.211 279.531,183 279,183 c -0.531,0 -1.039,0.211 -1.414,0.586 -0.375,0.375 -0.586,0.883 -0.586,1.414 0,0.531 0.211,1.039 0.586,1.414 0.375,0.375 0.883,0.586 1.414,0.586 0.531,0 1.039,-0.211 1.414,-0.586 C 280.789,186.039 281,185.531 281,185 Z"
         style="fill:#009a5f;fill-opacity:1;fill-rule:evenodd;stroke:none"
         id="path244" /><path
         d="m 284,185 c 0,-0.531 -0.211,-1.039 -0.586,-1.414 C 283.039,183.211 282.531,183 282,183 c -0.531,0 -1.039,0.211 -1.414,0.586 -0.375,0.375 -0.586,0.883 -0.586,1.414 0,0.531 0.211,1.039 0.586,1.414 0.375,0.375 0.883,0.586 1.414,0.586 0.531,0 1.039,-0.211 1.414,-0.586 C 283.789,186.039 284,185.531 284,185 Z"
         style="fill:#009a5f;fill-opacity:1;fill-rule:evenodd;stroke:none"
         id="path246" /><path
         d="m 287,184 c 0,-0.531 -0.211,-1.039 -0.586,-1.414 C 286.039,182.211 285.531,182 285,182 c -0.531,0 -1.039,0.211 -1.414,0.586 -0.375,0.375 -0.586,0.883 -0.586,1.414 0,0.531 0.211,1.039 0.586,1.414 0.375,0.375 0.883,0.586 1.414,0.586 0.531,0 1.039,-0.211 1.414,-0.586 C 286.789,185.039 287,184.531 287,184 Z"
         style="fill:#009a5f;fill-opacity:1;fill-rule:evenodd;stroke:none"
         id="path248" /><path
         d="m 291,184 c 0,-0.531 -0.211,-1.039 -0.586,-1.414 C 290.039,182.211 289.531,182 289,182 c -0.531,0 -1.039,0.211 -1.414,0.586 -0.375,0.375 -0.586,0.883 -0.586,1.414 0,0.531 0.211,1.039 0.586,1.414 0.375,0.375 0.883,0.586 1.414,0.586 0.531,0 1.039,-0.211 1.414,-0.586 C 290.789,185.039 291,184.531 291,184 Z"
         style="fill:#009a5f;fill-opacity:1;fill-rule:evenodd;stroke:none"
         id="path250" /><path
         d="m 294,184 c 0,-0.531 -0.211,-1.039 -0.586,-1.414 C 293.039,182.211 292.531,182 292,182 c -0.531,0 -1.039,0.211 -1.414,0.586 -0.375,0.375 -0.586,0.883 -0.586,1.414 0,0.531 0.211,1.039 0.586,1.414 0.375,0.375 0.883,0.586 1.414,0.586 0.531,0 1.039,-0.211 1.414,-0.586 C 293.789,185.039 294,184.531 294,184 Z"
         style="fill:#009a5f;fill-opacity:1;fill-rule:evenodd;stroke:none"
         id="path252" /><path
         d="m 298,184 c 0,-0.531 -0.211,-1.039 -0.586,-1.414 C 297.039,182.211 296.531,182 296,182 c -0.531,0 -1.039,0.211 -1.414,0.586 -0.375,0.375 -0.586,0.883 -0.586,1.414 0,0.531 0.211,1.039 0.586,1.414 0.375,0.375 0.883,0.586 1.414,0.586 0.531,0 1.039,-0.211 1.414,-0.586 C 297.789,185.039 298,184.531 298,184 Z"
         style="fill:#009a5f;fill-opacity:1;fill-rule:evenodd;stroke:none"
         id="path254" /><path
         d="m 301,183 c 0,-0.531 -0.211,-1.039 -0.586,-1.414 C 300.039,181.211 299.531,181 299,181 c -0.531,0 -1.039,0.211 -1.414,0.586 -0.375,0.375 -0.586,0.883 -0.586,1.414 0,0.531 0.211,1.039 0.586,1.414 0.375,0.375 0.883,0.586 1.414,0.586 0.531,0 1.039,-0.211 1.414,-0.586 C 300.789,184.039 301,183.531 301,183 Z"
         style="fill:#009a5f;fill-opacity:1;fill-rule:evenodd;stroke:none"
         id="path256" /><path
         d="m 304,183 c 0,-0.531 -0.211,-1.039 -0.586,-1.414 C 303.039,181.211 302.531,181 302,181 c -0.531,0 -1.039,0.211 -1.414,0.586 -0.375,0.375 -0.586,0.883 -0.586,1.414 0,0.531 0.211,1.039 0.586,1.414 0.375,0.375 0.883,0.586 1.414,0.586 0.531,0 1.039,-0.211 1.414,-0.586 C 303.789,184.039 304,183.531 304,183 Z"
         style="fill:#009a5f;fill-opacity:1;fill-rule:evenodd;stroke:none"
         id="path258" /><path
         d="m 308,183 c 0,-0.531 -0.211,-1.039 -0.586,-1.414 C 307.039,181.211 306.531,181 306,181 c -0.531,0 -1.039,0.211 -1.414,0.586 -0.375,0.375 -0.586,0.883 -0.586,1.414 0,0.531 0.211,1.039 0.586,1.414 0.375,0.375 0.883,0.586 1.414,0.586 0.531,0 1.039,-0.211 1.414,-0.586 C 307.789,184.039 308,183.531 308,183 Z"
         style="fill:#009a5f;fill-opacity:1;fill-rule:evenodd;stroke:none"
         id="path260" /><path
         d="m 308,183 c 0,-0.531 -0.211,-1.039 -0.586,-1.414 C 307.039,181.211 306.531,181 306,181 c -0.531,0 -1.039,0.211 -1.414,0.586 -0.375,0.375 -0.586,0.883 -0.586,1.414 0,0.531 0.211,1.039 0.586,1.414 0.375,0.375 0.883,0.586 1.414,0.586 0.531,0 1.039,-0.211 1.414,-0.586 C 307.789,184.039 308,183.531 308,183 Z"
         style="fill:#c13441;fill-opacity:1;fill-rule:evenodd;stroke:none"
         id="path262" /></g><path
       d="M 1.457,111.223 V 108.82"
       style="fill:none;stroke:#666666;stroke-width:0.2;stroke-linecap:butt;stroke-linejoin:miter;stroke-miterlimit:3.25;stroke-dasharray:none;stroke-opacity:1"
       id="path310" /><path
       d="m 17.890952,111.08356 v -2.403"
       style="fill:none;stroke:#666666;stroke-width:0.2;stroke-linecap:butt;stroke-linejoin:miter;stroke-miterlimit:3.25;stroke-dasharray:none;stroke-opacity:1"
       id="path312" /><path
       d="m 35.301,111.223 v -4"
       style="fill:none;stroke:#666666;stroke-width:0.2;stroke-linecap:butt;stroke-linejoin:miter;stroke-miterlimit:3.25;stroke-dasharray:none;stroke-opacity:1"
       id="path314" /><path
       d="M 52.223,111.223 V 108.82"
       style="fill:none;stroke:#666666;stroke-width:0.2;stroke-linecap:butt;stroke-linejoin:miter;stroke-miterlimit:3.25;stroke-dasharray:none;stroke-opacity:1"
       id="path316" /><path
       d="M 69.145,111.223 V 108.82"
       style="fill:none;stroke:#666666;stroke-width:0.2;stroke-linecap:butt;stroke-linejoin:miter;stroke-miterlimit:3.25;stroke-dasharray:none;stroke-opacity:1"
       id="path318" /><path
       d="M 86.066,111.223 V 108.82"
       style="fill:none;stroke:#666666;stroke-width:0.2;stroke-linecap:butt;stroke-linejoin:miter;stroke-miterlimit:3.25;stroke-dasharray:none;stroke-opacity:1"
       id="path320" /><path
       d="m 102.988,111.223 v -4"
       style="fill:none;stroke:#666666;stroke-width:0.2;stroke-linecap:butt;stroke-linejoin:miter;stroke-miterlimit:3.25;stroke-dasharray:none;stroke-opacity:1"
       id="path322" /><text
       style="font-variant:normal;font-weight:normal;font-size:10px;font-family:Arial;-inkscape-font-specification:ArialMT;writing-mode:lr-tb;fill:#000000;fill-opacity:1;fill-rule:nonzero;stroke:none"
       id="text326"
       x="99.988998"
       y="123.22086"><tspan
         x="99.988998"
         y="123.22086"
         id="tspan324">2</tspan></text><path
       d="M 119.91,111.223 V 108.82"
       style="fill:none;stroke:#666666;stroke-width:0.2;stroke-linecap:butt;stroke-linejoin:miter;stroke-miterlimit:3.25;stroke-dasharray:none;stroke-opacity:1"
       id="path328" /><path
       d="M 136.832,111.223 V 108.82"
       style="fill:none;stroke:#666666;stroke-width:0.2;stroke-linecap:butt;stroke-linejoin:miter;stroke-miterlimit:3.25;stroke-dasharray:none;stroke-opacity:1"
       id="path330" /><path
       d="M 153.754,111.223 V 108.82"
       style="fill:none;stroke:#666666;stroke-width:0.2;stroke-linecap:butt;stroke-linejoin:miter;stroke-miterlimit:3.25;stroke-dasharray:none;stroke-opacity:1"
       id="path332" /><path
       d="m 170.68,111.223 v -4"
       style="fill:none;stroke:#666666;stroke-width:0.2;stroke-linecap:butt;stroke-linejoin:miter;stroke-miterlimit:3.25;stroke-dasharray:none;stroke-opacity:1"
       id="path334" /><text
       style="font-variant:normal;font-weight:normal;font-size:10px;font-family:Arial;-inkscape-font-specification:ArialMT;writing-mode:lr-tb;fill:#000000;fill-opacity:1;fill-rule:nonzero;stroke:none"
       id="text338"
       x="167.67799"
       y="123.22086"><tspan
         x="167.67799"
         y="123.22086"
         id="tspan336">4</tspan></text><path
       d="M 187.602,111.223 V 108.82"
       style="fill:none;stroke:#666666;stroke-width:0.2;stroke-linecap:butt;stroke-linejoin:miter;stroke-miterlimit:3.25;stroke-dasharray:none;stroke-opacity:1"
       id="path340" /><path
       d="M 204.523,111.223 V 108.82"
       style="fill:none;stroke:#666666;stroke-width:0.2;stroke-linecap:butt;stroke-linejoin:miter;stroke-miterlimit:3.25;stroke-dasharray:none;stroke-opacity:1"
       id="path342" /><path
       d="M 221.445,111.223 V 108.82"
       style="fill:none;stroke:#666666;stroke-width:0.2;stroke-linecap:butt;stroke-linejoin:miter;stroke-miterlimit:3.25;stroke-dasharray:none;stroke-opacity:1"
       id="path344" /><path
       d="m 238.367,111.223 v -4"
       style="fill:none;stroke:#666666;stroke-width:0.2;stroke-linecap:butt;stroke-linejoin:miter;stroke-miterlimit:3.25;stroke-dasharray:none;stroke-opacity:1"
       id="path346" /><text
       style="font-variant:normal;font-weight:normal;font-size:10px;font-family:Arial;-inkscape-font-specification:ArialMT;writing-mode:lr-tb;fill:#000000;fill-opacity:1;fill-rule:nonzero;stroke:none"
       id="text350"
       x="235.367"
       y="123.22086"><tspan
         x="235.367"
         y="123.22086"
         id="tspan348">6</tspan></text><path
       d="M 255.289,111.223 V 108.82"
       style="fill:none;stroke:#666666;stroke-width:0.2;stroke-linecap:butt;stroke-linejoin:miter;stroke-miterlimit:3.25;stroke-dasharray:none;stroke-opacity:1"
       id="path352" /><path
       d="M 272.211,111.223 V 108.82"
       style="fill:none;stroke:#666666;stroke-width:0.2;stroke-linecap:butt;stroke-linejoin:miter;stroke-miterlimit:3.25;stroke-dasharray:none;stroke-opacity:1"
       id="path354" /><path
       d="M 289.133,111.223 V 108.82"
       style="fill:none;stroke:#666666;stroke-width:0.2;stroke-linecap:butt;stroke-linejoin:miter;stroke-miterlimit:3.25;stroke-dasharray:none;stroke-opacity:1"
       id="path356" /><path
       d="m 306.055,111.223 v -4"
       style="fill:none;stroke:#666666;stroke-width:0.2;stroke-linecap:butt;stroke-linejoin:miter;stroke-miterlimit:3.25;stroke-dasharray:none;stroke-opacity:1"
       id="path358" /><text
       style="font-variant:normal;font-weight:normal;font-size:10px;font-family:Arial;-inkscape-font-specification:ArialMT;writing-mode:lr-tb;fill:#000000;fill-opacity:1;fill-rule:nonzero;stroke:none"
       id="text362"
       x="303.056"
       y="123.22086"><tspan
         x="303.056"
         y="123.22086"
         id="tspan360">8</tspan></text><path
       d="M 322.977,111.223 V 108.82"
       style="fill:none;stroke:#666666;stroke-width:0.2;stroke-linecap:butt;stroke-linejoin:miter;stroke-miterlimit:3.25;stroke-dasharray:none;stroke-opacity:1"
       id="path364" /><path
       d="M 339.902,111.223 V 108.82"
       style="fill:none;stroke:#666666;stroke-width:0.2;stroke-linecap:butt;stroke-linejoin:miter;stroke-miterlimit:3.25;stroke-dasharray:none;stroke-opacity:1"
       id="path366" /><path
       d="m 1.457,111.223 h 348"
       style="fill:none;stroke:#666666;stroke-width:0.2;stroke-linecap:butt;stroke-linejoin:miter;stroke-miterlimit:3.25;stroke-dasharray:none;stroke-opacity:1"
       id="path368" /><path
       d="m 35.301,225.5 h 2.398"
       style="fill:none;stroke:#666666;stroke-width:0.2;stroke-linecap:butt;stroke-linejoin:miter;stroke-miterlimit:3.25;stroke-dasharray:none;stroke-opacity:1"
       id="path370" /><path
       d="m 35.301,219.484 h 2.398"
       style="fill:none;stroke:#666666;stroke-width:0.2;stroke-linecap:butt;stroke-linejoin:miter;stroke-miterlimit:3.25;stroke-dasharray:none;stroke-opacity:1"
       id="path372" /><path
       d="m 35.301,213.473 h 2.398"
       style="fill:none;stroke:#666666;stroke-width:0.2;stroke-linecap:butt;stroke-linejoin:miter;stroke-miterlimit:3.25;stroke-dasharray:none;stroke-opacity:1"
       id="path374" /><path
       d="m 35.301,207.457 h 2.398"
       style="fill:none;stroke:#666666;stroke-width:0.2;stroke-linecap:butt;stroke-linejoin:miter;stroke-miterlimit:3.25;stroke-dasharray:none;stroke-opacity:1"
       id="path376" /><path
       d="m 35.301,201.441 h 4"
       style="fill:none;stroke:#666666;stroke-width:0.2;stroke-linecap:butt;stroke-linejoin:miter;stroke-miterlimit:3.25;stroke-dasharray:none;stroke-opacity:1"
       id="path378" /><text
       style="font-variant:normal;font-weight:normal;font-size:10px;font-family:MathematicaSans;-inkscape-font-specification:MathematicaSans;writing-mode:lr-tb;fill:#000000;fill-opacity:1;fill-rule:nonzero;stroke:none"
       id="text382"
       x="10.558965"
       y="203.94173"><tspan
         x="10.558965"
         y="203.94173"
         id="tspan380">-</tspan></text><text
       style="font-variant:normal;font-weight:normal;font-size:10px;font-family:Arial;-inkscape-font-specification:ArialMT;writing-mode:lr-tb;fill:#000000;fill-opacity:1;fill-rule:nonzero;stroke:none"
       id="text386"
       x="16.548965"
       y="203.94173"><tspan
         x="16.548965 22.108965"
         y="203.94173"
         sodipodi:role="line"
         id="tspan384">15</tspan></text><path
       d="m 35.301,195.426 h 2.398"
       style="fill:none;stroke:#666666;stroke-width:0.2;stroke-linecap:butt;stroke-linejoin:miter;stroke-miterlimit:3.25;stroke-dasharray:none;stroke-opacity:1"
       id="path388" /><path
       d="m 35.301,189.414 h 2.398"
       style="fill:none;stroke:#666666;stroke-width:0.2;stroke-linecap:butt;stroke-linejoin:miter;stroke-miterlimit:3.25;stroke-dasharray:none;stroke-opacity:1"
       id="path390" /><path
       d="m 35.301,183.398 h 2.398"
       style="fill:none;stroke:#666666;stroke-width:0.2;stroke-linecap:butt;stroke-linejoin:miter;stroke-miterlimit:3.25;stroke-dasharray:none;stroke-opacity:1"
       id="path392" /><path
       d="m 35.301,177.383 h 2.398"
       style="fill:none;stroke:#666666;stroke-width:0.2;stroke-linecap:butt;stroke-linejoin:miter;stroke-miterlimit:3.25;stroke-dasharray:none;stroke-opacity:1"
       id="path394" /><path
       d="m 35.301,171.367 h 4"
       style="fill:none;stroke:#666666;stroke-width:0.2;stroke-linecap:butt;stroke-linejoin:miter;stroke-miterlimit:3.25;stroke-dasharray:none;stroke-opacity:1"
       id="path396" /><text
       style="font-variant:normal;font-weight:normal;font-size:10px;font-family:MathematicaSans;-inkscape-font-specification:MathematicaSans;writing-mode:lr-tb;fill:#000000;fill-opacity:1;fill-rule:nonzero;stroke:none"
       id="text400"
       x="10.558965"
       y="173.8681"><tspan
         x="10.558965"
         y="173.8681"
         id="tspan398">-</tspan></text><text
       style="font-variant:normal;font-weight:normal;font-size:10px;font-family:Arial;-inkscape-font-specification:ArialMT;writing-mode:lr-tb;fill:#000000;fill-opacity:1;fill-rule:nonzero;stroke:none"
       id="text404"
       x="16.548965"
       y="173.8681"><tspan
         x="16.548965 22.108965"
         y="173.8681"
         sodipodi:role="line"
         id="tspan402">10</tspan></text><path
       d="m 35.301,165.352 h 2.398"
       style="fill:none;stroke:#666666;stroke-width:0.2;stroke-linecap:butt;stroke-linejoin:miter;stroke-miterlimit:3.25;stroke-dasharray:none;stroke-opacity:1"
       id="path406" /><path
       d="m 35.301,159.34 h 2.398"
       style="fill:none;stroke:#666666;stroke-width:0.2;stroke-linecap:butt;stroke-linejoin:miter;stroke-miterlimit:3.25;stroke-dasharray:none;stroke-opacity:1"
       id="path408" /><path
       d="m 35.301,153.324 h 2.398"
       style="fill:none;stroke:#666666;stroke-width:0.2;stroke-linecap:butt;stroke-linejoin:miter;stroke-miterlimit:3.25;stroke-dasharray:none;stroke-opacity:1"
       id="path410" /><path
       d="m 35.301,147.309 h 2.398"
       style="fill:none;stroke:#666666;stroke-width:0.2;stroke-linecap:butt;stroke-linejoin:miter;stroke-miterlimit:3.25;stroke-dasharray:none;stroke-opacity:1"
       id="path412" /><path
       d="m 35.301,141.293 h 4"
       style="fill:none;stroke:#666666;stroke-width:0.2;stroke-linecap:butt;stroke-linejoin:miter;stroke-miterlimit:3.25;stroke-dasharray:none;stroke-opacity:1"
       id="path414" /><text
       style="font-variant:normal;font-weight:normal;font-size:10px;font-family:MathematicaSans;-inkscape-font-specification:MathematicaSans;writing-mode:lr-tb;fill:#000000;fill-opacity:1;fill-rule:nonzero;stroke:none"
       id="text418"
       x="15.558964"
       y="143.79448"><tspan
         x="15.558964"
         y="143.79448"
         id="tspan416">-</tspan></text><text
       style="font-variant:normal;font-weight:normal;font-size:10px;font-family:Arial;-inkscape-font-specification:ArialMT;writing-mode:lr-tb;fill:#000000;fill-opacity:1;fill-rule:nonzero;stroke:none"
       id="text422"
       x="21.548965"
       y="143.79448"><tspan
         x="21.548965"
         y="143.79448"
         id="tspan420">5</tspan></text><path
       d="m 35.301,135.281 h 2.398"
       style="fill:none;stroke:#666666;stroke-width:0.2;stroke-linecap:butt;stroke-linejoin:miter;stroke-miterlimit:3.25;stroke-dasharray:none;stroke-opacity:1"
       id="path424" /><path
       d="m 35.301,129.266 h 2.398"
       style="fill:none;stroke:#666666;stroke-width:0.2;stroke-linecap:butt;stroke-linejoin:miter;stroke-miterlimit:3.25;stroke-dasharray:none;stroke-opacity:1"
       id="path426" /><path
       d="m 35.301,123.25 h 2.398"
       style="fill:none;stroke:#666666;stroke-width:0.2;stroke-linecap:butt;stroke-linejoin:miter;stroke-miterlimit:3.25;stroke-dasharray:none;stroke-opacity:1"
       id="path428" /><path
       d="m 35.301,117.234 h 2.398"
       style="fill:none;stroke:#666666;stroke-width:0.2;stroke-linecap:butt;stroke-linejoin:miter;stroke-miterlimit:3.25;stroke-dasharray:none;stroke-opacity:1"
       id="path430" /><path
       d="m 35.301,111.223 h 4"
       style="fill:none;stroke:#666666;stroke-width:0.2;stroke-linecap:butt;stroke-linejoin:miter;stroke-miterlimit:3.25;stroke-dasharray:none;stroke-opacity:1"
       id="path432" /><path
       d="m 35.301,105.207 h 2.398"
       style="fill:none;stroke:#666666;stroke-width:0.2;stroke-linecap:butt;stroke-linejoin:miter;stroke-miterlimit:3.25;stroke-dasharray:none;stroke-opacity:1"
       id="path434" /><path
       d="m 35.301,99.191 h 2.398"
       style="fill:none;stroke:#666666;stroke-width:0.2;stroke-linecap:butt;stroke-linejoin:miter;stroke-miterlimit:3.25;stroke-dasharray:none;stroke-opacity:1"
       id="path436" /><path
       d="m 35.301,93.176 h 2.398"
       style="fill:none;stroke:#666666;stroke-width:0.2;stroke-linecap:butt;stroke-linejoin:miter;stroke-miterlimit:3.25;stroke-dasharray:none;stroke-opacity:1"
       id="path438" /><path
       d="m 35.301,87.16 h 2.398"
       style="fill:none;stroke:#666666;stroke-width:0.2;stroke-linecap:butt;stroke-linejoin:miter;stroke-miterlimit:3.25;stroke-dasharray:none;stroke-opacity:1"
       id="path440" /><path
       d="m 35.301,81.148 h 4"
       style="fill:none;stroke:#666666;stroke-width:0.2;stroke-linecap:butt;stroke-linejoin:miter;stroke-miterlimit:3.25;stroke-dasharray:none;stroke-opacity:1"
       id="path442" /><text
       style="font-variant:normal;font-weight:normal;font-size:10px;font-family:Arial;-inkscape-font-specification:ArialMT;writing-mode:lr-tb;fill:#000000;fill-opacity:1;fill-rule:nonzero;stroke:none"
       id="text446"
       x="21.558964"
       y="83.64724"><tspan
         x="21.558964"
         y="83.64724"
         id="tspan444">5</tspan></text><path
       d="m 35.301,75.133 h 2.398"
       style="fill:none;stroke:#666666;stroke-width:0.2;stroke-linecap:butt;stroke-linejoin:miter;stroke-miterlimit:3.25;stroke-dasharray:none;stroke-opacity:1"
       id="path448" /><path
       d="m 35.301,69.117 h 2.398"
       style="fill:none;stroke:#666666;stroke-width:0.2;stroke-linecap:butt;stroke-linejoin:miter;stroke-miterlimit:3.25;stroke-dasharray:none;stroke-opacity:1"
       id="path450" /><path
       d="m 35.301,63.102 h 2.398"
       style="fill:none;stroke:#666666;stroke-width:0.2;stroke-linecap:butt;stroke-linejoin:miter;stroke-miterlimit:3.25;stroke-dasharray:none;stroke-opacity:1"
       id="path452" /><path
       d="m 35.301,57.09 h 2.398"
       style="fill:none;stroke:#666666;stroke-width:0.2;stroke-linecap:butt;stroke-linejoin:miter;stroke-miterlimit:3.25;stroke-dasharray:none;stroke-opacity:1"
       id="path454" /><path
       d="m 35.301,51.074 h 4"
       style="fill:none;stroke:#666666;stroke-width:0.2;stroke-linecap:butt;stroke-linejoin:miter;stroke-miterlimit:3.25;stroke-dasharray:none;stroke-opacity:1"
       id="path456" /><text
       style="font-variant:normal;font-weight:normal;font-size:10px;font-family:Arial;-inkscape-font-specification:ArialMT;writing-mode:lr-tb;fill:#000000;fill-opacity:1;fill-rule:nonzero;stroke:none"
       id="text460"
       x="16.558964"
       y="53.57362"><tspan
         x="16.558964 22.118965"
         y="53.57362"
         sodipodi:role="line"
         id="tspan458">10</tspan></text><path
       d="m 35.301,45.059 h 2.398"
       style="fill:none;stroke:#666666;stroke-width:0.2;stroke-linecap:butt;stroke-linejoin:miter;stroke-miterlimit:3.25;stroke-dasharray:none;stroke-opacity:1"
       id="path462" /><path
       d="m 35.301,39.043 h 2.398"
       style="fill:none;stroke:#666666;stroke-width:0.2;stroke-linecap:butt;stroke-linejoin:miter;stroke-miterlimit:3.25;stroke-dasharray:none;stroke-opacity:1"
       id="path464" /><path
       d="m 35.301,33.031 h 2.398"
       style="fill:none;stroke:#666666;stroke-width:0.2;stroke-linecap:butt;stroke-linejoin:miter;stroke-miterlimit:3.25;stroke-dasharray:none;stroke-opacity:1"
       id="path466" /><path
       d="m 35.301,27.016 h 2.398"
       style="fill:none;stroke:#666666;stroke-width:0.2;stroke-linecap:butt;stroke-linejoin:miter;stroke-miterlimit:3.25;stroke-dasharray:none;stroke-opacity:1"
       id="path468" /><path
       d="m 35.301,21 h 4"
       style="fill:none;stroke:#666666;stroke-width:0.2;stroke-linecap:butt;stroke-linejoin:miter;stroke-miterlimit:3.25;stroke-dasharray:none;stroke-opacity:1"
       id="path470" /><text
       style="font-variant:normal;font-weight:normal;font-size:10px;font-family:Arial;-inkscape-font-specification:ArialMT;writing-mode:lr-tb;fill:#000000;fill-opacity:1;fill-rule:nonzero;stroke:none"
       id="text474"
       x="16.558964"
       y="23.5"><tspan
         x="16.558964 22.118965"
         y="23.5"
         sodipodi:role="line"
         id="tspan472">15</tspan></text><path
       d="m 35.301,14.984 h 2.398"
       style="fill:none;stroke:#666666;stroke-width:0.2;stroke-linecap:butt;stroke-linejoin:miter;stroke-miterlimit:3.25;stroke-dasharray:none;stroke-opacity:1"
       id="path476" /><path
       d="M 35.301,225.59 V 10.516"
       style="fill:none;stroke:#666666;stroke-width:0.2;stroke-linecap:butt;stroke-linejoin:miter;stroke-miterlimit:3.25;stroke-dasharray:none;stroke-opacity:1"
       id="path478" /><text
       xml:space="preserve"
       style="font-size:12px;line-height:1.25;font-family:sans-serif;stroke-width:0.75"
       x="351.39441"
       y="120.75697"
       id="text3476"><tspan
         sodipodi:role="line"
         id="tspan3474"
         style="stroke-width:0.75"
         x="351.39441"
         y="120.75697">t</tspan></text><text
       xml:space="preserve"
       style="font-size:12px;line-height:1.25;font-family:sans-serif;stroke-width:0.75"
       x="22.589642"
       y="3.62549"
       id="text5394"><tspan
         sodipodi:role="line"
         id="tspan5392"
         style="stroke-width:0.75"
         x="22.589642"
         y="3.62549">$v$</tspan></text></g></svg>
