<?xml version="1.0" encoding="UTF-8" standalone="no"?>
<!-- Created with Inkscape (http://www.inkscape.org/) -->

<svg
   version="1.1"
   id="svg2"
   xml:space="preserve"
   width="466.66666"
   height="337.33334"
   viewBox="0 0 466.66666 337.33334"
   sodipodi:docname="cook_isotropic_tex.svg"
   inkscape:version="1.1.1 (3bf5ae0d25, 2021-09-20)"
   xmlns:inkscape="http://www.inkscape.org/namespaces/inkscape"
   xmlns:sodipodi="http://sodipodi.sourceforge.net/DTD/sodipodi-0.dtd"
   xmlns="http://www.w3.org/2000/svg"
   xmlns:svg="http://www.w3.org/2000/svg"><defs
     id="defs6"><clipPath
       clipPathUnits="userSpaceOnUse"
       id="clipPath220"><path
         d="m 220,98 h 2 v 7.602 h -2 z"
         id="path218" /></clipPath><clipPath
       clipPathUnits="userSpaceOnUse"
       id="clipPath230"><path
         d="m 220,88.559 h 2 V 96 h -2 z"
         id="path228" /></clipPath><clipPath
       clipPathUnits="userSpaceOnUse"
       id="clipPath240"><path
         d="M 212.398,96 H 220 v 2 h -7.602 z"
         id="path238" /></clipPath><clipPath
       clipPathUnits="userSpaceOnUse"
       id="clipPath250"><path
         d="m 222,96 h 7.441 v 2 H 222 Z"
         id="path248" /></clipPath></defs><sodipodi:namedview
     id="namedview4"
     pagecolor="#ffffff"
     bordercolor="#666666"
     borderopacity="1.0"
     inkscape:pageshadow="2"
     inkscape:pageopacity="0.0"
     inkscape:pagecheckerboard="0"
     showgrid="false"
     inkscape:zoom="2.5879446"
     inkscape:cx="156.10844"
     inkscape:cy="216.96755"
     inkscape:window-width="3440"
     inkscape:window-height="1369"
     inkscape:window-x="-8"
     inkscape:window-y="-8"
     inkscape:window-maximized="1"
     inkscape:current-layer="g8" /><g
     id="g8"
     inkscape:groupmode="layer"
     inkscape:label="cook_isotropic_v"
     transform="matrix(1.3333333,0,0,1.3333333,0,5.1e-6)"><path
       d="m 37.621,206.594 2.32,-0.254 2.321,-0.258 2.316,-0.262 2.32,-0.3 2.321,-0.582 1.16,-1.157 0.527,-2.621 0.481,-4.222 0.836,-9.723 1.465,-20.774 2.32,-35.914 2.32,-37.48 0.289,-0.906 0.02,0.004 0.035,0.003 0.066,0.008 0.141,0.012 0.277,0.031 0.559,0.063 1.105,0.121 2.192,0.238 2.32,0.254 2.32,0.25 9.282,1.016 2.32,0.257 2.32,0.254 4.641,0.516 2.316,0.262 2.321,0.265 2.32,0.274 2.32,0.293 2.32,0.343 2.321,0.481 1.16,0.363 2.031,1.281 2.321,1.321 0.144,-0.016 0.281,-0.031 0.567,-0.063 1.129,-0.121 2.23,-0.246 2.32,-0.254 2.321,-0.25 11.601,-1.269 2.317,-0.258 6.961,-0.773 2.32,-0.262 2.32,-0.27 2.321,-0.285 2.32,-0.328 2.32,-0.43 2.321,-0.765 2.32,-1.051 0.289,0.031 0.566,0.063 1.129,0.125 2.238,0.242 6.961,0.762 2.321,0.25 2.32,0.253 2.32,0.258 4.641,0.508 2.32,0.258 2.317,0.258 2.32,0.258 2.32,0.261 2.321,0.266 2.32,0.281 2.32,0.313 2.321,0.402 1.16,0.273 2.226,0.977 2.321,0.078 0.578,-0.062 1.086,-0.118 2.148,-0.234 16.242,-1.777 2.035,-0.223"
       style="fill:none;stroke:#009a5f;stroke-width:1.6;stroke-linecap:square;stroke-linejoin:miter;stroke-miterlimit:3.25;stroke-dasharray:none;stroke-opacity:1"
       id="path16" /><path
       d="m 40,207 c 0,-0.531 -0.211,-1.039 -0.586,-1.414 C 39.039,205.211 38.531,205 38,205 c -0.531,0 -1.039,0.211 -1.414,0.586 C 36.211,205.961 36,206.469 36,207 c 0,0.531 0.211,1.039 0.586,1.414 0.375,0.375 0.883,0.586 1.414,0.586 0.531,0 1.039,-0.211 1.414,-0.586 C 39.789,208.039 40,207.531 40,207 Z"
       style="fill:#009a5f;fill-opacity:1;fill-rule:evenodd;stroke:none"
       id="path18" /><path
       d="m 44,206 c 0,-0.531 -0.211,-1.039 -0.586,-1.414 C 43.039,204.211 42.531,204 42,204 c -0.531,0 -1.039,0.211 -1.414,0.586 C 40.211,204.961 40,205.469 40,206 c 0,0.531 0.211,1.039 0.586,1.414 0.375,0.375 0.883,0.586 1.414,0.586 0.531,0 1.039,-0.211 1.414,-0.586 C 43.789,207.039 44,206.531 44,206 Z"
       style="fill:#009a5f;fill-opacity:1;fill-rule:evenodd;stroke:none"
       id="path22" /><path
       d="m 47,206 c 0,-0.531 -0.211,-1.039 -0.586,-1.414 C 46.039,204.211 45.531,204 45,204 c -0.531,0 -1.039,0.211 -1.414,0.586 C 43.211,204.961 43,205.469 43,206 c 0,0.531 0.211,1.039 0.586,1.414 0.375,0.375 0.883,0.586 1.414,0.586 0.531,0 1.039,-0.211 1.414,-0.586 C 46.789,207.039 47,206.531 47,206 Z"
       style="fill:#009a5f;fill-opacity:1;fill-rule:evenodd;stroke:none"
       id="path24" /><path
       d="m 49,206 c 0,-0.531 -0.211,-1.039 -0.586,-1.414 C 48.039,204.211 47.531,204 47,204 c -0.531,0 -1.039,0.211 -1.414,0.586 C 45.211,204.961 45,205.469 45,206 c 0,0.531 0.211,1.039 0.586,1.414 0.375,0.375 0.883,0.586 1.414,0.586 0.531,0 1.039,-0.211 1.414,-0.586 C 48.789,207.039 49,206.531 49,206 Z"
       style="fill:#009a5f;fill-opacity:1;fill-rule:evenodd;stroke:none"
       id="path26" /><path
       d="m 51,205 c 0,-0.531 -0.211,-1.039 -0.586,-1.414 C 50.039,203.211 49.531,203 49,203 c -0.531,0 -1.039,0.211 -1.414,0.586 C 47.211,203.961 47,204.469 47,205 c 0,0.531 0.211,1.039 0.586,1.414 0.375,0.375 0.883,0.586 1.414,0.586 0.531,0 1.039,-0.211 1.414,-0.586 C 50.789,206.039 51,205.531 51,205 Z"
       style="fill:#009a5f;fill-opacity:1;fill-rule:evenodd;stroke:none"
       id="path28" /><path
       d="m 52,204 c 0,-0.531 -0.211,-1.039 -0.586,-1.414 C 51.039,202.211 50.531,202 50,202 c -0.531,0 -1.039,0.211 -1.414,0.586 C 48.211,202.961 48,203.469 48,204 c 0,0.531 0.211,1.039 0.586,1.414 0.375,0.375 0.883,0.586 1.414,0.586 0.531,0 1.039,-0.211 1.414,-0.586 C 51.789,205.039 52,204.531 52,204 Z"
       style="fill:#009a5f;fill-opacity:1;fill-rule:evenodd;stroke:none"
       id="path30" /><path
       d="m 53,201 c 0,-0.531 -0.211,-1.039 -0.586,-1.414 C 52.039,199.211 51.531,199 51,199 c -0.531,0 -1.039,0.211 -1.414,0.586 C 49.211,199.961 49,200.469 49,201 c 0,0.531 0.211,1.039 0.586,1.414 0.375,0.375 0.883,0.586 1.414,0.586 0.531,0 1.039,-0.211 1.414,-0.586 C 52.789,202.039 53,201.531 53,201 Z"
       style="fill:#009a5f;fill-opacity:1;fill-rule:evenodd;stroke:none"
       id="path32" /><path
       d="m 53,197 c 0,-0.531 -0.211,-1.039 -0.586,-1.414 C 52.039,195.211 51.531,195 51,195 c -0.531,0 -1.039,0.211 -1.414,0.586 C 49.211,195.961 49,196.469 49,197 c 0,0.531 0.211,1.039 0.586,1.414 0.375,0.375 0.883,0.586 1.414,0.586 0.531,0 1.039,-0.211 1.414,-0.586 C 52.789,198.039 53,197.531 53,197 Z"
       style="fill:#009a5f;fill-opacity:1;fill-rule:evenodd;stroke:none"
       id="path34" /><path
       d="m 54,187 c 0,-0.531 -0.211,-1.039 -0.586,-1.414 C 53.039,185.211 52.531,185 52,185 c -0.531,0 -1.039,0.211 -1.414,0.586 C 50.211,185.961 50,186.469 50,187 c 0,0.531 0.211,1.039 0.586,1.414 0.375,0.375 0.883,0.586 1.414,0.586 0.531,0 1.039,-0.211 1.414,-0.586 C 53.789,188.039 54,187.531 54,187 Z"
       style="fill:#009a5f;fill-opacity:1;fill-rule:evenodd;stroke:none"
       id="path36" /><path
       d="m 56,166 c 0,-0.531 -0.211,-1.039 -0.586,-1.414 C 55.039,164.211 54.531,164 54,164 c -0.531,0 -1.039,0.211 -1.414,0.586 C 52.211,164.961 52,165.469 52,166 c 0,0.531 0.211,1.039 0.586,1.414 0.375,0.375 0.883,0.586 1.414,0.586 0.531,0 1.039,-0.211 1.414,-0.586 C 55.789,167.039 56,166.531 56,166 Z"
       style="fill:#c13441;fill-opacity:1;fill-rule:evenodd;stroke:none"
       id="path38" /><path
       d="m 58,131 c 0,-0.531 -0.211,-1.039 -0.586,-1.414 C 57.039,129.211 56.531,129 56,129 c -0.531,0 -1.039,0.211 -1.414,0.586 C 54.211,129.961 54,130.469 54,131 c 0,0.531 0.211,1.039 0.586,1.414 0.375,0.375 0.883,0.586 1.414,0.586 0.531,0 1.039,-0.211 1.414,-0.586 C 57.789,132.039 58,131.531 58,131 Z"
       style="fill:#009a5f;fill-opacity:1;fill-rule:evenodd;stroke:none"
       id="path40" /><path
       d="M 60,93 C 60,92.469 59.789,91.961 59.414,91.586 59.039,91.211 58.531,91 58,91 57.469,91 56.961,91.211 56.586,91.586 56.211,91.961 56,92.469 56,93 c 0,0.531 0.211,1.039 0.586,1.414 C 56.961,94.789 57.469,95 58,95 58.531,95 59.039,94.789 59.414,94.414 59.789,94.039 60,93.531 60,93 Z"
       style="fill:#009a5f;fill-opacity:1;fill-rule:evenodd;stroke:none"
       id="path42" /><path
       d="M 61,92 C 61,91.469 60.789,90.961 60.414,90.586 60.039,90.211 59.531,90 59,90 58.469,90 57.961,90.211 57.586,90.586 57.211,90.961 57,91.469 57,92 c 0,0.531 0.211,1.039 0.586,1.414 C 57.961,93.789 58.469,94 59,94 59.531,94 60.039,93.789 60.414,93.414 60.789,93.039 61,92.531 61,92 Z"
       style="fill:#009a5f;fill-opacity:1;fill-rule:evenodd;stroke:none"
       id="path44" /><path
       d="M 61,92 C 61,91.469 60.789,90.961 60.414,90.586 60.039,90.211 59.531,90 59,90 58.469,90 57.961,90.211 57.586,90.586 57.211,90.961 57,91.469 57,92 c 0,0.531 0.211,1.039 0.586,1.414 C 57.961,93.789 58.469,94 59,94 59.531,94 60.039,93.789 60.414,93.414 60.789,93.039 61,92.531 61,92 Z"
       style="fill:#009a5f;fill-opacity:1;fill-rule:evenodd;stroke:none"
       id="path46" /><path
       d="M 61,92 C 61,91.469 60.789,90.961 60.414,90.586 60.039,90.211 59.531,90 59,90 58.469,90 57.961,90.211 57.586,90.586 57.211,90.961 57,91.469 57,92 c 0,0.531 0.211,1.039 0.586,1.414 C 57.961,93.789 58.469,94 59,94 59.531,94 60.039,93.789 60.414,93.414 60.789,93.039 61,92.531 61,92 Z"
       style="fill:#009a5f;fill-opacity:1;fill-rule:evenodd;stroke:none"
       id="path48" /><path
       d="M 61,92 C 61,91.469 60.789,90.961 60.414,90.586 60.039,90.211 59.531,90 59,90 58.469,90 57.961,90.211 57.586,90.586 57.211,90.961 57,91.469 57,92 c 0,0.531 0.211,1.039 0.586,1.414 C 57.961,93.789 58.469,94 59,94 59.531,94 60.039,93.789 60.414,93.414 60.789,93.039 61,92.531 61,92 Z"
       style="fill:#009a5f;fill-opacity:1;fill-rule:evenodd;stroke:none"
       id="path50" /><path
       d="M 61,92 C 61,91.469 60.789,90.961 60.414,90.586 60.039,90.211 59.531,90 59,90 58.469,90 57.961,90.211 57.586,90.586 57.211,90.961 57,91.469 57,92 c 0,0.531 0.211,1.039 0.586,1.414 C 57.961,93.789 58.469,94 59,94 59.531,94 60.039,93.789 60.414,93.414 60.789,93.039 61,92.531 61,92 Z"
       style="fill:#009a5f;fill-opacity:1;fill-rule:evenodd;stroke:none"
       id="path52" /><path
       d="M 61,92 C 61,91.469 60.789,90.961 60.414,90.586 60.039,90.211 59.531,90 59,90 58.469,90 57.961,90.211 57.586,90.586 57.211,90.961 57,91.469 57,92 c 0,0.531 0.211,1.039 0.586,1.414 C 57.961,93.789 58.469,94 59,94 59.531,94 60.039,93.789 60.414,93.414 60.789,93.039 61,92.531 61,92 Z"
       style="fill:#009a5f;fill-opacity:1;fill-rule:evenodd;stroke:none"
       id="path54" /><path
       d="M 62,92 C 62,91.469 61.789,90.961 61.414,90.586 61.039,90.211 60.531,90 60,90 59.469,90 58.961,90.211 58.586,90.586 58.211,90.961 58,91.469 58,92 c 0,0.531 0.211,1.039 0.586,1.414 C 58.961,93.789 59.469,94 60,94 60.531,94 61.039,93.789 61.414,93.414 61.789,93.039 62,92.531 62,92 Z"
       style="fill:#009a5f;fill-opacity:1;fill-rule:evenodd;stroke:none"
       id="path56" /><path
       d="M 65,93 C 65,92.469 64.789,91.961 64.414,91.586 64.039,91.211 63.531,91 63,91 62.469,91 61.961,91.211 61.586,91.586 61.211,91.961 61,92.469 61,93 c 0,0.531 0.211,1.039 0.586,1.414 C 61.961,94.789 62.469,95 63,95 63.531,95 64.039,94.789 64.414,94.414 64.789,94.039 65,93.531 65,93 Z"
       style="fill:#009a5f;fill-opacity:1;fill-rule:evenodd;stroke:none"
       id="path60" /><path
       d="M 67,93 C 67,92.469 66.789,91.961 66.414,91.586 66.039,91.211 65.531,91 65,91 64.469,91 63.961,91.211 63.586,91.586 63.211,91.961 63,92.469 63,93 c 0,0.531 0.211,1.039 0.586,1.414 C 63.961,94.789 64.469,95 65,95 65.531,95 66.039,94.789 66.414,94.414 66.789,94.039 67,93.531 67,93 Z"
       style="fill:#009a5f;fill-opacity:1;fill-rule:evenodd;stroke:none"
       id="path62" /><path
       d="M 70,93 C 70,92.469 69.789,91.961 69.414,91.586 69.039,91.211 68.531,91 68,91 67.469,91 66.961,91.211 66.586,91.586 66.211,91.961 66,92.469 66,93 c 0,0.531 0.211,1.039 0.586,1.414 C 66.961,94.789 67.469,95 68,95 68.531,95 69.039,94.789 69.414,94.414 69.789,94.039 70,93.531 70,93 Z"
       style="fill:#009a5f;fill-opacity:1;fill-rule:evenodd;stroke:none"
       id="path64" /><path
       d="M 72,93 C 72,92.469 71.789,91.961 71.414,91.586 71.039,91.211 70.531,91 70,91 69.469,91 68.961,91.211 68.586,91.586 68.211,91.961 68,92.469 68,93 c 0,0.531 0.211,1.039 0.586,1.414 C 68.961,94.789 69.469,95 70,95 70.531,95 71.039,94.789 71.414,94.414 71.789,94.039 72,93.531 72,93 Z"
       style="fill:#009a5f;fill-opacity:1;fill-rule:evenodd;stroke:none"
       id="path66" /><path
       d="M 74,94 C 74,93.469 73.789,92.961 73.414,92.586 73.039,92.211 72.531,92 72,92 71.469,92 70.961,92.211 70.586,92.586 70.211,92.961 70,93.469 70,94 c 0,0.531 0.211,1.039 0.586,1.414 C 70.961,95.789 71.469,96 72,96 72.531,96 73.039,95.789 73.414,95.414 73.789,95.039 74,94.531 74,94 Z"
       style="fill:#009a5f;fill-opacity:1;fill-rule:evenodd;stroke:none"
       id="path68" /><path
       d="M 77,94 C 77,93.469 76.789,92.961 76.414,92.586 76.039,92.211 75.531,92 75,92 74.469,92 73.961,92.211 73.586,92.586 73.211,92.961 73,93.469 73,94 c 0,0.531 0.211,1.039 0.586,1.414 C 73.961,95.789 74.469,96 75,96 75.531,96 76.039,95.789 76.414,95.414 76.789,95.039 77,94.531 77,94 Z"
       style="fill:#009a5f;fill-opacity:1;fill-rule:evenodd;stroke:none"
       id="path70" /><path
       d="M 79,94 C 79,93.469 78.789,92.961 78.414,92.586 78.039,92.211 77.531,92 77,92 76.469,92 75.961,92.211 75.586,92.586 75.211,92.961 75,93.469 75,94 c 0,0.531 0.211,1.039 0.586,1.414 C 75.961,95.789 76.469,96 77,96 77.531,96 78.039,95.789 78.414,95.414 78.789,95.039 79,94.531 79,94 Z"
       style="fill:#009a5f;fill-opacity:1;fill-rule:evenodd;stroke:none"
       id="path72" /><path
       d="M 81,94 C 81,93.469 80.789,92.961 80.414,92.586 80.039,92.211 79.531,92 79,92 78.469,92 77.961,92.211 77.586,92.586 77.211,92.961 77,93.469 77,94 c 0,0.531 0.211,1.039 0.586,1.414 C 77.961,95.789 78.469,96 79,96 79.531,96 80.039,95.789 80.414,95.414 80.789,95.039 81,94.531 81,94 Z"
       style="fill:#009a5f;fill-opacity:1;fill-rule:evenodd;stroke:none"
       id="path74" /><path
       d="M 84,95 C 84,94.469 83.789,93.961 83.414,93.586 83.039,93.211 82.531,93 82,93 81.469,93 80.961,93.211 80.586,93.586 80.211,93.961 80,94.469 80,95 c 0,0.531 0.211,1.039 0.586,1.414 C 80.961,96.789 81.469,97 82,97 82.531,97 83.039,96.789 83.414,96.414 83.789,96.039 84,95.531 84,95 Z"
       style="fill:#009a5f;fill-opacity:1;fill-rule:evenodd;stroke:none"
       id="path76" /><path
       d="M 86,95 C 86,94.469 85.789,93.961 85.414,93.586 85.039,93.211 84.531,93 84,93 83.469,93 82.961,93.211 82.586,93.586 82.211,93.961 82,94.469 82,95 c 0,0.531 0.211,1.039 0.586,1.414 C 82.961,96.789 83.469,97 84,97 84.531,97 85.039,96.789 85.414,96.414 85.789,96.039 86,95.531 86,95 Z"
       style="fill:#009a5f;fill-opacity:1;fill-rule:evenodd;stroke:none"
       id="path78" /><path
       d="M 88,95 C 88,94.469 87.789,93.961 87.414,93.586 87.039,93.211 86.531,93 86,93 85.469,93 84.961,93.211 84.586,93.586 84.211,93.961 84,94.469 84,95 c 0,0.531 0.211,1.039 0.586,1.414 C 84.961,96.789 85.469,97 86,97 86.531,97 87.039,96.789 87.414,96.414 87.789,96.039 88,95.531 88,95 Z"
       style="fill:#009a5f;fill-opacity:1;fill-rule:evenodd;stroke:none"
       id="path80" /><path
       d="M 91,95 C 91,94.469 90.789,93.961 90.414,93.586 90.039,93.211 89.531,93 89,93 88.469,93 87.961,93.211 87.586,93.586 87.211,93.961 87,94.469 87,95 c 0,0.531 0.211,1.039 0.586,1.414 C 87.961,96.789 88.469,97 89,97 89.531,97 90.039,96.789 90.414,96.414 90.789,96.039 91,95.531 91,95 Z"
       style="fill:#009a5f;fill-opacity:1;fill-rule:evenodd;stroke:none"
       id="path82" /><path
       d="M 93,96 C 93,95.469 92.789,94.961 92.414,94.586 92.039,94.211 91.531,94 91,94 90.469,94 89.961,94.211 89.586,94.586 89.211,94.961 89,95.469 89,96 c 0,0.531 0.211,1.039 0.586,1.414 C 89.961,97.789 90.469,98 91,98 91.531,98 92.039,97.789 92.414,97.414 92.789,97.039 93,96.531 93,96 Z"
       style="fill:#009a5f;fill-opacity:1;fill-rule:evenodd;stroke:none"
       id="path84" /><path
       d="M 95,96 C 95,95.469 94.789,94.961 94.414,94.586 94.039,94.211 93.531,94 93,94 92.469,94 91.961,94.211 91.586,94.586 91.211,94.961 91,95.469 91,96 c 0,0.531 0.211,1.039 0.586,1.414 C 91.961,97.789 92.469,98 93,98 93.531,98 94.039,97.789 94.414,97.414 94.789,97.039 95,96.531 95,96 Z"
       style="fill:#009a5f;fill-opacity:1;fill-rule:evenodd;stroke:none"
       id="path86" /><path
       d="M 97,96 C 97,95.469 96.789,94.961 96.414,94.586 96.039,94.211 95.531,94 95,94 94.469,94 93.961,94.211 93.586,94.586 93.211,94.961 93,95.469 93,96 c 0,0.531 0.211,1.039 0.586,1.414 C 93.961,97.789 94.469,98 95,98 95.531,98 96.039,97.789 96.414,97.414 96.789,97.039 97,96.531 97,96 Z"
       style="fill:#009a5f;fill-opacity:1;fill-rule:evenodd;stroke:none"
       id="path88" /><path
       d="M 100,97 C 100,96.469 99.789,95.961 99.414,95.586 99.039,95.211 98.531,95 98,95 97.469,95 96.961,95.211 96.586,95.586 96.211,95.961 96,96.469 96,97 c 0,0.531 0.211,1.039 0.586,1.414 C 96.961,98.789 97.469,99 98,99 98.531,99 99.039,98.789 99.414,98.414 99.789,98.039 100,97.531 100,97 Z"
       style="fill:#009a5f;fill-opacity:1;fill-rule:evenodd;stroke:none"
       id="path90" /><path
       d="m 102,97 c 0,-0.531 -0.211,-1.039 -0.586,-1.414 C 101.039,95.211 100.531,95 100,95 99.469,95 98.961,95.211 98.586,95.586 98.211,95.961 98,96.469 98,97 c 0,0.531 0.211,1.039 0.586,1.414 C 98.961,98.789 99.469,99 100,99 c 0.531,0 1.039,-0.211 1.414,-0.586 C 101.789,98.039 102,97.531 102,97 Z"
       style="fill:#009a5f;fill-opacity:1;fill-rule:evenodd;stroke:none"
       id="path92" /><path
       d="m 103,97 c 0,-0.531 -0.211,-1.039 -0.586,-1.414 C 102.039,95.211 101.531,95 101,95 100.469,95 99.961,95.211 99.586,95.586 99.211,95.961 99,96.469 99,97 c 0,0.531 0.211,1.039 0.586,1.414 0.375,0.375 0.883,0.586 1.414,0.586 0.531,0 1.039,-0.211 1.414,-0.586 C 102.789,98.039 103,97.531 103,97 Z"
       style="fill:#009a5f;fill-opacity:1;fill-rule:evenodd;stroke:none"
       id="path94" /><path
       d="m 105,99 c 0,-0.531 -0.211,-1.039 -0.586,-1.414 C 104.039,97.211 103.531,97 103,97 c -0.531,0 -1.039,0.211 -1.414,0.586 C 101.211,97.961 101,98.469 101,99 c 0,0.531 0.211,1.039 0.586,1.414 0.375,0.375 0.883,0.586 1.414,0.586 0.531,0 1.039,-0.211 1.414,-0.586 C 104.789,100.039 105,99.531 105,99 Z"
       style="fill:#009a5f;fill-opacity:1;fill-rule:evenodd;stroke:none"
       id="path96" /><path
       d="m 108,100 c 0,-0.531 -0.211,-1.039 -0.586,-1.414 C 107.039,98.211 106.531,98 106,98 c -0.531,0 -1.039,0.211 -1.414,0.586 C 104.211,98.961 104,99.469 104,100 c 0,0.531 0.211,1.039 0.586,1.414 0.375,0.375 0.883,0.586 1.414,0.586 0.531,0 1.039,-0.211 1.414,-0.586 C 107.789,101.039 108,100.531 108,100 Z"
       style="fill:#009a5f;fill-opacity:1;fill-rule:evenodd;stroke:none"
       id="path98" /><path
       d="m 108,100 c 0,-0.531 -0.211,-1.039 -0.586,-1.414 C 107.039,98.211 106.531,98 106,98 c -0.531,0 -1.039,0.211 -1.414,0.586 C 104.211,98.961 104,99.469 104,100 c 0,0.531 0.211,1.039 0.586,1.414 0.375,0.375 0.883,0.586 1.414,0.586 0.531,0 1.039,-0.211 1.414,-0.586 C 107.789,101.039 108,100.531 108,100 Z"
       style="fill:#009a5f;fill-opacity:1;fill-rule:evenodd;stroke:none"
       id="path100" /><path
       d="m 108,100 c 0,-0.531 -0.211,-1.039 -0.586,-1.414 C 107.039,98.211 106.531,98 106,98 c -0.531,0 -1.039,0.211 -1.414,0.586 C 104.211,98.961 104,99.469 104,100 c 0,0.531 0.211,1.039 0.586,1.414 0.375,0.375 0.883,0.586 1.414,0.586 0.531,0 1.039,-0.211 1.414,-0.586 C 107.789,101.039 108,100.531 108,100 Z"
       style="fill:#009a5f;fill-opacity:1;fill-rule:evenodd;stroke:none"
       id="path102" /><path
       d="m 109,100 c 0,-0.531 -0.211,-1.039 -0.586,-1.414 C 108.039,98.211 107.531,98 107,98 c -0.531,0 -1.039,0.211 -1.414,0.586 C 105.211,98.961 105,99.469 105,100 c 0,0.531 0.211,1.039 0.586,1.414 0.375,0.375 0.883,0.586 1.414,0.586 0.531,0 1.039,-0.211 1.414,-0.586 C 108.789,101.039 109,100.531 109,100 Z"
       style="fill:#009a5f;fill-opacity:1;fill-rule:evenodd;stroke:none"
       id="path104" /><path
       d="m 110,100 c 0,-0.531 -0.211,-1.039 -0.586,-1.414 C 109.039,98.211 108.531,98 108,98 c -0.531,0 -1.039,0.211 -1.414,0.586 C 106.211,98.961 106,99.469 106,100 c 0,0.531 0.211,1.039 0.586,1.414 0.375,0.375 0.883,0.586 1.414,0.586 0.531,0 1.039,-0.211 1.414,-0.586 C 109.789,101.039 110,100.531 110,100 Z"
       style="fill:#009a5f;fill-opacity:1;fill-rule:evenodd;stroke:none"
       id="path106" /><path
       d="m 112,100 c 0,-0.531 -0.211,-1.039 -0.586,-1.414 C 111.039,98.211 110.531,98 110,98 c -0.531,0 -1.039,0.211 -1.414,0.586 C 108.211,98.961 108,99.469 108,100 c 0,0.531 0.211,1.039 0.586,1.414 0.375,0.375 0.883,0.586 1.414,0.586 0.531,0 1.039,-0.211 1.414,-0.586 C 111.789,101.039 112,100.531 112,100 Z"
       style="fill:#009a5f;fill-opacity:1;fill-rule:evenodd;stroke:none"
       id="path108" /><path
       d="m 114,99 c 0,-0.531 -0.211,-1.039 -0.586,-1.414 C 113.039,97.211 112.531,97 112,97 c -0.531,0 -1.039,0.211 -1.414,0.586 C 110.211,97.961 110,98.469 110,99 c 0,0.531 0.211,1.039 0.586,1.414 0.375,0.375 0.883,0.586 1.414,0.586 0.531,0 1.039,-0.211 1.414,-0.586 C 113.789,100.039 114,99.531 114,99 Z"
       style="fill:#009a5f;fill-opacity:1;fill-rule:evenodd;stroke:none"
       id="path110" /><path
       d="m 117,99 c 0,-0.531 -0.211,-1.039 -0.586,-1.414 C 116.039,97.211 115.531,97 115,97 c -0.531,0 -1.039,0.211 -1.414,0.586 C 113.211,97.961 113,98.469 113,99 c 0,0.531 0.211,1.039 0.586,1.414 0.375,0.375 0.883,0.586 1.414,0.586 0.531,0 1.039,-0.211 1.414,-0.586 C 116.789,100.039 117,99.531 117,99 Z"
       style="fill:#009a5f;fill-opacity:1;fill-rule:evenodd;stroke:none"
       id="path112" /><path
       d="m 119,99 c 0,-0.531 -0.211,-1.039 -0.586,-1.414 C 118.039,97.211 117.531,97 117,97 c -0.531,0 -1.039,0.211 -1.414,0.586 C 115.211,97.961 115,98.469 115,99 c 0,0.531 0.211,1.039 0.586,1.414 0.375,0.375 0.883,0.586 1.414,0.586 0.531,0 1.039,-0.211 1.414,-0.586 C 118.789,100.039 119,99.531 119,99 Z"
       style="fill:#009a5f;fill-opacity:1;fill-rule:evenodd;stroke:none"
       id="path114" /><path
       d="m 121,99 c 0,-0.531 -0.211,-1.039 -0.586,-1.414 C 120.039,97.211 119.531,97 119,97 c -0.531,0 -1.039,0.211 -1.414,0.586 C 117.211,97.961 117,98.469 117,99 c 0,0.531 0.211,1.039 0.586,1.414 0.375,0.375 0.883,0.586 1.414,0.586 0.531,0 1.039,-0.211 1.414,-0.586 C 120.789,100.039 121,99.531 121,99 Z"
       style="fill:#009a5f;fill-opacity:1;fill-rule:evenodd;stroke:none"
       id="path116" /><path
       d="m 124,98 c 0,-0.531 -0.211,-1.039 -0.586,-1.414 C 123.039,96.211 122.531,96 122,96 c -0.531,0 -1.039,0.211 -1.414,0.586 C 120.211,96.961 120,97.469 120,98 c 0,0.531 0.211,1.039 0.586,1.414 0.375,0.375 0.883,0.586 1.414,0.586 0.531,0 1.039,-0.211 1.414,-0.586 C 123.789,99.039 124,98.531 124,98 Z"
       style="fill:#009a5f;fill-opacity:1;fill-rule:evenodd;stroke:none"
       id="path118" /><path
       d="m 126,98 c 0,-0.531 -0.211,-1.039 -0.586,-1.414 C 125.039,96.211 124.531,96 124,96 c -0.531,0 -1.039,0.211 -1.414,0.586 C 122.211,96.961 122,97.469 122,98 c 0,0.531 0.211,1.039 0.586,1.414 0.375,0.375 0.883,0.586 1.414,0.586 0.531,0 1.039,-0.211 1.414,-0.586 C 125.789,99.039 126,98.531 126,98 Z"
       style="fill:#009a5f;fill-opacity:1;fill-rule:evenodd;stroke:none"
       id="path120" /><path
       d="m 131,98 c 0,-0.531 -0.211,-1.039 -0.586,-1.414 C 130.039,96.211 129.531,96 129,96 c -0.531,0 -1.039,0.211 -1.414,0.586 C 127.211,96.961 127,97.469 127,98 c 0,0.531 0.211,1.039 0.586,1.414 0.375,0.375 0.883,0.586 1.414,0.586 0.531,0 1.039,-0.211 1.414,-0.586 C 130.789,99.039 131,98.531 131,98 Z"
       style="fill:#009a5f;fill-opacity:1;fill-rule:evenodd;stroke:none"
       id="path124" /><path
       d="m 133,97 c 0,-0.531 -0.211,-1.039 -0.586,-1.414 C 132.039,95.211 131.531,95 131,95 c -0.531,0 -1.039,0.211 -1.414,0.586 C 129.211,95.961 129,96.469 129,97 c 0,0.531 0.211,1.039 0.586,1.414 0.375,0.375 0.883,0.586 1.414,0.586 0.531,0 1.039,-0.211 1.414,-0.586 C 132.789,98.039 133,97.531 133,97 Z"
       style="fill:#009a5f;fill-opacity:1;fill-rule:evenodd;stroke:none"
       id="path126" /><path
       d="m 135,97 c 0,-0.531 -0.211,-1.039 -0.586,-1.414 C 134.039,95.211 133.531,95 133,95 c -0.531,0 -1.039,0.211 -1.414,0.586 C 131.211,95.961 131,96.469 131,97 c 0,0.531 0.211,1.039 0.586,1.414 0.375,0.375 0.883,0.586 1.414,0.586 0.531,0 1.039,-0.211 1.414,-0.586 C 134.789,98.039 135,97.531 135,97 Z"
       style="fill:#009a5f;fill-opacity:1;fill-rule:evenodd;stroke:none"
       id="path128" /><path
       d="m 138,97 c 0,-0.531 -0.211,-1.039 -0.586,-1.414 C 137.039,95.211 136.531,95 136,95 c -0.531,0 -1.039,0.211 -1.414,0.586 C 134.211,95.961 134,96.469 134,97 c 0,0.531 0.211,1.039 0.586,1.414 0.375,0.375 0.883,0.586 1.414,0.586 0.531,0 1.039,-0.211 1.414,-0.586 C 137.789,98.039 138,97.531 138,97 Z"
       style="fill:#009a5f;fill-opacity:1;fill-rule:evenodd;stroke:none"
       id="path130" /><path
       d="m 140,97 c 0,-0.531 -0.211,-1.039 -0.586,-1.414 C 139.039,95.211 138.531,95 138,95 c -0.531,0 -1.039,0.211 -1.414,0.586 C 136.211,95.961 136,96.469 136,97 c 0,0.531 0.211,1.039 0.586,1.414 0.375,0.375 0.883,0.586 1.414,0.586 0.531,0 1.039,-0.211 1.414,-0.586 C 139.789,98.039 140,97.531 140,97 Z"
       style="fill:#009a5f;fill-opacity:1;fill-rule:evenodd;stroke:none"
       id="path132" /><path
       d="m 142,96 c 0,-0.531 -0.211,-1.039 -0.586,-1.414 C 141.039,94.211 140.531,94 140,94 c -0.531,0 -1.039,0.211 -1.414,0.586 C 138.211,94.961 138,95.469 138,96 c 0,0.531 0.211,1.039 0.586,1.414 0.375,0.375 0.883,0.586 1.414,0.586 0.531,0 1.039,-0.211 1.414,-0.586 C 141.789,97.039 142,96.531 142,96 Z"
       style="fill:#009a5f;fill-opacity:1;fill-rule:evenodd;stroke:none"
       id="path134" /><path
       d="m 144,96 c 0,-0.531 -0.211,-1.039 -0.586,-1.414 C 143.039,94.211 142.531,94 142,94 c -0.531,0 -1.039,0.211 -1.414,0.586 C 140.211,94.961 140,95.469 140,96 c 0,0.531 0.211,1.039 0.586,1.414 0.375,0.375 0.883,0.586 1.414,0.586 0.531,0 1.039,-0.211 1.414,-0.586 C 143.789,97.039 144,96.531 144,96 Z"
       style="fill:#009a5f;fill-opacity:1;fill-rule:evenodd;stroke:none"
       id="path136" /><path
       d="m 147,96 c 0,-0.531 -0.211,-1.039 -0.586,-1.414 C 146.039,94.211 145.531,94 145,94 c -0.531,0 -1.039,0.211 -1.414,0.586 C 143.211,94.961 143,95.469 143,96 c 0,0.531 0.211,1.039 0.586,1.414 0.375,0.375 0.883,0.586 1.414,0.586 0.531,0 1.039,-0.211 1.414,-0.586 C 146.789,97.039 147,96.531 147,96 Z"
       style="fill:#009a5f;fill-opacity:1;fill-rule:evenodd;stroke:none"
       id="path138" /><path
       d="m 149,95 c 0,-0.531 -0.211,-1.039 -0.586,-1.414 C 148.039,93.211 147.531,93 147,93 c -0.531,0 -1.039,0.211 -1.414,0.586 C 145.211,93.961 145,94.469 145,95 c 0,0.531 0.211,1.039 0.586,1.414 0.375,0.375 0.883,0.586 1.414,0.586 0.531,0 1.039,-0.211 1.414,-0.586 C 148.789,96.039 149,95.531 149,95 Z"
       style="fill:#009a5f;fill-opacity:1;fill-rule:evenodd;stroke:none"
       id="path140" /><path
       d="m 151,94 c 0,-0.531 -0.211,-1.039 -0.586,-1.414 C 150.039,92.211 149.531,92 149,92 c -0.531,0 -1.039,0.211 -1.414,0.586 C 147.211,92.961 147,93.469 147,94 c 0,0.531 0.211,1.039 0.586,1.414 0.375,0.375 0.883,0.586 1.414,0.586 0.531,0 1.039,-0.211 1.414,-0.586 C 150.789,95.039 151,94.531 151,94 Z"
       style="fill:#009a5f;fill-opacity:1;fill-rule:evenodd;stroke:none"
       id="path142" /><path
       d="m 154,93 c 0,-0.531 -0.211,-1.039 -0.586,-1.414 C 153.039,91.211 152.531,91 152,91 c -0.531,0 -1.039,0.211 -1.414,0.586 C 150.211,91.961 150,92.469 150,93 c 0,0.531 0.211,1.039 0.586,1.414 0.375,0.375 0.883,0.586 1.414,0.586 0.531,0 1.039,-0.211 1.414,-0.586 C 153.789,94.039 154,93.531 154,93 Z"
       style="fill:#009a5f;fill-opacity:1;fill-rule:evenodd;stroke:none"
       id="path144" /><path
       d="m 154,93 c 0,-0.531 -0.211,-1.039 -0.586,-1.414 C 153.039,91.211 152.531,91 152,91 c -0.531,0 -1.039,0.211 -1.414,0.586 C 150.211,91.961 150,92.469 150,93 c 0,0.531 0.211,1.039 0.586,1.414 0.375,0.375 0.883,0.586 1.414,0.586 0.531,0 1.039,-0.211 1.414,-0.586 C 153.789,94.039 154,93.531 154,93 Z"
       style="fill:#009a5f;fill-opacity:1;fill-rule:evenodd;stroke:none"
       id="path146" /><path
       d="m 155,93 c 0,-0.531 -0.211,-1.039 -0.586,-1.414 C 154.039,91.211 153.531,91 153,91 c -0.531,0 -1.039,0.211 -1.414,0.586 C 151.211,91.961 151,92.469 151,93 c 0,0.531 0.211,1.039 0.586,1.414 0.375,0.375 0.883,0.586 1.414,0.586 0.531,0 1.039,-0.211 1.414,-0.586 C 154.789,94.039 155,93.531 155,93 Z"
       style="fill:#009a5f;fill-opacity:1;fill-rule:evenodd;stroke:none"
       id="path148" /><path
       d="m 156,94 c 0,-0.531 -0.211,-1.039 -0.586,-1.414 C 155.039,92.211 154.531,92 154,92 c -0.531,0 -1.039,0.211 -1.414,0.586 C 152.211,92.961 152,93.469 152,94 c 0,0.531 0.211,1.039 0.586,1.414 0.375,0.375 0.883,0.586 1.414,0.586 0.531,0 1.039,-0.211 1.414,-0.586 C 155.789,95.039 156,94.531 156,94 Z"
       style="fill:#009a5f;fill-opacity:1;fill-rule:evenodd;stroke:none"
       id="path150" /><path
       d="m 158,94 c 0,-0.531 -0.211,-1.039 -0.586,-1.414 C 157.039,92.211 156.531,92 156,92 c -0.531,0 -1.039,0.211 -1.414,0.586 C 154.211,92.961 154,93.469 154,94 c 0,0.531 0.211,1.039 0.586,1.414 0.375,0.375 0.883,0.586 1.414,0.586 0.531,0 1.039,-0.211 1.414,-0.586 C 157.789,95.039 158,94.531 158,94 Z"
       style="fill:#009a5f;fill-opacity:1;fill-rule:evenodd;stroke:none"
       id="path152" /><path
       d="m 160,94 c 0,-0.531 -0.211,-1.039 -0.586,-1.414 C 159.039,92.211 158.531,92 158,92 c -0.531,0 -1.039,0.211 -1.414,0.586 C 156.211,92.961 156,93.469 156,94 c 0,0.531 0.211,1.039 0.586,1.414 0.375,0.375 0.883,0.586 1.414,0.586 0.531,0 1.039,-0.211 1.414,-0.586 C 159.789,95.039 160,94.531 160,94 Z"
       style="fill:#009a5f;fill-opacity:1;fill-rule:evenodd;stroke:none"
       id="path154" /><path
       d="m 163,94 c 0,-0.531 -0.211,-1.039 -0.586,-1.414 C 162.039,92.211 161.531,92 161,92 c -0.531,0 -1.039,0.211 -1.414,0.586 C 159.211,92.961 159,93.469 159,94 c 0,0.531 0.211,1.039 0.586,1.414 0.375,0.375 0.883,0.586 1.414,0.586 0.531,0 1.039,-0.211 1.414,-0.586 C 162.789,95.039 163,94.531 163,94 Z"
       style="fill:#009a5f;fill-opacity:1;fill-rule:evenodd;stroke:none"
       id="path156" /><path
       d="m 165,95 c 0,-0.531 -0.211,-1.039 -0.586,-1.414 C 164.039,93.211 163.531,93 163,93 c -0.531,0 -1.039,0.211 -1.414,0.586 C 161.211,93.961 161,94.469 161,95 c 0,0.531 0.211,1.039 0.586,1.414 0.375,0.375 0.883,0.586 1.414,0.586 0.531,0 1.039,-0.211 1.414,-0.586 C 164.789,96.039 165,95.531 165,95 Z"
       style="fill:#009a5f;fill-opacity:1;fill-rule:evenodd;stroke:none"
       id="path158" /><path
       d="m 167,95 c 0,-0.531 -0.211,-1.039 -0.586,-1.414 C 166.039,93.211 165.531,93 165,93 c -0.531,0 -1.039,0.211 -1.414,0.586 C 163.211,93.961 163,94.469 163,95 c 0,0.531 0.211,1.039 0.586,1.414 0.375,0.375 0.883,0.586 1.414,0.586 0.531,0 1.039,-0.211 1.414,-0.586 C 166.789,96.039 167,95.531 167,95 Z"
       style="fill:#009a5f;fill-opacity:1;fill-rule:evenodd;stroke:none"
       id="path160" /><path
       d="m 170,95 c 0,-0.531 -0.211,-1.039 -0.586,-1.414 C 169.039,93.211 168.531,93 168,93 c -0.531,0 -1.039,0.211 -1.414,0.586 C 166.211,93.961 166,94.469 166,95 c 0,0.531 0.211,1.039 0.586,1.414 0.375,0.375 0.883,0.586 1.414,0.586 0.531,0 1.039,-0.211 1.414,-0.586 C 169.789,96.039 170,95.531 170,95 Z"
       style="fill:#009a5f;fill-opacity:1;fill-rule:evenodd;stroke:none"
       id="path162" /><path
       d="m 172,95 c 0,-0.531 -0.211,-1.039 -0.586,-1.414 C 171.039,93.211 170.531,93 170,93 c -0.531,0 -1.039,0.211 -1.414,0.586 C 168.211,93.961 168,94.469 168,95 c 0,0.531 0.211,1.039 0.586,1.414 0.375,0.375 0.883,0.586 1.414,0.586 0.531,0 1.039,-0.211 1.414,-0.586 C 171.789,96.039 172,95.531 172,95 Z"
       style="fill:#009a5f;fill-opacity:1;fill-rule:evenodd;stroke:none"
       id="path164" /><path
       d="m 174,96 c 0,-0.531 -0.211,-1.039 -0.586,-1.414 C 173.039,94.211 172.531,94 172,94 c -0.531,0 -1.039,0.211 -1.414,0.586 C 170.211,94.961 170,95.469 170,96 c 0,0.531 0.211,1.039 0.586,1.414 0.375,0.375 0.883,0.586 1.414,0.586 0.531,0 1.039,-0.211 1.414,-0.586 C 173.789,97.039 174,96.531 174,96 Z"
       style="fill:#009a5f;fill-opacity:1;fill-rule:evenodd;stroke:none"
       id="path166" /><path
       d="m 177,96 c 0,-0.531 -0.211,-1.039 -0.586,-1.414 C 176.039,94.211 175.531,94 175,94 c -0.531,0 -1.039,0.211 -1.414,0.586 C 173.211,94.961 173,95.469 173,96 c 0,0.531 0.211,1.039 0.586,1.414 0.375,0.375 0.883,0.586 1.414,0.586 0.531,0 1.039,-0.211 1.414,-0.586 C 176.789,97.039 177,96.531 177,96 Z"
       style="fill:#009a5f;fill-opacity:1;fill-rule:evenodd;stroke:none"
       id="path168" /><path
       d="m 179,96 c 0,-0.531 -0.211,-1.039 -0.586,-1.414 C 178.039,94.211 177.531,94 177,94 c -0.531,0 -1.039,0.211 -1.414,0.586 C 175.211,94.961 175,95.469 175,96 c 0,0.531 0.211,1.039 0.586,1.414 0.375,0.375 0.883,0.586 1.414,0.586 0.531,0 1.039,-0.211 1.414,-0.586 C 178.789,97.039 179,96.531 179,96 Z"
       style="fill:#009a5f;fill-opacity:1;fill-rule:evenodd;stroke:none"
       id="path170" /><path
       d="m 181,96 c 0,-0.531 -0.211,-1.039 -0.586,-1.414 C 180.039,94.211 179.531,94 179,94 c -0.531,0 -1.039,0.211 -1.414,0.586 C 177.211,94.961 177,95.469 177,96 c 0,0.531 0.211,1.039 0.586,1.414 0.375,0.375 0.883,0.586 1.414,0.586 0.531,0 1.039,-0.211 1.414,-0.586 C 180.789,97.039 181,96.531 181,96 Z"
       style="fill:#009a5f;fill-opacity:1;fill-rule:evenodd;stroke:none"
       id="path172" /><path
       d="m 186,97 c 0,-0.531 -0.211,-1.039 -0.586,-1.414 C 185.039,95.211 184.531,95 184,95 c -0.531,0 -1.039,0.211 -1.414,0.586 C 182.211,95.961 182,96.469 182,97 c 0,0.531 0.211,1.039 0.586,1.414 0.375,0.375 0.883,0.586 1.414,0.586 0.531,0 1.039,-0.211 1.414,-0.586 C 185.789,98.039 186,97.531 186,97 Z"
       style="fill:#009a5f;fill-opacity:1;fill-rule:evenodd;stroke:none"
       id="path176" /><path
       d="m 188,97 c 0,-0.531 -0.211,-1.039 -0.586,-1.414 C 187.039,95.211 186.531,95 186,95 c -0.531,0 -1.039,0.211 -1.414,0.586 C 184.211,95.961 184,96.469 184,97 c 0,0.531 0.211,1.039 0.586,1.414 0.375,0.375 0.883,0.586 1.414,0.586 0.531,0 1.039,-0.211 1.414,-0.586 C 187.789,98.039 188,97.531 188,97 Z"
       style="fill:#009a5f;fill-opacity:1;fill-rule:evenodd;stroke:none"
       id="path178" /><path
       d="m 190,97 c 0,-0.531 -0.211,-1.039 -0.586,-1.414 C 189.039,95.211 188.531,95 188,95 c -0.531,0 -1.039,0.211 -1.414,0.586 C 186.211,95.961 186,96.469 186,97 c 0,0.531 0.211,1.039 0.586,1.414 0.375,0.375 0.883,0.586 1.414,0.586 0.531,0 1.039,-0.211 1.414,-0.586 C 189.789,98.039 190,97.531 190,97 Z"
       style="fill:#009a5f;fill-opacity:1;fill-rule:evenodd;stroke:none"
       id="path180" /><path
       d="m 193,98 c 0,-0.531 -0.211,-1.039 -0.586,-1.414 C 192.039,96.211 191.531,96 191,96 c -0.531,0 -1.039,0.211 -1.414,0.586 C 189.211,96.961 189,97.469 189,98 c 0,0.531 0.211,1.039 0.586,1.414 0.375,0.375 0.883,0.586 1.414,0.586 0.531,0 1.039,-0.211 1.414,-0.586 C 192.789,99.039 193,98.531 193,98 Z"
       style="fill:#009a5f;fill-opacity:1;fill-rule:evenodd;stroke:none"
       id="path182" /><path
       d="m 195,98 c 0,-0.531 -0.211,-1.039 -0.586,-1.414 C 194.039,96.211 193.531,96 193,96 c -0.531,0 -1.039,0.211 -1.414,0.586 C 191.211,96.961 191,97.469 191,98 c 0,0.531 0.211,1.039 0.586,1.414 0.375,0.375 0.883,0.586 1.414,0.586 0.531,0 1.039,-0.211 1.414,-0.586 C 194.789,99.039 195,98.531 195,98 Z"
       style="fill:#009a5f;fill-opacity:1;fill-rule:evenodd;stroke:none"
       id="path184" /><path
       d="m 196,98 c 0,-0.531 -0.211,-1.039 -0.586,-1.414 C 195.039,96.211 194.531,96 194,96 c -0.531,0 -1.039,0.211 -1.414,0.586 C 192.211,96.961 192,97.469 192,98 c 0,0.531 0.211,1.039 0.586,1.414 0.375,0.375 0.883,0.586 1.414,0.586 0.531,0 1.039,-0.211 1.414,-0.586 C 195.789,99.039 196,98.531 196,98 Z"
       style="fill:#009a5f;fill-opacity:1;fill-rule:evenodd;stroke:none"
       id="path186" /><path
       d="m 198,99 c 0,-0.531 -0.211,-1.039 -0.586,-1.414 C 197.039,97.211 196.531,97 196,97 c -0.531,0 -1.039,0.211 -1.414,0.586 C 194.211,97.961 194,98.469 194,99 c 0,0.531 0.211,1.039 0.586,1.414 0.375,0.375 0.883,0.586 1.414,0.586 0.531,0 1.039,-0.211 1.414,-0.586 C 197.789,100.039 198,99.531 198,99 Z"
       style="fill:#009a5f;fill-opacity:1;fill-rule:evenodd;stroke:none"
       id="path188" /><path
       d="m 201,99 c 0,-0.531 -0.211,-1.039 -0.586,-1.414 C 200.039,97.211 199.531,97 199,97 c -0.531,0 -1.039,0.211 -1.414,0.586 C 197.211,97.961 197,98.469 197,99 c 0,0.531 0.211,1.039 0.586,1.414 0.375,0.375 0.883,0.586 1.414,0.586 0.531,0 1.039,-0.211 1.414,-0.586 C 200.789,100.039 201,99.531 201,99 Z"
       style="fill:#009a5f;fill-opacity:1;fill-rule:evenodd;stroke:none"
       id="path190" /><path
       d="m 201,99 c 0,-0.531 -0.211,-1.039 -0.586,-1.414 C 200.039,97.211 199.531,97 199,97 c -0.531,0 -1.039,0.211 -1.414,0.586 C 197.211,97.961 197,98.469 197,99 c 0,0.531 0.211,1.039 0.586,1.414 0.375,0.375 0.883,0.586 1.414,0.586 0.531,0 1.039,-0.211 1.414,-0.586 C 200.789,100.039 201,99.531 201,99 Z"
       style="fill:#009a5f;fill-opacity:1;fill-rule:evenodd;stroke:none"
       id="path192" /><path
       d="m 202,99 c 0,-0.531 -0.211,-1.039 -0.586,-1.414 C 201.039,97.211 200.531,97 200,97 c -0.531,0 -1.039,0.211 -1.414,0.586 C 198.211,97.961 198,98.469 198,99 c 0,0.531 0.211,1.039 0.586,1.414 0.375,0.375 0.883,0.586 1.414,0.586 0.531,0 1.039,-0.211 1.414,-0.586 C 201.789,100.039 202,99.531 202,99 Z"
       style="fill:#009a5f;fill-opacity:1;fill-rule:evenodd;stroke:none"
       id="path194" /><path
       d="m 205,99 c 0,-0.531 -0.211,-1.039 -0.586,-1.414 C 204.039,97.211 203.531,97 203,97 c -0.531,0 -1.039,0.211 -1.414,0.586 C 201.211,97.961 201,98.469 201,99 c 0,0.531 0.211,1.039 0.586,1.414 0.375,0.375 0.883,0.586 1.414,0.586 0.531,0 1.039,-0.211 1.414,-0.586 C 204.789,100.039 205,99.531 205,99 Z"
       style="fill:#009a5f;fill-opacity:1;fill-rule:evenodd;stroke:none"
       id="path196" /><path
       d="m 207,99 c 0,-0.531 -0.211,-1.039 -0.586,-1.414 C 206.039,97.211 205.531,97 205,97 c -0.531,0 -1.039,0.211 -1.414,0.586 C 203.211,97.961 203,98.469 203,99 c 0,0.531 0.211,1.039 0.586,1.414 0.375,0.375 0.883,0.586 1.414,0.586 0.531,0 1.039,-0.211 1.414,-0.586 C 206.789,100.039 207,99.531 207,99 Z"
       style="fill:#009a5f;fill-opacity:1;fill-rule:evenodd;stroke:none"
       id="path198" /><path
       d="m 209,99 c 0,-0.531 -0.211,-1.039 -0.586,-1.414 C 208.039,97.211 207.531,97 207,97 c -0.531,0 -1.039,0.211 -1.414,0.586 C 205.211,97.961 205,98.469 205,99 c 0,0.531 0.211,1.039 0.586,1.414 0.375,0.375 0.883,0.586 1.414,0.586 0.531,0 1.039,-0.211 1.414,-0.586 C 208.789,100.039 209,99.531 209,99 Z"
       style="fill:#009a5f;fill-opacity:1;fill-rule:evenodd;stroke:none"
       id="path200" /><path
       d="m 212,98 c 0,-0.531 -0.211,-1.039 -0.586,-1.414 C 211.039,96.211 210.531,96 210,96 c -0.531,0 -1.039,0.211 -1.414,0.586 C 208.211,96.961 208,97.469 208,98 c 0,0.531 0.211,1.039 0.586,1.414 0.375,0.375 0.883,0.586 1.414,0.586 0.531,0 1.039,-0.211 1.414,-0.586 C 211.789,99.039 212,98.531 212,98 Z"
       style="fill:#009a5f;fill-opacity:1;fill-rule:evenodd;stroke:none"
       id="path202" /><path
       d="m 214,98 c 0,-0.531 -0.211,-1.039 -0.586,-1.414 C 213.039,96.211 212.531,96 212,96 c -0.531,0 -1.039,0.211 -1.414,0.586 C 210.211,96.961 210,97.469 210,98 c 0,0.531 0.211,1.039 0.586,1.414 0.375,0.375 0.883,0.586 1.414,0.586 0.531,0 1.039,-0.211 1.414,-0.586 C 213.789,99.039 214,98.531 214,98 Z"
       style="fill:#009a5f;fill-opacity:1;fill-rule:evenodd;stroke:none"
       id="path204" /><path
       d="m 216,98 c 0,-0.531 -0.211,-1.039 -0.586,-1.414 C 215.039,96.211 214.531,96 214,96 c -0.531,0 -1.039,0.211 -1.414,0.586 C 212.211,96.961 212,97.469 212,98 c 0,0.531 0.211,1.039 0.586,1.414 0.375,0.375 0.883,0.586 1.414,0.586 0.531,0 1.039,-0.211 1.414,-0.586 C 215.789,99.039 216,98.531 216,98 Z"
       style="fill:#009a5f;fill-opacity:1;fill-rule:evenodd;stroke:none"
       id="path206" /><path
       d="m 219,98 c 0,-0.531 -0.211,-1.039 -0.586,-1.414 C 218.039,96.211 217.531,96 217,96 c -0.531,0 -1.039,0.211 -1.414,0.586 C 215.211,96.961 215,97.469 215,98 c 0,0.531 0.211,1.039 0.586,1.414 0.375,0.375 0.883,0.586 1.414,0.586 0.531,0 1.039,-0.211 1.414,-0.586 C 218.789,99.039 219,98.531 219,98 Z"
       style="fill:#009a5f;fill-opacity:1;fill-rule:evenodd;stroke:none"
       id="path208" /><path
       d="m 221,97 c 0,-0.531 -0.211,-1.039 -0.586,-1.414 C 220.039,95.211 219.531,95 219,95 c -0.531,0 -1.039,0.211 -1.414,0.586 C 217.211,95.961 217,96.469 217,97 c 0,0.531 0.211,1.039 0.586,1.414 0.375,0.375 0.883,0.586 1.414,0.586 0.531,0 1.039,-0.211 1.414,-0.586 C 220.789,98.039 221,97.531 221,97 Z"
       style="fill:#009a5f;fill-opacity:1;fill-rule:evenodd;stroke:none"
       id="path210" /><path
       d="m 223,97 c 0,-0.531 -0.211,-1.039 -0.586,-1.414 C 222.039,95.211 221.531,95 221,95 c -0.531,0 -1.039,0.211 -1.414,0.586 C 219.211,95.961 219,96.469 219,97 c 0,0.531 0.211,1.039 0.586,1.414 0.375,0.375 0.883,0.586 1.414,0.586 0.531,0 1.039,-0.211 1.414,-0.586 C 222.789,98.039 223,97.531 223,97 Z"
       style="fill:#c13441;fill-opacity:1;fill-rule:evenodd;stroke:none"
       id="path212" /><path
       d="m 0.5,206.848 v -2.399"
       style="fill:none;stroke:#666666;stroke-width:0.2;stroke-linecap:butt;stroke-linejoin:miter;stroke-miterlimit:3.25;stroke-dasharray:none;stroke-opacity:1"
       id="path260" /><path
       d="m 12.102,206.848 v -2.399"
       style="fill:none;stroke:#666666;stroke-width:0.2;stroke-linecap:butt;stroke-linejoin:miter;stroke-miterlimit:3.25;stroke-dasharray:none;stroke-opacity:1"
       id="path262" /><path
       d="m 23.699,206.848 v -2.399"
       style="fill:none;stroke:#666666;stroke-width:0.2;stroke-linecap:butt;stroke-linejoin:miter;stroke-miterlimit:3.25;stroke-dasharray:none;stroke-opacity:1"
       id="path264" /><path
       d="m 35.301,206.848 v -4"
       style="fill:none;stroke:#666666;stroke-width:0.2;stroke-linecap:butt;stroke-linejoin:miter;stroke-miterlimit:3.25;stroke-dasharray:none;stroke-opacity:1"
       id="path266" /><path
       d="m 46.898,206.848 v -2.399"
       style="fill:none;stroke:#666666;stroke-width:0.2;stroke-linecap:butt;stroke-linejoin:miter;stroke-miterlimit:3.25;stroke-dasharray:none;stroke-opacity:1"
       id="path268" /><path
       d="m 58.5,206.848 v -2.399"
       style="fill:none;stroke:#666666;stroke-width:0.2;stroke-linecap:butt;stroke-linejoin:miter;stroke-miterlimit:3.25;stroke-dasharray:none;stroke-opacity:1"
       id="path270" /><path
       d="m 70.102,206.848 v -2.399"
       style="fill:none;stroke:#666666;stroke-width:0.2;stroke-linecap:butt;stroke-linejoin:miter;stroke-miterlimit:3.25;stroke-dasharray:none;stroke-opacity:1"
       id="path272" /><path
       d="m 81.699,206.848 v -4"
       style="fill:none;stroke:#666666;stroke-width:0.2;stroke-linecap:butt;stroke-linejoin:miter;stroke-miterlimit:3.25;stroke-dasharray:none;stroke-opacity:1"
       id="path274" /><text
       style="font-variant:normal;font-weight:normal;font-size:10px;font-family:Arial;-inkscape-font-specification:ArialMT;writing-mode:lr-tb;fill:#000000;fill-opacity:1;fill-rule:nonzero;stroke:none"
       id="text278"
       x="78.699997"
       y="218.84814"><tspan
         x="78.699997"
         y="218.84814"
         id="tspan276">2</tspan></text><path
       d="m 93.301,206.848 v -2.399"
       style="fill:none;stroke:#666666;stroke-width:0.2;stroke-linecap:butt;stroke-linejoin:miter;stroke-miterlimit:3.25;stroke-dasharray:none;stroke-opacity:1"
       id="path280" /><path
       d="m 104.898,206.848 v -2.399"
       style="fill:none;stroke:#666666;stroke-width:0.2;stroke-linecap:butt;stroke-linejoin:miter;stroke-miterlimit:3.25;stroke-dasharray:none;stroke-opacity:1"
       id="path282" /><path
       d="m 116.5,206.848 v -2.399"
       style="fill:none;stroke:#666666;stroke-width:0.2;stroke-linecap:butt;stroke-linejoin:miter;stroke-miterlimit:3.25;stroke-dasharray:none;stroke-opacity:1"
       id="path284" /><path
       d="m 128.102,206.848 v -4"
       style="fill:none;stroke:#666666;stroke-width:0.2;stroke-linecap:butt;stroke-linejoin:miter;stroke-miterlimit:3.25;stroke-dasharray:none;stroke-opacity:1"
       id="path286" /><text
       style="font-variant:normal;font-weight:normal;font-size:10px;font-family:Arial;-inkscape-font-specification:ArialMT;writing-mode:lr-tb;fill:#000000;fill-opacity:1;fill-rule:nonzero;stroke:none"
       id="text290"
       x="125.1"
       y="218.84814"><tspan
         x="125.1"
         y="218.84814"
         id="tspan288">4</tspan></text><path
       d="m 139.699,206.848 v -2.399"
       style="fill:none;stroke:#666666;stroke-width:0.2;stroke-linecap:butt;stroke-linejoin:miter;stroke-miterlimit:3.25;stroke-dasharray:none;stroke-opacity:1"
       id="path292" /><path
       d="m 151.301,206.848 v -2.399"
       style="fill:none;stroke:#666666;stroke-width:0.2;stroke-linecap:butt;stroke-linejoin:miter;stroke-miterlimit:3.25;stroke-dasharray:none;stroke-opacity:1"
       id="path294" /><path
       d="m 162.898,206.848 v -2.399"
       style="fill:none;stroke:#666666;stroke-width:0.2;stroke-linecap:butt;stroke-linejoin:miter;stroke-miterlimit:3.25;stroke-dasharray:none;stroke-opacity:1"
       id="path296" /><path
       d="m 174.5,206.848 v -4"
       style="fill:none;stroke:#666666;stroke-width:0.2;stroke-linecap:butt;stroke-linejoin:miter;stroke-miterlimit:3.25;stroke-dasharray:none;stroke-opacity:1"
       id="path298" /><text
       style="font-variant:normal;font-weight:normal;font-size:10px;font-family:Arial;-inkscape-font-specification:ArialMT;writing-mode:lr-tb;fill:#000000;fill-opacity:1;fill-rule:nonzero;stroke:none"
       id="text302"
       x="171.5"
       y="218.84814"><tspan
         x="171.5"
         y="218.84814"
         id="tspan300">6</tspan></text><path
       d="m 186.102,206.848 v -2.399"
       style="fill:none;stroke:#666666;stroke-width:0.2;stroke-linecap:butt;stroke-linejoin:miter;stroke-miterlimit:3.25;stroke-dasharray:none;stroke-opacity:1"
       id="path304" /><path
       d="m 197.699,206.848 v -2.399"
       style="fill:none;stroke:#666666;stroke-width:0.2;stroke-linecap:butt;stroke-linejoin:miter;stroke-miterlimit:3.25;stroke-dasharray:none;stroke-opacity:1"
       id="path306" /><path
       d="m 209.301,206.848 v -2.399"
       style="fill:none;stroke:#666666;stroke-width:0.2;stroke-linecap:butt;stroke-linejoin:miter;stroke-miterlimit:3.25;stroke-dasharray:none;stroke-opacity:1"
       id="path308" /><path
       d="m 220.898,206.848 v -4"
       style="fill:none;stroke:#666666;stroke-width:0.2;stroke-linecap:butt;stroke-linejoin:miter;stroke-miterlimit:3.25;stroke-dasharray:none;stroke-opacity:1"
       id="path310" /><text
       style="font-variant:normal;font-weight:normal;font-size:10px;font-family:Arial;-inkscape-font-specification:ArialMT;writing-mode:lr-tb;fill:#000000;fill-opacity:1;fill-rule:nonzero;stroke:none"
       id="text314"
       x="217.89999"
       y="218.84814"><tspan
         x="217.89999"
         y="218.84814"
         id="tspan312">8</tspan></text><path
       d="m 232.5,206.848 v -2.399"
       style="fill:none;stroke:#666666;stroke-width:0.2;stroke-linecap:butt;stroke-linejoin:miter;stroke-miterlimit:3.25;stroke-dasharray:none;stroke-opacity:1"
       id="path316" /><path
       d="m 244.102,206.848 v -2.399"
       style="fill:none;stroke:#666666;stroke-width:0.2;stroke-linecap:butt;stroke-linejoin:miter;stroke-miterlimit:3.25;stroke-dasharray:none;stroke-opacity:1"
       id="path318" /><path
       d="m 255.699,206.848 v -2.399"
       style="fill:none;stroke:#666666;stroke-width:0.2;stroke-linecap:butt;stroke-linejoin:miter;stroke-miterlimit:3.25;stroke-dasharray:none;stroke-opacity:1"
       id="path320" /><path
       d="M 0.5,206.848 H 262.13803"
       style="fill:none;stroke:#666666;stroke-width:0.173417;stroke-linecap:butt;stroke-linejoin:miter;stroke-miterlimit:3.25;stroke-dasharray:none;stroke-opacity:1"
       id="path346" /><path
       d="m 35.301,225.434 h 2.398"
       style="fill:none;stroke:#666666;stroke-width:0.2;stroke-linecap:butt;stroke-linejoin:miter;stroke-miterlimit:3.25;stroke-dasharray:none;stroke-opacity:1"
       id="path348" /><path
       d="m 35.301,219.238 h 2.398"
       style="fill:none;stroke:#666666;stroke-width:0.2;stroke-linecap:butt;stroke-linejoin:miter;stroke-miterlimit:3.25;stroke-dasharray:none;stroke-opacity:1"
       id="path350" /><path
       d="m 35.301,213.043 h 2.398"
       style="fill:none;stroke:#666666;stroke-width:0.2;stroke-linecap:butt;stroke-linejoin:miter;stroke-miterlimit:3.25;stroke-dasharray:none;stroke-opacity:1"
       id="path352" /><path
       d="m 35.301,206.848 h 4"
       style="fill:none;stroke:#666666;stroke-width:0.2;stroke-linecap:butt;stroke-linejoin:miter;stroke-miterlimit:3.25;stroke-dasharray:none;stroke-opacity:1"
       id="path354" /><path
       d="m 35.301,200.652 h 2.398"
       style="fill:none;stroke:#666666;stroke-width:0.2;stroke-linecap:butt;stroke-linejoin:miter;stroke-miterlimit:3.25;stroke-dasharray:none;stroke-opacity:1"
       id="path356" /><path
       d="m 35.301,194.457 h 2.398"
       style="fill:none;stroke:#666666;stroke-width:0.2;stroke-linecap:butt;stroke-linejoin:miter;stroke-miterlimit:3.25;stroke-dasharray:none;stroke-opacity:1"
       id="path358" /><path
       d="m 35.301,188.262 h 2.398"
       style="fill:none;stroke:#666666;stroke-width:0.2;stroke-linecap:butt;stroke-linejoin:miter;stroke-miterlimit:3.25;stroke-dasharray:none;stroke-opacity:1"
       id="path360" /><path
       d="m 35.301,182.07 h 2.398"
       style="fill:none;stroke:#666666;stroke-width:0.2;stroke-linecap:butt;stroke-linejoin:miter;stroke-miterlimit:3.25;stroke-dasharray:none;stroke-opacity:1"
       id="path362" /><path
       d="m 35.301,175.875 h 4"
       style="fill:none;stroke:#666666;stroke-width:0.2;stroke-linecap:butt;stroke-linejoin:miter;stroke-miterlimit:3.25;stroke-dasharray:none;stroke-opacity:1"
       id="path364" /><text
       style="font-variant:normal;font-weight:normal;font-size:10px;font-family:Arial;-inkscape-font-specification:ArialMT;writing-mode:lr-tb;fill:#000000;fill-opacity:1;fill-rule:nonzero;stroke:none"
       id="text368"
       x="19.054867"
       y="178.08365"><tspan
         x="19.054867"
         y="178.08365"
         id="tspan366">5</tspan></text><path
       d="m 35.301,169.68 h 2.398"
       style="fill:none;stroke:#666666;stroke-width:0.2;stroke-linecap:butt;stroke-linejoin:miter;stroke-miterlimit:3.25;stroke-dasharray:none;stroke-opacity:1"
       id="path370" /><path
       d="m 35.301,163.484 h 2.398"
       style="fill:none;stroke:#666666;stroke-width:0.2;stroke-linecap:butt;stroke-linejoin:miter;stroke-miterlimit:3.25;stroke-dasharray:none;stroke-opacity:1"
       id="path372" /><path
       d="m 35.301,157.289 h 2.398"
       style="fill:none;stroke:#666666;stroke-width:0.2;stroke-linecap:butt;stroke-linejoin:miter;stroke-miterlimit:3.25;stroke-dasharray:none;stroke-opacity:1"
       id="path374" /><path
       d="m 35.301,151.094 h 2.398"
       style="fill:none;stroke:#666666;stroke-width:0.2;stroke-linecap:butt;stroke-linejoin:miter;stroke-miterlimit:3.25;stroke-dasharray:none;stroke-opacity:1"
       id="path376" /><path
       d="m 35.301,144.898 h 4"
       style="fill:none;stroke:#666666;stroke-width:0.2;stroke-linecap:butt;stroke-linejoin:miter;stroke-miterlimit:3.25;stroke-dasharray:none;stroke-opacity:1"
       id="path378" /><text
       style="font-variant:normal;font-weight:normal;font-size:10px;font-family:Arial;-inkscape-font-specification:ArialMT;writing-mode:lr-tb;fill:#000000;fill-opacity:1;fill-rule:nonzero;stroke:none"
       id="text382"
       x="14.054867"
       y="147.10896"><tspan
         x="14.054867 19.614868"
         y="147.10896"
         sodipodi:role="line"
         id="tspan380">10</tspan></text><path
       d="m 35.301,138.703 h 2.398"
       style="fill:none;stroke:#666666;stroke-width:0.2;stroke-linecap:butt;stroke-linejoin:miter;stroke-miterlimit:3.25;stroke-dasharray:none;stroke-opacity:1"
       id="path384" /><path
       d="m 35.301,132.508 h 2.398"
       style="fill:none;stroke:#666666;stroke-width:0.2;stroke-linecap:butt;stroke-linejoin:miter;stroke-miterlimit:3.25;stroke-dasharray:none;stroke-opacity:1"
       id="path386" /><path
       d="m 35.301,126.312 h 2.398"
       style="fill:none;stroke:#666666;stroke-width:0.2;stroke-linecap:butt;stroke-linejoin:miter;stroke-miterlimit:3.25;stroke-dasharray:none;stroke-opacity:1"
       id="path388" /><path
       d="m 35.301,120.117 h 2.398"
       style="fill:none;stroke:#666666;stroke-width:0.2;stroke-linecap:butt;stroke-linejoin:miter;stroke-miterlimit:3.25;stroke-dasharray:none;stroke-opacity:1"
       id="path390" /><path
       d="m 35.301,113.926 h 4"
       style="fill:none;stroke:#666666;stroke-width:0.2;stroke-linecap:butt;stroke-linejoin:miter;stroke-miterlimit:3.25;stroke-dasharray:none;stroke-opacity:1"
       id="path392" /><text
       style="font-variant:normal;font-weight:normal;font-size:10px;font-family:Arial;-inkscape-font-specification:ArialMT;writing-mode:lr-tb;fill:#000000;fill-opacity:1;fill-rule:nonzero;stroke:none"
       id="text396"
       x="14.054867"
       y="116.13428"><tspan
         x="14.054867 19.614868"
         y="116.13428"
         sodipodi:role="line"
         id="tspan394">15</tspan></text><path
       d="m 35.301,107.73 h 2.398"
       style="fill:none;stroke:#666666;stroke-width:0.2;stroke-linecap:butt;stroke-linejoin:miter;stroke-miterlimit:3.25;stroke-dasharray:none;stroke-opacity:1"
       id="path398" /><path
       d="m 35.301,101.535 h 2.398"
       style="fill:none;stroke:#666666;stroke-width:0.2;stroke-linecap:butt;stroke-linejoin:miter;stroke-miterlimit:3.25;stroke-dasharray:none;stroke-opacity:1"
       id="path400" /><path
       d="m 35.301,95.34 h 2.398"
       style="fill:none;stroke:#666666;stroke-width:0.2;stroke-linecap:butt;stroke-linejoin:miter;stroke-miterlimit:3.25;stroke-dasharray:none;stroke-opacity:1"
       id="path402" /><path
       d="m 35.301,89.145 h 2.398"
       style="fill:none;stroke:#666666;stroke-width:0.2;stroke-linecap:butt;stroke-linejoin:miter;stroke-miterlimit:3.25;stroke-dasharray:none;stroke-opacity:1"
       id="path404" /><path
       d="m 35.301,82.949 h 4"
       style="fill:none;stroke:#666666;stroke-width:0.2;stroke-linecap:butt;stroke-linejoin:miter;stroke-miterlimit:3.25;stroke-dasharray:none;stroke-opacity:1"
       id="path406" /><text
       style="font-variant:normal;font-weight:normal;font-size:10px;font-family:Arial;-inkscape-font-specification:ArialMT;writing-mode:lr-tb;fill:#000000;fill-opacity:1;fill-rule:nonzero;stroke:none"
       id="text410"
       x="14.054867"
       y="85.159584"><tspan
         x="14.054867 19.614868"
         y="85.159584"
         sodipodi:role="line"
         id="tspan408">20</tspan></text><path
       d="m 35.301,76.754 h 2.398"
       style="fill:none;stroke:#666666;stroke-width:0.2;stroke-linecap:butt;stroke-linejoin:miter;stroke-miterlimit:3.25;stroke-dasharray:none;stroke-opacity:1"
       id="path412" /><path
       d="m 35.301,70.559 h 2.398"
       style="fill:none;stroke:#666666;stroke-width:0.2;stroke-linecap:butt;stroke-linejoin:miter;stroke-miterlimit:3.25;stroke-dasharray:none;stroke-opacity:1"
       id="path414" /><path
       d="m 35.301,64.363 h 2.398"
       style="fill:none;stroke:#666666;stroke-width:0.2;stroke-linecap:butt;stroke-linejoin:miter;stroke-miterlimit:3.25;stroke-dasharray:none;stroke-opacity:1"
       id="path416" /><path
       d="m 35.301,58.168 h 2.398"
       style="fill:none;stroke:#666666;stroke-width:0.2;stroke-linecap:butt;stroke-linejoin:miter;stroke-miterlimit:3.25;stroke-dasharray:none;stroke-opacity:1"
       id="path418" /><path
       d="m 35.301,51.977 h 4"
       style="fill:none;stroke:#666666;stroke-width:0.2;stroke-linecap:butt;stroke-linejoin:miter;stroke-miterlimit:3.25;stroke-dasharray:none;stroke-opacity:1"
       id="path420" /><text
       style="font-variant:normal;font-weight:normal;font-size:10px;font-family:Arial;-inkscape-font-specification:ArialMT;writing-mode:lr-tb;fill:#000000;fill-opacity:1;fill-rule:nonzero;stroke:none"
       id="text424"
       x="14.054867"
       y="54.184887"><tspan
         x="14.054867 19.614868"
         y="54.184887"
         sodipodi:role="line"
         id="tspan422">25</tspan></text><path
       d="m 35.301,45.781 h 2.398"
       style="fill:none;stroke:#666666;stroke-width:0.2;stroke-linecap:butt;stroke-linejoin:miter;stroke-miterlimit:3.25;stroke-dasharray:none;stroke-opacity:1"
       id="path426" /><path
       d="m 35.301,39.586 h 2.398"
       style="fill:none;stroke:#666666;stroke-width:0.2;stroke-linecap:butt;stroke-linejoin:miter;stroke-miterlimit:3.25;stroke-dasharray:none;stroke-opacity:1"
       id="path428" /><path
       d="m 35.301,33.391 h 2.398"
       style="fill:none;stroke:#666666;stroke-width:0.2;stroke-linecap:butt;stroke-linejoin:miter;stroke-miterlimit:3.25;stroke-dasharray:none;stroke-opacity:1"
       id="path430" /><path
       d="m 35.301,27.195 h 2.398"
       style="fill:none;stroke:#666666;stroke-width:0.2;stroke-linecap:butt;stroke-linejoin:miter;stroke-miterlimit:3.25;stroke-dasharray:none;stroke-opacity:1"
       id="path432" /><path
       d="m 35.301,21 h 4"
       style="fill:none;stroke:#666666;stroke-width:0.2;stroke-linecap:butt;stroke-linejoin:miter;stroke-miterlimit:3.25;stroke-dasharray:none;stroke-opacity:1"
       id="path434" /><text
       style="font-variant:normal;font-weight:normal;font-size:10px;font-family:Arial;-inkscape-font-specification:ArialMT;writing-mode:lr-tb;fill:#000000;fill-opacity:1;fill-rule:nonzero;stroke:none"
       id="text438"
       x="14.054867"
       y="23.210196"><tspan
         x="14.054867 19.614868"
         y="23.210196"
         sodipodi:role="line"
         id="tspan436">30</tspan></text><path
       d="m 35.301,14.805 h 2.398"
       style="fill:none;stroke:#666666;stroke-width:0.2;stroke-linecap:butt;stroke-linejoin:miter;stroke-miterlimit:3.25;stroke-dasharray:none;stroke-opacity:1"
       id="path440" /><path
       d="M 35.301,228.355 V 13.281"
       style="fill:none;stroke:#666666;stroke-width:0.2;stroke-linecap:butt;stroke-linejoin:miter;stroke-miterlimit:3.25;stroke-dasharray:none;stroke-opacity:1"
       id="path442" /><text
       xml:space="preserve"
       style="font-size:12px;line-height:1.25;font-family:sans-serif;stroke-width:0.75"
       x="268.64951"
       y="210.68843"
       id="text4848"><tspan
         sodipodi:role="line"
         id="tspan4846"
         style="stroke-width:0.75"
         x="268.64951"
         y="210.68843">t</tspan></text><text
       xml:space="preserve"
       style="font-size:12px;line-height:1.25;font-family:sans-serif;stroke-width:0.75"
       x="22.604813"
       y="8.4043493"
       id="text5592"><tspan
         sodipodi:role="line"
         id="tspan5590"
         style="stroke-width:0.75"
         x="22.604813"
         y="8.4043493">$v$</tspan></text><path
       d="m 42,206 c 0,-0.531 -0.211,-1.039 -0.586,-1.414 C 41.039,204.211 40.531,204 40,204 c -0.531,0 -1.039,0.211 -1.414,0.586 C 38.211,204.961 38,205.469 38,206 c 0,0.531 0.211,1.039 0.586,1.414 0.375,0.375 0.883,0.586 1.414,0.586 0.531,0 1.039,-0.211 1.414,-0.586 C 41.789,207.039 42,206.531 42,206 Z"
       style="fill:#c13441;fill-opacity:1;fill-rule:evenodd;stroke:none"
       id="path20" /><path
       d="M 63,92 C 63,91.469 62.789,90.961 62.414,90.586 62.039,90.211 61.531,90 61,90 60.469,90 59.961,90.211 59.586,90.586 59.211,90.961 59,91.469 59,92 c 0,0.531 0.211,1.039 0.586,1.414 C 59.961,93.789 60.469,94 61,94 61.531,94 62.039,93.789 62.414,93.414 62.789,93.039 63,92.531 63,92 Z"
       style="fill:#c13441;fill-opacity:1;fill-rule:evenodd;stroke:none"
       id="path58" /><path
       d="m 128,98 c 0,-0.531 -0.211,-1.039 -0.586,-1.414 C 127.039,96.211 126.531,96 126,96 c -0.531,0 -1.039,0.211 -1.414,0.586 C 124.211,96.961 124,97.469 124,98 c 0,0.531 0.211,1.039 0.586,1.414 0.375,0.375 0.883,0.586 1.414,0.586 0.531,0 1.039,-0.211 1.414,-0.586 C 127.789,99.039 128,98.531 128,98 Z"
       style="fill:#c13441;fill-opacity:1;fill-rule:evenodd;stroke:none"
       id="path122" /><path
       d="m 184,97 c 0,-0.531 -0.211,-1.039 -0.586,-1.414 C 183.039,95.211 182.531,95 182,95 c -0.531,0 -1.039,0.211 -1.414,0.586 C 180.211,95.961 180,96.469 180,97 c 0,0.531 0.211,1.039 0.586,1.414 0.375,0.375 0.883,0.586 1.414,0.586 0.531,0 1.039,-0.211 1.414,-0.586 C 183.789,98.039 184,97.531 184,97 Z"
       style="fill:#c13441;fill-opacity:1;fill-rule:evenodd;stroke:none"
       id="path174" /></g></svg>
