<?xml version="1.0" encoding="UTF-8" standalone="no"?>
<!-- Created with Inkscape (http://www.inkscape.org/) -->

<svg
   version="1.1"
   id="svg2"
   xml:space="preserve"
   width="480"
   height="293.33334"
   viewBox="0 0 480 293.33334"
   sodipodi:docname="isotropic.svg"
   inkscape:version="1.1.1 (3bf5ae0d25, 2021-09-20)"
   xmlns:inkscape="http://www.inkscape.org/namespaces/inkscape"
   xmlns:sodipodi="http://sodipodi.sourceforge.net/DTD/sodipodi-0.dtd"
   xmlns="http://www.w3.org/2000/svg"
   xmlns:svg="http://www.w3.org/2000/svg"><defs
     id="defs6"><marker
       style="overflow:visible"
       id="Arrow2Lstart"
       refX="0"
       refY="0"
       orient="auto"
       inkscape:stockid="Arrow2Lstart"
       inkscape:isstock="true"><path
         transform="matrix(1.1,0,0,1.1,1.1,0)"
         d="M 8.7185878,4.0337352 -2.2072895,0.01601326 8.7185884,-4.0017078 c -1.7454984,2.3720609 -1.7354408,5.6174519 -6e-7,8.035443 z"
         style="fill:context-stroke;fill-rule:evenodd;stroke:context-stroke;stroke-width:0.625;stroke-linejoin:round"
         id="path13953" /></marker><marker
       style="overflow:visible"
       id="Arrow2Lstart-9"
       refX="0"
       refY="0"
       orient="auto"
       inkscape:stockid="Arrow2Lstart"
       inkscape:isstock="true"><path
         transform="matrix(1.1,0,0,1.1,1.1,0)"
         d="M 8.7185878,4.0337352 -2.2072895,0.01601326 8.7185884,-4.0017078 c -1.7454984,2.3720609 -1.7354408,5.6174519 -6e-7,8.035443 z"
         style="fill:context-stroke;fill-rule:evenodd;stroke:context-stroke;stroke-width:0.625;stroke-linejoin:round"
         id="path13953-4" /></marker><marker
       style="overflow:visible"
       id="Arrow2Lstart-8"
       refX="0"
       refY="0"
       orient="auto"
       inkscape:stockid="Arrow2Lstart"
       inkscape:isstock="true"><path
         transform="matrix(1.1,0,0,1.1,1.1,0)"
         d="M 8.7185878,4.0337352 -2.2072895,0.01601326 8.7185884,-4.0017078 c -1.7454984,2.3720609 -1.7354408,5.6174519 -6e-7,8.035443 z"
         style="fill:context-stroke;fill-rule:evenodd;stroke:context-stroke;stroke-width:0.625;stroke-linejoin:round"
         id="path13953-6" /></marker></defs><sodipodi:namedview
     id="namedview4"
     pagecolor="#ffffff"
     bordercolor="#666666"
     borderopacity="1.0"
     inkscape:pageshadow="2"
     inkscape:pageopacity="0.0"
     inkscape:pagecheckerboard="0"
     showgrid="false"
     inkscape:zoom="0.91776568"
     inkscape:cx="-14.164836"
     inkscape:cy="378.63695"
     inkscape:window-width="3440"
     inkscape:window-height="1369"
     inkscape:window-x="-8"
     inkscape:window-y="-8"
     inkscape:window-maximized="1"
     inkscape:current-layer="g8" /><g
     id="g8"
     inkscape:groupmode="layer"
     inkscape:label="patch_375_1054"
     transform="matrix(1.3333333,0,0,1.3333333,0,4e-6)"><text
       style="font-variant:normal;font-weight:normal;font-size:13px;font-family:Mathematica;-inkscape-font-specification:Mathematica;writing-mode:lr-tb;fill:#000000;fill-opacity:1;fill-rule:nonzero;stroke:none"
       id="text192"
       x="337.57764"
       y="296.44595"><tspan
         x="337.57764"
         y="296.44595"
         id="tspan190">$\varepsilon_{yy}$</tspan></text><text
       style="font-variant:normal;font-weight:normal;font-size:13px;font-family:Mathematica;-inkscape-font-specification:Mathematica;writing-mode:lr-tb;fill:#000000;fill-opacity:1;fill-rule:nonzero;stroke:none"
       id="text272"
       x="168.38441"
       y="12.101019"><tspan
         x="168.38441"
         y="12.101019"
         id="tspan270">$\sigma_{yy}$</tspan></text><path
       d="M 0,0 H 360 V 220.078 H 0 Z"
       style="fill:none;stroke:#ffffff;stroke-width:1;stroke-linecap:butt;stroke-linejoin:miter;stroke-miterlimit:10;stroke-dasharray:none;stroke-opacity:1"
       id="path14" /><path
       d="m 171.285,293.86439 15.43,-102.81106 15.43,-3.07442 15.425,-3.06458 30.86,-6.14884 15.425,-3.07442 15.43,-3.06458 30.86,-6.14884 15.425,-3.07442 -15.425,262.39065 -15.43,3.07442 -15.43,3.06458 -15.43,3.07442 -15.425,3.07442 -30.86,6.14884 -15.425,3.06458 -46.29,9.22326 -15.425,3.06704 -30.86,6.14884 -15.425,3.07442 -15.43,3.06459 -30.86,6.14883 -15.425,3.07442 -15.43,3.07442 15.43,-381.36331 15.425,-3.07442 46.29,-9.223259 15.425,-3.064582 30.86,-6.148839 15.425,-3.07442 15.43,-3.064581 30.86,-6.14884 15.425,-3.074419 15.43,-3.07442 15.43,-3.064582 15.425,-3.074419 30.86,-6.14884 15.43,-3.064581 15.425,-3.07442"
       style="fill:none;stroke:#3fa200;stroke-width:2.50927;stroke-linecap:square;stroke-linejoin:miter;stroke-miterlimit:3.25;stroke-dasharray:none;stroke-opacity:1"
       id="path16" /><path
       d="M 10.57,293.86439 H 332"
       style="fill:none;stroke:#666666;stroke-width:0.313658;stroke-linecap:butt;stroke-linejoin:miter;stroke-miterlimit:3.25;stroke-dasharray:none;stroke-opacity:1"
       id="path188" /><path
       d="M 171.285,508.59169 V 20"
       style="fill:none;stroke:#666666;stroke-width:0.313658;stroke-linecap:butt;stroke-linejoin:miter;stroke-miterlimit:3.25;stroke-dasharray:none;stroke-opacity:1"
       id="path254" /><path
       style="fill:none;stroke:#3fa200;stroke-width:1.17622px;stroke-linecap:butt;stroke-linejoin:miter;stroke-opacity:1;marker-start:url(#Arrow2Lstart)"
       d="m 180.51948,232.46707 -1.66157,10.69891"
       id="path13033" /><path
       style="fill:none;stroke:#3fa200;stroke-width:1.17622px;stroke-linecap:butt;stroke-linejoin:miter;stroke-opacity:1;marker-start:url(#Arrow2Lstart-9)"
       d="M 317.45773,303.18812 318.14858,291.862"
       id="path13033-7" /><path
       style="fill:none;stroke:#3fa200;stroke-width:1.17622px;stroke-linecap:butt;stroke-linejoin:miter;stroke-opacity:1;marker-start:url(#Arrow2Lstart-8)"
       d="m 25.28456,282.90319 -0.449138,11.39944"
       id="path13033-9" /></g></svg>
