<?xml version="1.0" encoding="UTF-8" standalone="no"?>
<!-- Created with Inkscape (http://www.inkscape.org/) -->

<svg
   version="1.1"
   id="svg2"
   xml:space="preserve"
   width="480"
   height="298.66666"
   viewBox="0 0 480 298.66666"
   sodipodi:docname="K_tex.svg"
   inkscape:version="1.1.1 (3bf5ae0d25, 2021-09-20)"
   xmlns:inkscape="http://www.inkscape.org/namespaces/inkscape"
   xmlns:sodipodi="http://sodipodi.sourceforge.net/DTD/sodipodi-0.dtd"
   xmlns="http://www.w3.org/2000/svg"
   xmlns:svg="http://www.w3.org/2000/svg"><defs
     id="defs6" /><sodipodi:namedview
     id="namedview4"
     pagecolor="#ffffff"
     bordercolor="#666666"
     borderopacity="1.0"
     inkscape:pageshadow="2"
     inkscape:pageopacity="0.0"
     inkscape:pagecheckerboard="0"
     showgrid="false"
     inkscape:zoom="1.7618744"
     inkscape:cx="232.70671"
     inkscape:cy="110.96137"
     inkscape:window-width="1920"
     inkscape:window-height="1009"
     inkscape:window-x="-8"
     inkscape:window-y="-8"
     inkscape:window-maximized="1"
     inkscape:current-layer="g8" /><g
     id="g8"
     inkscape:groupmode="layer"
     inkscape:label="K"
     transform="matrix(1.3333333,0,0,1.3333333,0,1.08e-5)"><path
       d="m 246.035,132.57 1.715,-1.715 0.129,-0.121 0.148,-0.14 0.172,-0.145 0.192,-0.148 0.207,-0.137 0.226,-0.125 0.235,-0.098 0.246,-0.078 0.261,-0.051 0.274,-0.035 0.293,-0.023 0.305,-0.008 0.324,-0.004 h 2.101"
       style="fill:none;stroke:#ffffff;stroke-width:4;stroke-linecap:butt;stroke-linejoin:round;stroke-miterlimit:3.23931;stroke-dasharray:none;stroke-opacity:0.666667"
       id="path26" /><path
       d="m 246.035,132.57 1.715,-1.715 0.129,-0.121 0.148,-0.14 0.172,-0.145 0.192,-0.148 0.207,-0.137 0.226,-0.125 0.235,-0.098 0.246,-0.078 0.261,-0.051 0.274,-0.035 0.293,-0.023 0.305,-0.008 0.324,-0.004 h 2.101"
       style="fill:none;stroke:#aaaaaa;stroke-width:1.25;stroke-linecap:square;stroke-linejoin:miter;stroke-miterlimit:3.25;stroke-dasharray:none;stroke-opacity:1"
       id="path28" /><g
       aria-label="****"
       id="text24"
       style="font-size:20px;font-family:MathematicaSans;-inkscape-font-specification:MathematicaSans;fill:#3365b5;fill-opacity:1"><path
         d="m 73.063515,34.577892 -0.625,1.074219 -3.535157,-2.080078 0.05859,3.515625 h -1.259765 l 0.04883,-3.515625 -3.525391,2.089844 -0.634766,-1.074219 3.720704,-2.021484 -3.720704,-2.021485 0.634766,-1.074219 3.535156,2.080079 -0.05859,-3.50586 h 1.259765 l -0.06836,3.50586 3.544922,-2.070313 0.625,1.074219 -3.710938,2.001953 z"
         id="path1314"
         style="fill:#3365b5;fill-opacity:1" /><path
         d="m 108.02351,66.217529 -0.625,1.074219 -3.53515,-2.080078 0.0586,3.515625 h -1.25976 l 0.0488,-3.515625 -3.525387,2.089844 -0.634765,-1.074219 3.720702,-2.021484 -3.720702,-2.021485 0.634765,-1.074219 3.535157,2.080079 -0.0586,-3.50586 h 1.25976 l -0.0684,3.50586 3.54492,-2.070313 0.625,1.074219 -3.71093,2.001953 z"
         id="path1316"
         style="fill:#3365b5;fill-opacity:1" /><path
         d="m 177.94351,117.6257 -0.625,1.07422 -3.53515,-2.08008 0.0586,3.51562 h -1.25977 l 0.0488,-3.51562 -3.52539,2.08984 -0.63476,-1.07422 3.7207,-2.02148 -3.7207,-2.02149 0.63476,-1.07421 3.53516,2.08007 -0.0586,-3.50586 h 1.25977 l -0.0684,3.50586 3.54492,-2.07031 0.625,1.07422 -3.71094,2.00195 z"
         id="path1318"
         style="fill:#3365b5;fill-opacity:1" /><path
         d="m 247.86353,134.18423 -0.625,1.07422 -3.53516,-2.08008 0.0586,3.51563 h -1.25976 l 0.0488,-3.51563 -3.5254,2.08985 -0.63476,-1.07422 3.7207,-2.02149 -3.7207,-2.02148 0.63476,-1.07422 3.53516,2.08008 -0.0586,-3.50586 h 1.25976 l -0.0684,3.50586 3.54493,-2.07032 0.625,1.07422 -3.71094,2.00196 z"
         id="path1320"
         style="fill:#3365b5;fill-opacity:1" /></g><path
       d="m 252.863,118.34 h 42 v 19 h -42 z"
       style="fill:#ffffff;fill-opacity:0.666667;fill-rule:nonzero;stroke:none"
       id="path30" /><path
       d="m 252.863,118.34 h 42 v 19 h -42 z"
       style="fill:none;stroke:#ffffff;stroke-width:1.25;stroke-linecap:square;stroke-linejoin:miter;stroke-miterlimit:3.25;stroke-dasharray:none;stroke-opacity:0.666667"
       id="path32" /><text
       style="font-variant:normal;font-weight:normal;font-size:10px;font-family:Arial;-inkscape-font-specification:ArialMT;writing-mode:lr-tb;fill:#000000;fill-opacity:1;fill-rule:nonzero;stroke:none"
       id="text36"
       x="255.86514"
       y="130.3412"><tspan
         sodipodi:role="line"
         id="tspan34"
         x="255.86514"
         y="130.3412" /></text><path
       d="m 176.117,116.012 1.031,-1.032 0.133,-0.136 0.106,-0.102 0.078,-0.078 0.062,-0.066 0.059,-0.059 0.066,-0.062 0.18,-0.18 0.125,-0.121 0.152,-0.141 0.172,-0.144 0.192,-0.149 0.207,-0.137 0.222,-0.125 0.235,-0.097 0.25,-0.078 0.261,-0.051 0.274,-0.035 0.289,-0.024 0.305,-0.007 0.324,-0.004 h 2.105"
       style="fill:none;stroke:#ffffff;stroke-width:4;stroke-linecap:butt;stroke-linejoin:round;stroke-miterlimit:3.25;stroke-dasharray:none;stroke-opacity:0.666667"
       id="path38" /><path
       d="m 176.117,116.012 1.031,-1.032 0.133,-0.136 0.106,-0.102 0.078,-0.078 0.062,-0.066 0.059,-0.059 0.066,-0.062 0.18,-0.18 0.125,-0.121 0.152,-0.141 0.172,-0.144 0.192,-0.149 0.207,-0.137 0.222,-0.125 0.235,-0.097 0.25,-0.078 0.261,-0.051 0.274,-0.035 0.289,-0.024 0.305,-0.007 0.324,-0.004 h 2.105"
       style="fill:none;stroke:#aaaaaa;stroke-width:1.25;stroke-linecap:square;stroke-linejoin:miter;stroke-miterlimit:3.25;stroke-dasharray:none;stroke-opacity:1"
       id="path40" /><path
       d="m 182.945,101.781 h 42 v 19 h -42 z"
       style="fill:#ffffff;fill-opacity:0.666667;fill-rule:nonzero;stroke:none"
       id="path42" /><path
       d="m 182.945,101.781 h 42 v 19 h -42 z"
       style="fill:none;stroke:#ffffff;stroke-width:1.25;stroke-linecap:square;stroke-linejoin:miter;stroke-miterlimit:3.25;stroke-dasharray:none;stroke-opacity:0.666667"
       id="path44" /><text
       style="font-variant:normal;font-weight:normal;font-size:10px;font-family:Arial;-inkscape-font-specification:ArialMT;writing-mode:lr-tb;fill:#000000;fill-opacity:1;fill-rule:nonzero;stroke:none"
       id="text48"
       x="185.94514"
       y="113.78266"><tspan
         sodipodi:role="line"
         id="tspan46"
         x="185.94514"
         y="113.78266" /></text><path
       d="m 106.195,64.602 0.039,-0.036 0.102,-0.105 0.152,-0.149 0.18,-0.183 0.387,-0.387 0.172,-0.168 0.238,-0.238 0.078,-0.082 0.066,-0.063 0.059,-0.058 0.062,-0.067 0.079,-0.078 0.101,-0.097 0.129,-0.125 0.149,-0.137 0.171,-0.149 0.192,-0.144 0.207,-0.141 0.226,-0.121 0.235,-0.101 0.246,-0.075 0.262,-0.054 0.273,-0.035 0.293,-0.02 0.305,-0.012 0.324,-0.004 h 2.101"
       style="fill:none;stroke:#ffffff;stroke-width:4;stroke-linecap:butt;stroke-linejoin:round;stroke-miterlimit:3.25;stroke-dasharray:none;stroke-opacity:0.666667"
       id="path50" /><path
       d="m 106.195,64.602 0.039,-0.036 0.102,-0.105 0.152,-0.149 0.18,-0.183 0.387,-0.387 0.172,-0.168 0.238,-0.238 0.078,-0.082 0.066,-0.063 0.059,-0.058 0.062,-0.067 0.079,-0.078 0.101,-0.097 0.129,-0.125 0.149,-0.137 0.171,-0.149 0.192,-0.144 0.207,-0.141 0.226,-0.121 0.235,-0.101 0.246,-0.075 0.262,-0.054 0.273,-0.035 0.293,-0.02 0.305,-0.012 0.324,-0.004 h 2.101"
       style="fill:none;stroke:#aaaaaa;stroke-width:1.25;stroke-linecap:square;stroke-linejoin:miter;stroke-miterlimit:3.25;stroke-dasharray:none;stroke-opacity:1"
       id="path52" /><path
       d="m 113.023,50.375 h 42 v 19 h -42 z"
       style="fill:#ffffff;fill-opacity:0.666667;fill-rule:nonzero;stroke:none"
       id="path54" /><path
       d="m 113.023,50.375 h 42 v 19 h -42 z"
       style="fill:none;stroke:#ffffff;stroke-width:1.25;stroke-linecap:square;stroke-linejoin:miter;stroke-miterlimit:3.25;stroke-dasharray:none;stroke-opacity:0.666667"
       id="path56" /><text
       style="font-variant:normal;font-weight:normal;font-size:10px;font-family:Arial;-inkscape-font-specification:ArialMT;writing-mode:lr-tb;fill:#000000;fill-opacity:1;fill-rule:nonzero;stroke:none"
       id="text60"
       x="116.02515"
       y="62.374496"><tspan
         sodipodi:role="line"
         id="tspan58"
         x="116.02515"
         y="62.374496" /></text><path
       d="m 71.238,32.965 0.035,-0.039 0.106,-0.102 0.148,-0.152 0.184,-0.18 0.387,-0.387 0.168,-0.171 0.238,-0.239 0.082,-0.078 0.062,-0.066 0.059,-0.059 0.066,-0.062 0.075,-0.078 0.101,-0.102 0.129,-0.125 0.149,-0.137 0.171,-0.144 0.192,-0.149 0.211,-0.136 0.222,-0.125 0.235,-0.102 0.25,-0.074 0.258,-0.055 0.277,-0.035 0.289,-0.02 0.305,-0.011 h 2.429"
       style="fill:none;stroke:#ffffff;stroke-width:4;stroke-linecap:butt;stroke-linejoin:round;stroke-miterlimit:3.25;stroke-dasharray:none;stroke-opacity:0.666667"
       id="path62" /><path
       d="m 71.238,32.965 0.035,-0.039 0.106,-0.102 0.148,-0.152 0.184,-0.18 0.387,-0.387 0.168,-0.171 0.238,-0.239 0.082,-0.078 0.062,-0.066 0.059,-0.059 0.066,-0.062 0.075,-0.078 0.101,-0.102 0.129,-0.125 0.149,-0.137 0.171,-0.144 0.192,-0.149 0.211,-0.136 0.222,-0.125 0.235,-0.102 0.25,-0.074 0.258,-0.055 0.277,-0.035 0.289,-0.02 0.305,-0.011 h 2.429"
       style="fill:none;stroke:#aaaaaa;stroke-width:1.25;stroke-linecap:square;stroke-linejoin:miter;stroke-miterlimit:3.25;stroke-dasharray:none;stroke-opacity:1"
       id="path64" /><path
       d="m 78.066,18.734 h 42 v 19 h -42 z"
       style="fill:#ffffff;fill-opacity:0.666667;fill-rule:nonzero;stroke:none"
       id="path66" /><path
       d="m 78.066,18.734 h 42 v 19 h -42 z"
       style="fill:none;stroke:#ffffff;stroke-width:1.25;stroke-linecap:square;stroke-linejoin:miter;stroke-miterlimit:3.25;stroke-dasharray:none;stroke-opacity:0.666667"
       id="path68" /><text
       style="font-variant:normal;font-weight:normal;font-size:10px;font-family:Arial;-inkscape-font-specification:ArialMT;writing-mode:lr-tb;fill:#000000;fill-opacity:1;fill-rule:nonzero;stroke:none"
       id="text72"
       x="81.065147"
       y="30.73485"><tspan
         sodipodi:role="line"
         id="tspan70"
         x="81.065147"
         y="30.73485" /></text><path
       d="m 32,206.883 v -3.586"
       style="fill:none;stroke:#666666;stroke-width:0.2;stroke-linecap:butt;stroke-linejoin:miter;stroke-miterlimit:3.25;stroke-dasharray:none;stroke-opacity:1"
       id="path74" /><text
       style="font-variant:normal;font-weight:normal;font-size:10px;font-family:Arial;-inkscape-font-specification:ArialMT;writing-mode:lr-tb;fill:#000000;fill-opacity:1;fill-rule:nonzero;stroke:none"
       id="text78"
       x="25.851366"
       y="225.26756"><tspan
         x="25.851366 31.411366 34.18137"
         y="225.26756"
         sodipodi:role="line"
         id="tspan76">0.0</tspan></text><path
       d="M 45.984,206.883 V 204.73"
       style="fill:none;stroke:#666666;stroke-width:0.2;stroke-linecap:butt;stroke-linejoin:miter;stroke-miterlimit:3.25;stroke-dasharray:none;stroke-opacity:1"
       id="path80" /><path
       d="M 59.969,206.883 V 204.73"
       style="fill:none;stroke:#666666;stroke-width:0.2;stroke-linecap:butt;stroke-linejoin:miter;stroke-miterlimit:3.25;stroke-dasharray:none;stroke-opacity:1"
       id="path82" /><path
       d="M 73.953,206.883 V 204.73"
       style="fill:none;stroke:#666666;stroke-width:0.2;stroke-linecap:butt;stroke-linejoin:miter;stroke-miterlimit:3.25;stroke-dasharray:none;stroke-opacity:1"
       id="path84" /><path
       d="m 87.938,206.883 v -3.586"
       style="fill:none;stroke:#666666;stroke-width:0.2;stroke-linecap:butt;stroke-linejoin:miter;stroke-miterlimit:3.25;stroke-dasharray:none;stroke-opacity:1"
       id="path86" /><text
       style="font-variant:normal;font-weight:normal;font-size:10px;font-family:Arial;-inkscape-font-specification:ArialMT;writing-mode:lr-tb;fill:#000000;fill-opacity:1;fill-rule:nonzero;stroke:none"
       id="text90"
       x="81.787361"
       y="225.26756"><tspan
         x="81.787361 87.347366 90.117363"
         y="225.26756"
         sodipodi:role="line"
         id="tspan88">0.2</tspan></text><path
       d="M 101.922,206.883 V 204.73"
       style="fill:none;stroke:#666666;stroke-width:0.2;stroke-linecap:butt;stroke-linejoin:miter;stroke-miterlimit:3.25;stroke-dasharray:none;stroke-opacity:1"
       id="path92" /><path
       d="M 115.902,206.883 V 204.73"
       style="fill:none;stroke:#666666;stroke-width:0.2;stroke-linecap:butt;stroke-linejoin:miter;stroke-miterlimit:3.25;stroke-dasharray:none;stroke-opacity:1"
       id="path94" /><path
       d="M 129.887,206.883 V 204.73"
       style="fill:none;stroke:#666666;stroke-width:0.2;stroke-linecap:butt;stroke-linejoin:miter;stroke-miterlimit:3.25;stroke-dasharray:none;stroke-opacity:1"
       id="path96" /><path
       d="m 143.871,206.883 v -3.586"
       style="fill:none;stroke:#666666;stroke-width:0.2;stroke-linecap:butt;stroke-linejoin:miter;stroke-miterlimit:3.25;stroke-dasharray:none;stroke-opacity:1"
       id="path98" /><text
       style="font-variant:normal;font-weight:normal;font-size:10px;font-family:Arial;-inkscape-font-specification:ArialMT;writing-mode:lr-tb;fill:#000000;fill-opacity:1;fill-rule:nonzero;stroke:none"
       id="text102"
       x="137.72336"
       y="225.26756"><tspan
         x="137.72336 143.28337 146.05336"
         y="225.26756"
         sodipodi:role="line"
         id="tspan100">0.4</tspan></text><path
       d="M 157.855,206.883 V 204.73"
       style="fill:none;stroke:#666666;stroke-width:0.2;stroke-linecap:butt;stroke-linejoin:miter;stroke-miterlimit:3.25;stroke-dasharray:none;stroke-opacity:1"
       id="path104" /><path
       d="M 171.84,206.883 V 204.73"
       style="fill:none;stroke:#666666;stroke-width:0.2;stroke-linecap:butt;stroke-linejoin:miter;stroke-miterlimit:3.25;stroke-dasharray:none;stroke-opacity:1"
       id="path106" /><path
       d="M 185.824,206.883 V 204.73"
       style="fill:none;stroke:#666666;stroke-width:0.2;stroke-linecap:butt;stroke-linejoin:miter;stroke-miterlimit:3.25;stroke-dasharray:none;stroke-opacity:1"
       id="path108" /><path
       d="m 199.809,206.883 v -3.586"
       style="fill:none;stroke:#666666;stroke-width:0.2;stroke-linecap:butt;stroke-linejoin:miter;stroke-miterlimit:3.25;stroke-dasharray:none;stroke-opacity:1"
       id="path110" /><text
       style="font-variant:normal;font-weight:normal;font-size:10px;font-family:Arial;-inkscape-font-specification:ArialMT;writing-mode:lr-tb;fill:#000000;fill-opacity:1;fill-rule:nonzero;stroke:none"
       id="text114"
       x="193.65936"
       y="225.26756"><tspan
         x="193.65936 199.21936 201.98936"
         y="225.26756"
         sodipodi:role="line"
         id="tspan112">0.6</tspan></text><path
       d="M 213.793,206.883 V 204.73"
       style="fill:none;stroke:#666666;stroke-width:0.2;stroke-linecap:butt;stroke-linejoin:miter;stroke-miterlimit:3.25;stroke-dasharray:none;stroke-opacity:1"
       id="path116" /><path
       d="M 227.777,206.883 V 204.73"
       style="fill:none;stroke:#666666;stroke-width:0.2;stroke-linecap:butt;stroke-linejoin:miter;stroke-miterlimit:3.25;stroke-dasharray:none;stroke-opacity:1"
       id="path118" /><path
       d="M 241.762,206.883 V 204.73"
       style="fill:none;stroke:#666666;stroke-width:0.2;stroke-linecap:butt;stroke-linejoin:miter;stroke-miterlimit:3.25;stroke-dasharray:none;stroke-opacity:1"
       id="path120" /><path
       d="m 255.742,206.883 v -3.586"
       style="fill:none;stroke:#666666;stroke-width:0.2;stroke-linecap:butt;stroke-linejoin:miter;stroke-miterlimit:3.25;stroke-dasharray:none;stroke-opacity:1"
       id="path122" /><text
       style="font-variant:normal;font-weight:normal;font-size:10px;font-family:Arial;-inkscape-font-specification:ArialMT;writing-mode:lr-tb;fill:#000000;fill-opacity:1;fill-rule:nonzero;stroke:none"
       id="text126"
       x="249.59537"
       y="225.26756"><tspan
         x="249.59537 255.15536 257.92538"
         y="225.26756"
         sodipodi:role="line"
         id="tspan124">0.8</tspan></text><path
       d="M 269.727,206.883 V 204.73"
       style="fill:none;stroke:#666666;stroke-width:0.2;stroke-linecap:butt;stroke-linejoin:miter;stroke-miterlimit:3.25;stroke-dasharray:none;stroke-opacity:1"
       id="path128" /><path
       d="M 283.711,206.883 V 204.73"
       style="fill:none;stroke:#666666;stroke-width:0.2;stroke-linecap:butt;stroke-linejoin:miter;stroke-miterlimit:3.25;stroke-dasharray:none;stroke-opacity:1"
       id="path130" /><path
       d="M 297.695,206.883 V 204.73"
       style="fill:none;stroke:#666666;stroke-width:0.2;stroke-linecap:butt;stroke-linejoin:miter;stroke-miterlimit:3.25;stroke-dasharray:none;stroke-opacity:1"
       id="path132" /><path
       d="m 311.68,206.883 v -3.586"
       style="fill:none;stroke:#666666;stroke-width:0.2;stroke-linecap:butt;stroke-linejoin:miter;stroke-miterlimit:3.25;stroke-dasharray:none;stroke-opacity:1"
       id="path134" /><text
       style="font-variant:normal;font-weight:normal;font-size:10px;font-family:Arial;-inkscape-font-specification:ArialMT;writing-mode:lr-tb;fill:#000000;fill-opacity:1;fill-rule:nonzero;stroke:none"
       id="text138"
       x="305.53137"
       y="225.26756"><tspan
         x="305.53137 311.09137 313.86139"
         y="225.26756"
         sodipodi:role="line"
         id="tspan136">1.0</tspan></text><path
       d="M 325.664,206.883 V 204.73"
       style="fill:none;stroke:#666666;stroke-width:0.2;stroke-linecap:butt;stroke-linejoin:miter;stroke-miterlimit:3.25;stroke-dasharray:none;stroke-opacity:1"
       id="path140" /><path
       d="M 32,206.883 H 336"
       style="fill:none;stroke:#666666;stroke-width:0.2;stroke-linecap:butt;stroke-linejoin:miter;stroke-miterlimit:3.25;stroke-dasharray:none;stroke-opacity:1"
       id="path142" /><path
       d="m 32,206.883 h 3.586"
       style="fill:none;stroke:#666666;stroke-width:0.2;stroke-linecap:butt;stroke-linejoin:miter;stroke-miterlimit:3.25;stroke-dasharray:none;stroke-opacity:1"
       id="path156" /><text
       style="font-variant:normal;font-weight:normal;font-size:10px;font-family:Arial;-inkscape-font-specification:ArialMT;writing-mode:lr-tb;fill:#000000;fill-opacity:1;fill-rule:nonzero;stroke:none"
       id="text160"
       x="15.337706"
       y="209.38232"><tspan
         x="15.337706"
         y="209.38232"
         id="tspan158">0</tspan></text><path
       d="m 32,198.008 h 2.152"
       style="fill:none;stroke:#666666;stroke-width:0.2;stroke-linecap:butt;stroke-linejoin:miter;stroke-miterlimit:3.25;stroke-dasharray:none;stroke-opacity:1"
       id="path162" /><path
       d="m 32,189.137 h 2.152"
       style="fill:none;stroke:#666666;stroke-width:0.2;stroke-linecap:butt;stroke-linejoin:miter;stroke-miterlimit:3.25;stroke-dasharray:none;stroke-opacity:1"
       id="path164" /><path
       d="m 32,180.262 h 2.152"
       style="fill:none;stroke:#666666;stroke-width:0.2;stroke-linecap:butt;stroke-linejoin:miter;stroke-miterlimit:3.25;stroke-dasharray:none;stroke-opacity:1"
       id="path166" /><path
       d="m 32,171.391 h 3.586"
       style="fill:none;stroke:#666666;stroke-width:0.2;stroke-linecap:butt;stroke-linejoin:miter;stroke-miterlimit:3.25;stroke-dasharray:none;stroke-opacity:1"
       id="path168" /><text
       style="font-variant:normal;font-weight:normal;font-size:10px;font-family:Arial;-inkscape-font-specification:ArialMT;writing-mode:lr-tb;fill:#000000;fill-opacity:1;fill-rule:nonzero;stroke:none"
       id="text172"
       x="-0.66229439"
       y="173.89041"><tspan
         x="-0.66229439 4.8977051 10.457705 16.017706"
         y="173.89041"
         sodipodi:role="line"
         id="tspan170">2000</tspan></text><path
       d="m 32,162.516 h 2.152"
       style="fill:none;stroke:#666666;stroke-width:0.2;stroke-linecap:butt;stroke-linejoin:miter;stroke-miterlimit:3.25;stroke-dasharray:none;stroke-opacity:1"
       id="path174" /><path
       d="m 32,153.645 h 2.152"
       style="fill:none;stroke:#666666;stroke-width:0.2;stroke-linecap:butt;stroke-linejoin:miter;stroke-miterlimit:3.25;stroke-dasharray:none;stroke-opacity:1"
       id="path176" /><path
       d="m 32,144.77 h 2.152"
       style="fill:none;stroke:#666666;stroke-width:0.2;stroke-linecap:butt;stroke-linejoin:miter;stroke-miterlimit:3.25;stroke-dasharray:none;stroke-opacity:1"
       id="path178" /><path
       d="m 32,135.898 h 3.586"
       style="fill:none;stroke:#666666;stroke-width:0.2;stroke-linecap:butt;stroke-linejoin:miter;stroke-miterlimit:3.25;stroke-dasharray:none;stroke-opacity:1"
       id="path180" /><text
       style="font-variant:normal;font-weight:normal;font-size:10px;font-family:Arial;-inkscape-font-specification:ArialMT;writing-mode:lr-tb;fill:#000000;fill-opacity:1;fill-rule:nonzero;stroke:none"
       id="text184"
       x="-0.66229439"
       y="138.39848"><tspan
         x="-0.66229439 4.8977051 10.457705 16.017706"
         y="138.39848"
         sodipodi:role="line"
         id="tspan182">4000</tspan></text><path
       d="m 32,127.027 h 2.152"
       style="fill:none;stroke:#666666;stroke-width:0.2;stroke-linecap:butt;stroke-linejoin:miter;stroke-miterlimit:3.25;stroke-dasharray:none;stroke-opacity:1"
       id="path186" /><path
       d="m 32,118.152 h 2.152"
       style="fill:none;stroke:#666666;stroke-width:0.2;stroke-linecap:butt;stroke-linejoin:miter;stroke-miterlimit:3.25;stroke-dasharray:none;stroke-opacity:1"
       id="path188" /><path
       d="m 32,109.281 h 2.152"
       style="fill:none;stroke:#666666;stroke-width:0.2;stroke-linecap:butt;stroke-linejoin:miter;stroke-miterlimit:3.25;stroke-dasharray:none;stroke-opacity:1"
       id="path190" /><path
       d="m 32,100.406 h 3.586"
       style="fill:none;stroke:#666666;stroke-width:0.2;stroke-linecap:butt;stroke-linejoin:miter;stroke-miterlimit:3.25;stroke-dasharray:none;stroke-opacity:1"
       id="path192" /><text
       style="font-variant:normal;font-weight:normal;font-size:10px;font-family:Arial;-inkscape-font-specification:ArialMT;writing-mode:lr-tb;fill:#000000;fill-opacity:1;fill-rule:nonzero;stroke:none"
       id="text196"
       x="-0.66229439"
       y="102.90655"><tspan
         x="-0.66229439 4.8977051 10.457705 16.017706"
         y="102.90655"
         sodipodi:role="line"
         id="tspan194">6000</tspan></text><path
       d="m 32,91.535 h 2.152"
       style="fill:none;stroke:#666666;stroke-width:0.2;stroke-linecap:butt;stroke-linejoin:miter;stroke-miterlimit:3.25;stroke-dasharray:none;stroke-opacity:1"
       id="path198" /><path
       d="m 32,82.66 h 2.152"
       style="fill:none;stroke:#666666;stroke-width:0.2;stroke-linecap:butt;stroke-linejoin:miter;stroke-miterlimit:3.25;stroke-dasharray:none;stroke-opacity:1"
       id="path200" /><path
       d="m 32,73.789 h 2.152"
       style="fill:none;stroke:#666666;stroke-width:0.2;stroke-linecap:butt;stroke-linejoin:miter;stroke-miterlimit:3.25;stroke-dasharray:none;stroke-opacity:1"
       id="path202" /><path
       d="m 32,64.914 h 3.586"
       style="fill:none;stroke:#666666;stroke-width:0.2;stroke-linecap:butt;stroke-linejoin:miter;stroke-miterlimit:3.25;stroke-dasharray:none;stroke-opacity:1"
       id="path204" /><text
       style="font-variant:normal;font-weight:normal;font-size:10px;font-family:Arial;-inkscape-font-specification:ArialMT;writing-mode:lr-tb;fill:#000000;fill-opacity:1;fill-rule:nonzero;stroke:none"
       id="text208"
       x="-0.66229439"
       y="67.414627"><tspan
         x="-0.66229439 4.8977051 10.457705 16.017706"
         y="67.414627"
         sodipodi:role="line"
         id="tspan206">8000</tspan></text><path
       d="m 32,56.043 h 2.152"
       style="fill:none;stroke:#666666;stroke-width:0.2;stroke-linecap:butt;stroke-linejoin:miter;stroke-miterlimit:3.25;stroke-dasharray:none;stroke-opacity:1"
       id="path210" /><path
       d="m 32,47.168 h 2.152"
       style="fill:none;stroke:#666666;stroke-width:0.2;stroke-linecap:butt;stroke-linejoin:miter;stroke-miterlimit:3.25;stroke-dasharray:none;stroke-opacity:1"
       id="path212" /><path
       d="m 32,38.297 h 2.152"
       style="fill:none;stroke:#666666;stroke-width:0.2;stroke-linecap:butt;stroke-linejoin:miter;stroke-miterlimit:3.25;stroke-dasharray:none;stroke-opacity:1"
       id="path214" /><path
       d="m 32,29.422 h 3.586"
       style="fill:none;stroke:#666666;stroke-width:0.2;stroke-linecap:butt;stroke-linejoin:miter;stroke-miterlimit:3.25;stroke-dasharray:none;stroke-opacity:1"
       id="path216" /><text
       style="font-variant:normal;font-weight:normal;font-size:10px;font-family:Arial;-inkscape-font-specification:ArialMT;writing-mode:lr-tb;fill:#000000;fill-opacity:1;fill-rule:nonzero;stroke:none"
       id="text220"
       y="31.922701"
       x="-7.6622944"><tspan
         x="-7.6622944 -2.1022944 4.8477058 10.407705 15.967705"
         y="31.922701"
         sodipodi:role="line"
         id="tspan218">10000</tspan></text><path
       d="m 32,20.551 h 2.152"
       style="fill:none;stroke:#666666;stroke-width:0.2;stroke-linecap:butt;stroke-linejoin:miter;stroke-miterlimit:3.25;stroke-dasharray:none;stroke-opacity:1"
       id="path222" /><path
       d="M 32,206.883 V 19"
       style="fill:none;stroke:#666666;stroke-width:0.2;stroke-linecap:butt;stroke-linejoin:miter;stroke-miterlimit:3.25;stroke-dasharray:none;stroke-opacity:1"
       id="path224" /><text
       style="font-variant:normal;font-weight:normal;font-size:10px;font-family:Arial;-inkscape-font-specification:ArialMT;writing-mode:lr-tb;fill:#666666;fill-opacity:1;fill-rule:nonzero;stroke:none"
       id="text154"
       x="343.11185"
       y="202.39803"><tspan
         x="343.11185"
         y="202.39803"
         id="tspan152">$a\over L$</tspan></text><text
       style="font-variant:normal;font-weight:normal;font-size:10px;font-family:Arial;-inkscape-font-specification:ArialMT;writing-mode:lr-tb;fill:#666666;fill-opacity:1;fill-rule:nonzero;stroke:none"
       id="text230"
       x="35.427612"
       y="13.825134"><tspan
         x="35.427612"
         y="13.825134"
         id="tspan228">$K$</tspan></text><text
       xml:space="preserve"
       style="font-size:12px;line-height:1.25;font-family:sans-serif;stroke-width:0.75"
       x="78.895966"
       y="33.149368"
       id="text5187"><tspan
         sodipodi:role="line"
         id="tspan5185"
         style="stroke-width:0.75"
         x="78.895966"
         y="33.149368">\textcolor{myred}{9559.49}</tspan></text><text
       xml:space="preserve"
       style="font-size:12px;line-height:1.25;font-family:sans-serif;stroke-width:0.75"
       x="114.22765"
       y="64.224228"
       id="text5187-8"><tspan
         sodipodi:role="line"
         id="tspan5185-3"
         style="stroke-width:0.75"
         x="114.22765"
         y="64.224228">\textcolor{myred}{7776.57}</tspan></text><text
       xml:space="preserve"
       style="font-size:12px;line-height:1.25;font-family:sans-serif;stroke-width:0.75"
       x="182.33694"
       y="115.73187"
       id="text5187-0"><tspan
         sodipodi:role="line"
         id="tspan5185-9"
         style="stroke-width:0.75"
         x="182.33694"
         y="115.73187">\textcolor{myred}{4879.67}</tspan></text><text
       xml:space="preserve"
       style="font-size:12px;line-height:1.25;font-family:sans-serif;stroke-width:0.75"
       x="254.70306"
       y="133.18488"
       id="text5187-1"><tspan
         sodipodi:role="line"
         id="tspan5185-6"
         style="stroke-width:0.75"
         x="254.70306"
         y="133.18488">\textcolor{myred}{3946.59}</tspan></text></g></svg>
