<?xml version="1.0" encoding="UTF-8" standalone="no"?>
<!-- Created with Inkscape (http://www.inkscape.org/) -->

<svg
   version="1.1"
   id="svg2"
   xml:space="preserve"
   width="480"
   height="298.66666"
   viewBox="0 0 480 298.66666"
   sodipodi:docname="K_tex.svg"
   inkscape:version="1.1.1 (3bf5ae0d25, 2021-09-20)"
   xmlns:inkscape="http://www.inkscape.org/namespaces/inkscape"
   xmlns:sodipodi="http://sodipodi.sourceforge.net/DTD/sodipodi-0.dtd"
   xmlns="http://www.w3.org/2000/svg"
   xmlns:svg="http://www.w3.org/2000/svg"><defs
     id="defs6" /><sodipodi:namedview
     id="namedview4"
     pagecolor="#ffffff"
     bordercolor="#666666"
     borderopacity="1.0"
     inkscape:pageshadow="2"
     inkscape:pageopacity="0.0"
     inkscape:pagecheckerboard="0"
     showgrid="false"
     inkscape:zoom="0.82561085"
     inkscape:cx="386.38058"
     inkscape:cy="72.067852"
     inkscape:window-width="1920"
     inkscape:window-height="1009"
     inkscape:window-x="-8"
     inkscape:window-y="-8"
     inkscape:window-maximized="1"
     inkscape:current-layer="g10" /><g
     id="g8"
     inkscape:groupmode="layer"
     inkscape:label="K"
     transform="matrix(1.3333333,0,0,1.3333333,0,1.08e-5)"><g
       id="g10"><g
         aria-label="****"
         transform="translate(61.96,43.24)"
         id="text24"
         style="font-size:20px;font-family:MathematicaSans;-inkscape-font-specification:MathematicaSans;fill:#3365b5;fill-opacity:1"><path
           d="m 11.103516,-8.6621094 -0.625,1.0742188 -3.5351566,-2.0800782 0.058594,3.5156251 H 5.7421875 l 0.048828,-3.5156251 -3.5253906,2.0898438 -0.6347656,-1.0742188 3.7207031,-2.0214842 -3.7207031,-2.021485 0.6347656,-1.074218 3.5351562,2.080078 -0.058594,-3.50586 h 1.2597656 l -0.068359,3.50586 3.5449223,-2.070313 0.625,1.074219 -3.7109379,2.001953 z"
           id="path7051"
           style="fill:#3365b5;fill-opacity:1" /><path
           d="m 46.063515,34.363632 -0.625,1.074219 -3.535157,-2.080078 0.05859,3.515625 h -1.259765 l 0.04883,-3.515625 -3.525391,2.089844 -0.634766,-1.074219 3.720704,-2.021485 -3.720704,-2.021484 0.634766,-1.074219 3.535156,2.080078 -0.05859,-3.505859 h 1.259765 l -0.06836,3.505859 3.544922,-2.070312 0.625,1.074219 -3.710938,2.001953 z"
           id="path7053"
           style="fill:#3365b5;fill-opacity:1" /><path
           d="m 115.98351,82.141327 -0.625,1.074219 -3.53515,-2.080078 0.0586,3.515625 h -1.25977 l 0.0488,-3.515625 -3.52539,2.089843 -0.63476,-1.074218 3.7207,-2.021485 -3.7207,-2.021484 0.63476,-1.074219 3.53516,2.080078 -0.0586,-3.505859 h 1.25977 l -0.0684,3.505859 3.54492,-2.070312 0.625,1.074218 -3.71093,2.001954 z"
           id="path7055"
           style="fill:#3365b5;fill-opacity:1" /><path
           d="m 185.90352,104.72449 -0.625,1.07422 -3.53516,-2.08008 0.0586,3.51562 h -1.25977 l 0.0488,-3.51562 -3.52539,2.08984 -0.63477,-1.07422 3.72071,-2.02148 -3.72071,-2.02149 0.63477,-1.074215 3.53515,2.080075 -0.0586,-3.505856 h 1.25977 l -0.0684,3.505856 3.54492,-2.070309 0.625,1.074219 -3.71094,2.00195 z"
           id="path7057"
           style="fill:#3365b5;fill-opacity:1" /></g><path
         d="m 246.035,146.352 0.039,-0.04 0.102,-0.105 0.152,-0.148 1.422,-1.422 0.129,-0.125 0.148,-0.137 0.172,-0.145 0.192,-0.148 0.207,-0.137 0.226,-0.125 0.235,-0.101 0.246,-0.074 0.261,-0.055 0.274,-0.035 0.293,-0.02 0.305,-0.012 h 0.324 l 0.34,-0.003 h 1.761"
         style="fill:none;stroke:#ffffff;stroke-width:4;stroke-linecap:butt;stroke-linejoin:round;stroke-miterlimit:3.23931;stroke-dasharray:none;stroke-opacity:0.666667"
         id="path26" /><path
         d="m 246.035,146.352 0.039,-0.04 0.102,-0.105 0.152,-0.148 1.422,-1.422 0.129,-0.125 0.148,-0.137 0.172,-0.145 0.192,-0.148 0.207,-0.137 0.226,-0.125 0.235,-0.101 0.246,-0.074 0.261,-0.055 0.274,-0.035 0.293,-0.02 0.305,-0.012 h 0.324 l 0.34,-0.003 h 1.761"
         style="fill:none;stroke:#aaaaaa;stroke-width:1.25;stroke-linecap:square;stroke-linejoin:miter;stroke-miterlimit:3.25;stroke-dasharray:none;stroke-opacity:1"
         id="path28" /><path
         d="m 252.863,132.121 h 42 v 19 h -42 z"
         style="fill:#ffffff;fill-opacity:0.666667;fill-rule:nonzero;stroke:none"
         id="path30" /><path
         d="m 252.863,132.121 h 42 v 19 h -42 z"
         style="fill:none;stroke:#ffffff;stroke-width:1.25;stroke-linecap:square;stroke-linejoin:miter;stroke-miterlimit:3.25;stroke-dasharray:none;stroke-opacity:0.666667"
         id="path32" /><text
         transform="translate(255.86515,144.12146)"
         style="font-variant:normal;font-weight:normal;font-size:10px;font-family:Arial;-inkscape-font-specification:ArialMT;writing-mode:lr-tb;fill:#000000;fill-opacity:1;fill-rule:nonzero;stroke:none"
         id="text36"><tspan
           sodipodi:role="line"
           id="tspan34"
           x="0"
           y="0" /></text><path
         d="m 176.117,123.766 0.039,-0.036 0.102,-0.105 0.152,-0.148 0.18,-0.184 1.14,-1.141 0.102,-0.097 0.125,-0.125 0.152,-0.137 0.172,-0.148 0.192,-0.145 0.207,-0.141 0.222,-0.121 0.235,-0.101 0.25,-0.075 0.261,-0.054 0.274,-0.035 0.289,-0.02 0.305,-0.012 0.324,-0.003 h 2.105"
         style="fill:none;stroke:#ffffff;stroke-width:4;stroke-linecap:butt;stroke-linejoin:round;stroke-miterlimit:3.25;stroke-dasharray:none;stroke-opacity:0.666667"
         id="path38" /><path
         d="m 176.117,123.766 0.039,-0.036 0.102,-0.105 0.152,-0.148 0.18,-0.184 1.14,-1.141 0.102,-0.097 0.125,-0.125 0.152,-0.137 0.172,-0.148 0.192,-0.145 0.207,-0.141 0.222,-0.121 0.235,-0.101 0.25,-0.075 0.261,-0.054 0.274,-0.035 0.289,-0.02 0.305,-0.012 0.324,-0.003 h 2.105"
         style="fill:none;stroke:#aaaaaa;stroke-width:1.25;stroke-linecap:square;stroke-linejoin:miter;stroke-miterlimit:3.25;stroke-dasharray:none;stroke-opacity:1"
         id="path40" /><path
         d="m 182.945,109.539 h 42 v 19 h -42 z"
         style="fill:#ffffff;fill-opacity:0.666667;fill-rule:nonzero;stroke:none"
         id="path42" /><path
         d="m 182.945,109.539 h 42 v 19 h -42 z"
         style="fill:none;stroke:#ffffff;stroke-width:1.25;stroke-linecap:square;stroke-linejoin:miter;stroke-miterlimit:3.25;stroke-dasharray:none;stroke-opacity:0.666667"
         id="path44" /><text
         transform="translate(185.94515,121.5383)"
         style="font-variant:normal;font-weight:normal;font-size:10px;font-family:Arial;-inkscape-font-specification:ArialMT;writing-mode:lr-tb;fill:#000000;fill-opacity:1;fill-rule:nonzero;stroke:none"
         id="text48"><tspan
           sodipodi:role="line"
           id="tspan46"
           x="0"
           y="0" /></text><path
         d="m 106.195,75.988 0.141,-0.14 0.152,-0.149 0.18,-0.183 0.559,-0.559 0.136,-0.133 0.102,-0.105 0.078,-0.078 0.066,-0.063 0.059,-0.058 0.062,-0.067 0.079,-0.078 0.101,-0.098 0.129,-0.125 0.149,-0.136 0.171,-0.149 0.192,-0.144 0.207,-0.141 0.226,-0.121 0.235,-0.102 0.246,-0.074 0.262,-0.055 0.273,-0.035 0.293,-0.019 0.305,-0.012 0.324,-0.004 h 2.101"
         style="fill:none;stroke:#ffffff;stroke-width:4;stroke-linecap:butt;stroke-linejoin:round;stroke-miterlimit:3.25;stroke-dasharray:none;stroke-opacity:0.666667"
         id="path50" /><path
         d="m 106.195,75.988 0.141,-0.14 0.152,-0.149 0.18,-0.183 0.559,-0.559 0.136,-0.133 0.102,-0.105 0.078,-0.078 0.066,-0.063 0.059,-0.058 0.062,-0.067 0.079,-0.078 0.101,-0.098 0.129,-0.125 0.149,-0.136 0.171,-0.149 0.192,-0.144 0.207,-0.141 0.226,-0.121 0.235,-0.102 0.246,-0.074 0.262,-0.055 0.273,-0.035 0.293,-0.019 0.305,-0.012 0.324,-0.004 h 2.101"
         style="fill:none;stroke:#aaaaaa;stroke-width:1.25;stroke-linecap:square;stroke-linejoin:miter;stroke-miterlimit:3.25;stroke-dasharray:none;stroke-opacity:1"
         id="path52" /><path
         d="m 113.023,61.762 h 42 v 19 h -42 z"
         style="fill:#ffffff;fill-opacity:0.666667;fill-rule:nonzero;stroke:none"
         id="path54" /><path
         d="m 113.023,61.762 h 42 v 19 h -42 z"
         style="fill:none;stroke:#ffffff;stroke-width:1.25;stroke-linecap:square;stroke-linejoin:miter;stroke-miterlimit:3.25;stroke-dasharray:none;stroke-opacity:0.666667"
         id="path56" /><text
         transform="translate(116.02515,73.760597)"
         style="font-variant:normal;font-weight:normal;font-size:10px;font-family:Arial;-inkscape-font-specification:ArialMT;writing-mode:lr-tb;fill:#000000;fill-opacity:1;fill-rule:nonzero;stroke:none"
         id="text60"><tspan
           sodipodi:role="line"
           id="tspan58"
           x="0"
           y="0" /></text><path
         d="m 71.238,32.965 0.035,-0.039 0.106,-0.102 0.148,-0.152 0.184,-0.18 0.387,-0.387 0.168,-0.171 0.238,-0.239 0.082,-0.078 0.062,-0.066 0.059,-0.059 0.066,-0.062 0.075,-0.078 0.101,-0.102 0.129,-0.125 0.149,-0.137 0.171,-0.144 0.192,-0.149 0.211,-0.136 0.222,-0.125 0.235,-0.102 0.25,-0.074 0.258,-0.055 0.277,-0.035 0.289,-0.02 0.305,-0.011 h 2.429"
         style="fill:none;stroke:#ffffff;stroke-width:4;stroke-linecap:butt;stroke-linejoin:round;stroke-miterlimit:3.25;stroke-dasharray:none;stroke-opacity:0.666667"
         id="path62" /><path
         d="m 71.238,32.965 0.035,-0.039 0.106,-0.102 0.148,-0.152 0.184,-0.18 0.387,-0.387 0.168,-0.171 0.238,-0.239 0.082,-0.078 0.062,-0.066 0.059,-0.059 0.066,-0.062 0.075,-0.078 0.101,-0.102 0.129,-0.125 0.149,-0.137 0.171,-0.144 0.192,-0.149 0.211,-0.136 0.222,-0.125 0.235,-0.102 0.25,-0.074 0.258,-0.055 0.277,-0.035 0.289,-0.02 0.305,-0.011 h 2.429"
         style="fill:none;stroke:#aaaaaa;stroke-width:1.25;stroke-linecap:square;stroke-linejoin:miter;stroke-miterlimit:3.25;stroke-dasharray:none;stroke-opacity:1"
         id="path64" /><path
         d="m 78.066,18.734 h 42 v 19 h -42 z"
         style="fill:#ffffff;fill-opacity:0.666667;fill-rule:nonzero;stroke:none"
         id="path66" /><path
         d="m 78.066,18.734 h 42 v 19 h -42 z"
         style="fill:none;stroke:#ffffff;stroke-width:1.25;stroke-linecap:square;stroke-linejoin:miter;stroke-miterlimit:3.25;stroke-dasharray:none;stroke-opacity:0.666667"
         id="path68" /><text
         transform="translate(81.06515,30.73485)"
         style="font-variant:normal;font-weight:normal;font-size:10px;font-family:Arial;-inkscape-font-specification:ArialMT;writing-mode:lr-tb;fill:#000000;fill-opacity:1;fill-rule:nonzero;stroke:none"
         id="text72"><tspan
           sodipodi:role="line"
           id="tspan70"
           x="0"
           y="0" /></text><path
         d="m 32,206.883 v -3.602"
         style="fill:none;stroke:#666666;stroke-width:0.2;stroke-linecap:butt;stroke-linejoin:miter;stroke-miterlimit:3.25;stroke-dasharray:none;stroke-opacity:1"
         id="path74" /><text
         style="font-variant:normal;font-weight:normal;font-size:10px;font-family:Arial;-inkscape-font-specification:ArialMT;writing-mode:lr-tb;fill:#000000;fill-opacity:1;fill-rule:nonzero;stroke:none"
         id="text78"
         x="25"
         y="223.42442"><tspan
           x="25 30.559999 33.330002"
           y="223.42442"
           sodipodi:role="line"
           id="tspan76">0.0</tspan></text><path
         d="m 45.984,206.883 v -2.16"
         style="fill:none;stroke:#666666;stroke-width:0.2;stroke-linecap:butt;stroke-linejoin:miter;stroke-miterlimit:3.25;stroke-dasharray:none;stroke-opacity:1"
         id="path80" /><path
         d="m 59.969,206.883 v -2.16"
         style="fill:none;stroke:#666666;stroke-width:0.2;stroke-linecap:butt;stroke-linejoin:miter;stroke-miterlimit:3.25;stroke-dasharray:none;stroke-opacity:1"
         id="path82" /><path
         d="m 73.953,206.883 v -2.16"
         style="fill:none;stroke:#666666;stroke-width:0.2;stroke-linecap:butt;stroke-linejoin:miter;stroke-miterlimit:3.25;stroke-dasharray:none;stroke-opacity:1"
         id="path84" /><path
         d="m 87.938,206.883 v -3.602"
         style="fill:none;stroke:#666666;stroke-width:0.2;stroke-linecap:butt;stroke-linejoin:miter;stroke-miterlimit:3.25;stroke-dasharray:none;stroke-opacity:1"
         id="path86" /><text
         style="font-variant:normal;font-weight:normal;font-size:10px;font-family:Arial;-inkscape-font-specification:ArialMT;writing-mode:lr-tb;fill:#000000;fill-opacity:1;fill-rule:nonzero;stroke:none"
         id="text90"
         x="80.935997"
         y="223.42442"><tspan
           x="80.935997 86.496002 89.265999"
           y="223.42442"
           sodipodi:role="line"
           id="tspan88">0.2</tspan></text><path
         d="m 101.922,206.883 v -2.16"
         style="fill:none;stroke:#666666;stroke-width:0.2;stroke-linecap:butt;stroke-linejoin:miter;stroke-miterlimit:3.25;stroke-dasharray:none;stroke-opacity:1"
         id="path92" /><path
         d="m 115.902,206.883 v -2.16"
         style="fill:none;stroke:#666666;stroke-width:0.2;stroke-linecap:butt;stroke-linejoin:miter;stroke-miterlimit:3.25;stroke-dasharray:none;stroke-opacity:1"
         id="path94" /><path
         d="m 129.887,206.883 v -2.16"
         style="fill:none;stroke:#666666;stroke-width:0.2;stroke-linecap:butt;stroke-linejoin:miter;stroke-miterlimit:3.25;stroke-dasharray:none;stroke-opacity:1"
         id="path96" /><path
         d="m 143.871,206.883 v -3.602"
         style="fill:none;stroke:#666666;stroke-width:0.2;stroke-linecap:butt;stroke-linejoin:miter;stroke-miterlimit:3.25;stroke-dasharray:none;stroke-opacity:1"
         id="path98" /><text
         style="font-variant:normal;font-weight:normal;font-size:10px;font-family:Arial;-inkscape-font-specification:ArialMT;writing-mode:lr-tb;fill:#000000;fill-opacity:1;fill-rule:nonzero;stroke:none"
         id="text102"
         x="136.87199"
         y="223.42442"><tspan
           x="136.87199 142.43201 145.202"
           y="223.42442"
           sodipodi:role="line"
           id="tspan100">0.4</tspan></text><path
         d="m 157.855,206.883 v -2.16"
         style="fill:none;stroke:#666666;stroke-width:0.2;stroke-linecap:butt;stroke-linejoin:miter;stroke-miterlimit:3.25;stroke-dasharray:none;stroke-opacity:1"
         id="path104" /><path
         d="m 171.84,206.883 v -2.16"
         style="fill:none;stroke:#666666;stroke-width:0.2;stroke-linecap:butt;stroke-linejoin:miter;stroke-miterlimit:3.25;stroke-dasharray:none;stroke-opacity:1"
         id="path106" /><path
         d="m 185.824,206.883 v -2.16"
         style="fill:none;stroke:#666666;stroke-width:0.2;stroke-linecap:butt;stroke-linejoin:miter;stroke-miterlimit:3.25;stroke-dasharray:none;stroke-opacity:1"
         id="path108" /><path
         d="m 199.809,206.883 v -3.602"
         style="fill:none;stroke:#666666;stroke-width:0.2;stroke-linecap:butt;stroke-linejoin:miter;stroke-miterlimit:3.25;stroke-dasharray:none;stroke-opacity:1"
         id="path110" /><text
         style="font-variant:normal;font-weight:normal;font-size:10px;font-family:Arial;-inkscape-font-specification:ArialMT;writing-mode:lr-tb;fill:#000000;fill-opacity:1;fill-rule:nonzero;stroke:none"
         id="text114"
         x="192.808"
         y="223.42442"><tspan
           x="192.808 198.368 201.138"
           y="223.42442"
           sodipodi:role="line"
           id="tspan112">0.6</tspan></text><path
         d="m 213.793,206.883 v -2.16"
         style="fill:none;stroke:#666666;stroke-width:0.2;stroke-linecap:butt;stroke-linejoin:miter;stroke-miterlimit:3.25;stroke-dasharray:none;stroke-opacity:1"
         id="path116" /><path
         d="m 227.777,206.883 v -2.16"
         style="fill:none;stroke:#666666;stroke-width:0.2;stroke-linecap:butt;stroke-linejoin:miter;stroke-miterlimit:3.25;stroke-dasharray:none;stroke-opacity:1"
         id="path118" /><path
         d="m 241.762,206.883 v -2.16"
         style="fill:none;stroke:#666666;stroke-width:0.2;stroke-linecap:butt;stroke-linejoin:miter;stroke-miterlimit:3.25;stroke-dasharray:none;stroke-opacity:1"
         id="path120" /><path
         d="m 255.742,206.883 v -3.602"
         style="fill:none;stroke:#666666;stroke-width:0.2;stroke-linecap:butt;stroke-linejoin:miter;stroke-miterlimit:3.25;stroke-dasharray:none;stroke-opacity:1"
         id="path122" /><text
         style="font-variant:normal;font-weight:normal;font-size:10px;font-family:Arial;-inkscape-font-specification:ArialMT;writing-mode:lr-tb;fill:#000000;fill-opacity:1;fill-rule:nonzero;stroke:none"
         id="text126"
         x="248.744"
         y="223.42442"><tspan
           x="248.744 254.304 257.07401"
           y="223.42442"
           sodipodi:role="line"
           id="tspan124">0.8</tspan></text><path
         d="m 269.727,206.883 v -2.16"
         style="fill:none;stroke:#666666;stroke-width:0.2;stroke-linecap:butt;stroke-linejoin:miter;stroke-miterlimit:3.25;stroke-dasharray:none;stroke-opacity:1"
         id="path128" /><path
         d="m 283.711,206.883 v -2.16"
         style="fill:none;stroke:#666666;stroke-width:0.2;stroke-linecap:butt;stroke-linejoin:miter;stroke-miterlimit:3.25;stroke-dasharray:none;stroke-opacity:1"
         id="path130" /><path
         d="m 297.695,206.883 v -2.16"
         style="fill:none;stroke:#666666;stroke-width:0.2;stroke-linecap:butt;stroke-linejoin:miter;stroke-miterlimit:3.25;stroke-dasharray:none;stroke-opacity:1"
         id="path132" /><path
         d="m 311.68,206.883 v -3.602"
         style="fill:none;stroke:#666666;stroke-width:0.2;stroke-linecap:butt;stroke-linejoin:miter;stroke-miterlimit:3.25;stroke-dasharray:none;stroke-opacity:1"
         id="path134" /><text
         style="font-variant:normal;font-weight:normal;font-size:10px;font-family:Arial;-inkscape-font-specification:ArialMT;writing-mode:lr-tb;fill:#000000;fill-opacity:1;fill-rule:nonzero;stroke:none"
         id="text138"
         x="304.67999"
         y="223.42442"><tspan
           x="304.67999 310.23999 313.01001"
           y="223.42442"
           sodipodi:role="line"
           id="tspan136">1.0</tspan></text><path
         d="m 325.664,206.883 v -2.16"
         style="fill:none;stroke:#666666;stroke-width:0.2;stroke-linecap:butt;stroke-linejoin:miter;stroke-miterlimit:3.25;stroke-dasharray:none;stroke-opacity:1"
         id="path140" /><path
         d="M 32,206.883 H 336"
         style="fill:none;stroke:#666666;stroke-width:0.2;stroke-linecap:butt;stroke-linejoin:miter;stroke-miterlimit:3.25;stroke-dasharray:none;stroke-opacity:1"
         id="path142" /><text
         transform="translate(344,209.38233)"
         style="font-variant:normal;font-weight:normal;font-size:10px;font-family:Arial;-inkscape-font-specification:ArialMT;writing-mode:lr-tb;fill:#666666;fill-opacity:1;fill-rule:nonzero;stroke:none"
         id="text146"><tspan
           x="0"
           y="0"
           id="tspan144" /></text><text
         style="font-variant:normal;font-weight:normal;font-size:10px;font-family:Arial;-inkscape-font-specification:ArialMT;writing-mode:lr-tb;fill:#666666;fill-opacity:1;fill-rule:nonzero;stroke:none"
         id="text154"
         x="347.08527"
         y="209.38232"><tspan
           x="347.08527"
           y="209.38232"
           id="tspan152">$a\over L$</tspan></text><path
         d="m 32,206.883 h 3.602"
         style="fill:none;stroke:#666666;stroke-width:0.2;stroke-linecap:butt;stroke-linejoin:miter;stroke-miterlimit:3.25;stroke-dasharray:none;stroke-opacity:1"
         id="path156" /><text
         style="font-variant:normal;font-weight:normal;font-size:10px;font-family:Arial;-inkscape-font-specification:ArialMT;writing-mode:lr-tb;fill:#000000;fill-opacity:1;fill-rule:nonzero;stroke:none"
         id="text160"
         x="19.366327"
         y="210.29074"><tspan
           x="19.366327"
           y="210.29074"
           id="tspan158">0</tspan></text><path
         d="m 32,198.484 h 2.16"
         style="fill:none;stroke:#666666;stroke-width:0.2;stroke-linecap:butt;stroke-linejoin:miter;stroke-miterlimit:3.25;stroke-dasharray:none;stroke-opacity:1"
         id="path162" /><path
         d="m 32,190.082 h 2.16"
         style="fill:none;stroke:#666666;stroke-width:0.2;stroke-linecap:butt;stroke-linejoin:miter;stroke-miterlimit:3.25;stroke-dasharray:none;stroke-opacity:1"
         id="path164" /><path
         d="m 32,181.684 h 2.16"
         style="fill:none;stroke:#666666;stroke-width:0.2;stroke-linecap:butt;stroke-linejoin:miter;stroke-miterlimit:3.25;stroke-dasharray:none;stroke-opacity:1"
         id="path166" /><path
         d="m 32,173.285 h 3.602"
         style="fill:none;stroke:#666666;stroke-width:0.2;stroke-linecap:butt;stroke-linejoin:miter;stroke-miterlimit:3.25;stroke-dasharray:none;stroke-opacity:1"
         id="path168" /><text
         style="font-variant:normal;font-weight:normal;font-size:10px;font-family:Arial;-inkscape-font-specification:ArialMT;writing-mode:lr-tb;fill:#000000;fill-opacity:1;fill-rule:nonzero;stroke:none"
         id="text172"
         x="3.3663268"
         y="176.69312"><tspan
           x="3.3663268 8.9263268 14.486327 20.046328"
           y="176.69312"
           sodipodi:role="line"
           id="tspan170">2000</tspan></text><path
         d="m 32,164.887 h 2.16"
         style="fill:none;stroke:#666666;stroke-width:0.2;stroke-linecap:butt;stroke-linejoin:miter;stroke-miterlimit:3.25;stroke-dasharray:none;stroke-opacity:1"
         id="path174" /><path
         d="m 32,156.484 h 2.16"
         style="fill:none;stroke:#666666;stroke-width:0.2;stroke-linecap:butt;stroke-linejoin:miter;stroke-miterlimit:3.25;stroke-dasharray:none;stroke-opacity:1"
         id="path176" /><path
         d="m 32,148.086 h 2.16"
         style="fill:none;stroke:#666666;stroke-width:0.2;stroke-linecap:butt;stroke-linejoin:miter;stroke-miterlimit:3.25;stroke-dasharray:none;stroke-opacity:1"
         id="path178" /><path
         d="m 32,139.688 h 3.602"
         style="fill:none;stroke:#666666;stroke-width:0.2;stroke-linecap:butt;stroke-linejoin:miter;stroke-miterlimit:3.25;stroke-dasharray:none;stroke-opacity:1"
         id="path180" /><text
         style="font-variant:normal;font-weight:normal;font-size:10px;font-family:Arial;-inkscape-font-specification:ArialMT;writing-mode:lr-tb;fill:#000000;fill-opacity:1;fill-rule:nonzero;stroke:none"
         id="text184"
         x="3.3663268"
         y="143.09547"><tspan
           x="3.3663268 8.9263268 14.486327 20.046328"
           y="143.09547"
           sodipodi:role="line"
           id="tspan182">4000</tspan></text><path
         d="m 32,131.289 h 2.16"
         style="fill:none;stroke:#666666;stroke-width:0.2;stroke-linecap:butt;stroke-linejoin:miter;stroke-miterlimit:3.25;stroke-dasharray:none;stroke-opacity:1"
         id="path186" /><path
         d="m 32,122.887 h 2.16"
         style="fill:none;stroke:#666666;stroke-width:0.2;stroke-linecap:butt;stroke-linejoin:miter;stroke-miterlimit:3.25;stroke-dasharray:none;stroke-opacity:1"
         id="path188" /><path
         d="m 32,114.488 h 2.16"
         style="fill:none;stroke:#666666;stroke-width:0.2;stroke-linecap:butt;stroke-linejoin:miter;stroke-miterlimit:3.25;stroke-dasharray:none;stroke-opacity:1"
         id="path190" /><path
         d="m 32,106.09 h 3.602"
         style="fill:none;stroke:#666666;stroke-width:0.2;stroke-linecap:butt;stroke-linejoin:miter;stroke-miterlimit:3.25;stroke-dasharray:none;stroke-opacity:1"
         id="path192" /><text
         style="font-variant:normal;font-weight:normal;font-size:10px;font-family:Arial;-inkscape-font-specification:ArialMT;writing-mode:lr-tb;fill:#000000;fill-opacity:1;fill-rule:nonzero;stroke:none"
         id="text196"
         x="3.3663268"
         y="109.49784"><tspan
           x="3.3663268 8.9263268 14.486327 20.046328"
           y="109.49784"
           sodipodi:role="line"
           id="tspan194">6000</tspan></text><path
         d="m 32,97.691 h 2.16"
         style="fill:none;stroke:#666666;stroke-width:0.2;stroke-linecap:butt;stroke-linejoin:miter;stroke-miterlimit:3.25;stroke-dasharray:none;stroke-opacity:1"
         id="path198" /><path
         d="m 32,89.289 h 2.16"
         style="fill:none;stroke:#666666;stroke-width:0.2;stroke-linecap:butt;stroke-linejoin:miter;stroke-miterlimit:3.25;stroke-dasharray:none;stroke-opacity:1"
         id="path200" /><path
         d="m 32,80.891 h 2.16"
         style="fill:none;stroke:#666666;stroke-width:0.2;stroke-linecap:butt;stroke-linejoin:miter;stroke-miterlimit:3.25;stroke-dasharray:none;stroke-opacity:1"
         id="path202" /><path
         d="m 32,72.492 h 3.602"
         style="fill:none;stroke:#666666;stroke-width:0.2;stroke-linecap:butt;stroke-linejoin:miter;stroke-miterlimit:3.25;stroke-dasharray:none;stroke-opacity:1"
         id="path204" /><text
         style="font-variant:normal;font-weight:normal;font-size:10px;font-family:Arial;-inkscape-font-specification:ArialMT;writing-mode:lr-tb;fill:#000000;fill-opacity:1;fill-rule:nonzero;stroke:none"
         id="text208"
         x="3.3663268"
         y="75.9002"><tspan
           x="3.3663268 8.9263268 14.486327 20.046328"
           y="75.9002"
           sodipodi:role="line"
           id="tspan206">8000</tspan></text><path
         d="m 32,64.094 h 2.16"
         style="fill:none;stroke:#666666;stroke-width:0.2;stroke-linecap:butt;stroke-linejoin:miter;stroke-miterlimit:3.25;stroke-dasharray:none;stroke-opacity:1"
         id="path210" /><path
         d="m 32,55.691 h 2.16"
         style="fill:none;stroke:#666666;stroke-width:0.2;stroke-linecap:butt;stroke-linejoin:miter;stroke-miterlimit:3.25;stroke-dasharray:none;stroke-opacity:1"
         id="path212" /><path
         d="m 32,47.293 h 2.16"
         style="fill:none;stroke:#666666;stroke-width:0.2;stroke-linecap:butt;stroke-linejoin:miter;stroke-miterlimit:3.25;stroke-dasharray:none;stroke-opacity:1"
         id="path214" /><path
         d="m 32,38.895 h 3.602"
         style="fill:none;stroke:#666666;stroke-width:0.2;stroke-linecap:butt;stroke-linejoin:miter;stroke-miterlimit:3.25;stroke-dasharray:none;stroke-opacity:1"
         id="path216" /><text
         style="font-variant:normal;font-weight:normal;font-size:10px;font-family:Arial;-inkscape-font-specification:ArialMT;writing-mode:lr-tb;fill:#000000;fill-opacity:1;fill-rule:nonzero;stroke:none"
         id="text220"
         x="-3.6336727"
         y="42.302559"><tspan
           x="-3.6336727 1.9263266 8.8763266 14.436327 19.996326"
           y="42.302559"
           sodipodi:role="line"
           id="tspan218">10000</tspan></text><path
         d="m 32,30.496 h 2.16"
         style="fill:none;stroke:#666666;stroke-width:0.2;stroke-linecap:butt;stroke-linejoin:miter;stroke-miterlimit:3.25;stroke-dasharray:none;stroke-opacity:1"
         id="path222" /><path
         d="m 32,22.094 h 2.16"
         style="fill:none;stroke:#666666;stroke-width:0.2;stroke-linecap:butt;stroke-linejoin:miter;stroke-miterlimit:3.25;stroke-dasharray:none;stroke-opacity:1"
         id="path224" /><path
         d="M 32,206.883 V 19"
         style="fill:none;stroke:#666666;stroke-width:0.2;stroke-linecap:butt;stroke-linejoin:miter;stroke-miterlimit:3.25;stroke-dasharray:none;stroke-opacity:1"
         id="path226" /><text
         style="font-variant:normal;font-weight:normal;font-size:10px;font-family:Arial;-inkscape-font-specification:ArialMT;writing-mode:lr-tb;fill:#666666;fill-opacity:1;fill-rule:nonzero;stroke:none"
         id="text230"
         x="39.40102"
         y="20.809437"><tspan
           x="39.40102"
           y="20.809437"
           id="tspan228">$K$</tspan></text><text
         xml:space="preserve"
         style="font-size:12px;line-height:1.25;font-family:sans-serif;stroke-width:0.75"
         x="82.553978"
         y="30.570217"
         id="text5187"><tspan
           sodipodi:role="line"
           id="tspan5185"
           style="stroke-width:0.75"
           x="82.553978"
           y="30.570217">\textcolor{myred}{10098.5}</tspan></text><text
         xml:space="preserve"
         style="font-size:12px;line-height:1.25;font-family:sans-serif;stroke-width:0.75"
         x="115.54245"
         y="74.662392"
         id="text5187-0"><tspan
           sodipodi:role="line"
           id="tspan5185-1"
           style="stroke-width:0.75"
           x="115.54245"
           y="74.662392">\textcolor{myred}{7537.23}</tspan></text><text
         xml:space="preserve"
         style="font-size:12px;line-height:1.25;font-family:sans-serif;stroke-width:0.75"
         x="183.67383"
         y="123.26277"
         id="text5187-4"><tspan
           sodipodi:role="line"
           id="tspan5185-7"
           style="stroke-width:0.75"
           x="183.67383"
           y="123.26277">\textcolor{myred}{4693.12}</tspan></text><text
         xml:space="preserve"
         style="font-size:12px;line-height:1.25;font-family:sans-serif;stroke-width:0.75"
         x="255.43887"
         y="145.0648"
         id="text5187-49"><tspan
           sodipodi:role="line"
           id="tspan5185-3"
           style="stroke-width:0.75"
           x="255.43887"
           y="145.0648">\textcolor{myred}{3348.79}</tspan></text><text
         xml:space="preserve"
         style="font-size:12px;line-height:1.25;font-family:sans-serif;stroke-width:0.75"
         x="277.0676"
         y="69.03978"
         id="text22818"><tspan
           sodipodi:role="line"
           style="stroke-width:0.75"
           x="277.0676"
           y="69.03978"
           id="tspan22822" /></text></g></g></svg>
