<?xml version="1.0" encoding="UTF-8" standalone="no"?>
<!-- Created with Inkscape (http://www.inkscape.org/) -->

<svg
   version="1.1"
   id="svg2"
   xml:space="preserve"
   width="480"
   height="293.33334"
   viewBox="0 0 480 293.33334"
   sodipodi:docname="kinematic.svg"
   inkscape:version="1.1.1 (3bf5ae0d25, 2021-09-20)"
   xmlns:inkscape="http://www.inkscape.org/namespaces/inkscape"
   xmlns:sodipodi="http://sodipodi.sourceforge.net/DTD/sodipodi-0.dtd"
   xmlns="http://www.w3.org/2000/svg"
   xmlns:svg="http://www.w3.org/2000/svg"><defs
     id="defs6"><marker
       style="overflow:visible"
       id="Arrow2Lstart"
       refX="0.0"
       refY="0.0"
       orient="auto"
       inkscape:stockid="Arrow2Lstart"
       inkscape:isstock="true"><path
         transform="scale(1.1) translate(1,0)"
         d="M 8.7185878,4.0337352 L -2.2072895,0.016013256 L 8.7185884,-4.0017078 C 6.9730900,-1.6296469 6.9831476,1.6157441 8.7185878,4.0337352 z "
         style="stroke:context-stroke;fill-rule:evenodd;fill:context-stroke;stroke-width:0.62500000;stroke-linejoin:round"
         id="path13953" /></marker><marker
       style="overflow:visible"
       id="Arrow2Lstart-7"
       refX="0"
       refY="0"
       orient="auto"
       inkscape:stockid="Arrow2Lstart"
       inkscape:isstock="true"><path
         transform="matrix(1.1,0,0,1.1,1.1,0)"
         d="M 8.7185878,4.0337352 -2.2072895,0.01601326 8.7185884,-4.0017078 c -1.7454984,2.3720609 -1.7354408,5.6174519 -6e-7,8.035443 z"
         style="fill:context-stroke;fill-rule:evenodd;stroke:context-stroke;stroke-width:0.625;stroke-linejoin:round"
         id="path13953-8" /></marker><marker
       style="overflow:visible"
       id="Arrow2Lstart-9"
       refX="0"
       refY="0"
       orient="auto"
       inkscape:stockid="Arrow2Lstart"
       inkscape:isstock="true"><path
         transform="matrix(1.1,0,0,1.1,1.1,0)"
         d="M 8.7185878,4.0337352 -2.2072895,0.01601326 8.7185884,-4.0017078 c -1.7454984,2.3720609 -1.7354408,5.6174519 -6e-7,8.035443 z"
         style="fill:context-stroke;fill-rule:evenodd;stroke:context-stroke;stroke-width:0.625;stroke-linejoin:round"
         id="path13953-85" /></marker><marker
       style="overflow:visible"
       id="Arrow2Lstart-74"
       refX="0"
       refY="0"
       orient="auto"
       inkscape:stockid="Arrow2Lstart"
       inkscape:isstock="true"><path
         transform="matrix(1.1,0,0,1.1,1.1,0)"
         d="M 8.7185878,4.0337352 -2.2072895,0.01601326 8.7185884,-4.0017078 c -1.7454984,2.3720609 -1.7354408,5.6174519 -6e-7,8.035443 z"
         style="fill:context-stroke;fill-rule:evenodd;stroke:context-stroke;stroke-width:0.625;stroke-linejoin:round"
         id="path13953-9" /></marker><marker
       style="overflow:visible"
       id="Arrow2Lstart-9-7"
       refX="0"
       refY="0"
       orient="auto"
       inkscape:stockid="Arrow2Lstart"
       inkscape:isstock="true"><path
         transform="matrix(1.1,0,0,1.1,1.1,0)"
         d="M 8.7185878,4.0337352 -2.2072895,0.01601326 8.7185884,-4.0017078 c -1.7454984,2.3720609 -1.7354408,5.6174519 -6e-7,8.035443 z"
         style="fill:context-stroke;fill-rule:evenodd;stroke:context-stroke;stroke-width:0.625;stroke-linejoin:round"
         id="path13953-4" /></marker><marker
       style="overflow:visible"
       id="Arrow2Lstart-8"
       refX="0"
       refY="0"
       orient="auto"
       inkscape:stockid="Arrow2Lstart"
       inkscape:isstock="true"><path
         transform="matrix(1.1,0,0,1.1,1.1,0)"
         d="M 8.7185878,4.0337352 -2.2072895,0.01601326 8.7185884,-4.0017078 c -1.7454984,2.3720609 -1.7354408,5.6174519 -6e-7,8.035443 z"
         style="fill:context-stroke;fill-rule:evenodd;stroke:context-stroke;stroke-width:0.625;stroke-linejoin:round"
         id="path13953-6" /></marker></defs><sodipodi:namedview
     id="namedview4"
     pagecolor="#ffffff"
     bordercolor="#666666"
     borderopacity="1.0"
     inkscape:pageshadow="2"
     inkscape:pageopacity="0.0"
     inkscape:pagecheckerboard="0"
     showgrid="false"
     inkscape:zoom="0.91997539"
     inkscape:cx="260.87654"
     inkscape:cy="358.70525"
     inkscape:window-width="1718"
     inkscape:window-height="1360"
     inkscape:window-x="-7"
     inkscape:window-y="0"
     inkscape:window-maximized="0"
     inkscape:current-layer="g8" /><g
     id="g8"
     inkscape:groupmode="layer"
     inkscape:label="patch_kinematic"
     transform="matrix(1.3333333,0,0,1.3333333,0,4e-6)"><path
       d="m 171.285,255.33872 8.6151,-79.28862 6.8149,-62.72065 15.43,-7.75712 15.425,-7.754746 30.86,-15.511867 15.425,-7.757118 15.43,-7.754747 15.43,-7.747641 15.43,-7.754748 15.425,-7.754748 -15.425,276.263785 -46.29,23.26662 -15.425,7.74764 -30.86,15.51187 -15.425,7.75474 -46.29,23.26898 -15.425,7.75476 -15.43,7.74763 -15.43,7.75476 -15.425,7.75473 -46.29,23.26899 -15.425,7.75475 -15.43,7.75712 15.43,-276.27564 15.425,-7.74527 46.29,-23.26898 15.425,-7.75475 30.86,-15.51187 15.425,-7.75474 15.43,-7.74764 30.86,-15.51187 15.425,-7.754746 30.86,-15.511867 15.425,-7.757118 15.43,-7.754747 15.43,-7.747641 15.43,-7.754748 15.425,-7.754748"
       style="fill:none;stroke:#3fa200;stroke-width:2.46281;stroke-linecap:square;stroke-linejoin:miter;stroke-miterlimit:3.25;stroke-dasharray:none;stroke-opacity:1"
       id="path16"
       sodipodi:nodetypes="ccccccccccccccccccccccccccccccccccccccc" /><path
       d="M 10.57,255.33872 H 332"
       style="fill:none;stroke:#666666;stroke-width:0.307851;stroke-linecap:butt;stroke-linejoin:miter;stroke-miterlimit:3.25;stroke-dasharray:none;stroke-opacity:1"
       id="path188" /><text
       style="font-variant:normal;font-weight:normal;font-size:13px;font-family:Mathematica;-inkscape-font-specification:Mathematica;writing-mode:lr-tb;fill:#000000;fill-opacity:1;fill-rule:nonzero;stroke:none"
       id="text192"
       x="344.94937"
       y="291.5437"><tspan
         x="344.94937"
         y="291.5437"
         id="tspan190">$\varepsilon_{yy}$</tspan></text><path
       d="M 171.285,490.66796 V -19.131483"
       style="fill:none;stroke:#666666;stroke-width:0.320393;stroke-linecap:butt;stroke-linejoin:miter;stroke-miterlimit:3.25;stroke-dasharray:none;stroke-opacity:1"
       id="path268" /><text
       style="font-variant:normal;font-weight:normal;font-size:13px;font-family:Mathematica;-inkscape-font-specification:Mathematica;writing-mode:lr-tb;fill:#000000;fill-opacity:1;fill-rule:nonzero;stroke:none"
       id="text272"
       x="163.77148"
       y="-35.167355"><tspan
         x="163.77148"
         y="-35.167355"
         id="tspan270">$\sigma_{yy}$</tspan></text><path
       style="fill:none;stroke:#3fa200;stroke-width:1.15444px;stroke-linecap:butt;stroke-linejoin:miter;stroke-opacity:1;marker-start:url(#Arrow2Lstart)"
       d="m 180.70975,169.85304 -1.09873,10.72119"
       id="path13033" /><path
       style="fill:none;stroke:#3fa200;stroke-width:1.15444px;stroke-linecap:butt;stroke-linejoin:miter;stroke-opacity:1;marker-start:url(#Arrow2Lstart-9)"
       d="m 24.887712,326.64781 -0.804546,10.86677"
       id="path13033-5"
       inkscape:transform-center-x="-4.210362"
       inkscape:transform-center-y="-4.8049352" /><path
       style="fill:none;stroke:#3fa200;stroke-width:1.15444px;stroke-linecap:butt;stroke-linejoin:miter;stroke-opacity:1;marker-start:url(#Arrow2Lstart-7)"
       d="m 317.42429,185.43847 0.71712,-10.90109"
       id="path13033-0"
       inkscape:transform-center-x="-129.24027"
       inkscape:transform-center-y="-67.380478" /></g></svg>
