<?xml version="1.0" encoding="UTF-8" standalone="no"?>
<!-- Created with Inkscape (http://www.inkscape.org/) -->

<svg
   version="1.1"
   id="svg2"
   xml:space="preserve"
   width="480"
   height="294.66666"
   viewBox="0 0 480 294.66666"
   sodipodi:docname="load_tex.svg"
   inkscape:version="1.1.1 (3bf5ae0d25, 2021-09-20)"
   xmlns:inkscape="http://www.inkscape.org/namespaces/inkscape"
   xmlns:sodipodi="http://sodipodi.sourceforge.net/DTD/sodipodi-0.dtd"
   xmlns="http://www.w3.org/2000/svg"
   xmlns:svg="http://www.w3.org/2000/svg"><defs
     id="defs6" /><sodipodi:namedview
     id="namedview4"
     pagecolor="#ffffff"
     bordercolor="#666666"
     borderopacity="1.0"
     inkscape:pageshadow="2"
     inkscape:pageopacity="0.0"
     inkscape:pagecheckerboard="0"
     showgrid="false"
     inkscape:zoom="2.49375"
     inkscape:cx="239.7995"
     inkscape:cy="147.36842"
     inkscape:window-width="3440"
     inkscape:window-height="1369"
     inkscape:window-x="-8"
     inkscape:window-y="-8"
     inkscape:window-maximized="1"
     inkscape:current-layer="g10" /><g
     id="g8"
     inkscape:groupmode="layer"
     inkscape:label="load"
     transform="matrix(1.3333333,0,0,1.3333333,0,1.07e-5)"><g
       id="g10"><path
         d="M 0,0 H 360 V 221 H 0 Z"
         style="fill:#ffffff;fill-opacity:1;fill-rule:nonzero;stroke:none"
         id="path12" /><path
         d="M 0,0 H 360 V 221.039 H 0 Z"
         style="fill:none;stroke:#ffffff;stroke-width:1;stroke-linecap:butt;stroke-linejoin:miter;stroke-miterlimit:10;stroke-dasharray:none;stroke-opacity:1"
         id="path14" /><path
         d="m 30,119.949 0.094,-0.222 0.097,-0.219 0.192,-0.442 0.379,-0.882 0.761,-1.77 1.524,-3.531 3.047,-7.071 6.609,-15.324 6.172,-14.308 6.047,-14.028 6.562,-15.218 0.094,-0.223 0.098,-0.219 0.191,-0.445 0.383,-0.887 0.766,-1.777 1.531,-3.551 0.094,-0.219 0.097,-0.222 0.192,-0.446 1.148,-2.66 0.094,-0.223 0.098,-0.222 0.191,-0.445 1.148,-2.661 0.102,-0.242 0.105,-0.238 0.207,-0.484 0.102,-0.239 0.105,-0.242 0.208,-0.48 0.105,-0.239 0.102,-0.242 0.105,-0.242 0.102,-0.07 0.105,0.238 0.102,0.242 0.207,0.481 0.105,0.242 0.106,0.238 0.207,0.481 0.414,0.964 0.828,1.922 0.105,0.242 0.102,0.239 0.207,0.48 0.418,0.965 0.828,1.922 1.66,3.848 0.102,0.238 0.101,0.234 0.61,1.418 0.816,1.887 4.887,11.332 6.074,14.094 6.594,15.285 6.152,14.269 6.031,13.985 6.543,15.176 6.106,14.16 6.621,15.351 6.496,15.071 6.059,14.05 0.105,0.239 0.102,0.238 0.207,0.476 1.23,2.86 1.645,3.808 0.203,0.477 0.207,0.477 1.23,2.859 1.645,3.808 0.097,0.223 0.094,0.223 0.574,1.336 0.098,0.222 0.094,0.219 0.191,0.445 0.387,0.891 0.094,0.223 0.097,0.222 0.192,0.446 0.093,0.218 0.098,0.223 0.094,0.223 0.097,0.222 0.094,0.223 0.098,-0.031 0.098,-0.223 0.093,-0.222 0.098,-0.223 0.094,-0.223 0.191,-0.445 0.098,-0.223 0.094,-0.222 0.191,-0.442 0.387,-0.89 0.765,-1.778 1.535,-3.558 0.102,-0.239 0.105,-0.242 0.207,-0.48 0.415,-0.965 0.832,-1.926 1.66,-3.855 3.324,-7.707 6.527,-15.137 6.09,-14.121 6.602,-15.309 6.16,-14.293 6.043,-14.012 6.555,-15.199 6.117,-14.187 6.633,-15.375 6.507,-15.094 0.094,-0.223 0.094,-0.218 0.191,-0.438 0.379,-0.883 0.758,-1.758 1.519,-3.519 0.094,-0.223 0.094,-0.218 0.191,-0.442 1.137,-2.637 1.52,-3.519 0.101,-0.238 0.106,-0.243 0.203,-0.476 0.414,-0.953 0.82,-1.91 0.106,-0.239 0.101,-0.238 0.207,-0.477 0.41,-0.953 0.102,-0.238 0.105,-0.238 0.204,-0.477 0.414,-0.957 0.203,-0.476 0.105,-0.239 0.203,-0.476 0.106,-0.239 0.101,-0.109 0.102,0.238 0.105,0.239 0.102,0.238 0.207,0.477 0.41,0.957 0.102,0.238 0.105,0.238 0.203,0.477 0.414,0.953 0.821,1.91 0.195,0.445 0.574,1.336 0.77,1.781 1.535,3.563 3.074,7.125 6.024,13.973 6.539,15.16 6.097,14.144 6.614,15.336 6.171,14.317 6.055,14.039 6.567,15.226 6.128,14.211 6.641,15.403 0.102,0.234 0.101,0.238 0.203,0.469 0.407,0.945 0.816,1.891 1.629,3.781 0.101,0.234 0.102,0.239 0.203,0.472 0.41,0.946 0.813,1.89 1.633,3.778 0.093,0.222 0.094,0.219 0.191,0.442 0.379,0.882 0.762,1.762 0.094,0.219 0.098,0.222 0.187,0.442 0.383,0.879 0.758,1.765 0.097,0.219 0.094,0.219 0.188,0.441 0.382,0.883 0.094,0.219 0.094,0.223 0.191,0.441 0.379,0.879 0.098,0.223 0.094,0.218 0.191,0.442 0.094,0.218 0.093,0.223 0.192,0.441 0.094,0.219 0.097,0.219 0.094,-0.125 0.094,-0.219 0.097,-0.222 0.094,-0.219 0.192,-0.442 0.101,-0.238 0.102,-0.242 0.207,-0.477 0.414,-0.957 0.824,-1.91 1.648,-3.824 3.297,-7.645 6.157,-14.277 6.035,-13.996 6.547,-15.187 6.113,-14.172 0.211,-0.493 0.215,-0.496 1.277,-2.965 1.707,-3.953 0.106,-0.25 0.105,-0.246 0.215,-0.492 0.426,-0.992 0.851,-1.977 0.11,-0.246 0.105,-0.246 0.211,-0.496 0.43,-0.988 0.211,-0.492 0.214,-0.496 0.106,-0.247 0.105,-0.25 0.11,-0.246 0.105,-0.246"
         style="fill:none;stroke:#3077e2;stroke-width:1;stroke-linecap:square;stroke-linejoin:miter;stroke-miterlimit:3.25;stroke-dasharray:none;stroke-opacity:1"
         id="path16" /><path
         d="m 30,119.949 v -3.828"
         style="fill:none;stroke:#666666;stroke-width:0.2;stroke-linecap:butt;stroke-linejoin:miter;stroke-miterlimit:3.25;stroke-dasharray:none;stroke-opacity:1"
         id="path18" /><path
         d="m 49.406,119.949 v -2.297"
         style="fill:none;stroke:#666666;stroke-width:0.2;stroke-linecap:butt;stroke-linejoin:miter;stroke-miterlimit:3.25;stroke-dasharray:none;stroke-opacity:1"
         id="path20" /><path
         d="m 68.816,119.949 v -2.297"
         style="fill:none;stroke:#666666;stroke-width:0.2;stroke-linecap:butt;stroke-linejoin:miter;stroke-miterlimit:3.25;stroke-dasharray:none;stroke-opacity:1"
         id="path22" /><path
         d="m 88.223,119.949 v -2.297"
         style="fill:none;stroke:#666666;stroke-width:0.2;stroke-linecap:butt;stroke-linejoin:miter;stroke-miterlimit:3.25;stroke-dasharray:none;stroke-opacity:1"
         id="path24" /><path
         d="m 107.633,119.949 v -3.828"
         style="fill:none;stroke:#666666;stroke-width:0.2;stroke-linecap:butt;stroke-linejoin:miter;stroke-miterlimit:3.25;stroke-dasharray:none;stroke-opacity:1"
         id="path26" /><text
         transform="translate(104.13265,132.94867)"
         style="font-variant:normal;font-weight:normal;font-size:14px;font-family:Times;-inkscape-font-specification:Times-Roman;writing-mode:lr-tb;fill:#000000;fill-opacity:1;fill-rule:nonzero;stroke:none"
         id="text30"><tspan
           x="0"
           y="0"
           id="tspan28">2</tspan></text><path
         d="m 127.039,119.949 v -2.297"
         style="fill:none;stroke:#666666;stroke-width:0.2;stroke-linecap:butt;stroke-linejoin:miter;stroke-miterlimit:3.25;stroke-dasharray:none;stroke-opacity:1"
         id="path32" /><path
         d="m 146.449,119.949 v -2.297"
         style="fill:none;stroke:#666666;stroke-width:0.2;stroke-linecap:butt;stroke-linejoin:miter;stroke-miterlimit:3.25;stroke-dasharray:none;stroke-opacity:1"
         id="path34" /><path
         d="m 165.855,119.949 v -2.297"
         style="fill:none;stroke:#666666;stroke-width:0.2;stroke-linecap:butt;stroke-linejoin:miter;stroke-miterlimit:3.25;stroke-dasharray:none;stroke-opacity:1"
         id="path36" /><path
         d="m 185.266,119.949 v -3.828"
         style="fill:none;stroke:#666666;stroke-width:0.2;stroke-linecap:butt;stroke-linejoin:miter;stroke-miterlimit:3.25;stroke-dasharray:none;stroke-opacity:1"
         id="path38" /><text
         transform="translate(181.76531,132.94867)"
         style="font-variant:normal;font-weight:normal;font-size:14px;font-family:Times;-inkscape-font-specification:Times-Roman;writing-mode:lr-tb;fill:#000000;fill-opacity:1;fill-rule:nonzero;stroke:none"
         id="text42"><tspan
           x="0"
           y="0"
           id="tspan40">4</tspan></text><path
         d="m 204.672,119.949 v -2.297"
         style="fill:none;stroke:#666666;stroke-width:0.2;stroke-linecap:butt;stroke-linejoin:miter;stroke-miterlimit:3.25;stroke-dasharray:none;stroke-opacity:1"
         id="path44" /><path
         d="m 224.082,119.949 v -2.297"
         style="fill:none;stroke:#666666;stroke-width:0.2;stroke-linecap:butt;stroke-linejoin:miter;stroke-miterlimit:3.25;stroke-dasharray:none;stroke-opacity:1"
         id="path46" /><path
         d="m 243.488,119.949 v -2.297"
         style="fill:none;stroke:#666666;stroke-width:0.2;stroke-linecap:butt;stroke-linejoin:miter;stroke-miterlimit:3.25;stroke-dasharray:none;stroke-opacity:1"
         id="path48" /><path
         d="m 262.898,119.949 v -3.828"
         style="fill:none;stroke:#666666;stroke-width:0.2;stroke-linecap:butt;stroke-linejoin:miter;stroke-miterlimit:3.25;stroke-dasharray:none;stroke-opacity:1"
         id="path50" /><text
         transform="translate(259.39796,132.94867)"
         style="font-variant:normal;font-weight:normal;font-size:14px;font-family:Times;-inkscape-font-specification:Times-Roman;writing-mode:lr-tb;fill:#000000;fill-opacity:1;fill-rule:nonzero;stroke:none"
         id="text54"><tspan
           x="0"
           y="0"
           id="tspan52">6</tspan></text><path
         d="m 282.305,119.949 v -2.297"
         style="fill:none;stroke:#666666;stroke-width:0.2;stroke-linecap:butt;stroke-linejoin:miter;stroke-miterlimit:3.25;stroke-dasharray:none;stroke-opacity:1"
         id="path56" /><path
         d="m 301.715,119.949 v -2.297"
         style="fill:none;stroke:#666666;stroke-width:0.2;stroke-linecap:butt;stroke-linejoin:miter;stroke-miterlimit:3.25;stroke-dasharray:none;stroke-opacity:1"
         id="path58" /><path
         d="m 321.121,119.949 v -2.297"
         style="fill:none;stroke:#666666;stroke-width:0.2;stroke-linecap:butt;stroke-linejoin:miter;stroke-miterlimit:3.25;stroke-dasharray:none;stroke-opacity:1"
         id="path60" /><path
         d="m 340.531,119.949 v -3.828"
         style="fill:none;stroke:#666666;stroke-width:0.2;stroke-linecap:butt;stroke-linejoin:miter;stroke-miterlimit:3.25;stroke-dasharray:none;stroke-opacity:1"
         id="path62" /><text
         transform="translate(337.03061,132.94867)"
         style="font-variant:normal;font-weight:normal;font-size:14px;font-family:Times;-inkscape-font-specification:Times-Roman;writing-mode:lr-tb;fill:#000000;fill-opacity:1;fill-rule:nonzero;stroke:none"
         id="text66"><tspan
           x="0"
           y="0"
           id="tspan64">8</tspan></text><path
         d="M 23.531,119.949 H 347"
         style="fill:none;stroke:#666666;stroke-width:0.2;stroke-linecap:butt;stroke-linejoin:miter;stroke-miterlimit:3.25;stroke-dasharray:none;stroke-opacity:1"
         id="path68" /><text
         transform="translate(355,122.94867)"
         style="font-variant:normal;font-weight:normal;font-size:14px;font-family:Times;-inkscape-font-specification:Times-Roman;writing-mode:lr-tb;fill:#000000;fill-opacity:1;fill-rule:nonzero;stroke:none"
         id="text72"><tspan
           x="0"
           y="0"
           id="tspan70">t</tspan></text><path
         d="m 30,218.969 h 2.297"
         style="fill:none;stroke:#666666;stroke-width:0.2;stroke-linecap:butt;stroke-linejoin:miter;stroke-miterlimit:3.25;stroke-dasharray:none;stroke-opacity:1"
         id="path74" /><path
         d="m 30,209.965 h 3.828"
         style="fill:none;stroke:#666666;stroke-width:0.2;stroke-linecap:butt;stroke-linejoin:miter;stroke-miterlimit:3.25;stroke-dasharray:none;stroke-opacity:1"
         id="path76" /><text
         transform="translate(0,212.96617)"
         style="font-variant:normal;font-weight:normal;font-size:13px;font-family:Mathematica;-inkscape-font-specification:Mathematica;writing-mode:lr-tb;fill:#000000;fill-opacity:1;fill-rule:nonzero;stroke:none"
         id="text80"><tspan
           x="0"
           y="0"
           id="tspan78">-</tspan></text><text
         transform="translate(9,212.96617)"
         style="font-variant:normal;font-weight:normal;font-size:14px;font-family:Times;-inkscape-font-specification:Times-Roman;writing-mode:lr-tb;fill:#000000;fill-opacity:1;fill-rule:nonzero;stroke:none"
         id="text84"><tspan
           x="0 7 10.5"
           y="0"
           sodipodi:role="line"
           id="tspan82">1.0</tspan></text><path
         d="m 30,200.965 h 2.297"
         style="fill:none;stroke:#666666;stroke-width:0.2;stroke-linecap:butt;stroke-linejoin:miter;stroke-miterlimit:3.25;stroke-dasharray:none;stroke-opacity:1"
         id="path86" /><path
         d="m 30,191.961 h 2.297"
         style="fill:none;stroke:#666666;stroke-width:0.2;stroke-linecap:butt;stroke-linejoin:miter;stroke-miterlimit:3.25;stroke-dasharray:none;stroke-opacity:1"
         id="path88" /><path
         d="m 30,182.961 h 2.297"
         style="fill:none;stroke:#666666;stroke-width:0.2;stroke-linecap:butt;stroke-linejoin:miter;stroke-miterlimit:3.25;stroke-dasharray:none;stroke-opacity:1"
         id="path90" /><path
         d="m 30,173.961 h 2.297"
         style="fill:none;stroke:#666666;stroke-width:0.2;stroke-linecap:butt;stroke-linejoin:miter;stroke-miterlimit:3.25;stroke-dasharray:none;stroke-opacity:1"
         id="path92" /><path
         d="m 30,164.957 h 3.828"
         style="fill:none;stroke:#666666;stroke-width:0.2;stroke-linecap:butt;stroke-linejoin:miter;stroke-miterlimit:3.25;stroke-dasharray:none;stroke-opacity:1"
         id="path94" /><text
         transform="translate(0,167.95742)"
         style="font-variant:normal;font-weight:normal;font-size:13px;font-family:Mathematica;-inkscape-font-specification:Mathematica;writing-mode:lr-tb;fill:#000000;fill-opacity:1;fill-rule:nonzero;stroke:none"
         id="text98"><tspan
           x="0"
           y="0"
           id="tspan96">-</tspan></text><text
         transform="translate(9,167.95742)"
         style="font-variant:normal;font-weight:normal;font-size:14px;font-family:Times;-inkscape-font-specification:Times-Roman;writing-mode:lr-tb;fill:#000000;fill-opacity:1;fill-rule:nonzero;stroke:none"
         id="text102"><tspan
           x="0 7 10.5"
           y="0"
           sodipodi:role="line"
           id="tspan100">0.5</tspan></text><path
         d="m 30,155.957 h 2.297"
         style="fill:none;stroke:#666666;stroke-width:0.2;stroke-linecap:butt;stroke-linejoin:miter;stroke-miterlimit:3.25;stroke-dasharray:none;stroke-opacity:1"
         id="path104" /><path
         d="m 30,146.953 h 2.297"
         style="fill:none;stroke:#666666;stroke-width:0.2;stroke-linecap:butt;stroke-linejoin:miter;stroke-miterlimit:3.25;stroke-dasharray:none;stroke-opacity:1"
         id="path106" /><path
         d="m 30,137.953 h 2.297"
         style="fill:none;stroke:#666666;stroke-width:0.2;stroke-linecap:butt;stroke-linejoin:miter;stroke-miterlimit:3.25;stroke-dasharray:none;stroke-opacity:1"
         id="path108" /><path
         d="m 30,128.949 h 2.297"
         style="fill:none;stroke:#666666;stroke-width:0.2;stroke-linecap:butt;stroke-linejoin:miter;stroke-miterlimit:3.25;stroke-dasharray:none;stroke-opacity:1"
         id="path110" /><path
         d="m 30,119.949 h 3.828"
         style="fill:none;stroke:#666666;stroke-width:0.2;stroke-linecap:butt;stroke-linejoin:miter;stroke-miterlimit:3.25;stroke-dasharray:none;stroke-opacity:1"
         id="path112" /><path
         d="m 30,110.945 h 2.297"
         style="fill:none;stroke:#666666;stroke-width:0.2;stroke-linecap:butt;stroke-linejoin:miter;stroke-miterlimit:3.25;stroke-dasharray:none;stroke-opacity:1"
         id="path114" /><path
         d="m 30,101.945 h 2.297"
         style="fill:none;stroke:#666666;stroke-width:0.2;stroke-linecap:butt;stroke-linejoin:miter;stroke-miterlimit:3.25;stroke-dasharray:none;stroke-opacity:1"
         id="path116" /><path
         d="m 30,92.945 h 2.297"
         style="fill:none;stroke:#666666;stroke-width:0.2;stroke-linecap:butt;stroke-linejoin:miter;stroke-miterlimit:3.25;stroke-dasharray:none;stroke-opacity:1"
         id="path118" /><path
         d="m 30,83.941 h 2.297"
         style="fill:none;stroke:#666666;stroke-width:0.2;stroke-linecap:butt;stroke-linejoin:miter;stroke-miterlimit:3.25;stroke-dasharray:none;stroke-opacity:1"
         id="path120" /><path
         d="m 30,74.941 h 3.828"
         style="fill:none;stroke:#666666;stroke-width:0.2;stroke-linecap:butt;stroke-linejoin:miter;stroke-miterlimit:3.25;stroke-dasharray:none;stroke-opacity:1"
         id="path122" /><text
         transform="translate(9,77.939924)"
         style="font-variant:normal;font-weight:normal;font-size:14px;font-family:Times;-inkscape-font-specification:Times-Roman;writing-mode:lr-tb;fill:#000000;fill-opacity:1;fill-rule:nonzero;stroke:none"
         id="text126"><tspan
           x="0 7 10.5"
           y="0"
           sodipodi:role="line"
           id="tspan124">0.5</tspan></text><path
         d="m 30,65.938 h 2.297"
         style="fill:none;stroke:#666666;stroke-width:0.2;stroke-linecap:butt;stroke-linejoin:miter;stroke-miterlimit:3.25;stroke-dasharray:none;stroke-opacity:1"
         id="path128" /><path
         d="m 30,56.938 h 2.297"
         style="fill:none;stroke:#666666;stroke-width:0.2;stroke-linecap:butt;stroke-linejoin:miter;stroke-miterlimit:3.25;stroke-dasharray:none;stroke-opacity:1"
         id="path130" /><path
         d="m 30,47.934 h 2.297"
         style="fill:none;stroke:#666666;stroke-width:0.2;stroke-linecap:butt;stroke-linejoin:miter;stroke-miterlimit:3.25;stroke-dasharray:none;stroke-opacity:1"
         id="path132" /><path
         d="m 30,38.934 h 2.297"
         style="fill:none;stroke:#666666;stroke-width:0.2;stroke-linecap:butt;stroke-linejoin:miter;stroke-miterlimit:3.25;stroke-dasharray:none;stroke-opacity:1"
         id="path134" /><path
         d="m 30,29.93 h 3.828"
         style="fill:none;stroke:#666666;stroke-width:0.2;stroke-linecap:butt;stroke-linejoin:miter;stroke-miterlimit:3.25;stroke-dasharray:none;stroke-opacity:1"
         id="path136" /><text
         transform="translate(9,32.931175)"
         style="font-variant:normal;font-weight:normal;font-size:14px;font-family:Times;-inkscape-font-specification:Times-Roman;writing-mode:lr-tb;fill:#000000;fill-opacity:1;fill-rule:nonzero;stroke:none"
         id="text140"><tspan
           x="0 7 10.5"
           y="0"
           sodipodi:role="line"
           id="tspan138">1.0</tspan></text><path
         d="m 30,20.93 h 2.297"
         style="fill:none;stroke:#666666;stroke-width:0.2;stroke-linecap:butt;stroke-linejoin:miter;stroke-miterlimit:3.25;stroke-dasharray:none;stroke-opacity:1"
         id="path142" /><path
         d="M 30,219.914 V 20"
         style="fill:none;stroke:#666666;stroke-width:0.2;stroke-linecap:butt;stroke-linejoin:miter;stroke-miterlimit:3.25;stroke-dasharray:none;stroke-opacity:1"
         id="path144" /><text
         transform="translate(26.5,10)"
         style="font-variant:normal;font-weight:normal;font-size:13px;font-family:Mathematica;-inkscape-font-specification:Mathematica;writing-mode:lr-tb;fill:#000000;fill-opacity:1;fill-rule:nonzero;stroke:none"
         id="text148"><tspan
           x="0"
           y="0"
           id="tspan146">$\lambda$</tspan></text></g></g></svg>
