<?xml version="1.0" encoding="UTF-8" standalone="no"?>
<!-- Created with Inkscape (http://www.inkscape.org/) -->

<svg
   version="1.1"
   id="svg2"
   xml:space="preserve"
   width="480"
   height="293.33334"
   viewBox="0 0 480 293.33334"
   sodipodi:docname="patch_isotropic_tex.svg"
   inkscape:version="1.1.1 (3bf5ae0d25, 2021-09-20)"
   xmlns:inkscape="http://www.inkscape.org/namespaces/inkscape"
   xmlns:sodipodi="http://sodipodi.sourceforge.net/DTD/sodipodi-0.dtd"
   xmlns="http://www.w3.org/2000/svg"
   xmlns:svg="http://www.w3.org/2000/svg"><defs
     id="defs6" /><sodipodi:namedview
     id="namedview4"
     pagecolor="#ffffff"
     bordercolor="#666666"
     borderopacity="1.0"
     inkscape:pageshadow="2"
     inkscape:pageopacity="0.0"
     inkscape:pagecheckerboard="0"
     showgrid="false"
     inkscape:zoom="2.5916667"
     inkscape:cx="255.43408"
     inkscape:cy="175.75563"
     inkscape:window-width="3440"
     inkscape:window-height="1369"
     inkscape:window-x="-8"
     inkscape:window-y="-8"
     inkscape:window-maximized="1"
     inkscape:current-layer="g8" /><g
     id="g8"
     inkscape:groupmode="layer"
     inkscape:label="patch_isotropic"
     transform="matrix(1.3333333,0,0,1.3333333,0,4e-6)"><path
       d="M 0,0 H 360 V 220.078 H 0 Z"
       style="fill:none;stroke:#ffffff;stroke-width:1;stroke-linecap:butt;stroke-linejoin:miter;stroke-miterlimit:10;stroke-dasharray:none;stroke-opacity:1"
       id="path14" /><path
       d="m 171.285,132.5 15.43,-37.094 15.43,-1.375 15.425,-1.375 30.86,-2.75 15.425,-1.375 46.29,-4.125 15.425,-1.375 -15.425,99.559 -46.29,4.125 -15.425,1.375 -15.43,1.375 -15.43,1.379 -15.425,1.375 -46.29,4.125 -15.425,1.375 -30.86,2.75 -15.425,1.375 -46.29,4.125 -15.425,1.379 -15.43,1.375 15.43,-152.661 15.425,-1.374 46.29,-4.126 15.425,-1.374 30.86,-2.75 15.425,-1.376 15.43,-1.374 15.43,-1.379 15.43,-1.375 15.425,-1.375 30.86,-2.75 15.425,-1.375 46.29,-4.125 15.425,-1.375"
       style="fill:none;stroke:#aa0000;stroke-width:1.6;stroke-linecap:square;stroke-linejoin:miter;stroke-miterlimit:3.25;stroke-dasharray:none;stroke-opacity:1"
       id="path16" /><g
       aria-label="●●●●●●●●●●●●●●●●●●●●●●●●●●●●●●●●●●●●●●●●●●●●●●●●●●●"
       id="text120"
       style="font-size:10px;font-family:MathematicaSans;-inkscape-font-specification:MathematicaSans;fill:#aa0000"><path
         d="m 168.64996,132.18678 q 0,-0.89355 0.62989,-1.52343 0.62988,-0.62989 1.52343,-0.62989 0.88868,0 1.51856,0.62989 0.62988,0.62988 0.62988,1.52343 0,0.88867 -0.62988,1.51856 -0.62988,0.62988 -1.51856,0.62988 -0.89355,0 -1.52343,-0.62988 -0.62989,-0.62989 -0.62989,-1.51856 z"
         id="path1500" /><path
         d="m 184.07854,95.095207 q 0,-0.893554 0.62988,-1.523437 0.62988,-0.629883 1.52344,-0.629883 0.88867,0 1.51855,0.629883 0.62988,0.629883 0.62988,1.523437 0,0.888672 -0.62988,1.518555 -0.62988,0.629883 -1.51855,0.629883 -0.89356,0 -1.52344,-0.629883 -0.62988,-0.629883 -0.62988,-1.518555 z"
         id="path1502" /><path
         d="m 199.50711,93.719902 q 0,-0.893555 0.62988,-1.523437 0.62989,-0.629883 1.52344,-0.629883 0.88867,0 1.51856,0.629883 0.62988,0.629882 0.62988,1.523437 0,0.888672 -0.62988,1.518555 -0.62989,0.629883 -1.51856,0.629883 -0.89355,0 -1.52344,-0.629883 -0.62988,-0.629883 -0.62988,-1.518555 z"
         id="path1504" /><path
         d="m 214.93568,92.344589 q 0,-0.893554 0.62989,-1.523437 0.62988,-0.629883 1.52343,-0.629883 0.88868,0 1.51856,0.629883 0.62988,0.629883 0.62988,1.523437 0,0.888672 -0.62988,1.518555 -0.62988,0.629883 -1.51856,0.629883 -0.89355,0 -1.52343,-0.629883 -0.62989,-0.629883 -0.62989,-1.518555 z"
         id="path1506" /><path
         d="m 230.36424,90.969276 q 0,-0.893554 0.62989,-1.523437 0.62988,-0.629883 1.52343,-0.629883 0.88867,0 1.51856,0.629883 0.62988,0.629883 0.62988,1.523437 0,0.888672 -0.62988,1.518555 -0.62989,0.629883 -1.51856,0.629883 -0.89355,0 -1.52343,-0.629883 -0.62989,-0.629883 -0.62989,-1.518555 z"
         id="path1508" /><path
         d="m 245.79282,89.593971 q 0,-0.893554 0.62988,-1.523437 0.62988,-0.629883 1.52344,-0.629883 0.88867,0 1.51855,0.629883 0.62988,0.629883 0.62988,1.523437 0,0.888672 -0.62988,1.518555 -0.62988,0.629883 -1.51855,0.629883 -0.89356,0 -1.52344,-0.629883 -0.62988,-0.629883 -0.62988,-1.518555 z"
         id="path1510" /><path
         d="m 261.22137,88.218658 q 0,-0.893554 0.62989,-1.523437 0.62988,-0.629883 1.52343,-0.629883 0.88868,0 1.51856,0.629883 0.62988,0.629883 0.62988,1.523437 0,0.888672 -0.62988,1.518555 -0.62988,0.629883 -1.51856,0.629883 -0.89355,0 -1.52343,-0.629883 -0.62989,-0.629883 -0.62989,-1.518555 z"
         id="path1512" /><path
         d="m 276.64996,86.843346 q 0,-0.893555 0.62989,-1.523438 0.62988,-0.629883 1.52343,-0.629883 0.88868,0 1.51856,0.629883 0.62988,0.629883 0.62988,1.523438 0,0.888672 -0.62988,1.518554 -0.62988,0.629883 -1.51856,0.629883 -0.89355,0 -1.52343,-0.629883 -0.62989,-0.629882 -0.62989,-1.518554 z"
         id="path1514" /><path
         d="m 292.07852,85.46804 q 0,-0.893554 0.62988,-1.523437 0.62989,-0.629883 1.52344,-0.629883 0.88867,0 1.51856,0.629883 0.62988,0.629883 0.62988,1.523437 0,0.888672 -0.62988,1.518555 -0.62989,0.629883 -1.51856,0.629883 -0.89355,0 -1.52344,-0.629883 -0.62988,-0.629883 -0.62988,-1.518555 z"
         id="path1516" /><path
         d="m 307.50711,84.092728 q 0,-0.893555 0.62988,-1.523438 0.62989,-0.629883 1.52344,-0.629883 0.88867,0 1.51856,0.629883 0.62988,0.629883 0.62988,1.523438 0,0.888672 -0.62988,1.518554 -0.62989,0.629883 -1.51856,0.629883 -0.89355,0 -1.52344,-0.629883 -0.62988,-0.629882 -0.62988,-1.518554 z"
         id="path1518" /><path
         d="m 322.93567,82.717415 q 0,-0.893555 0.62988,-1.523438 0.62988,-0.629882 1.52344,-0.629882 0.88867,0 1.51855,0.629882 0.62989,0.629883 0.62989,1.523438 0,0.888672 -0.62989,1.518555 -0.62988,0.629882 -1.51855,0.629882 -0.89356,0 -1.52344,-0.629882 -0.62988,-0.629883 -0.62988,-1.518555 z"
         id="path1520" /><path
         d="m 307.50711,182.27769 q 0,-0.89355 0.62988,-1.52343 0.62989,-0.62989 1.52344,-0.62989 0.88867,0 1.51856,0.62989 0.62988,0.62988 0.62988,1.52343 0,0.88868 -0.62988,1.51856 -0.62989,0.62988 -1.51856,0.62988 -0.89355,0 -1.52344,-0.62988 -0.62988,-0.62988 -0.62988,-1.51856 z"
         id="path1522" /><path
         d="m 292.07852,183.653 q 0,-0.89355 0.62988,-1.52344 0.62989,-0.62988 1.52344,-0.62988 0.88867,0 1.51856,0.62988 0.62988,0.62989 0.62988,1.52344 0,0.88867 -0.62988,1.51855 -0.62989,0.62989 -1.51856,0.62989 -0.89355,0 -1.52344,-0.62989 -0.62988,-0.62988 -0.62988,-1.51855 z"
         id="path1524" /><path
         d="m 276.64996,185.02831 q 0,-0.89356 0.62989,-1.52344 0.62988,-0.62989 1.52343,-0.62989 0.88868,0 1.51856,0.62989 0.62988,0.62988 0.62988,1.52344 0,0.88867 -0.62988,1.51855 -0.62988,0.62988 -1.51856,0.62988 -0.89355,0 -1.52343,-0.62988 -0.62989,-0.62988 -0.62989,-1.51855 z"
         id="path1526" /><path
         d="m 261.22137,186.40363 q 0,-0.89356 0.62989,-1.52344 0.62988,-0.62988 1.52343,-0.62988 0.88868,0 1.51856,0.62988 0.62988,0.62988 0.62988,1.52344 0,0.88867 -0.62988,1.51855 -0.62988,0.62988 -1.51856,0.62988 -0.89355,0 -1.52343,-0.62988 -0.62989,-0.62988 -0.62989,-1.51855 z"
         id="path1528" /><path
         d="m 245.79282,187.77893 q 0,-0.89355 0.62988,-1.52344 0.62988,-0.62988 1.52344,-0.62988 0.88867,0 1.51855,0.62988 0.62988,0.62989 0.62988,1.52344 0,0.88867 -0.62988,1.51856 -0.62988,0.62988 -1.51855,0.62988 -0.89356,0 -1.52344,-0.62988 -0.62988,-0.62989 -0.62988,-1.51856 z"
         id="path1530" /><path
         d="m 230.36424,189.15424 q 0,-0.89356 0.62989,-1.52344 0.62988,-0.62988 1.52343,-0.62988 0.88867,0 1.51856,0.62988 0.62988,0.62988 0.62988,1.52344 0,0.88867 -0.62988,1.51855 -0.62989,0.62988 -1.51856,0.62988 -0.89355,0 -1.52343,-0.62988 -0.62989,-0.62988 -0.62989,-1.51855 z"
         id="path1532" /><path
         d="m 214.93568,190.52954 q 0,-0.89355 0.62989,-1.52344 0.62988,-0.62988 1.52343,-0.62988 0.88868,0 1.51856,0.62988 0.62988,0.62989 0.62988,1.52344 0,0.88867 -0.62988,1.51856 -0.62988,0.62988 -1.51856,0.62988 -0.89355,0 -1.52343,-0.62988 -0.62989,-0.62989 -0.62989,-1.51856 z"
         id="path1534" /><path
         d="m 199.50711,191.90486 q 0,-0.89355 0.62988,-1.52344 0.62989,-0.62988 1.52344,-0.62988 0.88867,0 1.51856,0.62988 0.62988,0.62989 0.62988,1.52344 0,0.88867 -0.62988,1.51856 -0.62989,0.62988 -1.51856,0.62988 -0.89355,0 -1.52344,-0.62988 -0.62988,-0.62989 -0.62988,-1.51856 z"
         id="path1536" /><path
         d="m 184.07854,193.28017 q 0,-0.89356 0.62988,-1.52344 0.62988,-0.62988 1.52344,-0.62988 0.88867,0 1.51855,0.62988 0.62988,0.62988 0.62988,1.52344 0,0.88867 -0.62988,1.51855 -0.62988,0.62988 -1.51855,0.62988 -0.89356,0 -1.52344,-0.62988 -0.62988,-0.62988 -0.62988,-1.51855 z"
         id="path1538" /><path
         d="m 168.64996,194.65547 q 0,-0.89355 0.62989,-1.52344 0.62988,-0.62988 1.52343,-0.62988 0.88868,0 1.51856,0.62988 0.62988,0.62989 0.62988,1.52344 0,0.88867 -0.62988,1.51856 -0.62988,0.62988 -1.51856,0.62988 -0.89355,0 -1.52343,-0.62988 -0.62989,-0.62989 -0.62989,-1.51856 z"
         id="path1540" /><path
         d="m 153.22141,196.03079 q 0,-0.89355 0.62988,-1.52344 0.62988,-0.62988 1.52344,-0.62988 0.88867,0 1.51855,0.62988 0.62988,0.62989 0.62988,1.52344 0,0.88867 -0.62988,1.51856 -0.62988,0.62988 -1.51855,0.62988 -0.89356,0 -1.52344,-0.62988 -0.62988,-0.62989 -0.62988,-1.51856 z"
         id="path1542" /><path
         d="m 137.79283,197.4061 q 0,-0.89356 0.62988,-1.52344 0.62989,-0.62988 1.52344,-0.62988 0.88867,0 1.51856,0.62988 0.62988,0.62988 0.62988,1.52344 0,0.88867 -0.62988,1.51855 -0.62989,0.62988 -1.51856,0.62988 -0.89355,0 -1.52344,-0.62988 -0.62988,-0.62988 -0.62988,-1.51855 z"
         id="path1544" /><path
         d="m 122.36426,198.7814 q 0,-0.89355 0.62988,-1.52343 0.62988,-0.62989 1.52344,-0.62989 0.88867,0 1.51855,0.62989 0.62989,0.62988 0.62989,1.52343 0,0.88867 -0.62989,1.51856 -0.62988,0.62988 -1.51855,0.62988 -0.89356,0 -1.52344,-0.62988 -0.62988,-0.62989 -0.62988,-1.51856 z"
         id="path1546" /><path
         d="m 106.93568,200.15672 q 0,-0.89355 0.62989,-1.52343 0.62988,-0.62989 1.52343,-0.62989 0.88868,0 1.51856,0.62989 0.62988,0.62988 0.62988,1.52343 0,0.88867 -0.62988,1.51856 -0.62988,0.62988 -1.51856,0.62988 -0.89355,0 -1.52343,-0.62988 -0.62989,-0.62989 -0.62989,-1.51856 z"
         id="path1548" /><path
         d="m 91.507118,201.53203 q 0,-0.89356 0.629883,-1.52344 0.629883,-0.62988 1.523438,-0.62988 0.888671,0 1.518554,0.62988 0.629883,0.62988 0.629883,1.52344 0,0.88867 -0.629883,1.51855 -0.629883,0.62989 -1.518554,0.62989 -0.893555,0 -1.523438,-0.62989 -0.629883,-0.62988 -0.629883,-1.51855 z"
         id="path1550" /><path
         d="m 76.078552,202.90733 q 0,-0.89355 0.629883,-1.52343 0.629883,-0.62989 1.523438,-0.62989 0.888671,0 1.518554,0.62989 0.629883,0.62988 0.629883,1.52343 0,0.88868 -0.629883,1.51856 -0.629883,0.62988 -1.518554,0.62988 -0.893555,0 -1.523438,-0.62988 -0.629883,-0.62988 -0.629883,-1.51856 z"
         id="path1552" /><path
         d="m 60.649975,204.28265 q 0,-0.89355 0.629883,-1.52343 0.629882,-0.62989 1.523437,-0.62989 0.888672,0 1.518555,0.62989 0.629883,0.62988 0.629883,1.52343 0,0.88868 -0.629883,1.51856 -0.629883,0.62988 -1.518555,0.62988 -0.893555,0 -1.523437,-0.62988 -0.629883,-0.62988 -0.629883,-1.51856 z"
         id="path1554" /><path
         d="m 45.221409,205.65796 q 0,-0.89356 0.629883,-1.52344 0.629882,-0.62988 1.523437,-0.62988 0.888672,0 1.518555,0.62988 0.629883,0.62988 0.629883,1.52344 0,0.88867 -0.629883,1.51855 -0.629883,0.62989 -1.518555,0.62989 -0.893555,0 -1.523437,-0.62989 -0.629883,-0.62988 -0.629883,-1.51855 z"
         id="path1556" /><path
         d="m 29.792835,207.03326 q 0,-0.89355 0.629883,-1.52343 0.629883,-0.62989 1.523438,-0.62989 0.888671,0 1.518554,0.62989 0.629883,0.62988 0.629883,1.52343 0,0.88868 -0.629883,1.51856 -0.629883,0.62988 -1.518554,0.62988 -0.893555,0 -1.523438,-0.62988 -0.629883,-0.62988 -0.629883,-1.51856 z"
         id="path1558" /><path
         d="m 14.364263,208.40857 q 0,-0.89356 0.629882,-1.52344 0.629883,-0.62988 1.523438,-0.62988 0.888672,0 1.518555,0.62988 0.629882,0.62988 0.629882,1.52344 0,0.88867 -0.629882,1.51855 -0.629883,0.62989 -1.518555,0.62989 -0.893555,0 -1.523438,-0.62989 -0.629882,-0.62988 -0.629882,-1.51855 z"
         id="path1560" /><path
         d="m 29.792835,55.751068 q 0,-0.893555 0.629883,-1.523437 0.629883,-0.629883 1.523438,-0.629883 0.888671,0 1.518554,0.629883 0.629883,0.629882 0.629883,1.523437 0,0.888672 -0.629883,1.518555 -0.629883,0.629883 -1.518554,0.629883 -0.893555,0 -1.523438,-0.629883 -0.629883,-0.629883 -0.629883,-1.518555 z"
         id="path1562" /><path
         d="m 45.221409,54.375763 q 0,-0.893555 0.629883,-1.523438 0.629882,-0.629882 1.523437,-0.629882 0.888672,0 1.518555,0.629882 0.629883,0.629883 0.629883,1.523438 0,0.888672 -0.629883,1.518555 -0.629883,0.629882 -1.518555,0.629882 -0.893555,0 -1.523437,-0.629882 -0.629883,-0.629883 -0.629883,-1.518555 z"
         id="path1564" /><path
         d="m 60.649975,53.00045 q 0,-0.893555 0.629883,-1.523437 0.629882,-0.629883 1.523437,-0.629883 0.888672,0 1.518555,0.629883 0.629883,0.629882 0.629883,1.523437 0,0.888672 -0.629883,1.518555 -0.629883,0.629883 -1.518555,0.629883 -0.893555,0 -1.523437,-0.629883 -0.629883,-0.629883 -0.629883,-1.518555 z"
         id="path1566" /><path
         d="m 76.078552,51.625137 q 0,-0.893554 0.629883,-1.523437 0.629883,-0.629883 1.523438,-0.629883 0.888671,0 1.518554,0.629883 0.629883,0.629883 0.629883,1.523437 0,0.888672 -0.629883,1.518555 -0.629883,0.629883 -1.518554,0.629883 -0.893555,0 -1.523438,-0.629883 -0.629883,-0.629883 -0.629883,-1.518555 z"
         id="path1568" /><path
         d="m 91.507118,50.249832 q 0,-0.893555 0.629883,-1.523437 0.629883,-0.629883 1.523438,-0.629883 0.888671,0 1.518554,0.629883 0.629883,0.629882 0.629883,1.523437 0,0.888672 -0.629883,1.518555 -0.629883,0.629883 -1.518554,0.629883 -0.893555,0 -1.523438,-0.629883 -0.629883,-0.629883 -0.629883,-1.518555 z"
         id="path1570" /><path
         d="m 106.93568,48.874519 q 0,-0.893554 0.62989,-1.523437 0.62988,-0.629883 1.52343,-0.629883 0.88868,0 1.51856,0.629883 0.62988,0.629883 0.62988,1.523437 0,0.888672 -0.62988,1.518555 -0.62988,0.629883 -1.51856,0.629883 -0.89355,0 -1.52343,-0.629883 -0.62989,-0.629883 -0.62989,-1.518555 z"
         id="path1572" /><path
         d="m 122.36426,47.499214 q 0,-0.893555 0.62988,-1.523437 0.62988,-0.629883 1.52344,-0.629883 0.88867,0 1.51855,0.629883 0.62989,0.629882 0.62989,1.523437 0,0.888672 -0.62989,1.518555 -0.62988,0.629883 -1.51855,0.629883 -0.89356,0 -1.52344,-0.629883 -0.62988,-0.629883 -0.62988,-1.518555 z"
         id="path1574" /><path
         d="m 137.79283,46.123901 q 0,-0.893554 0.62988,-1.523437 0.62989,-0.629883 1.52344,-0.629883 0.88867,0 1.51856,0.629883 0.62988,0.629883 0.62988,1.523437 0,0.888672 -0.62988,1.518555 -0.62989,0.629883 -1.51856,0.629883 -0.89355,0 -1.52344,-0.629883 -0.62988,-0.629883 -0.62988,-1.518555 z"
         id="path1576" /><path
         d="m 153.22141,44.748589 q 0,-0.893555 0.62988,-1.523438 0.62988,-0.629883 1.52344,-0.629883 0.88867,0 1.51855,0.629883 0.62988,0.629883 0.62988,1.523438 0,0.888671 -0.62988,1.518554 -0.62988,0.629883 -1.51855,0.629883 -0.89356,0 -1.52344,-0.629883 -0.62988,-0.629883 -0.62988,-1.518554 z"
         id="path1578" /><path
         d="m 168.64996,43.373283 q 0,-0.893554 0.62989,-1.523437 0.62988,-0.629883 1.52343,-0.629883 0.88868,0 1.51856,0.629883 0.62988,0.629883 0.62988,1.523437 0,0.888672 -0.62988,1.518555 -0.62988,0.629883 -1.51856,0.629883 -0.89355,0 -1.52343,-0.629883 -0.62989,-0.629883 -0.62989,-1.518555 z"
         id="path1580" /><path
         d="m 184.07854,41.997971 q 0,-0.893555 0.62988,-1.523438 0.62988,-0.629883 1.52344,-0.629883 0.88867,0 1.51855,0.629883 0.62988,0.629883 0.62988,1.523438 0,0.888671 -0.62988,1.518554 -0.62988,0.629883 -1.51855,0.629883 -0.89356,0 -1.52344,-0.629883 -0.62988,-0.629883 -0.62988,-1.518554 z"
         id="path1582" /><path
         d="m 199.50711,40.622658 q 0,-0.893555 0.62988,-1.523438 0.62989,-0.629883 1.52344,-0.629883 0.88867,0 1.51856,0.629883 0.62988,0.629883 0.62988,1.523438 0,0.888672 -0.62988,1.518554 -0.62989,0.629883 -1.51856,0.629883 -0.89355,0 -1.52344,-0.629883 -0.62988,-0.629882 -0.62988,-1.518554 z"
         id="path1584" /><path
         d="m 214.93568,39.247353 q 0,-0.893555 0.62989,-1.523438 0.62988,-0.629883 1.52343,-0.629883 0.88868,0 1.51856,0.629883 0.62988,0.629883 0.62988,1.523438 0,0.888671 -0.62988,1.518554 -0.62988,0.629883 -1.51856,0.629883 -0.89355,0 -1.52343,-0.629883 -0.62989,-0.629883 -0.62989,-1.518554 z"
         id="path1586" /><path
         d="m 230.36424,37.87204 q 0,-0.893555 0.62989,-1.523438 0.62988,-0.629883 1.52343,-0.629883 0.88867,0 1.51856,0.629883 0.62988,0.629883 0.62988,1.523438 0,0.888672 -0.62988,1.518554 -0.62989,0.629883 -1.51856,0.629883 -0.89355,0 -1.52343,-0.629883 -0.62989,-0.629882 -0.62989,-1.518554 z"
         id="path1588" /><path
         d="m 245.79282,36.496727 q 0,-0.893555 0.62988,-1.523438 0.62988,-0.629882 1.52344,-0.629882 0.88867,0 1.51855,0.629882 0.62988,0.629883 0.62988,1.523438 0,0.888672 -0.62988,1.518555 -0.62988,0.629882 -1.51855,0.629882 -0.89356,0 -1.52344,-0.629882 -0.62988,-0.629883 -0.62988,-1.518555 z"
         id="path1590" /><path
         d="m 261.22137,35.121422 q 0,-0.893555 0.62989,-1.523438 0.62988,-0.629882 1.52343,-0.629882 0.88868,0 1.51856,0.629882 0.62988,0.629883 0.62988,1.523438 0,0.888672 -0.62988,1.518555 -0.62988,0.629882 -1.51856,0.629882 -0.89355,0 -1.52343,-0.629882 -0.62989,-0.629883 -0.62989,-1.518555 z"
         id="path1592" /><path
         d="m 276.64996,33.746109 q 0,-0.893555 0.62989,-1.523437 0.62988,-0.629883 1.52343,-0.629883 0.88868,0 1.51856,0.629883 0.62988,0.629882 0.62988,1.523437 0,0.888672 -0.62988,1.518555 -0.62988,0.629883 -1.51856,0.629883 -0.89355,0 -1.52343,-0.629883 -0.62989,-0.629883 -0.62989,-1.518555 z"
         id="path1594" /><path
         d="m 292.07852,32.370804 q 0,-0.893555 0.62988,-1.523438 0.62989,-0.629882 1.52344,-0.629882 0.88867,0 1.51856,0.629882 0.62988,0.629883 0.62988,1.523438 0,0.888672 -0.62988,1.518555 -0.62989,0.629882 -1.51856,0.629882 -0.89355,0 -1.52344,-0.629882 -0.62988,-0.629883 -0.62988,-1.518555 z"
         id="path1596" /><path
         d="m 307.50711,30.995491 q 0,-0.893555 0.62988,-1.523437 0.62989,-0.629883 1.52344,-0.629883 0.88867,0 1.51856,0.629883 0.62988,0.629882 0.62988,1.523437 0,0.888672 -0.62988,1.518555 -0.62989,0.629883 -1.51856,0.629883 -0.89355,0 -1.52344,-0.629883 -0.62988,-0.629883 -0.62988,-1.518555 z"
         id="path1598" /><path
         d="m 322.93567,29.620178 q 0,-0.893554 0.62988,-1.523437 0.62988,-0.629883 1.52344,-0.629883 0.88867,0 1.51855,0.629883 0.62989,0.629883 0.62989,1.523437 0,0.888672 -0.62989,1.518555 -0.62988,0.629883 -1.51855,0.629883 -0.89356,0 -1.52344,-0.629883 -0.62988,-0.629883 -0.62988,-1.518555 z"
         id="path1600" /></g><path
       d="m 17,132.5 v -3.805"
       style="fill:none;stroke:#666666;stroke-width:0.2;stroke-linecap:butt;stroke-linejoin:miter;stroke-miterlimit:3.25;stroke-dasharray:none;stroke-opacity:1"
       id="path122" /><path
       d="m 32.43,132.5 v -2.281"
       style="fill:none;stroke:#666666;stroke-width:0.2;stroke-linecap:butt;stroke-linejoin:miter;stroke-miterlimit:3.25;stroke-dasharray:none;stroke-opacity:1"
       id="path132" /><path
       d="m 47.855,132.5 v -2.281"
       style="fill:none;stroke:#666666;stroke-width:0.2;stroke-linecap:butt;stroke-linejoin:miter;stroke-miterlimit:3.25;stroke-dasharray:none;stroke-opacity:1"
       id="path134" /><path
       d="m 63.285,132.5 v -2.281"
       style="fill:none;stroke:#666666;stroke-width:0.2;stroke-linecap:butt;stroke-linejoin:miter;stroke-miterlimit:3.25;stroke-dasharray:none;stroke-opacity:1"
       id="path136" /><path
       d="m 78.715,132.5 v -2.281"
       style="fill:none;stroke:#666666;stroke-width:0.2;stroke-linecap:butt;stroke-linejoin:miter;stroke-miterlimit:3.25;stroke-dasharray:none;stroke-opacity:1"
       id="path138" /><path
       d="m 94.145,132.5 v -3.805"
       style="fill:none;stroke:#666666;stroke-width:0.2;stroke-linecap:butt;stroke-linejoin:miter;stroke-miterlimit:3.25;stroke-dasharray:none;stroke-opacity:1"
       id="path140" /><path
       d="m 109.57,132.5 v -2.281"
       style="fill:none;stroke:#666666;stroke-width:0.2;stroke-linecap:butt;stroke-linejoin:miter;stroke-miterlimit:3.25;stroke-dasharray:none;stroke-opacity:1"
       id="path150" /><path
       d="m 125,132.5 v -2.281"
       style="fill:none;stroke:#666666;stroke-width:0.2;stroke-linecap:butt;stroke-linejoin:miter;stroke-miterlimit:3.25;stroke-dasharray:none;stroke-opacity:1"
       id="path152" /><path
       d="m 140.43,132.5 v -2.281"
       style="fill:none;stroke:#666666;stroke-width:0.2;stroke-linecap:butt;stroke-linejoin:miter;stroke-miterlimit:3.25;stroke-dasharray:none;stroke-opacity:1"
       id="path154" /><path
       d="m 155.855,132.5 v -2.281"
       style="fill:none;stroke:#666666;stroke-width:0.2;stroke-linecap:butt;stroke-linejoin:miter;stroke-miterlimit:3.25;stroke-dasharray:none;stroke-opacity:1"
       id="path156" /><path
       d="m 171.285,132.5 v -3.805"
       style="fill:none;stroke:#666666;stroke-width:0.2;stroke-linecap:butt;stroke-linejoin:miter;stroke-miterlimit:3.25;stroke-dasharray:none;stroke-opacity:1"
       id="path158" /><path
       d="m 186.715,132.5 v -2.281"
       style="fill:none;stroke:#666666;stroke-width:0.2;stroke-linecap:butt;stroke-linejoin:miter;stroke-miterlimit:3.25;stroke-dasharray:none;stroke-opacity:1"
       id="path160" /><path
       d="m 202.145,132.5 v -2.281"
       style="fill:none;stroke:#666666;stroke-width:0.2;stroke-linecap:butt;stroke-linejoin:miter;stroke-miterlimit:3.25;stroke-dasharray:none;stroke-opacity:1"
       id="path162" /><path
       d="m 217.57,132.5 v -2.281"
       style="fill:none;stroke:#666666;stroke-width:0.2;stroke-linecap:butt;stroke-linejoin:miter;stroke-miterlimit:3.25;stroke-dasharray:none;stroke-opacity:1"
       id="path164" /><path
       d="m 233,132.5 v -2.281"
       style="fill:none;stroke:#666666;stroke-width:0.2;stroke-linecap:butt;stroke-linejoin:miter;stroke-miterlimit:3.25;stroke-dasharray:none;stroke-opacity:1"
       id="path166" /><path
       d="m 248.43,132.5 v -3.805"
       style="fill:none;stroke:#666666;stroke-width:0.2;stroke-linecap:butt;stroke-linejoin:miter;stroke-miterlimit:3.25;stroke-dasharray:none;stroke-opacity:1"
       id="path168" /><path
       d="m 263.855,132.5 v -2.281"
       style="fill:none;stroke:#666666;stroke-width:0.2;stroke-linecap:butt;stroke-linejoin:miter;stroke-miterlimit:3.25;stroke-dasharray:none;stroke-opacity:1"
       id="path174" /><path
       d="m 279.285,132.5 v -2.281"
       style="fill:none;stroke:#666666;stroke-width:0.2;stroke-linecap:butt;stroke-linejoin:miter;stroke-miterlimit:3.25;stroke-dasharray:none;stroke-opacity:1"
       id="path176" /><path
       d="m 294.715,132.5 v -2.281"
       style="fill:none;stroke:#666666;stroke-width:0.2;stroke-linecap:butt;stroke-linejoin:miter;stroke-miterlimit:3.25;stroke-dasharray:none;stroke-opacity:1"
       id="path178" /><path
       d="m 310.145,132.5 v -2.281"
       style="fill:none;stroke:#666666;stroke-width:0.2;stroke-linecap:butt;stroke-linejoin:miter;stroke-miterlimit:3.25;stroke-dasharray:none;stroke-opacity:1"
       id="path180" /><path
       d="m 325.57,132.5 v -3.805"
       style="fill:none;stroke:#666666;stroke-width:0.2;stroke-linecap:butt;stroke-linejoin:miter;stroke-miterlimit:3.25;stroke-dasharray:none;stroke-opacity:1"
       id="path182" /><path
       d="M 10.57,132.5 H 332"
       style="fill:none;stroke:#666666;stroke-width:0.2;stroke-linecap:butt;stroke-linejoin:miter;stroke-miterlimit:3.25;stroke-dasharray:none;stroke-opacity:1"
       id="path188" /><path
       d="m 171.285,209.16 h 2.281"
       style="fill:none;stroke:#666666;stroke-width:0.2;stroke-linecap:butt;stroke-linejoin:miter;stroke-miterlimit:3.25;stroke-dasharray:none;stroke-opacity:1"
       id="path198" /><path
       d="m 171.285,198.207 h 2.281"
       style="fill:none;stroke:#666666;stroke-width:0.2;stroke-linecap:butt;stroke-linejoin:miter;stroke-miterlimit:3.25;stroke-dasharray:none;stroke-opacity:1"
       id="path200" /><path
       d="m 171.285,187.258 h 3.805"
       style="fill:none;stroke:#666666;stroke-width:0.2;stroke-linecap:butt;stroke-linejoin:miter;stroke-miterlimit:3.25;stroke-dasharray:none;stroke-opacity:1"
       id="path202" /><path
       d="m 171.285,176.305 h 2.281"
       style="fill:none;stroke:#666666;stroke-width:0.2;stroke-linecap:butt;stroke-linejoin:miter;stroke-miterlimit:3.25;stroke-dasharray:none;stroke-opacity:1"
       id="path212" /><path
       d="m 171.285,165.355 h 2.281"
       style="fill:none;stroke:#666666;stroke-width:0.2;stroke-linecap:butt;stroke-linejoin:miter;stroke-miterlimit:3.25;stroke-dasharray:none;stroke-opacity:1"
       id="path214" /><path
       d="m 171.285,154.402 h 2.281"
       style="fill:none;stroke:#666666;stroke-width:0.2;stroke-linecap:butt;stroke-linejoin:miter;stroke-miterlimit:3.25;stroke-dasharray:none;stroke-opacity:1"
       id="path216" /><path
       d="m 171.285,143.81074 h 2.281"
       style="fill:none;stroke:#666666;stroke-width:0.2;stroke-linecap:butt;stroke-linejoin:miter;stroke-miterlimit:3.25;stroke-dasharray:none;stroke-opacity:1"
       id="path218" /><path
       d="m 171.285,132.5 h 3.805"
       style="fill:none;stroke:#666666;stroke-width:0.2;stroke-linecap:butt;stroke-linejoin:miter;stroke-miterlimit:3.25;stroke-dasharray:none;stroke-opacity:1"
       id="path220" /><path
       d="m 171.285,121.547 h 2.281"
       style="fill:none;stroke:#666666;stroke-width:0.2;stroke-linecap:butt;stroke-linejoin:miter;stroke-miterlimit:3.25;stroke-dasharray:none;stroke-opacity:1"
       id="path222" /><path
       d="m 171.285,110.598 h 2.281"
       style="fill:none;stroke:#666666;stroke-width:0.2;stroke-linecap:butt;stroke-linejoin:miter;stroke-miterlimit:3.25;stroke-dasharray:none;stroke-opacity:1"
       id="path224" /><path
       d="m 171.285,99.645 h 2.281"
       style="fill:none;stroke:#666666;stroke-width:0.2;stroke-linecap:butt;stroke-linejoin:miter;stroke-miterlimit:3.25;stroke-dasharray:none;stroke-opacity:1"
       id="path226" /><path
       d="m 171.285,88.691 h 2.281"
       style="fill:none;stroke:#666666;stroke-width:0.2;stroke-linecap:butt;stroke-linejoin:miter;stroke-miterlimit:3.25;stroke-dasharray:none;stroke-opacity:1"
       id="path228" /><path
       d="m 171.285,77.742 h 3.805"
       style="fill:none;stroke:#666666;stroke-width:0.2;stroke-linecap:butt;stroke-linejoin:miter;stroke-miterlimit:3.25;stroke-dasharray:none;stroke-opacity:1"
       id="path230" /><text
       style="font-variant:normal;font-weight:normal;font-size:14px;font-family:Times;-inkscape-font-specification:Times-Roman;writing-mode:lr-tb;fill:#000000;fill-opacity:1;fill-rule:nonzero;stroke:none"
       id="text234"
       x="139.76158"
       y="81.030937"><tspan
         x="139.76158 146.76158 153.76158"
         y="81.030937"
         sodipodi:role="line"
         id="tspan232">500</tspan></text><path
       d="m 171.285,66.789 h 2.281"
       style="fill:none;stroke:#666666;stroke-width:0.2;stroke-linecap:butt;stroke-linejoin:miter;stroke-miterlimit:3.25;stroke-dasharray:none;stroke-opacity:1"
       id="path236" /><path
       d="m 171.285,55.84 h 2.281"
       style="fill:none;stroke:#666666;stroke-width:0.2;stroke-linecap:butt;stroke-linejoin:miter;stroke-miterlimit:3.25;stroke-dasharray:none;stroke-opacity:1"
       id="path238" /><path
       d="m 171.285,44.887 h 2.281"
       style="fill:none;stroke:#666666;stroke-width:0.2;stroke-linecap:butt;stroke-linejoin:miter;stroke-miterlimit:3.25;stroke-dasharray:none;stroke-opacity:1"
       id="path240" /><path
       d="m 171.285,33.934 h 2.281"
       style="fill:none;stroke:#666666;stroke-width:0.2;stroke-linecap:butt;stroke-linejoin:miter;stroke-miterlimit:3.25;stroke-dasharray:none;stroke-opacity:1"
       id="path242" /><path
       d="m 171.285,22.984 h 3.805"
       style="fill:none;stroke:#666666;stroke-width:0.2;stroke-linecap:butt;stroke-linejoin:miter;stroke-miterlimit:3.25;stroke-dasharray:none;stroke-opacity:1"
       id="path244" /><text
       style="font-variant:normal;font-weight:normal;font-size:14px;font-family:Times;-inkscape-font-specification:Times-Roman;writing-mode:lr-tb;fill:#000000;fill-opacity:1;fill-rule:nonzero;stroke:none"
       id="text248"
       x="134.20853"
       y="26.851969"><tspan
         x="134.20853 141.20853 148.20853 155.20853"
         y="26.851969"
         sodipodi:role="line"
         id="tspan246">1000</tspan></text><path
       d="M 171.285,218.652 V 20"
       style="fill:none;stroke:#666666;stroke-width:0.2;stroke-linecap:butt;stroke-linejoin:miter;stroke-miterlimit:3.25;stroke-dasharray:none;stroke-opacity:1"
       id="path250" /><text
       style="font-variant:normal;font-weight:normal;font-size:13px;font-family:Mathematica;-inkscape-font-specification:Mathematica;writing-mode:lr-tb;fill:#000000;fill-opacity:1;fill-rule:nonzero;stroke:none"
       id="text192"
       x="341.84851"
       y="129.6906"><tspan
         x="341.84851"
         y="129.6906"
         id="tspan190">$\varepsilon_{yy}$</tspan></text><text
       style="font-variant:normal;font-weight:normal;font-size:13px;font-family:Mathematica;-inkscape-font-specification:Mathematica;writing-mode:lr-tb;fill:#000000;fill-opacity:1;fill-rule:nonzero;stroke:none"
       id="text272"
       x="165.47397"
       y="9.3700991"><tspan
         x="165.47397"
         y="9.3700991"
         id="tspan270">$\sigma_{yy}$</tspan></text></g></svg>
