<?xml version="1.0" encoding="UTF-8" standalone="no"?>
<!-- Created with Inkscape (http://www.inkscape.org/) -->

<svg
   version="1.1"
   id="svg2"
   xml:space="preserve"
   width="480"
   height="293.33334"
   viewBox="0 0 480 293.33334"
   sodipodi:docname="patch_375_1054_tex.svg"
   inkscape:version="1.1.1 (3bf5ae0d25, 2021-09-20)"
   xmlns:inkscape="http://www.inkscape.org/namespaces/inkscape"
   xmlns:sodipodi="http://sodipodi.sourceforge.net/DTD/sodipodi-0.dtd"
   xmlns="http://www.w3.org/2000/svg"
   xmlns:svg="http://www.w3.org/2000/svg"><defs
     id="defs6" /><sodipodi:namedview
     id="namedview4"
     pagecolor="#ffffff"
     bordercolor="#666666"
     borderopacity="1.0"
     inkscape:pageshadow="2"
     inkscape:pageopacity="0.0"
     inkscape:pagecheckerboard="0"
     showgrid="false"
     inkscape:zoom="2.5958333"
     inkscape:cx="240"
     inkscape:cy="146.58106"
     inkscape:window-width="3440"
     inkscape:window-height="1369"
     inkscape:window-x="-8"
     inkscape:window-y="-8"
     inkscape:window-maximized="1"
     inkscape:current-layer="g8" /><g
     id="g8"
     inkscape:groupmode="layer"
     inkscape:label="patch_375_1054"
     transform="matrix(1.3333333,0,0,1.3333333,0,4e-6)"><path
       d="M 0,0 H 360 V 220 H 0 Z"
       style="fill:#ffffff;fill-opacity:1;fill-rule:nonzero;stroke:none"
       id="path12" /><path
       d="M 0,0 H 360 V 220.078 H 0 Z"
       style="fill:none;stroke:#ffffff;stroke-width:1;stroke-linecap:butt;stroke-linejoin:miter;stroke-miterlimit:10;stroke-dasharray:none;stroke-opacity:1"
       id="path14" /><path
       d="m 171.285,131.348 15.43,-41.801 15.43,-1.25 15.425,-1.246 30.86,-2.5 15.425,-1.25 15.43,-1.246 30.86,-2.5 15.425,-1.25 -15.425,106.683 -15.43,1.25 -15.43,1.246 -15.43,1.25 -15.425,1.25 -30.86,2.5 -15.425,1.246 -46.29,3.75 -15.425,1.247 -30.86,2.5 -15.425,1.25 -15.43,1.246 -30.86,2.5 -15.425,1.25 -15.43,1.25 15.43,-155.055 15.425,-1.25 46.29,-3.75 15.425,-1.246 30.86,-2.5 15.425,-1.25 15.43,-1.246 30.86,-2.5 15.425,-1.25 15.43,-1.25 15.43,-1.246 15.425,-1.25 30.86,-2.5 15.43,-1.246 15.425,-1.25"
       style="fill:none;stroke:#aa0000;stroke-width:1.6;stroke-linecap:square;stroke-linejoin:miter;stroke-miterlimit:3.25;stroke-dasharray:none;stroke-opacity:1"
       id="path16" /><g
       aria-label="●●●●●●●●●●●●●●●●●●●●●●●●●●●●●●●●●●●●●●●●●●●●●●●●●●●"
       id="text120"
       style="font-size:10px;font-family:MathematicaSans;-inkscape-font-specification:MathematicaSans;fill:#aa0000"><path
         d="m 168.64996,131.03333 q 0,-0.89356 0.62989,-1.52344 0.62988,-0.62989 1.52343,-0.62989 0.88868,0 1.51856,0.62989 0.62988,0.62988 0.62988,1.52344 0,0.88867 -0.62988,1.51855 -0.62988,0.62988 -1.51856,0.62988 -0.89355,0 -1.52343,-0.62988 -0.62989,-0.62988 -0.62989,-1.51855 z"
         id="path11930" /><path
         d="m 184.07854,89.235123 q 0,-0.893555 0.62988,-1.523438 0.62988,-0.629883 1.52344,-0.629883 0.88867,0 1.51855,0.629883 0.62988,0.629883 0.62988,1.523438 0,0.888672 -0.62988,1.518554 -0.62988,0.629883 -1.51855,0.629883 -0.89356,0 -1.52344,-0.629883 -0.62988,-0.629882 -0.62988,-1.518554 z"
         id="path11932" /><path
         d="m 199.50711,87.986 q 0,-0.893555 0.62988,-1.523437 0.62989,-0.629883 1.52344,-0.629883 0.88867,0 1.51856,0.629883 0.62988,0.629882 0.62988,1.523437 0,0.888672 -0.62988,1.518555 -0.62989,0.629883 -1.51856,0.629883 -0.89355,0 -1.52344,-0.629883 -0.62988,-0.629883 -0.62988,-1.518555 z"
         id="path11934" /><path
         d="m 214.93568,86.736877 q 0,-0.893554 0.62989,-1.523437 0.62988,-0.629883 1.52343,-0.629883 0.88868,0 1.51856,0.629883 0.62988,0.629883 0.62988,1.523437 0,0.888672 -0.62988,1.518555 -0.62988,0.629883 -1.51856,0.629883 -0.89355,0 -1.52343,-0.629883 -0.62989,-0.629883 -0.62989,-1.518555 z"
         id="path11936" /><path
         d="m 230.36424,85.487762 q 0,-0.893554 0.62989,-1.523437 0.62988,-0.629883 1.52343,-0.629883 0.88867,0 1.51856,0.629883 0.62988,0.629883 0.62988,1.523437 0,0.888672 -0.62988,1.518555 -0.62989,0.629883 -1.51856,0.629883 -0.89355,0 -1.52343,-0.629883 -0.62989,-0.629883 -0.62989,-1.518555 z"
         id="path11938" /><path
         d="m 245.79282,84.23864 q 0,-0.893555 0.62988,-1.523438 0.62988,-0.629882 1.52344,-0.629882 0.88867,0 1.51855,0.629882 0.62988,0.629883 0.62988,1.523438 0,0.888672 -0.62988,1.518555 -0.62988,0.629882 -1.51855,0.629882 -0.89356,0 -1.52344,-0.629882 -0.62988,-0.629883 -0.62988,-1.518555 z"
         id="path11940" /><path
         d="m 261.22137,82.989517 q 0,-0.893554 0.62989,-1.523437 0.62988,-0.629883 1.52343,-0.629883 0.88868,0 1.51856,0.629883 0.62988,0.629883 0.62988,1.523437 0,0.888672 -0.62988,1.518555 -0.62988,0.629883 -1.51856,0.629883 -0.89355,0 -1.52343,-0.629883 -0.62989,-0.629883 -0.62989,-1.518555 z"
         id="path11942" /><path
         d="m 276.64996,81.740402 q 0,-0.893554 0.62989,-1.523437 0.62988,-0.629883 1.52343,-0.629883 0.88868,0 1.51856,0.629883 0.62988,0.629883 0.62988,1.523437 0,0.888672 -0.62988,1.518555 -0.62988,0.629883 -1.51856,0.629883 -0.89355,0 -1.52343,-0.629883 -0.62989,-0.629883 -0.62989,-1.518555 z"
         id="path11944" /><path
         d="m 292.07852,80.49128 q 0,-0.893555 0.62988,-1.523438 0.62989,-0.629883 1.52344,-0.629883 0.88867,0 1.51856,0.629883 0.62988,0.629883 0.62988,1.523438 0,0.888671 -0.62988,1.518554 -0.62989,0.629883 -1.51856,0.629883 -0.89355,0 -1.52344,-0.629883 -0.62988,-0.629883 -0.62988,-1.518554 z"
         id="path11946" /><path
         d="m 307.50711,79.242157 q 0,-0.893555 0.62988,-1.523438 0.62989,-0.629882 1.52344,-0.629882 0.88867,0 1.51856,0.629882 0.62988,0.629883 0.62988,1.523438 0,0.888672 -0.62988,1.518555 -0.62989,0.629882 -1.51856,0.629882 -0.89355,0 -1.52344,-0.629882 -0.62988,-0.629883 -0.62988,-1.518555 z"
         id="path11948" /><path
         d="m 322.93567,77.993042 q 0,-0.893555 0.62988,-1.523438 0.62988,-0.629882 1.52344,-0.629882 0.88867,0 1.51855,0.629882 0.62989,0.629883 0.62989,1.523438 0,0.888672 -0.62989,1.518555 -0.62988,0.629882 -1.51855,0.629882 -0.89356,0 -1.52344,-0.629882 -0.62988,-0.629883 -0.62988,-1.518555 z"
         id="path11950" /><path
         d="m 307.50711,184.67526 q 0,-0.89355 0.62988,-1.52344 0.62989,-0.62988 1.52344,-0.62988 0.88867,0 1.51856,0.62988 0.62988,0.62989 0.62988,1.52344 0,0.88867 -0.62988,1.51856 -0.62989,0.62988 -1.51856,0.62988 -0.89355,0 -1.52344,-0.62988 -0.62988,-0.62989 -0.62988,-1.51856 z"
         id="path11952" /><path
         d="m 292.07852,185.92439 q 0,-0.89355 0.62988,-1.52343 0.62989,-0.62989 1.52344,-0.62989 0.88867,0 1.51856,0.62989 0.62988,0.62988 0.62988,1.52343 0,0.88867 -0.62988,1.51856 -0.62989,0.62988 -1.51856,0.62988 -0.89355,0 -1.52344,-0.62988 -0.62988,-0.62989 -0.62988,-1.51856 z"
         id="path11954" /><path
         d="m 276.64996,187.17351 q 0,-0.89356 0.62989,-1.52344 0.62988,-0.62988 1.52343,-0.62988 0.88868,0 1.51856,0.62988 0.62988,0.62988 0.62988,1.52344 0,0.88867 -0.62988,1.51855 -0.62988,0.62989 -1.51856,0.62989 -0.89355,0 -1.52343,-0.62989 -0.62989,-0.62988 -0.62989,-1.51855 z"
         id="path11956" /><path
         d="m 261.22137,188.42262 q 0,-0.89355 0.62989,-1.52343 0.62988,-0.62989 1.52343,-0.62989 0.88868,0 1.51856,0.62989 0.62988,0.62988 0.62988,1.52343 0,0.88867 -0.62988,1.51856 -0.62988,0.62988 -1.51856,0.62988 -0.89355,0 -1.52343,-0.62988 -0.62989,-0.62989 -0.62989,-1.51856 z"
         id="path11958" /><path
         d="m 245.79282,189.67175 q 0,-0.89355 0.62988,-1.52343 0.62988,-0.62989 1.52344,-0.62989 0.88867,0 1.51855,0.62989 0.62988,0.62988 0.62988,1.52343 0,0.88867 -0.62988,1.51856 -0.62988,0.62988 -1.51855,0.62988 -0.89356,0 -1.52344,-0.62988 -0.62988,-0.62989 -0.62988,-1.51856 z"
         id="path11960" /><path
         d="m 230.36424,190.92087 q 0,-0.89356 0.62989,-1.52344 0.62988,-0.62988 1.52343,-0.62988 0.88867,0 1.51856,0.62988 0.62988,0.62988 0.62988,1.52344 0,0.88867 -0.62988,1.51855 -0.62989,0.62989 -1.51856,0.62989 -0.89355,0 -1.52343,-0.62989 -0.62989,-0.62988 -0.62989,-1.51855 z"
         id="path11962" /><path
         d="m 214.93568,192.16998 q 0,-0.89355 0.62989,-1.52343 0.62988,-0.62989 1.52343,-0.62989 0.88868,0 1.51856,0.62989 0.62988,0.62988 0.62988,1.52343 0,0.88867 -0.62988,1.51856 -0.62988,0.62988 -1.51856,0.62988 -0.89355,0 -1.52343,-0.62988 -0.62989,-0.62989 -0.62989,-1.51856 z"
         id="path11964" /><path
         d="m 199.50711,193.41911 q 0,-0.89355 0.62988,-1.52343 0.62989,-0.62989 1.52344,-0.62989 0.88867,0 1.51856,0.62989 0.62988,0.62988 0.62988,1.52343 0,0.88868 -0.62988,1.51856 -0.62989,0.62988 -1.51856,0.62988 -0.89355,0 -1.52344,-0.62988 -0.62988,-0.62988 -0.62988,-1.51856 z"
         id="path11966" /><path
         d="m 184.07854,194.66823 q 0,-0.89356 0.62988,-1.52344 0.62988,-0.62988 1.52344,-0.62988 0.88867,0 1.51855,0.62988 0.62988,0.62988 0.62988,1.52344 0,0.88867 -0.62988,1.51855 -0.62988,0.62989 -1.51855,0.62989 -0.89356,0 -1.52344,-0.62989 -0.62988,-0.62988 -0.62988,-1.51855 z"
         id="path11968" /><path
         d="m 168.64996,195.91736 q 0,-0.89356 0.62989,-1.52344 0.62988,-0.62988 1.52343,-0.62988 0.88868,0 1.51856,0.62988 0.62988,0.62988 0.62988,1.52344 0,0.88867 -0.62988,1.51855 -0.62988,0.62989 -1.51856,0.62989 -0.89355,0 -1.52343,-0.62989 -0.62989,-0.62988 -0.62989,-1.51855 z"
         id="path11970" /><path
         d="m 153.22141,197.16647 q 0,-0.89355 0.62988,-1.52343 0.62988,-0.62989 1.52344,-0.62989 0.88867,0 1.51855,0.62989 0.62988,0.62988 0.62988,1.52343 0,0.88868 -0.62988,1.51856 -0.62988,0.62988 -1.51855,0.62988 -0.89356,0 -1.52344,-0.62988 -0.62988,-0.62988 -0.62988,-1.51856 z"
         id="path11972" /><path
         d="m 137.79283,198.41559 q 0,-0.89356 0.62988,-1.52344 0.62989,-0.62988 1.52344,-0.62988 0.88867,0 1.51856,0.62988 0.62988,0.62988 0.62988,1.52344 0,0.88867 -0.62988,1.51855 -0.62989,0.62989 -1.51856,0.62989 -0.89355,0 -1.52344,-0.62989 -0.62988,-0.62988 -0.62988,-1.51855 z"
         id="path11974" /><path
         d="m 122.36426,199.66472 q 0,-0.89356 0.62988,-1.52344 0.62988,-0.62988 1.52344,-0.62988 0.88867,0 1.51855,0.62988 0.62989,0.62988 0.62989,1.52344 0,0.88867 -0.62989,1.51855 -0.62988,0.62989 -1.51855,0.62989 -0.89356,0 -1.52344,-0.62989 -0.62988,-0.62988 -0.62988,-1.51855 z"
         id="path11976" /><path
         d="m 106.93568,200.91383 q 0,-0.89355 0.62989,-1.52343 0.62988,-0.62989 1.52343,-0.62989 0.88868,0 1.51856,0.62989 0.62988,0.62988 0.62988,1.52343 0,0.88868 -0.62988,1.51856 -0.62988,0.62988 -1.51856,0.62988 -0.89355,0 -1.52343,-0.62988 -0.62989,-0.62988 -0.62989,-1.51856 z"
         id="path11978" /><path
         d="m 91.507118,202.16295 q 0,-0.89356 0.629883,-1.52344 0.629883,-0.62988 1.523438,-0.62988 0.888671,0 1.518554,0.62988 0.629883,0.62988 0.629883,1.52344 0,0.88867 -0.629883,1.51855 -0.629883,0.62989 -1.518554,0.62989 -0.893555,0 -1.523438,-0.62989 -0.629883,-0.62988 -0.629883,-1.51855 z"
         id="path11980" /><path
         d="m 76.078552,203.41208 q 0,-0.89356 0.629883,-1.52344 0.629883,-0.62988 1.523438,-0.62988 0.888671,0 1.518554,0.62988 0.629883,0.62988 0.629883,1.52344 0,0.88867 -0.629883,1.51855 -0.629883,0.62989 -1.518554,0.62989 -0.893555,0 -1.523438,-0.62989 -0.629883,-0.62988 -0.629883,-1.51855 z"
         id="path11982" /><path
         d="m 60.649975,204.66119 q 0,-0.89355 0.629883,-1.52343 0.629882,-0.62989 1.523437,-0.62989 0.888672,0 1.518555,0.62989 0.629883,0.62988 0.629883,1.52343 0,0.88868 -0.629883,1.51856 -0.629883,0.62988 -1.518555,0.62988 -0.893555,0 -1.523437,-0.62988 -0.629883,-0.62988 -0.629883,-1.51856 z"
         id="path11984" /><path
         d="m 45.221409,205.91031 q 0,-0.89356 0.629883,-1.52344 0.629882,-0.62988 1.523437,-0.62988 0.888672,0 1.518555,0.62988 0.629883,0.62988 0.629883,1.52344 0,0.88867 -0.629883,1.51855 -0.629883,0.62989 -1.518555,0.62989 -0.893555,0 -1.523437,-0.62989 -0.629883,-0.62988 -0.629883,-1.51855 z"
         id="path11986" /><path
         d="m 29.792835,207.15942 q 0,-0.89355 0.629883,-1.52343 0.629883,-0.62989 1.523438,-0.62989 0.888671,0 1.518554,0.62989 0.629883,0.62988 0.629883,1.52343 0,0.88868 -0.629883,1.51856 -0.629883,0.62988 -1.518554,0.62988 -0.893555,0 -1.523438,-0.62988 -0.629883,-0.62988 -0.629883,-1.51856 z"
         id="path11988" /><path
         d="m 14.364263,208.40855 q 0,-0.89355 0.629882,-1.52343 0.629883,-0.62989 1.523438,-0.62989 0.888672,0 1.518555,0.62989 0.629882,0.62988 0.629882,1.52343 0,0.88868 -0.629882,1.51856 -0.629883,0.62988 -1.518555,0.62988 -0.893555,0 -1.523438,-0.62988 -0.629882,-0.62988 -0.629882,-1.51856 z"
         id="path11990" /><path
         d="m 29.792835,53.353516 q 0,-0.893555 0.629883,-1.523438 0.629883,-0.629883 1.523438,-0.629883 0.888671,0 1.518554,0.629883 0.629883,0.629883 0.629883,1.523438 0,0.888671 -0.629883,1.518554 -0.629883,0.629883 -1.518554,0.629883 -0.893555,0 -1.523438,-0.629883 -0.629883,-0.629883 -0.629883,-1.518554 z"
         id="path11992" /><path
         d="m 45.221409,52.104385 q 0,-0.893554 0.629883,-1.523437 0.629882,-0.629883 1.523437,-0.629883 0.888672,0 1.518555,0.629883 0.629883,0.629883 0.629883,1.523437 0,0.888672 -0.629883,1.518555 -0.629883,0.629883 -1.518555,0.629883 -0.893555,0 -1.523437,-0.629883 -0.629883,-0.629883 -0.629883,-1.518555 z"
         id="path11994" /><path
         d="m 60.649975,50.85527 q 0,-0.893554 0.629883,-1.523437 0.629882,-0.629883 1.523437,-0.629883 0.888672,0 1.518555,0.629883 0.629883,0.629883 0.629883,1.523437 0,0.888672 -0.629883,1.518555 -0.629883,0.629883 -1.518555,0.629883 -0.893555,0 -1.523437,-0.629883 -0.629883,-0.629883 -0.629883,-1.518555 z"
         id="path11996" /><path
         d="m 76.078552,49.606155 q 0,-0.893554 0.629883,-1.523437 0.629883,-0.629883 1.523438,-0.629883 0.888671,0 1.518554,0.629883 0.629883,0.629883 0.629883,1.523437 0,0.888672 -0.629883,1.518555 -0.629883,0.629883 -1.518554,0.629883 -0.893555,0 -1.523438,-0.629883 -0.629883,-0.629883 -0.629883,-1.518555 z"
         id="path11998" /><path
         d="m 91.507118,48.357025 q 0,-0.893555 0.629883,-1.523437 0.629883,-0.629883 1.523438,-0.629883 0.888671,0 1.518554,0.629883 0.629883,0.629882 0.629883,1.523437 0,0.888672 -0.629883,1.518555 -0.629883,0.629883 -1.518554,0.629883 -0.893555,0 -1.523438,-0.629883 -0.629883,-0.629883 -0.629883,-1.518555 z"
         id="path12000" /><path
         d="m 106.93568,47.10791 q 0,-0.893555 0.62989,-1.523437 0.62988,-0.629883 1.52343,-0.629883 0.88868,0 1.51856,0.629883 0.62988,0.629882 0.62988,1.523437 0,0.888672 -0.62988,1.518555 -0.62988,0.629883 -1.51856,0.629883 -0.89355,0 -1.52343,-0.629883 -0.62989,-0.629883 -0.62989,-1.518555 z"
         id="path12002" /><path
         d="m 122.36426,45.858795 q 0,-0.893555 0.62988,-1.523437 0.62988,-0.629883 1.52344,-0.629883 0.88867,0 1.51855,0.629883 0.62989,0.629882 0.62989,1.523437 0,0.888672 -0.62989,1.518555 -0.62988,0.629883 -1.51855,0.629883 -0.89356,0 -1.52344,-0.629883 -0.62988,-0.629883 -0.62988,-1.518555 z"
         id="path12004" /><path
         d="m 137.79283,44.609665 q 0,-0.893555 0.62988,-1.523438 0.62989,-0.629882 1.52344,-0.629882 0.88867,0 1.51856,0.629882 0.62988,0.629883 0.62988,1.523438 0,0.888672 -0.62988,1.518555 -0.62989,0.629882 -1.51856,0.629882 -0.89355,0 -1.52344,-0.629882 -0.62988,-0.629883 -0.62988,-1.518555 z"
         id="path12006" /><path
         d="m 153.22141,43.36055 q 0,-0.893555 0.62988,-1.523438 0.62988,-0.629882 1.52344,-0.629882 0.88867,0 1.51855,0.629882 0.62988,0.629883 0.62988,1.523438 0,0.888672 -0.62988,1.518555 -0.62988,0.629882 -1.51855,0.629882 -0.89356,0 -1.52344,-0.629882 -0.62988,-0.629883 -0.62988,-1.518555 z"
         id="path12008" /><path
         d="m 168.64996,42.111435 q 0,-0.893555 0.62989,-1.523438 0.62988,-0.629882 1.52343,-0.629882 0.88868,0 1.51856,0.629882 0.62988,0.629883 0.62988,1.523438 0,0.888672 -0.62988,1.518555 -0.62988,0.629882 -1.51856,0.629882 -0.89355,0 -1.52343,-0.629882 -0.62989,-0.629883 -0.62989,-1.518555 z"
         id="path12010" /><path
         d="m 184.07854,40.862305 q 0,-0.893555 0.62988,-1.523438 0.62988,-0.629883 1.52344,-0.629883 0.88867,0 1.51855,0.629883 0.62988,0.629883 0.62988,1.523438 0,0.888672 -0.62988,1.518554 -0.62988,0.629883 -1.51855,0.629883 -0.89356,0 -1.52344,-0.629883 -0.62988,-0.629882 -0.62988,-1.518554 z"
         id="path12012" /><path
         d="m 199.50711,39.61319 q 0,-0.893555 0.62988,-1.523438 0.62989,-0.629883 1.52344,-0.629883 0.88867,0 1.51856,0.629883 0.62988,0.629883 0.62988,1.523438 0,0.888672 -0.62988,1.518554 -0.62989,0.629883 -1.51856,0.629883 -0.89355,0 -1.52344,-0.629883 -0.62988,-0.629882 -0.62988,-1.518554 z"
         id="path12014" /><path
         d="m 214.93568,38.364075 q 0,-0.893555 0.62989,-1.523438 0.62988,-0.629883 1.52343,-0.629883 0.88868,0 1.51856,0.629883 0.62988,0.629883 0.62988,1.523438 0,0.888672 -0.62988,1.518554 -0.62988,0.629883 -1.51856,0.629883 -0.89355,0 -1.52343,-0.629883 -0.62989,-0.629882 -0.62989,-1.518554 z"
         id="path12016" /><path
         d="m 230.36424,37.114944 q 0,-0.893554 0.62989,-1.523437 0.62988,-0.629883 1.52343,-0.629883 0.88867,0 1.51856,0.629883 0.62988,0.629883 0.62988,1.523437 0,0.888672 -0.62988,1.518555 -0.62989,0.629883 -1.51856,0.629883 -0.89355,0 -1.52343,-0.629883 -0.62989,-0.629883 -0.62989,-1.518555 z"
         id="path12018" /><path
         d="m 245.79282,35.865829 q 0,-0.893554 0.62988,-1.523437 0.62988,-0.629883 1.52344,-0.629883 0.88867,0 1.51855,0.629883 0.62988,0.629883 0.62988,1.523437 0,0.888672 -0.62988,1.518555 -0.62988,0.629883 -1.51855,0.629883 -0.89356,0 -1.52344,-0.629883 -0.62988,-0.629883 -0.62988,-1.518555 z"
         id="path12020" /><path
         d="m 261.22137,34.616714 q 0,-0.893554 0.62989,-1.523437 0.62988,-0.629883 1.52343,-0.629883 0.88868,0 1.51856,0.629883 0.62988,0.629883 0.62988,1.523437 0,0.888672 -0.62988,1.518555 -0.62988,0.629883 -1.51856,0.629883 -0.89355,0 -1.52343,-0.629883 -0.62989,-0.629883 -0.62989,-1.518555 z"
         id="path12022" /><path
         d="m 276.64996,33.367584 q 0,-0.893554 0.62989,-1.523437 0.62988,-0.629883 1.52343,-0.629883 0.88868,0 1.51856,0.629883 0.62988,0.629883 0.62988,1.523437 0,0.888672 -0.62988,1.518555 -0.62988,0.629883 -1.51856,0.629883 -0.89355,0 -1.52343,-0.629883 -0.62989,-0.629883 -0.62989,-1.518555 z"
         id="path12024" /><path
         d="m 292.07852,32.118469 q 0,-0.893554 0.62988,-1.523437 0.62989,-0.629883 1.52344,-0.629883 0.88867,0 1.51856,0.629883 0.62988,0.629883 0.62988,1.523437 0,0.888672 -0.62988,1.518555 -0.62989,0.629883 -1.51856,0.629883 -0.89355,0 -1.52344,-0.629883 -0.62988,-0.629883 -0.62988,-1.518555 z"
         id="path12026" /><path
         d="m 307.50711,30.869354 q 0,-0.893554 0.62988,-1.523437 0.62989,-0.629883 1.52344,-0.629883 0.88867,0 1.51856,0.629883 0.62988,0.629883 0.62988,1.523437 0,0.888672 -0.62988,1.518555 -0.62989,0.629883 -1.51856,0.629883 -0.89355,0 -1.52344,-0.629883 -0.62988,-0.629883 -0.62988,-1.518555 z"
         id="path12028" /><path
         d="m 322.93567,29.620224 q 0,-0.893555 0.62988,-1.523438 0.62988,-0.629882 1.52344,-0.629882 0.88867,0 1.51855,0.629882 0.62989,0.629883 0.62989,1.523438 0,0.888672 -0.62989,1.518555 -0.62988,0.629882 -1.51855,0.629882 -0.89356,0 -1.52344,-0.629882 -0.62988,-0.629883 -0.62988,-1.518555 z"
         id="path12030" /></g><path
       d="m 17,131.348 v -3.805"
       style="fill:none;stroke:#666666;stroke-width:0.2;stroke-linecap:butt;stroke-linejoin:miter;stroke-miterlimit:3.25;stroke-dasharray:none;stroke-opacity:1"
       id="path122" /><text
       style="font-variant:normal;font-weight:normal;font-size:13px;font-family:Mathematica;-inkscape-font-specification:Mathematica;writing-mode:lr-tb;fill:#000000;fill-opacity:1;fill-rule:nonzero;stroke:none"
       id="text126"
       y="144.34583"><tspan
         x="0"
         y="144.34583"
         id="tspan124">-0.10</tspan></text><path
       d="m 32.43,131.348 v -2.286"
       style="fill:none;stroke:#666666;stroke-width:0.2;stroke-linecap:butt;stroke-linejoin:miter;stroke-miterlimit:3.25;stroke-dasharray:none;stroke-opacity:1"
       id="path132" /><path
       d="m 47.855,131.348 v -2.286"
       style="fill:none;stroke:#666666;stroke-width:0.2;stroke-linecap:butt;stroke-linejoin:miter;stroke-miterlimit:3.25;stroke-dasharray:none;stroke-opacity:1"
       id="path134" /><path
       d="m 63.285,131.348 v -2.286"
       style="fill:none;stroke:#666666;stroke-width:0.2;stroke-linecap:butt;stroke-linejoin:miter;stroke-miterlimit:3.25;stroke-dasharray:none;stroke-opacity:1"
       id="path136" /><path
       d="m 78.715,131.348 v -2.286"
       style="fill:none;stroke:#666666;stroke-width:0.2;stroke-linecap:butt;stroke-linejoin:miter;stroke-miterlimit:3.25;stroke-dasharray:none;stroke-opacity:1"
       id="path138" /><path
       d="m 94.145,131.348 v -3.805"
       style="fill:none;stroke:#666666;stroke-width:0.2;stroke-linecap:butt;stroke-linejoin:miter;stroke-miterlimit:3.25;stroke-dasharray:none;stroke-opacity:1"
       id="path140" /><text
       style="font-variant:normal;font-weight:normal;font-size:13px;font-family:Mathematica;-inkscape-font-specification:Mathematica;writing-mode:lr-tb;fill:#000000;fill-opacity:1;fill-rule:nonzero;stroke:none"
       id="text144"
       x="77.14286"
       y="144.34583"><tspan
         x="77.14286"
         y="144.34583"
         id="tspan142">-0.05</tspan></text><path
       d="m 109.57,131.348 v -2.286"
       style="fill:none;stroke:#666666;stroke-width:0.2;stroke-linecap:butt;stroke-linejoin:miter;stroke-miterlimit:3.25;stroke-dasharray:none;stroke-opacity:1"
       id="path150" /><path
       d="m 125,131.348 v -2.286"
       style="fill:none;stroke:#666666;stroke-width:0.2;stroke-linecap:butt;stroke-linejoin:miter;stroke-miterlimit:3.25;stroke-dasharray:none;stroke-opacity:1"
       id="path152" /><path
       d="m 140.43,131.348 v -2.286"
       style="fill:none;stroke:#666666;stroke-width:0.2;stroke-linecap:butt;stroke-linejoin:miter;stroke-miterlimit:3.25;stroke-dasharray:none;stroke-opacity:1"
       id="path154" /><path
       d="m 155.855,131.348 v -2.286"
       style="fill:none;stroke:#666666;stroke-width:0.2;stroke-linecap:butt;stroke-linejoin:miter;stroke-miterlimit:3.25;stroke-dasharray:none;stroke-opacity:1"
       id="path156" /><path
       d="m 171.285,131.348 v -3.805"
       style="fill:none;stroke:#666666;stroke-width:0.2;stroke-linecap:butt;stroke-linejoin:miter;stroke-miterlimit:3.25;stroke-dasharray:none;stroke-opacity:1"
       id="path158" /><path
       d="m 186.715,131.348 v -2.286"
       style="fill:none;stroke:#666666;stroke-width:0.2;stroke-linecap:butt;stroke-linejoin:miter;stroke-miterlimit:3.25;stroke-dasharray:none;stroke-opacity:1"
       id="path160" /><path
       d="m 202.145,131.348 v -2.286"
       style="fill:none;stroke:#666666;stroke-width:0.2;stroke-linecap:butt;stroke-linejoin:miter;stroke-miterlimit:3.25;stroke-dasharray:none;stroke-opacity:1"
       id="path162" /><path
       d="m 217.57,131.348 v -2.286"
       style="fill:none;stroke:#666666;stroke-width:0.2;stroke-linecap:butt;stroke-linejoin:miter;stroke-miterlimit:3.25;stroke-dasharray:none;stroke-opacity:1"
       id="path164" /><path
       d="m 233,131.348 v -2.286"
       style="fill:none;stroke:#666666;stroke-width:0.2;stroke-linecap:butt;stroke-linejoin:miter;stroke-miterlimit:3.25;stroke-dasharray:none;stroke-opacity:1"
       id="path166" /><path
       d="m 248.43,131.348 v -3.805"
       style="fill:none;stroke:#666666;stroke-width:0.2;stroke-linecap:butt;stroke-linejoin:miter;stroke-miterlimit:3.25;stroke-dasharray:none;stroke-opacity:1"
       id="path168" /><text
       style="font-variant:normal;font-weight:normal;font-size:14px;font-family:Times;-inkscape-font-specification:Times-Roman;writing-mode:lr-tb;fill:#000000;fill-opacity:1;fill-rule:nonzero;stroke:none"
       id="text172"
       x="235.92857"
       y="144.34583"><tspan
         x="235.92857 242.92857 246.42857 253.42857"
         y="144.34583"
         sodipodi:role="line"
         id="tspan170">0.05</tspan></text><path
       d="m 263.855,131.348 v -2.286"
       style="fill:none;stroke:#666666;stroke-width:0.2;stroke-linecap:butt;stroke-linejoin:miter;stroke-miterlimit:3.25;stroke-dasharray:none;stroke-opacity:1"
       id="path174" /><path
       d="m 279.285,131.348 v -2.286"
       style="fill:none;stroke:#666666;stroke-width:0.2;stroke-linecap:butt;stroke-linejoin:miter;stroke-miterlimit:3.25;stroke-dasharray:none;stroke-opacity:1"
       id="path176" /><path
       d="m 294.715,131.348 v -2.286"
       style="fill:none;stroke:#666666;stroke-width:0.2;stroke-linecap:butt;stroke-linejoin:miter;stroke-miterlimit:3.25;stroke-dasharray:none;stroke-opacity:1"
       id="path178" /><path
       d="m 310.145,131.348 v -2.286"
       style="fill:none;stroke:#666666;stroke-width:0.2;stroke-linecap:butt;stroke-linejoin:miter;stroke-miterlimit:3.25;stroke-dasharray:none;stroke-opacity:1"
       id="path180" /><path
       d="m 325.57,131.348 v -3.805"
       style="fill:none;stroke:#666666;stroke-width:0.2;stroke-linecap:butt;stroke-linejoin:miter;stroke-miterlimit:3.25;stroke-dasharray:none;stroke-opacity:1"
       id="path182" /><text
       style="font-variant:normal;font-weight:normal;font-size:14px;font-family:Times;-inkscape-font-specification:Times-Roman;writing-mode:lr-tb;fill:#000000;fill-opacity:1;fill-rule:nonzero;stroke:none"
       id="text186"
       x="313.07144"
       y="144.34583"><tspan
         x="313.07144 320.07144 323.57144 330.57144"
         y="144.34583"
         sodipodi:role="line"
         id="tspan184">0.10</tspan></text><path
       d="M 10.57,131.348 H 332"
       style="fill:none;stroke:#666666;stroke-width:0.2;stroke-linecap:butt;stroke-linejoin:miter;stroke-miterlimit:3.25;stroke-dasharray:none;stroke-opacity:1"
       id="path188" /><path
       d="m 171.285,210.797 h 2.281"
       style="fill:none;stroke:#666666;stroke-width:0.2;stroke-linecap:butt;stroke-linejoin:miter;stroke-miterlimit:3.25;stroke-dasharray:none;stroke-opacity:1"
       id="path198" /><path
       d="m 171.285,200.867 h 2.281"
       style="fill:none;stroke:#666666;stroke-width:0.2;stroke-linecap:butt;stroke-linejoin:miter;stroke-miterlimit:3.25;stroke-dasharray:none;stroke-opacity:1"
       id="path200" /><path
       d="m 171.285,190.934 h 2.281"
       style="fill:none;stroke:#666666;stroke-width:0.2;stroke-linecap:butt;stroke-linejoin:miter;stroke-miterlimit:3.25;stroke-dasharray:none;stroke-opacity:1"
       id="path202" /><path
       d="m 171.285,181.004 h 3.805"
       style="fill:none;stroke:#666666;stroke-width:0.2;stroke-linecap:butt;stroke-linejoin:miter;stroke-miterlimit:3.25;stroke-dasharray:none;stroke-opacity:1"
       id="path204" /><text
       style="font-variant:normal;font-weight:normal;font-size:13px;font-family:Mathematica;-inkscape-font-specification:Mathematica;writing-mode:lr-tb;fill:#000000;fill-opacity:1;fill-rule:nonzero;stroke:none"
       id="text208"
       x="138.28571"
       y="184.00371"><tspan
         x="138.28571"
         y="184.00371"
         id="tspan206">-500</tspan></text><path
       d="m 171.285,171.07 h 2.281"
       style="fill:none;stroke:#666666;stroke-width:0.2;stroke-linecap:butt;stroke-linejoin:miter;stroke-miterlimit:3.25;stroke-dasharray:none;stroke-opacity:1"
       id="path214" /><path
       d="m 171.285,161.141 h 2.281"
       style="fill:none;stroke:#666666;stroke-width:0.2;stroke-linecap:butt;stroke-linejoin:miter;stroke-miterlimit:3.25;stroke-dasharray:none;stroke-opacity:1"
       id="path216" /><path
       d="m 171.285,151.207 h 2.281"
       style="fill:none;stroke:#666666;stroke-width:0.2;stroke-linecap:butt;stroke-linejoin:miter;stroke-miterlimit:3.25;stroke-dasharray:none;stroke-opacity:1"
       id="path218" /><path
       d="m 171.285,141.277 h 2.281"
       style="fill:none;stroke:#666666;stroke-width:0.2;stroke-linecap:butt;stroke-linejoin:miter;stroke-miterlimit:3.25;stroke-dasharray:none;stroke-opacity:1"
       id="path220" /><path
       d="m 171.285,131.348 h 3.805"
       style="fill:none;stroke:#666666;stroke-width:0.2;stroke-linecap:butt;stroke-linejoin:miter;stroke-miterlimit:3.25;stroke-dasharray:none;stroke-opacity:1"
       id="path222" /><path
       d="m 171.285,121.414 h 2.281"
       style="fill:none;stroke:#666666;stroke-width:0.2;stroke-linecap:butt;stroke-linejoin:miter;stroke-miterlimit:3.25;stroke-dasharray:none;stroke-opacity:1"
       id="path224" /><path
       d="m 171.285,111.484 h 2.281"
       style="fill:none;stroke:#666666;stroke-width:0.2;stroke-linecap:butt;stroke-linejoin:miter;stroke-miterlimit:3.25;stroke-dasharray:none;stroke-opacity:1"
       id="path226" /><path
       d="m 171.285,101.551 h 2.281"
       style="fill:none;stroke:#666666;stroke-width:0.2;stroke-linecap:butt;stroke-linejoin:miter;stroke-miterlimit:3.25;stroke-dasharray:none;stroke-opacity:1"
       id="path228" /><path
       d="m 171.285,91.621 h 2.281"
       style="fill:none;stroke:#666666;stroke-width:0.2;stroke-linecap:butt;stroke-linejoin:miter;stroke-miterlimit:3.25;stroke-dasharray:none;stroke-opacity:1"
       id="path230" /><path
       d="m 171.285,81.688 h 3.805"
       style="fill:none;stroke:#666666;stroke-width:0.2;stroke-linecap:butt;stroke-linejoin:miter;stroke-miterlimit:3.25;stroke-dasharray:none;stroke-opacity:1"
       id="path232" /><text
       style="font-variant:normal;font-weight:normal;font-size:14px;font-family:Times;-inkscape-font-specification:Times-Roman;writing-mode:lr-tb;fill:#000000;fill-opacity:1;fill-rule:nonzero;stroke:none"
       id="text236"
       x="147.28571"
       y="84.687935"><tspan
         x="147.28571 154.28571 161.28571"
         y="84.687935"
         sodipodi:role="line"
         id="tspan234">500</tspan></text><path
       d="m 171.285,71.758 h 2.281"
       style="fill:none;stroke:#666666;stroke-width:0.2;stroke-linecap:butt;stroke-linejoin:miter;stroke-miterlimit:3.25;stroke-dasharray:none;stroke-opacity:1"
       id="path238" /><path
       d="m 171.285,61.824 h 2.281"
       style="fill:none;stroke:#666666;stroke-width:0.2;stroke-linecap:butt;stroke-linejoin:miter;stroke-miterlimit:3.25;stroke-dasharray:none;stroke-opacity:1"
       id="path240" /><path
       d="m 171.285,51.895 h 2.281"
       style="fill:none;stroke:#666666;stroke-width:0.2;stroke-linecap:butt;stroke-linejoin:miter;stroke-miterlimit:3.25;stroke-dasharray:none;stroke-opacity:1"
       id="path242" /><path
       d="m 171.285,41.961 h 2.281"
       style="fill:none;stroke:#666666;stroke-width:0.2;stroke-linecap:butt;stroke-linejoin:miter;stroke-miterlimit:3.25;stroke-dasharray:none;stroke-opacity:1"
       id="path244" /><path
       d="m 171.285,32.031 h 3.805"
       style="fill:none;stroke:#666666;stroke-width:0.2;stroke-linecap:butt;stroke-linejoin:miter;stroke-miterlimit:3.25;stroke-dasharray:none;stroke-opacity:1"
       id="path246" /><text
       style="font-variant:normal;font-weight:normal;font-size:14px;font-family:Times;-inkscape-font-specification:Times-Roman;writing-mode:lr-tb;fill:#000000;fill-opacity:1;fill-rule:nonzero;stroke:none"
       id="text250"
       x="140.28571"
       y="35.030045"><tspan
         x="140.28571 147.28571 154.28571 161.28571"
         y="35.030045"
         sodipodi:role="line"
         id="tspan248">1000</tspan></text><path
       d="m 171.285,22.098 h 2.281"
       style="fill:none;stroke:#666666;stroke-width:0.2;stroke-linecap:butt;stroke-linejoin:miter;stroke-miterlimit:3.25;stroke-dasharray:none;stroke-opacity:1"
       id="path252" /><path
       d="M 171.285,218.652 V 20"
       style="fill:none;stroke:#666666;stroke-width:0.2;stroke-linecap:butt;stroke-linejoin:miter;stroke-miterlimit:3.25;stroke-dasharray:none;stroke-opacity:1"
       id="path254" /><text
       style="font-variant:normal;font-weight:normal;font-size:13px;font-family:Mathematica;-inkscape-font-specification:Mathematica;writing-mode:lr-tb;fill:#000000;fill-opacity:1;fill-rule:nonzero;stroke:none"
       id="text192"
       x="343.25742"
       y="132.27577"><tspan
         x="343.25742"
         y="132.27577"
         id="tspan190">$\varepsilon_{yy}$</tspan></text><text
       style="font-variant:normal;font-weight:normal;font-size:13px;font-family:Mathematica;-inkscape-font-specification:Mathematica;writing-mode:lr-tb;fill:#000000;fill-opacity:1;fill-rule:nonzero;stroke:none"
       id="text260"
       x="163.04312"
       y="8.596055"><tspan
         x="163.04312"
         y="8.596055"
         id="tspan258">$\sigma_{yy}$</tspan></text><text
       xml:space="preserve"
       style="font-size:12px;line-height:1.25;font-family:sans-serif;stroke-width:0.75"
       x="231.42857"
       y="216.4045"
       id="text12855"><tspan
         sodipodi:role="line"
         id="tspan12853"
         style="stroke-width:0.75"
         x="231.42857"
         y="216.4045">$\sigma_y=375 \text{ MPa}$</tspan><tspan
         sodipodi:role="line"
         style="stroke-width:0.75"
         x="231.42857"
         y="231.4045"
         id="tspan12857">$H=1054 \text{ MPa}$</tspan></text></g></svg>
