<?xml version="1.0" encoding="UTF-8" standalone="no"?>
<!-- Created with Inkscape (http://www.inkscape.org/) -->

<svg
   version="1.1"
   id="svg2"
   xml:space="preserve"
   width="480"
   height="297.33334"
   viewBox="0 0 480 297.33334"
   sodipodi:docname="patch_175_1054_tex.svg"
   inkscape:version="1.1.1 (3bf5ae0d25, 2021-09-20)"
   xmlns:inkscape="http://www.inkscape.org/namespaces/inkscape"
   xmlns:sodipodi="http://sodipodi.sourceforge.net/DTD/sodipodi-0.dtd"
   xmlns="http://www.w3.org/2000/svg"
   xmlns:svg="http://www.w3.org/2000/svg"><defs
     id="defs6" /><sodipodi:namedview
     id="namedview4"
     pagecolor="#ffffff"
     bordercolor="#666666"
     borderopacity="1.0"
     inkscape:pageshadow="2"
     inkscape:pageopacity="0.0"
     inkscape:pagecheckerboard="0"
     showgrid="false"
     inkscape:zoom="1.2979167"
     inkscape:cx="531.62119"
     inkscape:cy="128.2825"
     inkscape:window-width="3440"
     inkscape:window-height="1369"
     inkscape:window-x="-8"
     inkscape:window-y="-8"
     inkscape:window-maximized="1"
     inkscape:current-layer="g8" /><g
     id="g8"
     inkscape:groupmode="layer"
     inkscape:label="patch_175_1054"
     transform="matrix(1.3333333,0,0,1.3333333,0,4.1e-6)"><path
       d="M 0,0 H 360 V 223 H 0 Z"
       style="fill:#ffffff;fill-opacity:1;fill-rule:nonzero;stroke:none"
       id="path12" /><path
       d="m 171.285,134.949 15.43,-26.777 15.43,-1.656 15.425,-1.657 15.43,-1.66 15.43,-1.656 15.425,-1.66 15.43,-1.656 15.43,-1.661 15.43,-1.656 15.425,-1.656 -15.425,83.965 -15.43,1.66 -15.43,1.656 -15.43,1.66 -15.425,1.657 -15.43,1.656 -15.43,1.66 -15.425,1.656 -15.43,1.66 -15.43,1.657 -15.43,1.66 -15.425,1.656 -15.43,1.66 -15.43,1.656 -15.425,1.657 -15.43,1.66 -15.43,1.656 -15.43,1.66 L 32.43,207.062 17,208.723 32.43,81.082 47.855,59.777 l 15.43,-1.66 15.43,-1.656 15.43,-1.66 15.425,-1.656 15.43,-1.657 15.43,-1.66 15.425,-1.656 15.43,-1.66 15.43,-1.657 15.43,-1.66 15.425,-1.656 15.43,-1.66 15.43,-1.656 15.425,-1.657 15.43,-1.66 15.43,-1.656 15.43,-1.66 15.425,-1.656"
       style="fill:none;stroke:#aa0000;stroke-width:1.6;stroke-linecap:square;stroke-linejoin:miter;stroke-miterlimit:3.25;stroke-dasharray:none;stroke-opacity:1"
       id="path16" /><g
       aria-label="●●●●●●●●●●●●●●●●●●●●●●●●●●●●●●●●●●●●●●●●●●●●●●●●●●●"
       id="text120"
       style="font-size:10px;font-family:MathematicaSans;-inkscape-font-specification:MathematicaSans;fill:#aa0000"><path
         d="m 168.64996,134.63588 q 0,-0.89356 0.62989,-1.52344 0.62988,-0.62988 1.52343,-0.62988 0.88868,0 1.51856,0.62988 0.62988,0.62988 0.62988,1.52344 0,0.88867 -0.62988,1.51855 -0.62988,0.62989 -1.51856,0.62989 -0.89355,0 -1.52343,-0.62989 -0.62989,-0.62988 -0.62989,-1.51855 z"
         id="path12946" /><path
         d="m 184.07854,107.86129 q 0,-0.89355 0.62988,-1.52344 0.62988,-0.62988 1.52344,-0.62988 0.88867,0 1.51855,0.62988 0.62988,0.62989 0.62988,1.52344 0,0.88867 -0.62988,1.51855 -0.62988,0.62989 -1.51855,0.62989 -0.89356,0 -1.52344,-0.62989 -0.62988,-0.62988 -0.62988,-1.51855 z"
         id="path12948" /><path
         d="m 199.50711,106.20331 q 0,-0.89356 0.62988,-1.52344 0.62989,-0.62988 1.52344,-0.62988 0.88867,0 1.51856,0.62988 0.62988,0.62988 0.62988,1.52344 0,0.88867 -0.62988,1.51855 -0.62989,0.62989 -1.51856,0.62989 -0.89355,0 -1.52344,-0.62989 -0.62988,-0.62988 -0.62988,-1.51855 z"
         id="path12950" /><path
         d="m 214.93568,104.54533 q 0,-0.89356 0.62989,-1.52344 0.62988,-0.62988 1.52343,-0.62988 0.88868,0 1.51856,0.62988 0.62988,0.62988 0.62988,1.52344 0,0.88867 -0.62988,1.51855 -0.62988,0.62988 -1.51856,0.62988 -0.89355,0 -1.52343,-0.62988 -0.62989,-0.62988 -0.62989,-1.51855 z"
         id="path12952" /><path
         d="m 230.36424,102.88735 q 0,-0.89355 0.62989,-1.52344 0.62988,-0.62988 1.52343,-0.62988 0.88867,0 1.51856,0.62988 0.62988,0.62989 0.62988,1.52344 0,0.88867 -0.62988,1.51856 -0.62989,0.62988 -1.51856,0.62988 -0.89355,0 -1.52343,-0.62988 -0.62989,-0.62989 -0.62989,-1.51856 z"
         id="path12954" /><path
         d="m 245.79282,101.22937 q 0,-0.89355 0.62988,-1.523437 0.62988,-0.629883 1.52344,-0.629883 0.88867,0 1.51855,0.629883 0.62988,0.629887 0.62988,1.523437 0,0.88867 -0.62988,1.51855 -0.62988,0.62989 -1.51855,0.62989 -0.89356,0 -1.52344,-0.62989 -0.62988,-0.62988 -0.62988,-1.51855 z"
         id="path12956" /><path
         d="m 261.22137,99.571388 q 0,-0.893554 0.62989,-1.523437 0.62988,-0.629883 1.52343,-0.629883 0.88868,0 1.51856,0.629883 0.62988,0.629883 0.62988,1.523437 0,0.888672 -0.62988,1.518552 -0.62988,0.62989 -1.51856,0.62989 -0.89355,0 -1.52343,-0.62989 -0.62989,-0.62988 -0.62989,-1.518552 z"
         id="path12958" /><path
         d="m 276.64996,97.913406 q 0,-0.893554 0.62989,-1.523437 0.62988,-0.629883 1.52343,-0.629883 0.88868,0 1.51856,0.629883 0.62988,0.629883 0.62988,1.523437 0,0.888672 -0.62988,1.518555 -0.62988,0.629879 -1.51856,0.629879 -0.89355,0 -1.52343,-0.629879 -0.62989,-0.629883 -0.62989,-1.518555 z"
         id="path12960" /><path
         d="m 292.07852,96.255432 q 0,-0.893555 0.62988,-1.523437 0.62989,-0.629883 1.52344,-0.629883 0.88867,0 1.51856,0.629883 0.62988,0.629882 0.62988,1.523437 0,0.888672 -0.62988,1.518555 -0.62989,0.629883 -1.51856,0.629883 -0.89355,0 -1.52344,-0.629883 -0.62988,-0.629883 -0.62988,-1.518555 z"
         id="path12962" /><path
         d="m 307.50711,94.59745 q 0,-0.893554 0.62988,-1.523437 0.62989,-0.629883 1.52344,-0.629883 0.88867,0 1.51856,0.629883 0.62988,0.629883 0.62988,1.523437 0,0.888672 -0.62988,1.518555 -0.62989,0.629883 -1.51856,0.629883 -0.89355,0 -1.52344,-0.629883 -0.62988,-0.629883 -0.62988,-1.518555 z"
         id="path12964" /><path
         d="m 322.93567,92.939468 q 0,-0.893554 0.62988,-1.523437 0.62988,-0.629883 1.52344,-0.629883 0.88867,0 1.51855,0.629883 0.62989,0.629883 0.62989,1.523437 0,0.888672 -0.62989,1.518555 -0.62988,0.629883 -1.51855,0.629883 -0.89356,0 -1.52344,-0.629883 -0.62988,-0.629883 -0.62988,-1.518555 z"
         id="path12966" /><path
         d="m 307.50711,176.90698 q 0,-0.89355 0.62988,-1.52344 0.62989,-0.62988 1.52344,-0.62988 0.88867,0 1.51856,0.62988 0.62988,0.62989 0.62988,1.52344 0,0.88867 -0.62988,1.51856 -0.62989,0.62988 -1.51856,0.62988 -0.89355,0 -1.52344,-0.62988 -0.62988,-0.62989 -0.62988,-1.51856 z"
         id="path12968" /><path
         d="m 292.07852,178.56496 q 0,-0.89356 0.62988,-1.52344 0.62989,-0.62988 1.52344,-0.62988 0.88867,0 1.51856,0.62988 0.62988,0.62988 0.62988,1.52344 0,0.88867 -0.62988,1.51855 -0.62989,0.62988 -1.51856,0.62988 -0.89355,0 -1.52344,-0.62988 -0.62988,-0.62988 -0.62988,-1.51855 z"
         id="path12970" /><path
         d="m 276.64996,180.22295 q 0,-0.89356 0.62989,-1.52344 0.62988,-0.62988 1.52343,-0.62988 0.88868,0 1.51856,0.62988 0.62988,0.62988 0.62988,1.52344 0,0.88867 -0.62988,1.51855 -0.62988,0.62988 -1.51856,0.62988 -0.89355,0 -1.52343,-0.62988 -0.62989,-0.62988 -0.62989,-1.51855 z"
         id="path12972" /><path
         d="m 261.22137,181.88092 q 0,-0.89355 0.62989,-1.52344 0.62988,-0.62988 1.52343,-0.62988 0.88868,0 1.51856,0.62988 0.62988,0.62989 0.62988,1.52344 0,0.88867 -0.62988,1.51856 -0.62988,0.62988 -1.51856,0.62988 -0.89355,0 -1.52343,-0.62988 -0.62989,-0.62989 -0.62989,-1.51856 z"
         id="path12974" /><path
         d="m 245.79282,183.53889 q 0,-0.89355 0.62988,-1.52343 0.62988,-0.62989 1.52344,-0.62989 0.88867,0 1.51855,0.62989 0.62988,0.62988 0.62988,1.52343 0,0.88868 -0.62988,1.51856 -0.62988,0.62988 -1.51855,0.62988 -0.89356,0 -1.52344,-0.62988 -0.62988,-0.62988 -0.62988,-1.51856 z"
         id="path12976" /><path
         d="m 230.36424,185.19688 q 0,-0.89355 0.62989,-1.52343 0.62988,-0.62989 1.52343,-0.62989 0.88867,0 1.51856,0.62989 0.62988,0.62988 0.62988,1.52343 0,0.88868 -0.62988,1.51856 -0.62989,0.62988 -1.51856,0.62988 -0.89355,0 -1.52343,-0.62988 -0.62989,-0.62988 -0.62989,-1.51856 z"
         id="path12978" /><path
         d="m 214.93568,186.85486 q 0,-0.89356 0.62989,-1.52344 0.62988,-0.62988 1.52343,-0.62988 0.88868,0 1.51856,0.62988 0.62988,0.62988 0.62988,1.52344 0,0.88867 -0.62988,1.51855 -0.62988,0.62989 -1.51856,0.62989 -0.89355,0 -1.52343,-0.62989 -0.62989,-0.62988 -0.62989,-1.51855 z"
         id="path12980" /><path
         d="m 199.50711,188.51285 q 0,-0.89356 0.62988,-1.52344 0.62989,-0.62988 1.52344,-0.62988 0.88867,0 1.51856,0.62988 0.62988,0.62988 0.62988,1.52344 0,0.88867 -0.62988,1.51855 -0.62989,0.62989 -1.51856,0.62989 -0.89355,0 -1.52344,-0.62989 -0.62988,-0.62988 -0.62988,-1.51855 z"
         id="path12982" /><path
         d="m 184.07854,190.17082 q 0,-0.89355 0.62988,-1.52344 0.62988,-0.62988 1.52344,-0.62988 0.88867,0 1.51855,0.62988 0.62988,0.62989 0.62988,1.52344 0,0.88867 -0.62988,1.51856 -0.62988,0.62988 -1.51855,0.62988 -0.89356,0 -1.52344,-0.62988 -0.62988,-0.62989 -0.62988,-1.51856 z"
         id="path12984" /><path
         d="m 168.64996,191.8288 q 0,-0.89356 0.62989,-1.52344 0.62988,-0.62988 1.52343,-0.62988 0.88868,0 1.51856,0.62988 0.62988,0.62988 0.62988,1.52344 0,0.88867 -0.62988,1.51855 -0.62988,0.62988 -1.51856,0.62988 -0.89355,0 -1.52343,-0.62988 -0.62989,-0.62988 -0.62989,-1.51855 z"
         id="path12986" /><path
         d="m 153.22141,193.48679 q 0,-0.89356 0.62988,-1.52344 0.62988,-0.62988 1.52344,-0.62988 0.88867,0 1.51855,0.62988 0.62988,0.62988 0.62988,1.52344 0,0.88867 -0.62988,1.51855 -0.62988,0.62988 -1.51855,0.62988 -0.89356,0 -1.52344,-0.62988 -0.62988,-0.62988 -0.62988,-1.51855 z"
         id="path12988" /><path
         d="m 137.79283,195.14476 q 0,-0.89355 0.62988,-1.52344 0.62989,-0.62988 1.52344,-0.62988 0.88867,0 1.51856,0.62988 0.62988,0.62989 0.62988,1.52344 0,0.88867 -0.62988,1.51855 -0.62989,0.62989 -1.51856,0.62989 -0.89355,0 -1.52344,-0.62989 -0.62988,-0.62988 -0.62988,-1.51855 z"
         id="path12990" /><path
         d="m 122.36426,196.80273 q 0,-0.89355 0.62988,-1.52343 0.62988,-0.62989 1.52344,-0.62989 0.88867,0 1.51855,0.62989 0.62989,0.62988 0.62989,1.52343 0,0.88868 -0.62989,1.51856 -0.62988,0.62988 -1.51855,0.62988 -0.89356,0 -1.52344,-0.62988 -0.62988,-0.62988 -0.62988,-1.51856 z"
         id="path12992" /><path
         d="m 106.93568,198.46072 q 0,-0.89355 0.62989,-1.52343 0.62988,-0.62989 1.52343,-0.62989 0.88868,0 1.51856,0.62989 0.62988,0.62988 0.62988,1.52343 0,0.88868 -0.62988,1.51856 -0.62988,0.62988 -1.51856,0.62988 -0.89355,0 -1.52343,-0.62988 -0.62989,-0.62988 -0.62989,-1.51856 z"
         id="path12994" /><path
         d="m 91.507118,200.1187 q 0,-0.89356 0.629883,-1.52344 0.629883,-0.62988 1.523438,-0.62988 0.888671,0 1.518554,0.62988 0.629883,0.62988 0.629883,1.52344 0,0.88867 -0.629883,1.51855 -0.629883,0.62989 -1.518554,0.62989 -0.893555,0 -1.523438,-0.62989 -0.629883,-0.62988 -0.629883,-1.51855 z"
         id="path12996" /><path
         d="m 76.078552,201.77669 q 0,-0.89356 0.629883,-1.52344 0.629883,-0.62988 1.523438,-0.62988 0.888671,0 1.518554,0.62988 0.629883,0.62988 0.629883,1.52344 0,0.88867 -0.629883,1.51855 -0.629883,0.62989 -1.518554,0.62989 -0.893555,0 -1.523438,-0.62989 -0.629883,-0.62988 -0.629883,-1.51855 z"
         id="path12998" /><path
         d="m 60.649975,203.43466 q 0,-0.89355 0.629883,-1.52344 0.629882,-0.62988 1.523437,-0.62988 0.888672,0 1.518555,0.62988 0.629883,0.62989 0.629883,1.52344 0,0.88867 -0.629883,1.51856 -0.629883,0.62988 -1.518555,0.62988 -0.893555,0 -1.523437,-0.62988 -0.629883,-0.62989 -0.629883,-1.51856 z"
         id="path13000" /><path
         d="m 45.221409,205.09264 q 0,-0.89356 0.629883,-1.52344 0.629882,-0.62988 1.523437,-0.62988 0.888672,0 1.518555,0.62988 0.629883,0.62988 0.629883,1.52344 0,0.88867 -0.629883,1.51855 -0.629883,0.62988 -1.518555,0.62988 -0.893555,0 -1.523437,-0.62988 -0.629883,-0.62988 -0.629883,-1.51855 z"
         id="path13002" /><path
         d="m 29.792835,206.75063 q 0,-0.89356 0.629883,-1.52344 0.629883,-0.62988 1.523438,-0.62988 0.888671,0 1.518554,0.62988 0.629883,0.62988 0.629883,1.52344 0,0.88867 -0.629883,1.51855 -0.629883,0.62988 -1.518554,0.62988 -0.893555,0 -1.523438,-0.62988 -0.629883,-0.62988 -0.629883,-1.51855 z"
         id="path13004" /><path
         d="m 14.364263,208.4086 q 0,-0.89355 0.629882,-1.52344 0.629883,-0.62988 1.523438,-0.62988 0.888672,0 1.518555,0.62988 0.629882,0.62989 0.629882,1.52344 0,0.88867 -0.629882,1.51855 -0.629883,0.62989 -1.518555,0.62989 -0.893555,0 -1.523438,-0.62989 -0.629882,-0.62988 -0.629882,-1.51855 z"
         id="path13006" /><path
         d="m 29.792835,80.771385 q 0,-0.893554 0.629883,-1.523437 0.629883,-0.629883 1.523438,-0.629883 0.888671,0 1.518554,0.629883 0.629883,0.629883 0.629883,1.523437 0,0.888672 -0.629883,1.518555 -0.629883,0.629883 -1.518554,0.629883 -0.893555,0 -1.523438,-0.629883 -0.629883,-0.629883 -0.629883,-1.518555 z"
         id="path13008" /><path
         d="m 45.221409,59.463806 q 0,-0.893555 0.629883,-1.523437 0.629882,-0.629883 1.523437,-0.629883 0.888672,0 1.518555,0.629883 0.629883,0.629882 0.629883,1.523437 0,0.888672 -0.629883,1.518555 -0.629883,0.629883 -1.518555,0.629883 -0.893555,0 -1.523437,-0.629883 -0.629883,-0.629883 -0.629883,-1.518555 z"
         id="path13010" /><path
         d="m 60.649975,57.805832 q 0,-0.893555 0.629883,-1.523438 0.629882,-0.629882 1.523437,-0.629882 0.888672,0 1.518555,0.629882 0.629883,0.629883 0.629883,1.523438 0,0.888672 -0.629883,1.518555 -0.629883,0.629882 -1.518555,0.629882 -0.893555,0 -1.523437,-0.629882 -0.629883,-0.629883 -0.629883,-1.518555 z"
         id="path13012" /><path
         d="m 76.078552,56.14785 q 0,-0.893555 0.629883,-1.523437 0.629883,-0.629883 1.523438,-0.629883 0.888671,0 1.518554,0.629883 0.629883,0.629882 0.629883,1.523437 0,0.888672 -0.629883,1.518555 -0.629883,0.629883 -1.518554,0.629883 -0.893555,0 -1.523438,-0.629883 -0.629883,-0.629883 -0.629883,-1.518555 z"
         id="path13014" /><path
         d="m 91.507118,54.489868 q 0,-0.893555 0.629883,-1.523437 0.629883,-0.629883 1.523438,-0.629883 0.888671,0 1.518554,0.629883 0.629883,0.629882 0.629883,1.523437 0,0.888672 -0.629883,1.518555 -0.629883,0.629883 -1.518554,0.629883 -0.893555,0 -1.523438,-0.629883 -0.629883,-0.629883 -0.629883,-1.518555 z"
         id="path13016" /><path
         d="m 106.93568,52.831886 q 0,-0.893554 0.62989,-1.523437 0.62988,-0.629883 1.52343,-0.629883 0.88868,0 1.51856,0.629883 0.62988,0.629883 0.62988,1.523437 0,0.888672 -0.62988,1.518555 -0.62988,0.629883 -1.51856,0.629883 -0.89355,0 -1.52343,-0.629883 -0.62989,-0.629883 -0.62989,-1.518555 z"
         id="path13018" /><path
         d="m 122.36426,51.173912 q 0,-0.893555 0.62988,-1.523437 0.62988,-0.629883 1.52344,-0.629883 0.88867,0 1.51855,0.629883 0.62989,0.629882 0.62989,1.523437 0,0.888672 -0.62989,1.518555 -0.62988,0.629883 -1.51855,0.629883 -0.89356,0 -1.52344,-0.629883 -0.62988,-0.629883 -0.62988,-1.518555 z"
         id="path13020" /><path
         d="m 137.79283,49.51593 q 0,-0.893555 0.62988,-1.523437 0.62989,-0.629883 1.52344,-0.629883 0.88867,0 1.51856,0.629883 0.62988,0.629882 0.62988,1.523437 0,0.888672 -0.62988,1.518555 -0.62989,0.629883 -1.51856,0.629883 -0.89355,0 -1.52344,-0.629883 -0.62988,-0.629883 -0.62988,-1.518555 z"
         id="path13022" /><path
         d="m 153.22141,47.857948 q 0,-0.893554 0.62988,-1.523437 0.62988,-0.629883 1.52344,-0.629883 0.88867,0 1.51855,0.629883 0.62988,0.629883 0.62988,1.523437 0,0.888672 -0.62988,1.518555 -0.62988,0.629883 -1.51855,0.629883 -0.89356,0 -1.52344,-0.629883 -0.62988,-0.629883 -0.62988,-1.518555 z"
         id="path13024" /><path
         d="m 168.64996,46.199966 q 0,-0.893554 0.62989,-1.523437 0.62988,-0.629883 1.52343,-0.629883 0.88868,0 1.51856,0.629883 0.62988,0.629883 0.62988,1.523437 0,0.888672 -0.62988,1.518555 -0.62988,0.629883 -1.51856,0.629883 -0.89355,0 -1.52343,-0.629883 -0.62989,-0.629883 -0.62989,-1.518555 z"
         id="path13026" /><path
         d="m 184.07854,44.541992 q 0,-0.893555 0.62988,-1.523437 0.62988,-0.629883 1.52344,-0.629883 0.88867,0 1.51855,0.629883 0.62988,0.629882 0.62988,1.523437 0,0.888672 -0.62988,1.518555 -0.62988,0.629883 -1.51855,0.629883 -0.89356,0 -1.52344,-0.629883 -0.62988,-0.629883 -0.62988,-1.518555 z"
         id="path13028" /><path
         d="m 199.50711,42.88401 q 0,-0.893554 0.62988,-1.523437 0.62989,-0.629883 1.52344,-0.629883 0.88867,0 1.51856,0.629883 0.62988,0.629883 0.62988,1.523437 0,0.888672 -0.62988,1.518555 -0.62989,0.629883 -1.51856,0.629883 -0.89355,0 -1.52344,-0.629883 -0.62988,-0.629883 -0.62988,-1.518555 z"
         id="path13030" /><path
         d="m 214.93568,41.226028 q 0,-0.893554 0.62989,-1.523437 0.62988,-0.629883 1.52343,-0.629883 0.88868,0 1.51856,0.629883 0.62988,0.629883 0.62988,1.523437 0,0.888672 -0.62988,1.518555 -0.62988,0.629883 -1.51856,0.629883 -0.89355,0 -1.52343,-0.629883 -0.62989,-0.629883 -0.62989,-1.518555 z"
         id="path13032" /><path
         d="m 230.36424,39.568047 q 0,-0.893555 0.62989,-1.523438 0.62988,-0.629883 1.52343,-0.629883 0.88867,0 1.51856,0.629883 0.62988,0.629883 0.62988,1.523438 0,0.888671 -0.62988,1.518554 -0.62989,0.629883 -1.51856,0.629883 -0.89355,0 -1.52343,-0.629883 -0.62989,-0.629883 -0.62989,-1.518554 z"
         id="path13034" /><path
         d="m 245.79282,37.910072 q 0,-0.893554 0.62988,-1.523437 0.62988,-0.629883 1.52344,-0.629883 0.88867,0 1.51855,0.629883 0.62988,0.629883 0.62988,1.523437 0,0.888672 -0.62988,1.518555 -0.62988,0.629883 -1.51855,0.629883 -0.89356,0 -1.52344,-0.629883 -0.62988,-0.629883 -0.62988,-1.518555 z"
         id="path13036" /><path
         d="m 261.22137,36.25209 q 0,-0.893554 0.62989,-1.523437 0.62988,-0.629883 1.52343,-0.629883 0.88868,0 1.51856,0.629883 0.62988,0.629883 0.62988,1.523437 0,0.888672 -0.62988,1.518555 -0.62988,0.629883 -1.51856,0.629883 -0.89355,0 -1.52343,-0.629883 -0.62989,-0.629883 -0.62989,-1.518555 z"
         id="path13038" /><path
         d="m 276.64996,34.594109 q 0,-0.893555 0.62989,-1.523438 0.62988,-0.629883 1.52343,-0.629883 0.88868,0 1.51856,0.629883 0.62988,0.629883 0.62988,1.523438 0,0.888671 -0.62988,1.518554 -0.62988,0.629883 -1.51856,0.629883 -0.89355,0 -1.52343,-0.629883 -0.62989,-0.629883 -0.62989,-1.518554 z"
         id="path13040" /><path
         d="m 292.07852,32.936127 q 0,-0.893555 0.62988,-1.523438 0.62989,-0.629883 1.52344,-0.629883 0.88867,0 1.51856,0.629883 0.62988,0.629883 0.62988,1.523438 0,0.888672 -0.62988,1.518554 -0.62989,0.629883 -1.51856,0.629883 -0.89355,0 -1.52344,-0.629883 -0.62988,-0.629882 -0.62988,-1.518554 z"
         id="path13042" /><path
         d="m 307.50711,31.278152 q 0,-0.893554 0.62988,-1.523437 0.62989,-0.629883 1.52344,-0.629883 0.88867,0 1.51856,0.629883 0.62988,0.629883 0.62988,1.523437 0,0.888672 -0.62988,1.518555 -0.62989,0.629883 -1.51856,0.629883 -0.89355,0 -1.52344,-0.629883 -0.62988,-0.629883 -0.62988,-1.518555 z"
         id="path13044" /><path
         d="m 322.93567,29.620171 q 0,-0.893555 0.62988,-1.523438 0.62988,-0.629883 1.52344,-0.629883 0.88867,0 1.51855,0.629883 0.62989,0.629883 0.62989,1.523438 0,0.888671 -0.62989,1.518554 -0.62988,0.629883 -1.51855,0.629883 -0.89356,0 -1.52344,-0.629883 -0.62988,-0.629883 -0.62988,-1.518554 z"
         id="path13046" /></g><path
       d="m 17,134.949 v -3.797"
       style="fill:none;stroke:#666666;stroke-width:0.2;stroke-linecap:butt;stroke-linejoin:miter;stroke-miterlimit:3.25;stroke-dasharray:none;stroke-opacity:1"
       id="path122" /><text
       style="font-variant:normal;font-weight:normal;font-size:13px;font-family:Mathematica;-inkscape-font-specification:Mathematica;writing-mode:lr-tb;fill:#000000;fill-opacity:1;fill-rule:nonzero;stroke:none"
       id="text126"
       y="147.94838"><tspan
         x="0"
         y="147.94838"
         id="tspan124">-0.10</tspan></text><text
       style="font-variant:normal;font-weight:normal;font-size:14px;font-family:Times;-inkscape-font-specification:Times-Roman;writing-mode:lr-tb;fill:#000000;fill-opacity:1;fill-rule:nonzero;stroke:none"
       id="text130"
       x="9"
       y="147.94838"><tspan
         sodipodi:role="line"
         id="tspan128"
         x="9"
         y="147.94838" /></text><path
       d="m 32.43,134.949 v -2.277"
       style="fill:none;stroke:#666666;stroke-width:0.2;stroke-linecap:butt;stroke-linejoin:miter;stroke-miterlimit:3.25;stroke-dasharray:none;stroke-opacity:1"
       id="path132" /><path
       d="m 47.855,134.949 v -2.277"
       style="fill:none;stroke:#666666;stroke-width:0.2;stroke-linecap:butt;stroke-linejoin:miter;stroke-miterlimit:3.25;stroke-dasharray:none;stroke-opacity:1"
       id="path134" /><path
       d="m 63.285,134.949 v -2.277"
       style="fill:none;stroke:#666666;stroke-width:0.2;stroke-linecap:butt;stroke-linejoin:miter;stroke-miterlimit:3.25;stroke-dasharray:none;stroke-opacity:1"
       id="path136" /><path
       d="m 78.715,134.949 v -2.277"
       style="fill:none;stroke:#666666;stroke-width:0.2;stroke-linecap:butt;stroke-linejoin:miter;stroke-miterlimit:3.25;stroke-dasharray:none;stroke-opacity:1"
       id="path138" /><path
       d="m 94.145,134.949 v -3.797"
       style="fill:none;stroke:#666666;stroke-width:0.2;stroke-linecap:butt;stroke-linejoin:miter;stroke-miterlimit:3.25;stroke-dasharray:none;stroke-opacity:1"
       id="path140" /><text
       style="font-variant:normal;font-weight:normal;font-size:13px;font-family:Mathematica;-inkscape-font-specification:Mathematica;writing-mode:lr-tb;fill:#000000;fill-opacity:1;fill-rule:nonzero;stroke:none"
       id="text144"
       x="77.14286"
       y="147.94838"><tspan
         x="77.14286"
         y="147.94838"
         id="tspan142">-0.05</tspan></text><text
       style="font-variant:normal;font-weight:normal;font-size:14px;font-family:Times;-inkscape-font-specification:Times-Roman;writing-mode:lr-tb;fill:#000000;fill-opacity:1;fill-rule:nonzero;stroke:none"
       id="text148"
       x="86.14286"
       y="147.94838"><tspan
         sodipodi:role="line"
         id="tspan146"
         x="86.14286"
         y="147.94838" /></text><path
       d="m 109.57,134.949 v -2.277"
       style="fill:none;stroke:#666666;stroke-width:0.2;stroke-linecap:butt;stroke-linejoin:miter;stroke-miterlimit:3.25;stroke-dasharray:none;stroke-opacity:1"
       id="path150" /><path
       d="m 125,134.949 v -2.277"
       style="fill:none;stroke:#666666;stroke-width:0.2;stroke-linecap:butt;stroke-linejoin:miter;stroke-miterlimit:3.25;stroke-dasharray:none;stroke-opacity:1"
       id="path152" /><path
       d="m 140.43,134.949 v -2.277"
       style="fill:none;stroke:#666666;stroke-width:0.2;stroke-linecap:butt;stroke-linejoin:miter;stroke-miterlimit:3.25;stroke-dasharray:none;stroke-opacity:1"
       id="path154" /><path
       d="m 155.855,134.949 v -2.277"
       style="fill:none;stroke:#666666;stroke-width:0.2;stroke-linecap:butt;stroke-linejoin:miter;stroke-miterlimit:3.25;stroke-dasharray:none;stroke-opacity:1"
       id="path156" /><path
       d="m 171.285,134.949 v -3.797"
       style="fill:none;stroke:#666666;stroke-width:0.2;stroke-linecap:butt;stroke-linejoin:miter;stroke-miterlimit:3.25;stroke-dasharray:none;stroke-opacity:1"
       id="path158" /><path
       d="m 186.715,134.949 v -2.277"
       style="fill:none;stroke:#666666;stroke-width:0.2;stroke-linecap:butt;stroke-linejoin:miter;stroke-miterlimit:3.25;stroke-dasharray:none;stroke-opacity:1"
       id="path160" /><path
       d="m 202.145,134.949 v -2.277"
       style="fill:none;stroke:#666666;stroke-width:0.2;stroke-linecap:butt;stroke-linejoin:miter;stroke-miterlimit:3.25;stroke-dasharray:none;stroke-opacity:1"
       id="path162" /><path
       d="m 217.57,134.949 v -2.277"
       style="fill:none;stroke:#666666;stroke-width:0.2;stroke-linecap:butt;stroke-linejoin:miter;stroke-miterlimit:3.25;stroke-dasharray:none;stroke-opacity:1"
       id="path164" /><path
       d="m 233,134.949 v -2.277"
       style="fill:none;stroke:#666666;stroke-width:0.2;stroke-linecap:butt;stroke-linejoin:miter;stroke-miterlimit:3.25;stroke-dasharray:none;stroke-opacity:1"
       id="path166" /><path
       d="m 248.43,134.949 v -3.797"
       style="fill:none;stroke:#666666;stroke-width:0.2;stroke-linecap:butt;stroke-linejoin:miter;stroke-miterlimit:3.25;stroke-dasharray:none;stroke-opacity:1"
       id="path168" /><text
       style="font-variant:normal;font-weight:normal;font-size:14px;font-family:Times;-inkscape-font-specification:Times-Roman;writing-mode:lr-tb;fill:#000000;fill-opacity:1;fill-rule:nonzero;stroke:none"
       id="text172"
       x="235.92857"
       y="147.94838"><tspan
         x="235.92857 242.92857 246.42857 253.42857"
         y="147.94838"
         sodipodi:role="line"
         id="tspan170">0.05</tspan></text><path
       d="m 263.855,134.949 v -2.277"
       style="fill:none;stroke:#666666;stroke-width:0.2;stroke-linecap:butt;stroke-linejoin:miter;stroke-miterlimit:3.25;stroke-dasharray:none;stroke-opacity:1"
       id="path174" /><path
       d="m 279.285,134.949 v -2.277"
       style="fill:none;stroke:#666666;stroke-width:0.2;stroke-linecap:butt;stroke-linejoin:miter;stroke-miterlimit:3.25;stroke-dasharray:none;stroke-opacity:1"
       id="path176" /><path
       d="m 294.715,134.949 v -2.277"
       style="fill:none;stroke:#666666;stroke-width:0.2;stroke-linecap:butt;stroke-linejoin:miter;stroke-miterlimit:3.25;stroke-dasharray:none;stroke-opacity:1"
       id="path178" /><path
       d="m 310.145,134.949 v -2.277"
       style="fill:none;stroke:#666666;stroke-width:0.2;stroke-linecap:butt;stroke-linejoin:miter;stroke-miterlimit:3.25;stroke-dasharray:none;stroke-opacity:1"
       id="path180" /><path
       d="m 325.57,134.949 v -3.797"
       style="fill:none;stroke:#666666;stroke-width:0.2;stroke-linecap:butt;stroke-linejoin:miter;stroke-miterlimit:3.25;stroke-dasharray:none;stroke-opacity:1"
       id="path182" /><text
       style="font-variant:normal;font-weight:normal;font-size:14px;font-family:Times;-inkscape-font-specification:Times-Roman;writing-mode:lr-tb;fill:#000000;fill-opacity:1;fill-rule:nonzero;stroke:none"
       id="text186"
       x="313.07144"
       y="147.94838"><tspan
         x="313.07144 320.07144 323.57144 330.57144"
         y="147.94838"
         sodipodi:role="line"
         id="tspan184">0.10</tspan></text><path
       d="M 10.57,134.949 H 332"
       style="fill:none;stroke:#666666;stroke-width:0.2;stroke-linecap:butt;stroke-linejoin:miter;stroke-miterlimit:3.25;stroke-dasharray:none;stroke-opacity:1"
       id="path188" /><path
       d="m 171.285,214.594 h 3.797"
       style="fill:none;stroke:#666666;stroke-width:0.2;stroke-linecap:butt;stroke-linejoin:miter;stroke-miterlimit:3.25;stroke-dasharray:none;stroke-opacity:1"
       id="path198" /><text
       style="font-variant:normal;font-weight:normal;font-size:13px;font-family:Mathematica;-inkscape-font-specification:Mathematica;writing-mode:lr-tb;fill:#000000;fill-opacity:1;fill-rule:nonzero;stroke:none"
       id="text202"
       x="138.28571"
       y="217.59401"><tspan
         x="138.28571"
         y="217.59401"
         id="tspan200">-600</tspan></text><path
       d="m 171.285,207.957 h 2.277"
       style="fill:none;stroke:#666666;stroke-width:0.2;stroke-linecap:butt;stroke-linejoin:miter;stroke-miterlimit:3.25;stroke-dasharray:none;stroke-opacity:1"
       id="path208" /><path
       d="m 171.285,201.32 h 2.277"
       style="fill:none;stroke:#666666;stroke-width:0.2;stroke-linecap:butt;stroke-linejoin:miter;stroke-miterlimit:3.25;stroke-dasharray:none;stroke-opacity:1"
       id="path210" /><path
       d="m 171.285,194.684 h 2.277"
       style="fill:none;stroke:#666666;stroke-width:0.2;stroke-linecap:butt;stroke-linejoin:miter;stroke-miterlimit:3.25;stroke-dasharray:none;stroke-opacity:1"
       id="path212" /><path
       d="m 171.285,188.047 h 3.797"
       style="fill:none;stroke:#666666;stroke-width:0.2;stroke-linecap:butt;stroke-linejoin:miter;stroke-miterlimit:3.25;stroke-dasharray:none;stroke-opacity:1"
       id="path214" /><text
       style="font-variant:normal;font-weight:normal;font-size:13px;font-family:Mathematica;-inkscape-font-specification:Mathematica;writing-mode:lr-tb;fill:#000000;fill-opacity:1;fill-rule:nonzero;stroke:none"
       id="text218"
       x="138.28571"
       y="191.04547"><tspan
         x="138.28571"
         y="191.04547"
         id="tspan216">-400</tspan></text><path
       d="m 171.285,181.41 h 2.277"
       style="fill:none;stroke:#666666;stroke-width:0.2;stroke-linecap:butt;stroke-linejoin:miter;stroke-miterlimit:3.25;stroke-dasharray:none;stroke-opacity:1"
       id="path224" /><path
       d="m 171.285,174.77 h 2.277"
       style="fill:none;stroke:#666666;stroke-width:0.2;stroke-linecap:butt;stroke-linejoin:miter;stroke-miterlimit:3.25;stroke-dasharray:none;stroke-opacity:1"
       id="path226" /><path
       d="m 171.285,168.133 h 2.277"
       style="fill:none;stroke:#666666;stroke-width:0.2;stroke-linecap:butt;stroke-linejoin:miter;stroke-miterlimit:3.25;stroke-dasharray:none;stroke-opacity:1"
       id="path228" /><path
       d="m 171.285,161.496 h 3.797"
       style="fill:none;stroke:#666666;stroke-width:0.2;stroke-linecap:butt;stroke-linejoin:miter;stroke-miterlimit:3.25;stroke-dasharray:none;stroke-opacity:1"
       id="path230" /><text
       style="font-variant:normal;font-weight:normal;font-size:13px;font-family:Mathematica;-inkscape-font-specification:Mathematica;writing-mode:lr-tb;fill:#000000;fill-opacity:1;fill-rule:nonzero;stroke:none"
       id="text234"
       x="138.28571"
       y="164.49693"><tspan
         x="138.28571"
         y="164.49693"
         id="tspan232">-200</tspan></text><path
       d="m 171.285,154.859 h 2.277"
       style="fill:none;stroke:#666666;stroke-width:0.2;stroke-linecap:butt;stroke-linejoin:miter;stroke-miterlimit:3.25;stroke-dasharray:none;stroke-opacity:1"
       id="path240" /><path
       d="m 171.285,148.223 h 2.277"
       style="fill:none;stroke:#666666;stroke-width:0.2;stroke-linecap:butt;stroke-linejoin:miter;stroke-miterlimit:3.25;stroke-dasharray:none;stroke-opacity:1"
       id="path242" /><path
       d="m 171.285,141.586 h 2.277"
       style="fill:none;stroke:#666666;stroke-width:0.2;stroke-linecap:butt;stroke-linejoin:miter;stroke-miterlimit:3.25;stroke-dasharray:none;stroke-opacity:1"
       id="path244" /><path
       d="m 171.285,134.949 h 3.797"
       style="fill:none;stroke:#666666;stroke-width:0.2;stroke-linecap:butt;stroke-linejoin:miter;stroke-miterlimit:3.25;stroke-dasharray:none;stroke-opacity:1"
       id="path246" /><path
       d="m 171.285,128.312 h 2.277"
       style="fill:none;stroke:#666666;stroke-width:0.2;stroke-linecap:butt;stroke-linejoin:miter;stroke-miterlimit:3.25;stroke-dasharray:none;stroke-opacity:1"
       id="path248" /><path
       d="m 171.285,121.676 h 2.277"
       style="fill:none;stroke:#666666;stroke-width:0.2;stroke-linecap:butt;stroke-linejoin:miter;stroke-miterlimit:3.25;stroke-dasharray:none;stroke-opacity:1"
       id="path250" /><path
       d="m 171.285,115.035 h 2.277"
       style="fill:none;stroke:#666666;stroke-width:0.2;stroke-linecap:butt;stroke-linejoin:miter;stroke-miterlimit:3.25;stroke-dasharray:none;stroke-opacity:1"
       id="path252" /><path
       d="m 171.285,108.398 h 3.797"
       style="fill:none;stroke:#666666;stroke-width:0.2;stroke-linecap:butt;stroke-linejoin:miter;stroke-miterlimit:3.25;stroke-dasharray:none;stroke-opacity:1"
       id="path254" /><text
       style="font-variant:normal;font-weight:normal;font-size:14px;font-family:Times;-inkscape-font-specification:Times-Roman;writing-mode:lr-tb;fill:#000000;fill-opacity:1;fill-rule:nonzero;stroke:none"
       id="text258"
       x="147.28571"
       y="111.39984"><tspan
         x="147.28571 154.28571 161.28571"
         y="111.39984"
         sodipodi:role="line"
         id="tspan256">200</tspan></text><path
       d="m 171.285,101.762 h 2.277"
       style="fill:none;stroke:#666666;stroke-width:0.2;stroke-linecap:butt;stroke-linejoin:miter;stroke-miterlimit:3.25;stroke-dasharray:none;stroke-opacity:1"
       id="path260" /><path
       d="m 171.285,95.125 h 2.277"
       style="fill:none;stroke:#666666;stroke-width:0.2;stroke-linecap:butt;stroke-linejoin:miter;stroke-miterlimit:3.25;stroke-dasharray:none;stroke-opacity:1"
       id="path262" /><path
       d="m 171.285,88.488 h 2.277"
       style="fill:none;stroke:#666666;stroke-width:0.2;stroke-linecap:butt;stroke-linejoin:miter;stroke-miterlimit:3.25;stroke-dasharray:none;stroke-opacity:1"
       id="path264" /><path
       d="m 171.285,81.852 h 3.797"
       style="fill:none;stroke:#666666;stroke-width:0.2;stroke-linecap:butt;stroke-linejoin:miter;stroke-miterlimit:3.25;stroke-dasharray:none;stroke-opacity:1"
       id="path266" /><text
       style="font-variant:normal;font-weight:normal;font-size:14px;font-family:Times;-inkscape-font-specification:Times-Roman;writing-mode:lr-tb;fill:#000000;fill-opacity:1;fill-rule:nonzero;stroke:none"
       id="text270"
       x="147.28571"
       y="84.851303"><tspan
         x="147.28571 154.28571 161.28571"
         y="84.851303"
         sodipodi:role="line"
         id="tspan268">400</tspan></text><path
       d="m 171.285,75.215 h 2.277"
       style="fill:none;stroke:#666666;stroke-width:0.2;stroke-linecap:butt;stroke-linejoin:miter;stroke-miterlimit:3.25;stroke-dasharray:none;stroke-opacity:1"
       id="path272" /><path
       d="m 171.285,68.578 h 2.277"
       style="fill:none;stroke:#666666;stroke-width:0.2;stroke-linecap:butt;stroke-linejoin:miter;stroke-miterlimit:3.25;stroke-dasharray:none;stroke-opacity:1"
       id="path274" /><path
       d="m 171.285,61.941 h 2.277"
       style="fill:none;stroke:#666666;stroke-width:0.2;stroke-linecap:butt;stroke-linejoin:miter;stroke-miterlimit:3.25;stroke-dasharray:none;stroke-opacity:1"
       id="path276" /><path
       d="m 171.285,55.305 h 3.797"
       style="fill:none;stroke:#666666;stroke-width:0.2;stroke-linecap:butt;stroke-linejoin:miter;stroke-miterlimit:3.25;stroke-dasharray:none;stroke-opacity:1"
       id="path278" /><text
       style="font-variant:normal;font-weight:normal;font-size:14px;font-family:Times;-inkscape-font-specification:Times-Roman;writing-mode:lr-tb;fill:#000000;fill-opacity:1;fill-rule:nonzero;stroke:none"
       id="text282"
       x="147.28571"
       y="58.302761"><tspan
         x="147.28571 154.28571 161.28571"
         y="58.302761"
         sodipodi:role="line"
         id="tspan280">600</tspan></text><path
       d="m 171.285,48.664 h 2.277"
       style="fill:none;stroke:#666666;stroke-width:0.2;stroke-linecap:butt;stroke-linejoin:miter;stroke-miterlimit:3.25;stroke-dasharray:none;stroke-opacity:1"
       id="path284" /><path
       d="m 171.285,42.027 h 2.277"
       style="fill:none;stroke:#666666;stroke-width:0.2;stroke-linecap:butt;stroke-linejoin:miter;stroke-miterlimit:3.25;stroke-dasharray:none;stroke-opacity:1"
       id="path286" /><path
       d="m 171.285,35.391 h 2.277"
       style="fill:none;stroke:#666666;stroke-width:0.2;stroke-linecap:butt;stroke-linejoin:miter;stroke-miterlimit:3.25;stroke-dasharray:none;stroke-opacity:1"
       id="path288" /><path
       d="m 171.285,28.754 h 3.797"
       style="fill:none;stroke:#666666;stroke-width:0.2;stroke-linecap:butt;stroke-linejoin:miter;stroke-miterlimit:3.25;stroke-dasharray:none;stroke-opacity:1"
       id="path290" /><text
       style="font-variant:normal;font-weight:normal;font-size:14px;font-family:Times;-inkscape-font-specification:Times-Roman;writing-mode:lr-tb;fill:#000000;fill-opacity:1;fill-rule:nonzero;stroke:none"
       id="text294"
       x="147.28571"
       y="31.754217"><tspan
         x="147.28571 154.28571 161.28571"
         y="31.754217"
         sodipodi:role="line"
         id="tspan292">800</tspan></text><path
       d="m 171.285,22.117 h 2.277"
       style="fill:none;stroke:#666666;stroke-width:0.2;stroke-linecap:butt;stroke-linejoin:miter;stroke-miterlimit:3.25;stroke-dasharray:none;stroke-opacity:1"
       id="path296" /><path
       d="M 171.285,218.652 V 20"
       style="fill:none;stroke:#666666;stroke-width:0.2;stroke-linecap:butt;stroke-linejoin:miter;stroke-miterlimit:3.25;stroke-dasharray:none;stroke-opacity:1"
       id="path298" /><text
       style="font-variant:normal;font-weight:normal;font-size:13px;font-family:Mathematica;-inkscape-font-specification:Mathematica;writing-mode:lr-tb;fill:#000000;fill-opacity:1;fill-rule:nonzero;stroke:none"
       id="text192"
       x="344.99097"
       y="136.89856"><tspan
         x="344.99097"
         y="136.89856"
         id="tspan190">$\varepsilon_{yy}$</tspan></text><text
       style="font-variant:normal;font-weight:normal;font-size:13px;font-family:Mathematica;-inkscape-font-specification:Mathematica;writing-mode:lr-tb;fill:#000000;fill-opacity:1;fill-rule:nonzero;stroke:none"
       id="text260"
       x="164.77669"
       y="13.218849"><tspan
         x="164.77669"
         y="13.218849"
         id="tspan258">$\sigma_{yy}$</tspan></text><text
       xml:space="preserve"
       style="font-size:12px;line-height:1.25;font-family:sans-serif;stroke-width:0.75"
       x="235.76245"
       y="217.27127"
       id="text13893"><tspan
         sodipodi:role="line"
         id="tspan13891"
         style="stroke-width:0.75"
         x="235.76245"
         y="217.27127">$\sigma_y=175 \text{ MPa}$</tspan><tspan
         sodipodi:role="line"
         style="stroke-width:0.75"
         x="235.76245"
         y="232.27127"
         id="tspan13895">$H=1054 \text{ MPa}$</tspan></text></g></svg>
