<?xml version="1.0" encoding="UTF-8" standalone="no"?>
<!-- Created with Inkscape (http://www.inkscape.org/) -->

<svg
   version="1.1"
   id="svg2"
   xml:space="preserve"
   width="480"
   height="293.33334"
   viewBox="0 0 480 293.33334"
   sodipodi:docname="patch_425_1054_tex.svg"
   inkscape:version="1.1.1 (3bf5ae0d25, 2021-09-20)"
   xmlns:inkscape="http://www.inkscape.org/namespaces/inkscape"
   xmlns:sodipodi="http://sodipodi.sourceforge.net/DTD/sodipodi-0.dtd"
   xmlns="http://www.w3.org/2000/svg"
   xmlns:svg="http://www.w3.org/2000/svg"><defs
     id="defs6" /><sodipodi:namedview
     id="namedview4"
     pagecolor="#ffffff"
     bordercolor="#666666"
     borderopacity="1.0"
     inkscape:pageshadow="2"
     inkscape:pageopacity="0.0"
     inkscape:pagecheckerboard="0"
     showgrid="false"
     inkscape:zoom="1.8355314"
     inkscape:cx="337.77685"
     inkscape:cy="158.2648"
     inkscape:window-width="3440"
     inkscape:window-height="1369"
     inkscape:window-x="-8"
     inkscape:window-y="-8"
     inkscape:window-maximized="1"
     inkscape:current-layer="g8" /><g
     id="g8"
     inkscape:groupmode="layer"
     inkscape:label="patch_425_1054"
     transform="matrix(1.3333333,0,0,1.3333333,0,4e-6)"><path
       d="M 0,0 H 360 V 220 H 0 Z"
       style="fill:#ffffff;fill-opacity:1;fill-rule:nonzero;stroke:none"
       id="path12" /><path
       d="M 0,0 H 360 V 220.078 H 0 Z"
       style="fill:none;stroke:#ffffff;stroke-width:1;stroke-linecap:butt;stroke-linejoin:miter;stroke-miterlimit:10;stroke-dasharray:none;stroke-opacity:1"
       id="path14" /><path
       d="m 171.285,130.68 15.43,-44.492 15.43,-1.176 15.425,-1.18 15.43,-1.176 15.43,-1.179 15.425,-1.176 15.43,-1.176 15.43,-1.18 15.43,-1.175 15.425,-1.18 -15.425,110.762 -15.43,1.175 -15.43,1.18 -15.43,1.176 -15.425,1.179 -30.86,2.352 -15.425,1.18 -15.43,1.176 -15.43,1.179 -15.43,1.176 -15.425,1.176 -15.43,1.179 -15.43,1.176 -15.425,1.18 -30.86,2.352 -15.43,1.179 -15.425,1.176 -15.43,1.18 15.43,-156.422 15.425,-1.176 15.43,-1.176 15.43,-1.179 15.43,-1.176 15.425,-1.18 30.86,-2.352 15.425,-1.179 15.43,-1.176 15.43,-1.18 15.43,-1.175 15.425,-1.176 15.43,-1.18 15.43,-1.176 15.425,-1.179 30.86,-2.352 15.43,-1.18 15.425,-1.175"
       style="fill:none;stroke:#aa0000;stroke-width:1.6;stroke-linecap:square;stroke-linejoin:miter;stroke-miterlimit:3.25;stroke-dasharray:none;stroke-opacity:1"
       id="path16" /><g
       aria-label="●●●●●●●●●●●●●●●●●●●●●●●●●●●●●●●●●●●●●●●●●●●●●●●●●●●"
       id="text120"
       style="font-size:10px;font-family:MathematicaSans;-inkscape-font-specification:MathematicaSans;fill:#aa0000"><path
         d="m 168.64996,130.3672 q 0,-0.89355 0.62989,-1.52343 0.62988,-0.62989 1.52343,-0.62989 0.88868,0 1.51856,0.62989 0.62988,0.62988 0.62988,1.52343 0,0.88867 -0.62988,1.51856 -0.62988,0.62988 -1.51856,0.62988 -0.89355,0 -1.52343,-0.62988 -0.62989,-0.62989 -0.62989,-1.51856 z"
         id="path18075" /><path
         d="m 184.07854,85.875 q 0,-0.893555 0.62988,-1.523438 0.62988,-0.629882 1.52344,-0.629882 0.88867,0 1.51855,0.629882 0.62988,0.629883 0.62988,1.523438 0,0.888672 -0.62988,1.518555 -0.62988,0.629882 -1.51855,0.629882 -0.89356,0 -1.52344,-0.629882 -0.62988,-0.629883 -0.62988,-1.518555 z"
         id="path18077" /><path
         d="m 199.50711,84.697647 q 0,-0.893555 0.62988,-1.523437 0.62989,-0.629883 1.52344,-0.629883 0.88867,0 1.51856,0.629883 0.62988,0.629882 0.62988,1.523437 0,0.888672 -0.62988,1.518555 -0.62989,0.629883 -1.51856,0.629883 -0.89355,0 -1.52344,-0.629883 -0.62988,-0.629883 -0.62988,-1.518555 z"
         id="path18079" /><path
         d="m 214.93568,83.520302 q 0,-0.893555 0.62989,-1.523438 0.62988,-0.629882 1.52343,-0.629882 0.88868,0 1.51856,0.629882 0.62988,0.629883 0.62988,1.523438 0,0.888672 -0.62988,1.518555 -0.62988,0.629882 -1.51856,0.629882 -0.89355,0 -1.52343,-0.629882 -0.62989,-0.629883 -0.62989,-1.518555 z"
         id="path18081" /><path
         d="m 230.36424,82.342949 q 0,-0.893555 0.62989,-1.523438 0.62988,-0.629882 1.52343,-0.629882 0.88867,0 1.51856,0.629882 0.62988,0.629883 0.62988,1.523438 0,0.888672 -0.62988,1.518555 -0.62989,0.629882 -1.51856,0.629882 -0.89355,0 -1.52343,-0.629882 -0.62989,-0.629883 -0.62989,-1.518555 z"
         id="path18083" /><path
         d="m 245.79282,81.165596 q 0,-0.893555 0.62988,-1.523437 0.62988,-0.629883 1.52344,-0.629883 0.88867,0 1.51855,0.629883 0.62988,0.629882 0.62988,1.523437 0,0.888672 -0.62988,1.518555 -0.62988,0.629883 -1.51855,0.629883 -0.89356,0 -1.52344,-0.629883 -0.62988,-0.629883 -0.62988,-1.518555 z"
         id="path18085" /><path
         d="m 261.22137,79.988251 q 0,-0.893555 0.62989,-1.523438 0.62988,-0.629883 1.52343,-0.629883 0.88868,0 1.51856,0.629883 0.62988,0.629883 0.62988,1.523438 0,0.888672 -0.62988,1.518554 -0.62988,0.629883 -1.51856,0.629883 -0.89355,0 -1.52343,-0.629883 -0.62989,-0.629882 -0.62989,-1.518554 z"
         id="path18087" /><path
         d="m 276.64996,78.810898 q 0,-0.893555 0.62989,-1.523438 0.62988,-0.629882 1.52343,-0.629882 0.88868,0 1.51856,0.629882 0.62988,0.629883 0.62988,1.523438 0,0.888672 -0.62988,1.518555 -0.62988,0.629882 -1.51856,0.629882 -0.89355,0 -1.52343,-0.629882 -0.62989,-0.629883 -0.62989,-1.518555 z"
         id="path18089" /><path
         d="m 292.07852,77.633545 q 0,-0.893555 0.62988,-1.523438 0.62989,-0.629882 1.52344,-0.629882 0.88867,0 1.51856,0.629882 0.62988,0.629883 0.62988,1.523438 0,0.888672 -0.62988,1.518555 -0.62989,0.629882 -1.51856,0.629882 -0.89355,0 -1.52344,-0.629882 -0.62988,-0.629883 -0.62988,-1.518555 z"
         id="path18091" /><path
         d="m 307.50711,76.4562 q 0,-0.893555 0.62988,-1.523438 0.62989,-0.629883 1.52344,-0.629883 0.88867,0 1.51856,0.629883 0.62988,0.629883 0.62988,1.523438 0,0.888672 -0.62988,1.518554 -0.62989,0.629883 -1.51856,0.629883 -0.89355,0 -1.52344,-0.629883 -0.62988,-0.629882 -0.62988,-1.518554 z"
         id="path18093" /><path
         d="m 322.93567,75.278847 q 0,-0.893555 0.62988,-1.523438 0.62988,-0.629883 1.52344,-0.629883 0.88867,0 1.51855,0.629883 0.62989,0.629883 0.62989,1.523438 0,0.888672 -0.62989,1.518554 -0.62988,0.629883 -1.51855,0.629883 -0.89356,0 -1.52344,-0.629883 -0.62988,-0.629882 -0.62988,-1.518554 z"
         id="path18095" /><path
         d="m 307.50711,186.03899 q 0,-0.89356 0.62988,-1.52344 0.62989,-0.62988 1.52344,-0.62988 0.88867,0 1.51856,0.62988 0.62988,0.62988 0.62988,1.52344 0,0.88867 -0.62988,1.51855 -0.62989,0.62988 -1.51856,0.62988 -0.89355,0 -1.52344,-0.62988 -0.62988,-0.62988 -0.62988,-1.51855 z"
         id="path18097" /><path
         d="m 292.07852,187.21634 q 0,-0.89356 0.62988,-1.52344 0.62989,-0.62988 1.52344,-0.62988 0.88867,0 1.51856,0.62988 0.62988,0.62988 0.62988,1.52344 0,0.88867 -0.62988,1.51855 -0.62989,0.62989 -1.51856,0.62989 -0.89355,0 -1.52344,-0.62989 -0.62988,-0.62988 -0.62988,-1.51855 z"
         id="path18099" /><path
         d="m 276.64996,188.39369 q 0,-0.89355 0.62989,-1.52344 0.62988,-0.62988 1.52343,-0.62988 0.88868,0 1.51856,0.62988 0.62988,0.62989 0.62988,1.52344 0,0.88867 -0.62988,1.51856 -0.62988,0.62988 -1.51856,0.62988 -0.89355,0 -1.52343,-0.62988 -0.62989,-0.62989 -0.62989,-1.51856 z"
         id="path18101" /><path
         d="m 261.22137,189.57104 q 0,-0.89355 0.62989,-1.52343 0.62988,-0.62989 1.52343,-0.62989 0.88868,0 1.51856,0.62989 0.62988,0.62988 0.62988,1.52343 0,0.88868 -0.62988,1.51856 -0.62988,0.62988 -1.51856,0.62988 -0.89355,0 -1.52343,-0.62988 -0.62989,-0.62988 -0.62989,-1.51856 z"
         id="path18103" /><path
         d="m 245.79282,190.74838 q 0,-0.89355 0.62988,-1.52343 0.62988,-0.62989 1.52344,-0.62989 0.88867,0 1.51855,0.62989 0.62988,0.62988 0.62988,1.52343 0,0.88867 -0.62988,1.51856 -0.62988,0.62988 -1.51855,0.62988 -0.89356,0 -1.52344,-0.62988 -0.62988,-0.62989 -0.62988,-1.51856 z"
         id="path18105" /><path
         d="m 230.36424,191.92574 q 0,-0.89356 0.62989,-1.52344 0.62988,-0.62988 1.52343,-0.62988 0.88867,0 1.51856,0.62988 0.62988,0.62988 0.62988,1.52344 0,0.88867 -0.62988,1.51855 -0.62989,0.62988 -1.51856,0.62988 -0.89355,0 -1.52343,-0.62988 -0.62989,-0.62988 -0.62989,-1.51855 z"
         id="path18107" /><path
         d="m 214.93568,193.10309 q 0,-0.89356 0.62989,-1.52344 0.62988,-0.62988 1.52343,-0.62988 0.88868,0 1.51856,0.62988 0.62988,0.62988 0.62988,1.52344 0,0.88867 -0.62988,1.51855 -0.62988,0.62989 -1.51856,0.62989 -0.89355,0 -1.52343,-0.62989 -0.62989,-0.62988 -0.62989,-1.51855 z"
         id="path18109" /><path
         d="m 199.50711,194.28044 q 0,-0.89355 0.62988,-1.52344 0.62989,-0.62988 1.52344,-0.62988 0.88867,0 1.51856,0.62988 0.62988,0.62989 0.62988,1.52344 0,0.88867 -0.62988,1.51856 -0.62989,0.62988 -1.51856,0.62988 -0.89355,0 -1.52344,-0.62988 -0.62988,-0.62989 -0.62988,-1.51856 z"
         id="path18111" /><path
         d="m 184.07854,195.45779 q 0,-0.89355 0.62988,-1.52343 0.62988,-0.62989 1.52344,-0.62989 0.88867,0 1.51855,0.62989 0.62988,0.62988 0.62988,1.52343 0,0.88868 -0.62988,1.51856 -0.62988,0.62988 -1.51855,0.62988 -0.89356,0 -1.52344,-0.62988 -0.62988,-0.62988 -0.62988,-1.51856 z"
         id="path18113" /><path
         d="m 168.64996,196.63513 q 0,-0.89355 0.62989,-1.52344 0.62988,-0.62988 1.52343,-0.62988 0.88868,0 1.51856,0.62988 0.62988,0.62989 0.62988,1.52344 0,0.88867 -0.62988,1.51856 -0.62988,0.62988 -1.51856,0.62988 -0.89355,0 -1.52343,-0.62988 -0.62989,-0.62989 -0.62989,-1.51856 z"
         id="path18115" /><path
         d="m 153.22141,197.81248 q 0,-0.89355 0.62988,-1.52343 0.62988,-0.62989 1.52344,-0.62989 0.88867,0 1.51855,0.62989 0.62988,0.62988 0.62988,1.52343 0,0.88868 -0.62988,1.51856 -0.62988,0.62988 -1.51855,0.62988 -0.89356,0 -1.52344,-0.62988 -0.62988,-0.62988 -0.62988,-1.51856 z"
         id="path18117" /><path
         d="m 137.79283,198.98984 q 0,-0.89356 0.62988,-1.52344 0.62989,-0.62988 1.52344,-0.62988 0.88867,0 1.51856,0.62988 0.62988,0.62988 0.62988,1.52344 0,0.88867 -0.62988,1.51855 -0.62989,0.62989 -1.51856,0.62989 -0.89355,0 -1.52344,-0.62989 -0.62988,-0.62988 -0.62988,-1.51855 z"
         id="path18119" /><path
         d="m 122.36426,200.16719 q 0,-0.89355 0.62988,-1.52344 0.62988,-0.62988 1.52344,-0.62988 0.88867,0 1.51855,0.62988 0.62989,0.62989 0.62989,1.52344 0,0.88867 -0.62989,1.51856 -0.62988,0.62988 -1.51855,0.62988 -0.89356,0 -1.52344,-0.62988 -0.62988,-0.62989 -0.62988,-1.51856 z"
         id="path18121" /><path
         d="m 106.93568,201.34454 q 0,-0.89355 0.62989,-1.52343 0.62988,-0.62989 1.52343,-0.62989 0.88868,0 1.51856,0.62989 0.62988,0.62988 0.62988,1.52343 0,0.88868 -0.62988,1.51856 -0.62988,0.62988 -1.51856,0.62988 -0.89355,0 -1.52343,-0.62988 -0.62989,-0.62988 -0.62989,-1.51856 z"
         id="path18123" /><path
         d="m 91.507118,202.52188 q 0,-0.89355 0.629883,-1.52344 0.629883,-0.62988 1.523438,-0.62988 0.888671,0 1.518554,0.62988 0.629883,0.62989 0.629883,1.52344 0,0.88867 -0.629883,1.51856 -0.629883,0.62988 -1.518554,0.62988 -0.893555,0 -1.523438,-0.62988 -0.629883,-0.62989 -0.629883,-1.51856 z"
         id="path18125" /><path
         d="m 76.078552,203.69923 q 0,-0.89355 0.629883,-1.52343 0.629883,-0.62989 1.523438,-0.62989 0.888671,0 1.518554,0.62989 0.629883,0.62988 0.629883,1.52343 0,0.88868 -0.629883,1.51856 -0.629883,0.62988 -1.518554,0.62988 -0.893555,0 -1.523438,-0.62988 -0.629883,-0.62988 -0.629883,-1.51856 z"
         id="path18127" /><path
         d="m 60.649975,204.87659 q 0,-0.89356 0.629883,-1.52344 0.629882,-0.62988 1.523437,-0.62988 0.888672,0 1.518555,0.62988 0.629883,0.62988 0.629883,1.52344 0,0.88867 -0.629883,1.51855 -0.629883,0.62988 -1.518555,0.62988 -0.893555,0 -1.523437,-0.62988 -0.629883,-0.62988 -0.629883,-1.51855 z"
         id="path18129" /><path
         d="m 45.221409,206.05394 q 0,-0.89355 0.629883,-1.52344 0.629882,-0.62988 1.523437,-0.62988 0.888672,0 1.518555,0.62988 0.629883,0.62989 0.629883,1.52344 0,0.88867 -0.629883,1.51855 -0.629883,0.62989 -1.518555,0.62989 -0.893555,0 -1.523437,-0.62989 -0.629883,-0.62988 -0.629883,-1.51855 z"
         id="path18131" /><path
         d="m 29.792835,207.23129 q 0,-0.89355 0.629883,-1.52343 0.629883,-0.62989 1.523438,-0.62989 0.888671,0 1.518554,0.62989 0.629883,0.62988 0.629883,1.52343 0,0.88867 -0.629883,1.51856 -0.629883,0.62988 -1.518554,0.62988 -0.893555,0 -1.523438,-0.62988 -0.629883,-0.62989 -0.629883,-1.51856 z"
         id="path18133" /><path
         d="m 14.364263,208.40863 q 0,-0.89355 0.629882,-1.52344 0.629883,-0.62988 1.523438,-0.62988 0.888672,0 1.518555,0.62988 0.629882,0.62989 0.629882,1.52344 0,0.88867 -0.629882,1.51856 -0.629883,0.62988 -1.518555,0.62988 -0.893555,0 -1.523438,-0.62988 -0.629882,-0.62989 -0.629882,-1.51856 z"
         id="path18135" /><path
         d="m 29.792835,51.989799 q 0,-0.893554 0.629883,-1.523437 0.629883,-0.629883 1.523438,-0.629883 0.888671,0 1.518554,0.629883 0.629883,0.629883 0.629883,1.523437 0,0.888672 -0.629883,1.518555 -0.629883,0.629883 -1.518554,0.629883 -0.893555,0 -1.523438,-0.629883 -0.629883,-0.629883 -0.629883,-1.518555 z"
         id="path18137" /><path
         d="m 45.221409,50.812447 q 0,-0.893555 0.629883,-1.523438 0.629882,-0.629883 1.523437,-0.629883 0.888672,0 1.518555,0.629883 0.629883,0.629883 0.629883,1.523438 0,0.888671 -0.629883,1.518554 -0.629883,0.629883 -1.518555,0.629883 -0.893555,0 -1.523437,-0.629883 -0.629883,-0.629883 -0.629883,-1.518554 z"
         id="path18139" /><path
         d="m 60.649975,49.635101 q 0,-0.893554 0.629883,-1.523437 0.629882,-0.629883 1.523437,-0.629883 0.888672,0 1.518555,0.629883 0.629883,0.629883 0.629883,1.523437 0,0.888672 -0.629883,1.518555 -0.629883,0.629883 -1.518555,0.629883 -0.893555,0 -1.523437,-0.629883 -0.629883,-0.629883 -0.629883,-1.518555 z"
         id="path18141" /><path
         d="m 76.078552,48.457748 q 0,-0.893554 0.629883,-1.523437 0.629883,-0.629883 1.523438,-0.629883 0.888671,0 1.518554,0.629883 0.629883,0.629883 0.629883,1.523437 0,0.888672 -0.629883,1.518555 -0.629883,0.629883 -1.518554,0.629883 -0.893555,0 -1.523438,-0.629883 -0.629883,-0.629883 -0.629883,-1.518555 z"
         id="path18143" /><path
         d="m 91.507118,47.280403 q 0,-0.893555 0.629883,-1.523437 0.629883,-0.629883 1.523438,-0.629883 0.888671,0 1.518554,0.629883 0.629883,0.629882 0.629883,1.523437 0,0.888672 -0.629883,1.518555 -0.629883,0.629883 -1.518554,0.629883 -0.893555,0 -1.523438,-0.629883 -0.629883,-0.629883 -0.629883,-1.518555 z"
         id="path18145" /><path
         d="m 106.93568,46.10305 q 0,-0.893554 0.62989,-1.523437 0.62988,-0.629883 1.52343,-0.629883 0.88868,0 1.51856,0.629883 0.62988,0.629883 0.62988,1.523437 0,0.888672 -0.62988,1.518555 -0.62988,0.629883 -1.51856,0.629883 -0.89355,0 -1.52343,-0.629883 -0.62989,-0.629883 -0.62989,-1.518555 z"
         id="path18147" /><path
         d="m 122.36426,44.925697 q 0,-0.893554 0.62988,-1.523437 0.62988,-0.629883 1.52344,-0.629883 0.88867,0 1.51855,0.629883 0.62989,0.629883 0.62989,1.523437 0,0.888672 -0.62989,1.518555 -0.62988,0.629883 -1.51855,0.629883 -0.89356,0 -1.52344,-0.629883 -0.62988,-0.629883 -0.62988,-1.518555 z"
         id="path18149" /><path
         d="m 137.79283,43.748352 q 0,-0.893555 0.62988,-1.523437 0.62989,-0.629883 1.52344,-0.629883 0.88867,0 1.51856,0.629883 0.62988,0.629882 0.62988,1.523437 0,0.888672 -0.62988,1.518555 -0.62989,0.629883 -1.51856,0.629883 -0.89355,0 -1.52344,-0.629883 -0.62988,-0.629883 -0.62988,-1.518555 z"
         id="path18151" /><path
         d="m 153.22141,42.570999 q 0,-0.893555 0.62988,-1.523437 0.62988,-0.629883 1.52344,-0.629883 0.88867,0 1.51855,0.629883 0.62988,0.629882 0.62988,1.523437 0,0.888672 -0.62988,1.518555 -0.62988,0.629883 -1.51855,0.629883 -0.89356,0 -1.52344,-0.629883 -0.62988,-0.629883 -0.62988,-1.518555 z"
         id="path18153" /><path
         d="m 168.64996,41.393654 q 0,-0.893555 0.62989,-1.523438 0.62988,-0.629882 1.52343,-0.629882 0.88868,0 1.51856,0.629882 0.62988,0.629883 0.62988,1.523438 0,0.888672 -0.62988,1.518555 -0.62988,0.629882 -1.51856,0.629882 -0.89355,0 -1.52343,-0.629882 -0.62989,-0.629883 -0.62989,-1.518555 z"
         id="path18155" /><path
         d="m 184.07854,40.216301 q 0,-0.893555 0.62988,-1.523438 0.62988,-0.629882 1.52344,-0.629882 0.88867,0 1.51855,0.629882 0.62988,0.629883 0.62988,1.523438 0,0.888672 -0.62988,1.518555 -0.62988,0.629882 -1.51855,0.629882 -0.89356,0 -1.52344,-0.629882 -0.62988,-0.629883 -0.62988,-1.518555 z"
         id="path18157" /><path
         d="m 199.50711,39.038948 q 0,-0.893555 0.62988,-1.523437 0.62989,-0.629883 1.52344,-0.629883 0.88867,0 1.51856,0.629883 0.62988,0.629882 0.62988,1.523437 0,0.888672 -0.62988,1.518555 -0.62989,0.629883 -1.51856,0.629883 -0.89355,0 -1.52344,-0.629883 -0.62988,-0.629883 -0.62988,-1.518555 z"
         id="path18159" /><path
         d="m 214.93568,37.861603 q 0,-0.893555 0.62989,-1.523438 0.62988,-0.629883 1.52343,-0.629883 0.88868,0 1.51856,0.629883 0.62988,0.629883 0.62988,1.523438 0,0.888672 -0.62988,1.518554 -0.62988,0.629883 -1.51856,0.629883 -0.89355,0 -1.52343,-0.629883 -0.62989,-0.629882 -0.62989,-1.518554 z"
         id="path18161" /><path
         d="m 230.36424,36.68425 q 0,-0.893555 0.62989,-1.523438 0.62988,-0.629882 1.52343,-0.629882 0.88867,0 1.51856,0.629882 0.62988,0.629883 0.62988,1.523438 0,0.888672 -0.62988,1.518555 -0.62989,0.629882 -1.51856,0.629882 -0.89355,0 -1.52343,-0.629882 -0.62989,-0.629883 -0.62989,-1.518555 z"
         id="path18163" /><path
         d="m 245.79282,35.506897 q 0,-0.893555 0.62988,-1.523438 0.62988,-0.629882 1.52344,-0.629882 0.88867,0 1.51855,0.629882 0.62988,0.629883 0.62988,1.523438 0,0.888672 -0.62988,1.518555 -0.62988,0.629882 -1.51855,0.629882 -0.89356,0 -1.52344,-0.629882 -0.62988,-0.629883 -0.62988,-1.518555 z"
         id="path18165" /><path
         d="m 261.22137,34.329552 q 0,-0.893555 0.62989,-1.523438 0.62988,-0.629883 1.52343,-0.629883 0.88868,0 1.51856,0.629883 0.62988,0.629883 0.62988,1.523438 0,0.888672 -0.62988,1.518554 -0.62988,0.629883 -1.51856,0.629883 -0.89355,0 -1.52343,-0.629883 -0.62989,-0.629882 -0.62989,-1.518554 z"
         id="path18167" /><path
         d="m 276.64996,33.152199 q 0,-0.893555 0.62989,-1.523438 0.62988,-0.629883 1.52343,-0.629883 0.88868,0 1.51856,0.629883 0.62988,0.629883 0.62988,1.523438 0,0.888672 -0.62988,1.518554 -0.62988,0.629883 -1.51856,0.629883 -0.89355,0 -1.52343,-0.629883 -0.62989,-0.629882 -0.62989,-1.518554 z"
         id="path18169" /><path
         d="m 292.07852,31.974854 q 0,-0.893555 0.62988,-1.523438 0.62989,-0.629883 1.52344,-0.629883 0.88867,0 1.51856,0.629883 0.62988,0.629883 0.62988,1.523438 0,0.888671 -0.62988,1.518554 -0.62989,0.629883 -1.51856,0.629883 -0.89355,0 -1.52344,-0.629883 -0.62988,-0.629883 -0.62988,-1.518554 z"
         id="path18171" /><path
         d="m 307.50711,30.797501 q 0,-0.893555 0.62988,-1.523438 0.62989,-0.629883 1.52344,-0.629883 0.88867,0 1.51856,0.629883 0.62988,0.629883 0.62988,1.523438 0,0.888671 -0.62988,1.518554 -0.62989,0.629883 -1.51856,0.629883 -0.89355,0 -1.52344,-0.629883 -0.62988,-0.629883 -0.62988,-1.518554 z"
         id="path18173" /><path
         d="m 322.93567,29.620148 q 0,-0.893555 0.62988,-1.523438 0.62988,-0.629883 1.52344,-0.629883 0.88867,0 1.51855,0.629883 0.62989,0.629883 0.62989,1.523438 0,0.888672 -0.62989,1.518554 -0.62988,0.629883 -1.51855,0.629883 -0.89356,0 -1.52344,-0.629883 -0.62988,-0.629882 -0.62988,-1.518554 z"
         id="path18175" /></g><path
       d="m 17,130.68 v -3.797"
       style="fill:none;stroke:#666666;stroke-width:0.2;stroke-linecap:butt;stroke-linejoin:miter;stroke-miterlimit:3.25;stroke-dasharray:none;stroke-opacity:1"
       id="path122" /><text
       style="font-variant:normal;font-weight:normal;font-size:13px;font-family:Mathematica;-inkscape-font-specification:Mathematica;writing-mode:lr-tb;fill:#000000;fill-opacity:1;fill-rule:nonzero;stroke:none"
       id="text126"
       y="143.6797"><tspan
         x="0"
         y="143.6797"
         id="tspan124">-0.10</tspan></text><path
       d="m 32.43,130.68 v -2.278"
       style="fill:none;stroke:#666666;stroke-width:0.2;stroke-linecap:butt;stroke-linejoin:miter;stroke-miterlimit:3.25;stroke-dasharray:none;stroke-opacity:1"
       id="path132" /><path
       d="m 47.855,130.68 v -2.278"
       style="fill:none;stroke:#666666;stroke-width:0.2;stroke-linecap:butt;stroke-linejoin:miter;stroke-miterlimit:3.25;stroke-dasharray:none;stroke-opacity:1"
       id="path134" /><path
       d="m 63.285,130.68 v -2.278"
       style="fill:none;stroke:#666666;stroke-width:0.2;stroke-linecap:butt;stroke-linejoin:miter;stroke-miterlimit:3.25;stroke-dasharray:none;stroke-opacity:1"
       id="path136" /><path
       d="m 78.715,130.68 v -2.278"
       style="fill:none;stroke:#666666;stroke-width:0.2;stroke-linecap:butt;stroke-linejoin:miter;stroke-miterlimit:3.25;stroke-dasharray:none;stroke-opacity:1"
       id="path138" /><path
       d="m 94.145,130.68 v -3.797"
       style="fill:none;stroke:#666666;stroke-width:0.2;stroke-linecap:butt;stroke-linejoin:miter;stroke-miterlimit:3.25;stroke-dasharray:none;stroke-opacity:1"
       id="path140" /><text
       style="font-variant:normal;font-weight:normal;font-size:14px;font-family:Times;-inkscape-font-specification:Times-Roman;writing-mode:lr-tb;fill:#000000;fill-opacity:1;fill-rule:nonzero;stroke:none"
       id="text148"
       x="86.14286"
       y="143.6797"><tspan
         x="86.14286"
         y="143.6797"
         sodipodi:role="line"
         id="tspan146">-0.05</tspan></text><path
       d="m 109.57,130.68 v -2.278"
       style="fill:none;stroke:#666666;stroke-width:0.2;stroke-linecap:butt;stroke-linejoin:miter;stroke-miterlimit:3.25;stroke-dasharray:none;stroke-opacity:1"
       id="path150" /><path
       d="m 125,130.68 v -2.278"
       style="fill:none;stroke:#666666;stroke-width:0.2;stroke-linecap:butt;stroke-linejoin:miter;stroke-miterlimit:3.25;stroke-dasharray:none;stroke-opacity:1"
       id="path152" /><path
       d="m 140.43,130.68 v -2.278"
       style="fill:none;stroke:#666666;stroke-width:0.2;stroke-linecap:butt;stroke-linejoin:miter;stroke-miterlimit:3.25;stroke-dasharray:none;stroke-opacity:1"
       id="path154" /><path
       d="m 155.855,130.68 v -2.278"
       style="fill:none;stroke:#666666;stroke-width:0.2;stroke-linecap:butt;stroke-linejoin:miter;stroke-miterlimit:3.25;stroke-dasharray:none;stroke-opacity:1"
       id="path156" /><path
       d="m 171.285,130.68 v -3.797"
       style="fill:none;stroke:#666666;stroke-width:0.2;stroke-linecap:butt;stroke-linejoin:miter;stroke-miterlimit:3.25;stroke-dasharray:none;stroke-opacity:1"
       id="path158" /><path
       d="m 186.715,130.68 v -2.278"
       style="fill:none;stroke:#666666;stroke-width:0.2;stroke-linecap:butt;stroke-linejoin:miter;stroke-miterlimit:3.25;stroke-dasharray:none;stroke-opacity:1"
       id="path160" /><path
       d="m 202.145,130.68 v -2.278"
       style="fill:none;stroke:#666666;stroke-width:0.2;stroke-linecap:butt;stroke-linejoin:miter;stroke-miterlimit:3.25;stroke-dasharray:none;stroke-opacity:1"
       id="path162" /><path
       d="m 217.57,130.68 v -2.278"
       style="fill:none;stroke:#666666;stroke-width:0.2;stroke-linecap:butt;stroke-linejoin:miter;stroke-miterlimit:3.25;stroke-dasharray:none;stroke-opacity:1"
       id="path164" /><path
       d="m 233,130.68 v -2.278"
       style="fill:none;stroke:#666666;stroke-width:0.2;stroke-linecap:butt;stroke-linejoin:miter;stroke-miterlimit:3.25;stroke-dasharray:none;stroke-opacity:1"
       id="path166" /><path
       d="m 248.43,130.68 v -3.797"
       style="fill:none;stroke:#666666;stroke-width:0.2;stroke-linecap:butt;stroke-linejoin:miter;stroke-miterlimit:3.25;stroke-dasharray:none;stroke-opacity:1"
       id="path168" /><text
       style="font-variant:normal;font-weight:normal;font-size:14px;font-family:Times;-inkscape-font-specification:Times-Roman;writing-mode:lr-tb;fill:#000000;fill-opacity:1;fill-rule:nonzero;stroke:none"
       id="text172"
       x="235.92857"
       y="143.6797"><tspan
         x="235.92857 242.92857 246.42857 253.42857"
         y="143.6797"
         sodipodi:role="line"
         id="tspan170">0.05</tspan></text><path
       d="m 263.855,130.68 v -2.278"
       style="fill:none;stroke:#666666;stroke-width:0.2;stroke-linecap:butt;stroke-linejoin:miter;stroke-miterlimit:3.25;stroke-dasharray:none;stroke-opacity:1"
       id="path174" /><path
       d="m 279.285,130.68 v -2.278"
       style="fill:none;stroke:#666666;stroke-width:0.2;stroke-linecap:butt;stroke-linejoin:miter;stroke-miterlimit:3.25;stroke-dasharray:none;stroke-opacity:1"
       id="path176" /><path
       d="m 294.715,130.68 v -2.278"
       style="fill:none;stroke:#666666;stroke-width:0.2;stroke-linecap:butt;stroke-linejoin:miter;stroke-miterlimit:3.25;stroke-dasharray:none;stroke-opacity:1"
       id="path178" /><path
       d="m 310.145,130.68 v -2.278"
       style="fill:none;stroke:#666666;stroke-width:0.2;stroke-linecap:butt;stroke-linejoin:miter;stroke-miterlimit:3.25;stroke-dasharray:none;stroke-opacity:1"
       id="path180" /><path
       d="m 325.57,130.68 v -3.797"
       style="fill:none;stroke:#666666;stroke-width:0.2;stroke-linecap:butt;stroke-linejoin:miter;stroke-miterlimit:3.25;stroke-dasharray:none;stroke-opacity:1"
       id="path182" /><text
       style="font-variant:normal;font-weight:normal;font-size:14px;font-family:Times;-inkscape-font-specification:Times-Roman;writing-mode:lr-tb;fill:#000000;fill-opacity:1;fill-rule:nonzero;stroke:none"
       id="text186"
       x="313.07144"
       y="143.6797"><tspan
         x="313.07144 320.07144 323.57144 330.57144"
         y="143.6797"
         sodipodi:role="line"
         id="tspan184">0.10</tspan></text><path
       d="M 10.57,130.68 H 332"
       style="fill:none;stroke:#666666;stroke-width:0.2;stroke-linecap:butt;stroke-linejoin:miter;stroke-miterlimit:3.25;stroke-dasharray:none;stroke-opacity:1"
       id="path188" /><text
       style="font-variant:normal;font-weight:normal;font-size:13px;font-family:Mathematica;-inkscape-font-specification:Mathematica;writing-mode:lr-tb;fill:#000000;fill-opacity:1;fill-rule:nonzero;stroke:none"
       id="text192"
       x="340"
       y="133.6797"><tspan
         x="340"
         y="133.6797"
         id="tspan190">$\varepsilon_{yy}$</tspan></text><text
       style="font-variant:normal;font-weight:normal;font-size:14px;font-family:Times;-inkscape-font-specification:Times-Roman;writing-mode:lr-tb;fill:#000000;fill-opacity:1;fill-rule:nonzero;stroke:none"
       id="text196"
       x="345.07178"
       y="133.6797"><tspan
         sodipodi:role="line"
         id="tspan194"
         x="345.07178"
         y="133.6797" /></text><path
       d="m 171.285,214.867 h 2.277"
       style="fill:none;stroke:#666666;stroke-width:0.2;stroke-linecap:butt;stroke-linejoin:miter;stroke-miterlimit:3.25;stroke-dasharray:none;stroke-opacity:1"
       id="path198" /><path
       d="m 171.285,205.512 h 2.277"
       style="fill:none;stroke:#666666;stroke-width:0.2;stroke-linecap:butt;stroke-linejoin:miter;stroke-miterlimit:3.25;stroke-dasharray:none;stroke-opacity:1"
       id="path200" /><path
       d="m 171.285,196.16 h 2.277"
       style="fill:none;stroke:#666666;stroke-width:0.2;stroke-linecap:butt;stroke-linejoin:miter;stroke-miterlimit:3.25;stroke-dasharray:none;stroke-opacity:1"
       id="path202" /><path
       d="m 171.285,186.805 h 2.277"
       style="fill:none;stroke:#666666;stroke-width:0.2;stroke-linecap:butt;stroke-linejoin:miter;stroke-miterlimit:3.25;stroke-dasharray:none;stroke-opacity:1"
       id="path204" /><path
       d="m 171.285,177.449 h 3.797"
       style="fill:none;stroke:#666666;stroke-width:0.2;stroke-linecap:butt;stroke-linejoin:miter;stroke-miterlimit:3.25;stroke-dasharray:none;stroke-opacity:1"
       id="path206" /><text
       style="font-variant:normal;font-weight:normal;font-size:14px;font-family:Times;-inkscape-font-specification:Times-Roman;writing-mode:lr-tb;fill:#000000;fill-opacity:1;fill-rule:nonzero;stroke:none"
       id="text214"
       x="141.50722"
       y="180.73941"><tspan
         x="141.50722"
         y="180.73941"
         sodipodi:role="line"
         id="tspan212">-500</tspan></text><path
       d="m 171.285,168.098 h 2.277"
       style="fill:none;stroke:#666666;stroke-width:0.2;stroke-linecap:butt;stroke-linejoin:miter;stroke-miterlimit:3.25;stroke-dasharray:none;stroke-opacity:1"
       id="path216" /><path
       d="m 171.285,158.742 h 2.277"
       style="fill:none;stroke:#666666;stroke-width:0.2;stroke-linecap:butt;stroke-linejoin:miter;stroke-miterlimit:3.25;stroke-dasharray:none;stroke-opacity:1"
       id="path218" /><path
       d="m 171.285,149.387 h 2.277"
       style="fill:none;stroke:#666666;stroke-width:0.2;stroke-linecap:butt;stroke-linejoin:miter;stroke-miterlimit:3.25;stroke-dasharray:none;stroke-opacity:1"
       id="path220" /><path
       d="m 171.285,140.035 h 2.277"
       style="fill:none;stroke:#666666;stroke-width:0.2;stroke-linecap:butt;stroke-linejoin:miter;stroke-miterlimit:3.25;stroke-dasharray:none;stroke-opacity:1"
       id="path222" /><path
       d="m 171.285,130.68 h 3.797"
       style="fill:none;stroke:#666666;stroke-width:0.2;stroke-linecap:butt;stroke-linejoin:miter;stroke-miterlimit:3.25;stroke-dasharray:none;stroke-opacity:1"
       id="path224" /><path
       d="m 171.285,121.324 h 2.277"
       style="fill:none;stroke:#666666;stroke-width:0.2;stroke-linecap:butt;stroke-linejoin:miter;stroke-miterlimit:3.25;stroke-dasharray:none;stroke-opacity:1"
       id="path226" /><path
       d="m 171.285,111.973 h 2.277"
       style="fill:none;stroke:#666666;stroke-width:0.2;stroke-linecap:butt;stroke-linejoin:miter;stroke-miterlimit:3.25;stroke-dasharray:none;stroke-opacity:1"
       id="path228" /><path
       d="m 171.285,102.617 h 2.277"
       style="fill:none;stroke:#666666;stroke-width:0.2;stroke-linecap:butt;stroke-linejoin:miter;stroke-miterlimit:3.25;stroke-dasharray:none;stroke-opacity:1"
       id="path230" /><path
       d="m 171.285,93.262 h 2.277"
       style="fill:none;stroke:#666666;stroke-width:0.2;stroke-linecap:butt;stroke-linejoin:miter;stroke-miterlimit:3.25;stroke-dasharray:none;stroke-opacity:1"
       id="path232" /><path
       d="m 171.285,83.91 h 3.797"
       style="fill:none;stroke:#666666;stroke-width:0.2;stroke-linecap:butt;stroke-linejoin:miter;stroke-miterlimit:3.25;stroke-dasharray:none;stroke-opacity:1"
       id="path234" /><text
       style="font-variant:normal;font-weight:normal;font-size:14px;font-family:Times;-inkscape-font-specification:Times-Roman;writing-mode:lr-tb;fill:#000000;fill-opacity:1;fill-rule:nonzero;stroke:none"
       id="text238"
       x="147.28571"
       y="86.908943"><tspan
         x="147.28571 154.28571 161.28571"
         y="86.908943"
         sodipodi:role="line"
         id="tspan236">500</tspan></text><path
       d="m 171.285,74.555 h 2.277"
       style="fill:none;stroke:#666666;stroke-width:0.2;stroke-linecap:butt;stroke-linejoin:miter;stroke-miterlimit:3.25;stroke-dasharray:none;stroke-opacity:1"
       id="path240" /><path
       d="m 171.285,65.199 h 2.277"
       style="fill:none;stroke:#666666;stroke-width:0.2;stroke-linecap:butt;stroke-linejoin:miter;stroke-miterlimit:3.25;stroke-dasharray:none;stroke-opacity:1"
       id="path242" /><path
       d="m 171.285,55.848 h 2.277"
       style="fill:none;stroke:#666666;stroke-width:0.2;stroke-linecap:butt;stroke-linejoin:miter;stroke-miterlimit:3.25;stroke-dasharray:none;stroke-opacity:1"
       id="path244" /><path
       d="m 171.285,46.492 h 2.277"
       style="fill:none;stroke:#666666;stroke-width:0.2;stroke-linecap:butt;stroke-linejoin:miter;stroke-miterlimit:3.25;stroke-dasharray:none;stroke-opacity:1"
       id="path246" /><path
       d="m 171.285,37.137 h 3.797"
       style="fill:none;stroke:#666666;stroke-width:0.2;stroke-linecap:butt;stroke-linejoin:miter;stroke-miterlimit:3.25;stroke-dasharray:none;stroke-opacity:1"
       id="path248" /><text
       style="font-variant:normal;font-weight:normal;font-size:14px;font-family:Times;-inkscape-font-specification:Times-Roman;writing-mode:lr-tb;fill:#000000;fill-opacity:1;fill-rule:nonzero;stroke:none"
       id="text252"
       x="140.28571"
       y="40.138168"><tspan
         x="140.28571 147.28571 154.28571 161.28571"
         y="40.138168"
         sodipodi:role="line"
         id="tspan250">1000</tspan></text><path
       d="m 171.285,27.785 h 2.277"
       style="fill:none;stroke:#666666;stroke-width:0.2;stroke-linecap:butt;stroke-linejoin:miter;stroke-miterlimit:3.25;stroke-dasharray:none;stroke-opacity:1"
       id="path254" /><path
       d="M 171.285,218.652 V 20"
       style="fill:none;stroke:#666666;stroke-width:0.2;stroke-linecap:butt;stroke-linejoin:miter;stroke-miterlimit:3.25;stroke-dasharray:none;stroke-opacity:1"
       id="path256" /><text
       style="font-variant:normal;font-weight:normal;font-size:13px;font-family:Mathematica;-inkscape-font-specification:Mathematica;writing-mode:lr-tb;fill:#000000;fill-opacity:1;fill-rule:nonzero;stroke:none"
       id="text260"
       x="159.78571"
       y="10"><tspan
         x="159.78571"
         y="10"
         id="tspan258">$\sigma_{yy}$</tspan></text><text
       xml:space="preserve"
       style="font-size:12px;line-height:1.25;font-family:sans-serif;stroke-width:0.75"
       x="239.03163"
       y="214.92413"
       id="text19875"><tspan
         sodipodi:role="line"
         id="tspan19873"
         style="stroke-width:0.75"
         x="239.03163"
         y="214.92413">$\sigma_y=425 \text{ MPa}$</tspan><tspan
         sodipodi:role="line"
         style="stroke-width:0.75"
         x="239.03163"
         y="229.92413"
         id="tspan19877">$H=1054 \text{ MPa}$</tspan></text></g></svg>
