<?xml version="1.0" encoding="UTF-8" standalone="no"?>
<!-- Created with Inkscape (http://www.inkscape.org/) -->

<svg
   version="1.1"
   id="svg2"
   xml:space="preserve"
   width="480"
   height="293.33334"
   viewBox="0 0 480 293.33334"
   sodipodi:docname="patch_kinematic_tex.svg"
   inkscape:version="1.1.1 (3bf5ae0d25, 2021-09-20)"
   xmlns:inkscape="http://www.inkscape.org/namespaces/inkscape"
   xmlns:sodipodi="http://sodipodi.sourceforge.net/DTD/sodipodi-0.dtd"
   xmlns="http://www.w3.org/2000/svg"
   xmlns:svg="http://www.w3.org/2000/svg"><defs
     id="defs6" /><sodipodi:namedview
     id="namedview4"
     pagecolor="#ffffff"
     bordercolor="#666666"
     borderopacity="1.0"
     inkscape:pageshadow="2"
     inkscape:pageopacity="0.0"
     inkscape:pagecheckerboard="0"
     showgrid="false"
     inkscape:zoom="1.8399508"
     inkscape:cx="312.50836"
     inkscape:cy="199.19011"
     inkscape:window-width="3440"
     inkscape:window-height="1369"
     inkscape:window-x="-8"
     inkscape:window-y="-8"
     inkscape:window-maximized="1"
     inkscape:current-layer="g10" /><g
     id="g8"
     inkscape:groupmode="layer"
     inkscape:label="patch_kinematic"
     transform="matrix(1.3333333,0,0,1.3333333,0,4e-6)"><g
       id="g10"><path
         d="M 0,0 H 360 V 220.078 H 0 Z"
         style="fill:none;stroke:#ffffff;stroke-width:1;stroke-linecap:butt;stroke-linejoin:miter;stroke-miterlimit:10;stroke-dasharray:none;stroke-opacity:1"
         id="path14" /><path
         d="m 171.285,119.328 15.43,-59.937 15.43,-3.274 15.425,-3.273 30.86,-6.547 15.425,-3.274 15.43,-3.273 15.43,-3.27 15.43,-3.273 15.425,-3.273 -15.425,116.601 -46.29,9.82 -15.425,3.27 -30.86,6.547 -15.425,3.273 -46.29,9.821 -15.425,3.273 -15.43,3.27 -15.43,3.273 -15.425,3.273 -46.29,9.821 -15.425,3.273 -15.43,3.274 15.43,-116.606 15.425,-3.269 46.29,-9.821 15.425,-3.273 30.86,-6.547 15.425,-3.273 15.43,-3.27 30.86,-6.547 15.425,-3.273 30.86,-6.547 15.425,-3.274 15.43,-3.273 15.43,-3.27 15.43,-3.273 15.425,-3.273"
         style="fill:none;stroke:#aa0000;stroke-width:1.6;stroke-linecap:square;stroke-linejoin:miter;stroke-miterlimit:3.25;stroke-dasharray:none;stroke-opacity:1"
         id="path16" /><g
         aria-label="●●●●●●●●●●●●●●●●●●●●●●●●●●●●●●●●●●●●●●●●●●●●●●●●●●●"
         transform="translate(167.78571,121.82689)"
         id="text120"
         style="font-size:10px;font-family:MathematicaSans;-inkscape-font-specification:MathematicaSans;fill:#aa0000"><path
           d="m 0.86425781,-2.8125 q 0,-0.8935547 0.62988279,-1.5234375 0.6298828,-0.6298828 1.5234375,-0.6298828 0.8886719,0 1.5185547,0.6298828 0.6298828,0.6298828 0.6298828,1.5234375 0,0.8886719 -0.6298828,1.5185547 -0.6298828,0.6298828 -1.5185547,0.6298828 -0.8935547,0 -1.5234375,-0.6298828 Q 0.86425781,-1.9238281 0.86425781,-2.8125 Z"
           id="path6097" /><path
           d="m 16.292828,-62.750191 q 0,-0.893554 0.629882,-1.523437 0.629883,-0.629883 1.523438,-0.629883 0.888672,0 1.518555,0.629883 0.629882,0.629883 0.629882,1.523437 0,0.888672 -0.629882,1.518555 -0.629883,0.629883 -1.518555,0.629883 -0.893555,0 -1.523438,-0.629883 -0.629882,-0.629883 -0.629882,-1.518555 z"
           id="path6099" /><path
           d="m 31.721397,-66.02314 q 0,-0.893555 0.629883,-1.523437 0.629883,-0.629883 1.523438,-0.629883 0.888672,0 1.518554,0.629883 0.629883,0.629882 0.629883,1.523437 0,0.888672 -0.629883,1.518555 -0.629882,0.629883 -1.518554,0.629883 -0.893555,0 -1.523438,-0.629883 -0.629883,-0.629883 -0.629883,-1.518555 z"
           id="path6101" /><path
           d="m 47.149967,-69.296089 q 0,-0.893555 0.629883,-1.523438 0.629883,-0.629882 1.523438,-0.629882 0.888671,0 1.518554,0.629882 0.629883,0.629883 0.629883,1.523438 0,0.888672 -0.629883,1.518555 -0.629883,0.629882 -1.518554,0.629882 -0.893555,0 -1.523438,-0.629882 -0.629883,-0.629883 -0.629883,-1.518555 z"
           id="path6103" /><path
           d="m 62.578537,-72.569038 q 0,-0.893555 0.629883,-1.523438 0.629883,-0.629883 1.523437,-0.629883 0.888672,0 1.518555,0.629883 0.629883,0.629883 0.629883,1.523438 0,0.888671 -0.629883,1.518554 -0.629883,0.629883 -1.518555,0.629883 -0.893554,0 -1.523437,-0.629883 -0.629883,-0.629883 -0.629883,-1.518554 z"
           id="path6105" /><path
           d="m 78.007111,-75.841988 q 0,-0.893554 0.629882,-1.523437 0.629883,-0.629883 1.523438,-0.629883 0.888672,0 1.518555,0.629883 0.629882,0.629883 0.629882,1.523437 0,0.888672 -0.629882,1.518555 -0.629883,0.629883 -1.518555,0.629883 -0.893555,0 -1.523438,-0.629883 -0.629882,-0.629883 -0.629882,-1.518555 z"
           id="path6107" /><path
           d="m 93.435677,-79.114937 q 0,-0.893555 0.629882,-1.523437 0.629883,-0.629883 1.523438,-0.629883 0.888672,0 1.518555,0.629883 0.629882,0.629882 0.629882,1.523437 0,0.888672 -0.629882,1.518555 -0.629883,0.629883 -1.518555,0.629883 -0.893555,0 -1.523438,-0.629883 -0.629882,-0.629883 -0.629882,-1.518555 z"
           id="path6109" /><path
           d="m 108.86425,-82.387894 q 0,-0.893554 0.62988,-1.523437 0.62989,-0.629883 1.52344,-0.629883 0.88867,0 1.51856,0.629883 0.62988,0.629883 0.62988,1.523437 0,0.888672 -0.62988,1.518555 -0.62989,0.629883 -1.51856,0.629883 -0.89355,0 -1.52344,-0.629883 -0.62988,-0.629883 -0.62988,-1.518555 z"
           id="path6111" /><path
           d="m 124.29282,-85.660843 q 0,-0.893555 0.62988,-1.523437 0.62988,-0.629883 1.52344,-0.629883 0.88867,0 1.51855,0.629883 0.62988,0.629882 0.62988,1.523437 0,0.888672 -0.62988,1.518555 -0.62988,0.629883 -1.51855,0.629883 -0.89356,0 -1.52344,-0.629883 -0.62988,-0.629883 -0.62988,-1.518555 z"
           id="path6113" /><path
           d="m 139.72139,-88.933792 q 0,-0.893555 0.62988,-1.523438 0.62989,-0.629882 1.52344,-0.629882 0.88867,0 1.51855,0.629882 0.62989,0.629883 0.62989,1.523438 0,0.888672 -0.62989,1.518555 -0.62988,0.629882 -1.51855,0.629882 -0.89355,0 -1.52344,-0.629882 -0.62988,-0.629883 -0.62988,-1.518555 z"
           id="path6115" /><path
           d="m 155.14996,-92.206741 q 0,-0.893555 0.62989,-1.523438 0.62988,-0.629883 1.52343,-0.629883 0.88868,0 1.51856,0.629883 0.62988,0.629883 0.62988,1.523438 0,0.888672 -0.62988,1.518554 -0.62988,0.629883 -1.51856,0.629883 -0.89355,0 -1.52343,-0.629883 -0.62989,-0.629882 -0.62989,-1.518554 z"
           id="path6117" /><path
           d="m 139.72139,24.395691 q 0,-0.893555 0.62988,-1.523438 0.62989,-0.629882 1.52344,-0.629882 0.88867,0 1.51855,0.629882 0.62989,0.629883 0.62989,1.523438 0,0.888672 -0.62989,1.518555 -0.62988,0.629882 -1.51855,0.629882 -0.89355,0 -1.52344,-0.629882 -0.62988,-0.629883 -0.62988,-1.518555 z"
           id="path6119" /><path
           d="m 124.29282,27.66864 q 0,-0.893555 0.62988,-1.523437 0.62988,-0.629883 1.52344,-0.629883 0.88867,0 1.51855,0.629883 0.62988,0.629882 0.62988,1.523437 0,0.888672 -0.62988,1.518555 -0.62988,0.629883 -1.51855,0.629883 -0.89356,0 -1.52344,-0.629883 -0.62988,-0.629883 -0.62988,-1.518555 z"
           id="path6121" /><path
           d="m 108.86425,30.941589 q 0,-0.893554 0.62988,-1.523437 0.62989,-0.629883 1.52344,-0.629883 0.88867,0 1.51856,0.629883 0.62988,0.629883 0.62988,1.523437 0,0.888672 -0.62988,1.518555 -0.62989,0.629883 -1.51856,0.629883 -0.89355,0 -1.52344,-0.629883 -0.62988,-0.629883 -0.62988,-1.518555 z"
           id="path6123" /><path
           d="m 93.435677,34.214539 q 0,-0.893555 0.629882,-1.523438 0.629883,-0.629883 1.523438,-0.629883 0.888672,0 1.518555,0.629883 0.629882,0.629883 0.629882,1.523438 0,0.888671 -0.629882,1.518554 -0.629883,0.629883 -1.518555,0.629883 -0.893555,0 -1.523438,-0.629883 -0.629882,-0.629883 -0.629882,-1.518554 z"
           id="path6125" /><path
           d="m 78.007111,37.487492 q 0,-0.893555 0.629882,-1.523438 0.629883,-0.629883 1.523438,-0.629883 0.888672,0 1.518555,0.629883 0.629882,0.629883 0.629882,1.523438 0,0.888671 -0.629882,1.518554 -0.629883,0.629883 -1.518555,0.629883 -0.893555,0 -1.523438,-0.629883 -0.629882,-0.629883 -0.629882,-1.518554 z"
           id="path6127" /><path
           d="m 62.578537,40.760441 q 0,-0.893555 0.629883,-1.523438 0.629883,-0.629882 1.523437,-0.629882 0.888672,0 1.518555,0.629882 0.629883,0.629883 0.629883,1.523438 0,0.888672 -0.629883,1.518555 -0.629883,0.629882 -1.518555,0.629882 -0.893554,0 -1.523437,-0.629882 -0.629883,-0.629883 -0.629883,-1.518555 z"
           id="path6129" /><path
           d="m 47.149967,44.03339 q 0,-0.893555 0.629883,-1.523437 0.629883,-0.629883 1.523438,-0.629883 0.888671,0 1.518554,0.629883 0.629883,0.629882 0.629883,1.523437 0,0.888672 -0.629883,1.518555 -0.629883,0.629883 -1.518554,0.629883 -0.893555,0 -1.523438,-0.629883 -0.629883,-0.629883 -0.629883,-1.518555 z"
           id="path6131" /><path
           d="m 31.721397,47.306339 q 0,-0.893554 0.629883,-1.523437 0.629883,-0.629883 1.523438,-0.629883 0.888672,0 1.518554,0.629883 0.629883,0.629883 0.629883,1.523437 0,0.888672 -0.629883,1.518555 -0.629882,0.629883 -1.518554,0.629883 -0.893555,0 -1.523438,-0.629883 -0.629883,-0.629883 -0.629883,-1.518555 z"
           id="path6133" /><path
           d="m 16.292828,50.579288 q 0,-0.893554 0.629882,-1.523437 0.629883,-0.629883 1.523438,-0.629883 0.888672,0 1.518555,0.629883 0.629882,0.629883 0.629882,1.523437 0,0.888672 -0.629882,1.518555 -0.629883,0.629883 -1.518555,0.629883 -0.893555,0 -1.523438,-0.629883 -0.629882,-0.629883 -0.629882,-1.518555 z"
           id="path6135" /><path
           d="m 0.86425781,53.852242 q 0,-0.893555 0.62988279,-1.523438 0.6298828,-0.629883 1.5234375,-0.629883 0.8886719,0 1.5185547,0.629883 0.6298828,0.629883 0.6298828,1.523438 0,0.888671 -0.6298828,1.518554 -0.6298828,0.629883 -1.5185547,0.629883 -0.8935547,0 -1.5234375,-0.629883 -0.62988279,-0.629883 -0.62988279,-1.518554 z"
           id="path6137" /><path
           d="m -14.564312,57.125191 q 0,-0.893555 0.629883,-1.523438 0.629883,-0.629883 1.523437,-0.629883 0.888672,0 1.518555,0.629883 0.629883,0.629883 0.629883,1.523438 0,0.888672 -0.629883,1.518554 -0.629883,0.629883 -1.518555,0.629883 -0.893554,0 -1.523437,-0.629883 -0.629883,-0.629882 -0.629883,-1.518554 z"
           id="path6139" /><path
           d="m -29.992882,60.39814 q 0,-0.893555 0.629883,-1.523438 0.629883,-0.629882 1.523438,-0.629882 0.888671,0 1.518554,0.629882 0.629883,0.629883 0.629883,1.523438 0,0.888672 -0.629883,1.518555 -0.629883,0.629882 -1.518554,0.629882 -0.893555,0 -1.523438,-0.629882 -0.629883,-0.629883 -0.629883,-1.518555 z"
           id="path6141" /><path
           d="m -45.421452,63.671089 q 0,-0.893555 0.629883,-1.523437 0.629883,-0.629883 1.523438,-0.629883 0.888672,0 1.518554,0.629883 0.629883,0.629882 0.629883,1.523437 0,0.888672 -0.629883,1.518555 -0.629882,0.629883 -1.518554,0.629883 -0.893555,0 -1.523438,-0.629883 -0.629883,-0.629883 -0.629883,-1.518555 z"
           id="path6143" /><path
           d="m -60.850021,66.944038 q 0,-0.893554 0.629882,-1.523437 0.629883,-0.629883 1.523438,-0.629883 0.888672,0 1.518555,0.629883 0.629882,0.629883 0.629882,1.523437 0,0.888672 -0.629882,1.518555 -0.629883,0.629883 -1.518555,0.629883 -0.893555,0 -1.523438,-0.629883 -0.629882,-0.629883 -0.629882,-1.518555 z"
           id="path6145" /><path
           d="m -76.278595,70.216988 q 0,-0.893555 0.629883,-1.523438 0.629883,-0.629883 1.523437,-0.629883 0.888672,0 1.518555,0.629883 0.629883,0.629883 0.629883,1.523438 0,0.888671 -0.629883,1.518554 -0.629883,0.629883 -1.518555,0.629883 -0.893554,0 -1.523437,-0.629883 -0.629883,-0.629883 -0.629883,-1.518554 z"
           id="path6147" /><path
           d="m -91.707161,73.489937 q 0,-0.893555 0.629883,-1.523438 0.629883,-0.629882 1.523437,-0.629882 0.888672,0 1.518555,0.629882 0.629883,0.629883 0.629883,1.523438 0,0.888672 -0.629883,1.518555 -0.629883,0.629882 -1.518555,0.629882 -0.893554,0 -1.523437,-0.629882 -0.629883,-0.629883 -0.629883,-1.518555 z"
           id="path6149" /><path
           d="m -107.13573,76.762894 q 0,-0.893555 0.62988,-1.523438 0.62988,-0.629883 1.52344,-0.629883 0.88867,0 1.51855,0.629883 0.62988,0.629883 0.62988,1.523438 0,0.888672 -0.62988,1.518554 -0.62988,0.629883 -1.51855,0.629883 -0.89356,0 -1.52344,-0.629883 -0.62988,-0.629882 -0.62988,-1.518554 z"
           id="path6151" /><path
           d="m -122.5643,80.035843 q 0,-0.893555 0.62988,-1.523438 0.62989,-0.629882 1.52344,-0.629882 0.88867,0 1.51855,0.629882 0.62989,0.629883 0.62989,1.523438 0,0.888672 -0.62989,1.518555 -0.62988,0.629882 -1.51855,0.629882 -0.89355,0 -1.52344,-0.629882 -0.62988,-0.629883 -0.62988,-1.518555 z"
           id="path6153" /><path
           d="m -137.99287,83.308792 q 0,-0.893555 0.62988,-1.523437 0.62988,-0.629883 1.52344,-0.629883 0.88867,0 1.51855,0.629883 0.62988,0.629882 0.62988,1.523437 0,0.888672 -0.62988,1.518555 -0.62988,0.629883 -1.51855,0.629883 -0.89356,0 -1.52344,-0.629883 -0.62988,-0.629883 -0.62988,-1.518555 z"
           id="path6155" /><path
           d="m -153.42145,86.581741 q 0,-0.893554 0.62989,-1.523437 0.62988,-0.629883 1.52343,-0.629883 0.88867,0 1.51856,0.629883 0.62988,0.629883 0.62988,1.523437 0,0.888672 -0.62988,1.518555 -0.62989,0.629883 -1.51856,0.629883 -0.89355,0 -1.52343,-0.629883 -0.62989,-0.629883 -0.62989,-1.518555 z"
           id="path6157" /><path
           d="m -137.99287,-30.020691 q 0,-0.893555 0.62988,-1.523437 0.62988,-0.629883 1.52344,-0.629883 0.88867,0 1.51855,0.629883 0.62988,0.629882 0.62988,1.523437 0,0.888672 -0.62988,1.518555 -0.62988,0.629883 -1.51855,0.629883 -0.89356,0 -1.52344,-0.629883 -0.62988,-0.629883 -0.62988,-1.518555 z"
           id="path6159" /><path
           d="m -122.5643,-33.29364 q 0,-0.893555 0.62988,-1.523438 0.62989,-0.629882 1.52344,-0.629882 0.88867,0 1.51855,0.629882 0.62989,0.629883 0.62989,1.523438 0,0.888672 -0.62989,1.518555 -0.62988,0.629882 -1.51855,0.629882 -0.89355,0 -1.52344,-0.629882 -0.62988,-0.629883 -0.62988,-1.518555 z"
           id="path6161" /><path
           d="m -107.13573,-36.566589 q 0,-0.893555 0.62988,-1.523438 0.62988,-0.629883 1.52344,-0.629883 0.88867,0 1.51855,0.629883 0.62988,0.629883 0.62988,1.523438 0,0.888672 -0.62988,1.518554 -0.62988,0.629883 -1.51855,0.629883 -0.89356,0 -1.52344,-0.629883 -0.62988,-0.629882 -0.62988,-1.518554 z"
           id="path6163" /><path
           d="m -91.707161,-39.839539 q 0,-0.893554 0.629883,-1.523437 0.629883,-0.629883 1.523437,-0.629883 0.888672,0 1.518555,0.629883 0.629883,0.629883 0.629883,1.523437 0,0.888672 -0.629883,1.518555 -0.629883,0.629883 -1.518555,0.629883 -0.893554,0 -1.523437,-0.629883 -0.629883,-0.629883 -0.629883,-1.518555 z"
           id="path6165" /><path
           d="m -76.278595,-43.112492 q 0,-0.893554 0.629883,-1.523437 0.629883,-0.629883 1.523437,-0.629883 0.888672,0 1.518555,0.629883 0.629883,0.629883 0.629883,1.523437 0,0.888672 -0.629883,1.518555 -0.629883,0.629883 -1.518555,0.629883 -0.893554,0 -1.523437,-0.629883 -0.629883,-0.629883 -0.629883,-1.518555 z"
           id="path6167" /><path
           d="m -60.850021,-46.385441 q 0,-0.893555 0.629882,-1.523437 0.629883,-0.629883 1.523438,-0.629883 0.888672,0 1.518555,0.629883 0.629882,0.629882 0.629882,1.523437 0,0.888672 -0.629882,1.518555 -0.629883,0.629883 -1.518555,0.629883 -0.893555,0 -1.523438,-0.629883 -0.629882,-0.629883 -0.629882,-1.518555 z"
           id="path6169" /><path
           d="m -45.421452,-49.65839 q 0,-0.893555 0.629883,-1.523438 0.629883,-0.629882 1.523438,-0.629882 0.888672,0 1.518554,0.629882 0.629883,0.629883 0.629883,1.523438 0,0.888672 -0.629883,1.518555 -0.629882,0.629882 -1.518554,0.629882 -0.893555,0 -1.523438,-0.629882 -0.629883,-0.629883 -0.629883,-1.518555 z"
           id="path6171" /><path
           d="m -29.992882,-52.931339 q 0,-0.893555 0.629883,-1.523438 0.629883,-0.629883 1.523438,-0.629883 0.888671,0 1.518554,0.629883 0.629883,0.629883 0.629883,1.523438 0,0.888672 -0.629883,1.518554 -0.629883,0.629883 -1.518554,0.629883 -0.893555,0 -1.523438,-0.629883 -0.629883,-0.629882 -0.629883,-1.518554 z"
           id="path6173" /><path
           d="m -14.564312,-56.204288 q 0,-0.893555 0.629883,-1.523438 0.629883,-0.629883 1.523437,-0.629883 0.888672,0 1.518555,0.629883 0.629883,0.629883 0.629883,1.523438 0,0.888671 -0.629883,1.518554 -0.629883,0.629883 -1.518555,0.629883 -0.893554,0 -1.523437,-0.629883 -0.629883,-0.629883 -0.629883,-1.518554 z"
           id="path6175" /><path
           d="m 0.86425781,-59.477242 q 0,-0.893554 0.62988279,-1.523437 0.6298828,-0.629883 1.5234375,-0.629883 0.8886719,0 1.5185547,0.629883 0.6298828,0.629883 0.6298828,1.523437 0,0.888672 -0.6298828,1.518555 -0.6298828,0.629883 -1.5185547,0.629883 -0.8935547,0 -1.5234375,-0.629883 -0.62988279,-0.629883 -0.62988279,-1.518555 z"
           id="path6177" /><path
           d="m 16.292828,-62.750191 q 0,-0.893554 0.629882,-1.523437 0.629883,-0.629883 1.523438,-0.629883 0.888672,0 1.518555,0.629883 0.629882,0.629883 0.629882,1.523437 0,0.888672 -0.629882,1.518555 -0.629883,0.629883 -1.518555,0.629883 -0.893555,0 -1.523438,-0.629883 -0.629882,-0.629883 -0.629882,-1.518555 z"
           id="path6179" /><path
           d="m 31.721397,-66.02314 q 0,-0.893555 0.629883,-1.523437 0.629883,-0.629883 1.523438,-0.629883 0.888672,0 1.518554,0.629883 0.629883,0.629882 0.629883,1.523437 0,0.888672 -0.629883,1.518555 -0.629882,0.629883 -1.518554,0.629883 -0.893555,0 -1.523438,-0.629883 -0.629883,-0.629883 -0.629883,-1.518555 z"
           id="path6181" /><path
           d="m 47.149967,-69.296089 q 0,-0.893555 0.629883,-1.523438 0.629883,-0.629882 1.523438,-0.629882 0.888671,0 1.518554,0.629882 0.629883,0.629883 0.629883,1.523438 0,0.888672 -0.629883,1.518555 -0.629883,0.629882 -1.518554,0.629882 -0.893555,0 -1.523438,-0.629882 -0.629883,-0.629883 -0.629883,-1.518555 z"
           id="path6183" /><path
           d="m 62.578537,-72.569038 q 0,-0.893555 0.629883,-1.523438 0.629883,-0.629883 1.523437,-0.629883 0.888672,0 1.518555,0.629883 0.629883,0.629883 0.629883,1.523438 0,0.888671 -0.629883,1.518554 -0.629883,0.629883 -1.518555,0.629883 -0.893554,0 -1.523437,-0.629883 -0.629883,-0.629883 -0.629883,-1.518554 z"
           id="path6185" /><path
           d="m 78.007111,-75.841988 q 0,-0.893554 0.629882,-1.523437 0.629883,-0.629883 1.523438,-0.629883 0.888672,0 1.518555,0.629883 0.629882,0.629883 0.629882,1.523437 0,0.888672 -0.629882,1.518555 -0.629883,0.629883 -1.518555,0.629883 -0.893555,0 -1.523438,-0.629883 -0.629882,-0.629883 -0.629882,-1.518555 z"
           id="path6187" /><path
           d="m 93.435677,-79.114937 q 0,-0.893555 0.629882,-1.523437 0.629883,-0.629883 1.523438,-0.629883 0.888672,0 1.518555,0.629883 0.629882,0.629882 0.629882,1.523437 0,0.888672 -0.629882,1.518555 -0.629883,0.629883 -1.518555,0.629883 -0.893555,0 -1.523438,-0.629883 -0.629882,-0.629883 -0.629882,-1.518555 z"
           id="path6189" /><path
           d="m 108.86425,-82.387894 q 0,-0.893554 0.62988,-1.523437 0.62989,-0.629883 1.52344,-0.629883 0.88867,0 1.51856,0.629883 0.62988,0.629883 0.62988,1.523437 0,0.888672 -0.62988,1.518555 -0.62989,0.629883 -1.51856,0.629883 -0.89355,0 -1.52344,-0.629883 -0.62988,-0.629883 -0.62988,-1.518555 z"
           id="path6191" /><path
           d="m 124.29282,-85.660843 q 0,-0.893555 0.62988,-1.523437 0.62988,-0.629883 1.52344,-0.629883 0.88867,0 1.51855,0.629883 0.62988,0.629882 0.62988,1.523437 0,0.888672 -0.62988,1.518555 -0.62988,0.629883 -1.51855,0.629883 -0.89356,0 -1.52344,-0.629883 -0.62988,-0.629883 -0.62988,-1.518555 z"
           id="path6193" /><path
           d="m 139.72139,-88.933792 q 0,-0.893555 0.62988,-1.523438 0.62989,-0.629882 1.52344,-0.629882 0.88867,0 1.51855,0.629882 0.62989,0.629883 0.62989,1.523438 0,0.888672 -0.62989,1.518555 -0.62988,0.629882 -1.51855,0.629882 -0.89355,0 -1.52344,-0.629882 -0.62988,-0.629883 -0.62988,-1.518555 z"
           id="path6195" /><path
           d="m 155.14996,-92.206741 q 0,-0.893555 0.62989,-1.523438 0.62988,-0.629883 1.52343,-0.629883 0.88868,0 1.51856,0.629883 0.62988,0.629883 0.62988,1.523438 0,0.888672 -0.62988,1.518554 -0.62988,0.629883 -1.51856,0.629883 -0.89355,0 -1.52343,-0.629883 -0.62989,-0.629882 -0.62989,-1.518554 z"
           id="path6197" /></g><path
         d="m 17,119.328 v -3.812"
         style="fill:none;stroke:#666666;stroke-width:0.2;stroke-linecap:butt;stroke-linejoin:miter;stroke-miterlimit:3.25;stroke-dasharray:none;stroke-opacity:1"
         id="path122" /><path
         d="m 32.43,119.328 v -2.289"
         style="fill:none;stroke:#666666;stroke-width:0.2;stroke-linecap:butt;stroke-linejoin:miter;stroke-miterlimit:3.25;stroke-dasharray:none;stroke-opacity:1"
         id="path132" /><path
         d="m 47.855,119.328 v -2.289"
         style="fill:none;stroke:#666666;stroke-width:0.2;stroke-linecap:butt;stroke-linejoin:miter;stroke-miterlimit:3.25;stroke-dasharray:none;stroke-opacity:1"
         id="path134" /><path
         d="m 63.285,119.328 v -2.289"
         style="fill:none;stroke:#666666;stroke-width:0.2;stroke-linecap:butt;stroke-linejoin:miter;stroke-miterlimit:3.25;stroke-dasharray:none;stroke-opacity:1"
         id="path136" /><path
         d="m 78.715,119.328 v -2.289"
         style="fill:none;stroke:#666666;stroke-width:0.2;stroke-linecap:butt;stroke-linejoin:miter;stroke-miterlimit:3.25;stroke-dasharray:none;stroke-opacity:1"
         id="path138" /><path
         d="m 94.145,119.328 v -3.812"
         style="fill:none;stroke:#666666;stroke-width:0.2;stroke-linecap:butt;stroke-linejoin:miter;stroke-miterlimit:3.25;stroke-dasharray:none;stroke-opacity:1"
         id="path140" /><path
         d="m 109.57,119.328 v -2.289"
         style="fill:none;stroke:#666666;stroke-width:0.2;stroke-linecap:butt;stroke-linejoin:miter;stroke-miterlimit:3.25;stroke-dasharray:none;stroke-opacity:1"
         id="path150" /><path
         d="m 125,119.328 v -2.289"
         style="fill:none;stroke:#666666;stroke-width:0.2;stroke-linecap:butt;stroke-linejoin:miter;stroke-miterlimit:3.25;stroke-dasharray:none;stroke-opacity:1"
         id="path152" /><path
         d="m 140.43,119.328 v -2.289"
         style="fill:none;stroke:#666666;stroke-width:0.2;stroke-linecap:butt;stroke-linejoin:miter;stroke-miterlimit:3.25;stroke-dasharray:none;stroke-opacity:1"
         id="path154" /><path
         d="m 155.855,119.328 v -2.289"
         style="fill:none;stroke:#666666;stroke-width:0.2;stroke-linecap:butt;stroke-linejoin:miter;stroke-miterlimit:3.25;stroke-dasharray:none;stroke-opacity:1"
         id="path156" /><path
         d="m 171.285,119.328 v -3.812"
         style="fill:none;stroke:#666666;stroke-width:0.2;stroke-linecap:butt;stroke-linejoin:miter;stroke-miterlimit:3.25;stroke-dasharray:none;stroke-opacity:1"
         id="path158" /><path
         d="m 186.715,119.328 v -2.289"
         style="fill:none;stroke:#666666;stroke-width:0.2;stroke-linecap:butt;stroke-linejoin:miter;stroke-miterlimit:3.25;stroke-dasharray:none;stroke-opacity:1"
         id="path160" /><path
         d="m 202.145,119.328 v -2.289"
         style="fill:none;stroke:#666666;stroke-width:0.2;stroke-linecap:butt;stroke-linejoin:miter;stroke-miterlimit:3.25;stroke-dasharray:none;stroke-opacity:1"
         id="path162" /><path
         d="m 217.57,119.328 v -2.289"
         style="fill:none;stroke:#666666;stroke-width:0.2;stroke-linecap:butt;stroke-linejoin:miter;stroke-miterlimit:3.25;stroke-dasharray:none;stroke-opacity:1"
         id="path164" /><path
         d="m 233,119.328 v -2.289"
         style="fill:none;stroke:#666666;stroke-width:0.2;stroke-linecap:butt;stroke-linejoin:miter;stroke-miterlimit:3.25;stroke-dasharray:none;stroke-opacity:1"
         id="path166" /><path
         d="m 248.43,119.328 v -3.812"
         style="fill:none;stroke:#666666;stroke-width:0.2;stroke-linecap:butt;stroke-linejoin:miter;stroke-miterlimit:3.25;stroke-dasharray:none;stroke-opacity:1"
         id="path168" /><path
         d="m 263.855,119.328 v -2.289"
         style="fill:none;stroke:#666666;stroke-width:0.2;stroke-linecap:butt;stroke-linejoin:miter;stroke-miterlimit:3.25;stroke-dasharray:none;stroke-opacity:1"
         id="path174" /><path
         d="m 279.285,119.328 v -2.289"
         style="fill:none;stroke:#666666;stroke-width:0.2;stroke-linecap:butt;stroke-linejoin:miter;stroke-miterlimit:3.25;stroke-dasharray:none;stroke-opacity:1"
         id="path176" /><path
         d="m 294.715,119.328 v -2.289"
         style="fill:none;stroke:#666666;stroke-width:0.2;stroke-linecap:butt;stroke-linejoin:miter;stroke-miterlimit:3.25;stroke-dasharray:none;stroke-opacity:1"
         id="path178" /><path
         d="m 310.145,119.328 v -2.289"
         style="fill:none;stroke:#666666;stroke-width:0.2;stroke-linecap:butt;stroke-linejoin:miter;stroke-miterlimit:3.25;stroke-dasharray:none;stroke-opacity:1"
         id="path180" /><path
         d="m 325.57,119.328 v -3.812"
         style="fill:none;stroke:#666666;stroke-width:0.2;stroke-linecap:butt;stroke-linejoin:miter;stroke-miterlimit:3.25;stroke-dasharray:none;stroke-opacity:1"
         id="path182" /><path
         d="M 10.57,119.328 H 332"
         style="fill:none;stroke:#666666;stroke-width:0.2;stroke-linecap:butt;stroke-linejoin:miter;stroke-miterlimit:3.25;stroke-dasharray:none;stroke-opacity:1"
         id="path188" /><text
         style="font-variant:normal;font-weight:normal;font-size:13px;font-family:Mathematica;-inkscape-font-specification:Mathematica;writing-mode:lr-tb;fill:#000000;fill-opacity:1;fill-rule:nonzero;stroke:none"
         id="text192"
         x="340"
         y="118.65831"><tspan
           x="340"
           y="118.65831"
           id="tspan190">$\varepsilon_{yy}$</tspan></text><path
         d="m 171.285,215.254 h 2.289"
         style="fill:none;stroke:#666666;stroke-width:0.2;stroke-linecap:butt;stroke-linejoin:miter;stroke-miterlimit:3.25;stroke-dasharray:none;stroke-opacity:1"
         id="path198" /><path
         d="m 171.285,206.531 h 2.289"
         style="fill:none;stroke:#666666;stroke-width:0.2;stroke-linecap:butt;stroke-linejoin:miter;stroke-miterlimit:3.25;stroke-dasharray:none;stroke-opacity:1"
         id="path200" /><path
         d="m 171.285,197.812 h 2.289"
         style="fill:none;stroke:#666666;stroke-width:0.2;stroke-linecap:butt;stroke-linejoin:miter;stroke-miterlimit:3.25;stroke-dasharray:none;stroke-opacity:1"
         id="path202" /><path
         d="m 171.285,189.09 h 3.813"
         style="fill:none;stroke:#666666;stroke-width:0.2;stroke-linecap:butt;stroke-linejoin:miter;stroke-miterlimit:3.25;stroke-dasharray:none;stroke-opacity:1"
         id="path204" /><path
         d="m 171.285,180.371 h 2.289"
         style="fill:none;stroke:#666666;stroke-width:0.2;stroke-linecap:butt;stroke-linejoin:miter;stroke-miterlimit:3.25;stroke-dasharray:none;stroke-opacity:1"
         id="path214" /><path
         d="m 171.285,171.648 h 2.289"
         style="fill:none;stroke:#666666;stroke-width:0.2;stroke-linecap:butt;stroke-linejoin:miter;stroke-miterlimit:3.25;stroke-dasharray:none;stroke-opacity:1"
         id="path216" /><path
         d="m 171.285,162.93 h 2.289"
         style="fill:none;stroke:#666666;stroke-width:0.2;stroke-linecap:butt;stroke-linejoin:miter;stroke-miterlimit:3.25;stroke-dasharray:none;stroke-opacity:1"
         id="path218" /><path
         d="m 171.285,154.211 h 3.813"
         style="fill:none;stroke:#666666;stroke-width:0.2;stroke-linecap:butt;stroke-linejoin:miter;stroke-miterlimit:3.25;stroke-dasharray:none;stroke-opacity:1"
         id="path220" /><path
         d="m 171.285,145.488 h 2.289"
         style="fill:none;stroke:#666666;stroke-width:0.2;stroke-linecap:butt;stroke-linejoin:miter;stroke-miterlimit:3.25;stroke-dasharray:none;stroke-opacity:1"
         id="path230" /><path
         d="m 171.285,136.77 h 2.289"
         style="fill:none;stroke:#666666;stroke-width:0.2;stroke-linecap:butt;stroke-linejoin:miter;stroke-miterlimit:3.25;stroke-dasharray:none;stroke-opacity:1"
         id="path232" /><path
         d="m 170.46976,131.91939 h 2.289"
         style="fill:none;stroke:#666666;stroke-width:0.2;stroke-linecap:butt;stroke-linejoin:miter;stroke-miterlimit:3.25;stroke-dasharray:none;stroke-opacity:1"
         id="path234" /><path
         d="m 171.285,119.328 h 3.813"
         style="fill:none;stroke:#666666;stroke-width:0.2;stroke-linecap:butt;stroke-linejoin:miter;stroke-miterlimit:3.25;stroke-dasharray:none;stroke-opacity:1"
         id="path236" /><path
         d="m 171.285,110.605 h 2.289"
         style="fill:none;stroke:#666666;stroke-width:0.2;stroke-linecap:butt;stroke-linejoin:miter;stroke-miterlimit:3.25;stroke-dasharray:none;stroke-opacity:1"
         id="path238" /><path
         d="m 171.285,101.887 h 2.289"
         style="fill:none;stroke:#666666;stroke-width:0.2;stroke-linecap:butt;stroke-linejoin:miter;stroke-miterlimit:3.25;stroke-dasharray:none;stroke-opacity:1"
         id="path240" /><path
         d="m 171.285,93.164 h 2.289"
         style="fill:none;stroke:#666666;stroke-width:0.2;stroke-linecap:butt;stroke-linejoin:miter;stroke-miterlimit:3.25;stroke-dasharray:none;stroke-opacity:1"
         id="path242" /><path
         d="m 171.285,84.445 h 3.813"
         style="fill:none;stroke:#666666;stroke-width:0.2;stroke-linecap:butt;stroke-linejoin:miter;stroke-miterlimit:3.25;stroke-dasharray:none;stroke-opacity:1"
         id="path244" /><path
         d="m 171.285,75.723 h 2.289"
         style="fill:none;stroke:#666666;stroke-width:0.2;stroke-linecap:butt;stroke-linejoin:miter;stroke-miterlimit:3.25;stroke-dasharray:none;stroke-opacity:1"
         id="path250" /><path
         d="m 171.285,67.004 h 2.289"
         style="fill:none;stroke:#666666;stroke-width:0.2;stroke-linecap:butt;stroke-linejoin:miter;stroke-miterlimit:3.25;stroke-dasharray:none;stroke-opacity:1"
         id="path252" /><path
         d="m 171.285,58.281 h 2.289"
         style="fill:none;stroke:#666666;stroke-width:0.2;stroke-linecap:butt;stroke-linejoin:miter;stroke-miterlimit:3.25;stroke-dasharray:none;stroke-opacity:1"
         id="path254" /><path
         d="m 171.285,49.562 h 3.813"
         style="fill:none;stroke:#666666;stroke-width:0.2;stroke-linecap:butt;stroke-linejoin:miter;stroke-miterlimit:3.25;stroke-dasharray:none;stroke-opacity:1"
         id="path256" /><text
         style="font-variant:normal;font-weight:normal;font-size:14px;font-family:Times;-inkscape-font-specification:Times-Roman;writing-mode:lr-tb;fill:#000000;fill-opacity:1;fill-rule:nonzero;stroke:none"
         id="text260"
         transform="translate(147.28571,52.562529)"><tspan
           x="0 7 14"
           y="0"
           sodipodi:role="line"
           id="tspan258">400</tspan></text><path
         d="m 171.285,40.844 h 2.289"
         style="fill:none;stroke:#666666;stroke-width:0.2;stroke-linecap:butt;stroke-linejoin:miter;stroke-miterlimit:3.25;stroke-dasharray:none;stroke-opacity:1"
         id="path262" /><path
         d="m 171.285,32.121 h 2.289"
         style="fill:none;stroke:#666666;stroke-width:0.2;stroke-linecap:butt;stroke-linejoin:miter;stroke-miterlimit:3.25;stroke-dasharray:none;stroke-opacity:1"
         id="path264" /><path
         d="m 171.285,23.402 h 2.289"
         style="fill:none;stroke:#666666;stroke-width:0.2;stroke-linecap:butt;stroke-linejoin:miter;stroke-miterlimit:3.25;stroke-dasharray:none;stroke-opacity:1"
         id="path266" /><path
         d="M 171.285,223.54344 V 8.5866509"
         style="fill:none;stroke:#666666;stroke-width:0.208045;stroke-linecap:butt;stroke-linejoin:miter;stroke-miterlimit:3.25;stroke-dasharray:none;stroke-opacity:1"
         id="path268" /><text
         style="font-variant:normal;font-weight:normal;font-size:13px;font-family:Mathematica;-inkscape-font-specification:Mathematica;writing-mode:lr-tb;fill:#000000;fill-opacity:1;fill-rule:nonzero;stroke:none"
         id="text272"
         x="163.04668"
         y="-12.419079"><tspan
           x="163.04668"
           y="-12.419079"
           id="tspan270">$\sigma_{yy}$</tspan></text></g></g></svg>
