<?xml version="1.0" encoding="UTF-8" standalone="no"?>
<!-- Created with Inkscape (http://www.inkscape.org/) -->

<svg
   version="1.1"
   id="svg2"
   xml:space="preserve"
   width="466.66666"
   height="317.33334"
   viewBox="0 0 466.66666 317.33334"
   sodipodi:docname="plate_isotropic_tex.svg"
   inkscape:version="1.1.1 (3bf5ae0d25, 2021-09-20)"
   xmlns:inkscape="http://www.inkscape.org/namespaces/inkscape"
   xmlns:sodipodi="http://sodipodi.sourceforge.net/DTD/sodipodi-0.dtd"
   xmlns="http://www.w3.org/2000/svg"
   xmlns:svg="http://www.w3.org/2000/svg"><defs
     id="defs6"><clipPath
       clipPathUnits="userSpaceOnUse"
       id="clipPath136"><path
         d="m 269,98 h 2 v 7.359 h -2 z"
         id="path134" /></clipPath><clipPath
       clipPathUnits="userSpaceOnUse"
       id="clipPath146"><path
         d="m 269,88.32 h 2 V 96 h -2 z"
         id="path144" /></clipPath><clipPath
       clipPathUnits="userSpaceOnUse"
       id="clipPath156"><path
         d="M 261.121,96 H 268 v 2 h -6.879 z"
         id="path154" /></clipPath><clipPath
       clipPathUnits="userSpaceOnUse"
       id="clipPath166"><path
         d="m 271,96 h 7.16 v 2 H 271 Z"
         id="path164" /></clipPath></defs><sodipodi:namedview
     id="namedview4"
     pagecolor="#ffffff"
     bordercolor="#666666"
     borderopacity="1.0"
     inkscape:pageshadow="2"
     inkscape:pageopacity="0.0"
     inkscape:pagecheckerboard="0"
     showgrid="false"
     inkscape:zoom="2.6571429"
     inkscape:cx="48.172042"
     inkscape:cy="181.20967"
     inkscape:window-width="3440"
     inkscape:window-height="1369"
     inkscape:window-x="-8"
     inkscape:window-y="-8"
     inkscape:window-maximized="1"
     inkscape:current-layer="g8" /><g
     id="g8"
     inkscape:groupmode="layer"
     inkscape:label="plate_isotropic"
     transform="matrix(1.3333333,0,0,1.3333333,0,4.6e-6)"><path
       d="M 0,0 H 350.16 V 238.078 H 0 Z"
       style="fill:none;stroke:#ffffff;stroke-width:1;stroke-linecap:butt;stroke-linejoin:miter;stroke-miterlimit:10;stroke-dasharray:none;stroke-opacity:1"
       id="path14" /><path
       d="m 39.988,208.246 4.684,-0.558 4.687,-0.571 4.688,-0.605 4.683,-0.68 4.688,-0.855 4.687,-1.344 4.688,-8.371 4.684,-41.676 4.687,-59.488 0.148,0.015 0.286,0.035 0.57,0.067 1.141,0.137 2.253,0.265 4.461,0.531 4.688,0.555 4.687,0.559 4.684,0.554 14.063,1.664 4.683,0.555 4.688,0.555 4.687,0.551 4.688,0.554 4.683,0.563 4.688,0.574 4.687,0.606 4.684,0.695 4.687,0.84 4.688,1.109 4.687,1.914 4.684,6.852 1.172,-0.02 2.289,-0.269 4.57,-0.543 4.684,-0.559 4.687,-0.559 4.688,-0.554 4.683,-0.559 4.688,-0.555 4.687,-0.558 4.688,-0.555 4.683,-0.558 4.688,-0.559 4.687,-0.555 4.688,-0.558 4.684,-0.567 4.687,-0.582 4.688,-0.617 4.687,-0.726 4.684,-0.911 4.687,-1.273 4.688,-2.621 1.855,-2.637"
       style="fill:none;stroke:#009a5f;stroke-width:1.6;stroke-linecap:square;stroke-linejoin:miter;stroke-miterlimit:3.25;stroke-dasharray:none;stroke-opacity:1"
       id="path16" /><path
       d="m 42,208 c 0,-0.531 -0.211,-1.039 -0.586,-1.414 C 41.039,206.211 40.531,206 40,206 c -0.531,0 -1.039,0.211 -1.414,0.586 C 38.211,206.961 38,207.469 38,208 c 0,0.531 0.211,1.039 0.586,1.414 0.375,0.375 0.883,0.586 1.414,0.586 0.531,0 1.039,-0.211 1.414,-0.586 C 41.789,209.039 42,208.531 42,208 Z"
       style="fill:#009a5f;fill-opacity:1;fill-rule:evenodd;stroke:none"
       id="path18" /><path
       d="m 47,208 c 0,-0.531 -0.211,-1.039 -0.586,-1.414 C 46.039,206.211 45.531,206 45,206 c -0.531,0 -1.039,0.211 -1.414,0.586 C 43.211,206.961 43,207.469 43,208 c 0,0.531 0.211,1.039 0.586,1.414 0.375,0.375 0.883,0.586 1.414,0.586 0.531,0 1.039,-0.211 1.414,-0.586 C 46.789,209.039 47,208.531 47,208 Z"
       style="fill:#009a5f;fill-opacity:1;fill-rule:evenodd;stroke:none"
       id="path20" /><path
       d="m 51,207 c 0,-0.531 -0.211,-1.039 -0.586,-1.414 C 50.039,205.211 49.531,205 49,205 c -0.531,0 -1.039,0.211 -1.414,0.586 C 47.211,205.961 47,206.469 47,207 c 0,0.531 0.211,1.039 0.586,1.414 0.375,0.375 0.883,0.586 1.414,0.586 0.531,0 1.039,-0.211 1.414,-0.586 C 50.789,208.039 51,207.531 51,207 Z"
       style="fill:#009a5f;fill-opacity:1;fill-rule:evenodd;stroke:none"
       id="path22" /><path
       d="m 56,207 c 0,-0.531 -0.211,-1.039 -0.586,-1.414 C 55.039,205.211 54.531,205 54,205 c -0.531,0 -1.039,0.211 -1.414,0.586 C 52.211,205.961 52,206.469 52,207 c 0,0.531 0.211,1.039 0.586,1.414 0.375,0.375 0.883,0.586 1.414,0.586 0.531,0 1.039,-0.211 1.414,-0.586 C 55.789,208.039 56,207.531 56,207 Z"
       style="fill:#009a5f;fill-opacity:1;fill-rule:evenodd;stroke:none"
       id="path24" /><path
       d="m 61,206 c 0,-0.531 -0.211,-1.039 -0.586,-1.414 C 60.039,204.211 59.531,204 59,204 c -0.531,0 -1.039,0.211 -1.414,0.586 C 57.211,204.961 57,205.469 57,206 c 0,0.531 0.211,1.039 0.586,1.414 0.375,0.375 0.883,0.586 1.414,0.586 0.531,0 1.039,-0.211 1.414,-0.586 C 60.789,207.039 61,206.531 61,206 Z"
       style="fill:#009a5f;fill-opacity:1;fill-rule:evenodd;stroke:none"
       id="path26" /><path
       d="m 65,205 c 0,-0.531 -0.211,-1.039 -0.586,-1.414 C 64.039,203.211 63.531,203 63,203 c -0.531,0 -1.039,0.211 -1.414,0.586 C 61.211,203.961 61,204.469 61,205 c 0,0.531 0.211,1.039 0.586,1.414 0.375,0.375 0.883,0.586 1.414,0.586 0.531,0 1.039,-0.211 1.414,-0.586 C 64.789,206.039 65,205.531 65,205 Z"
       style="fill:#009a5f;fill-opacity:1;fill-rule:evenodd;stroke:none"
       id="path28" /><path
       d="m 70,204 c 0,-0.531 -0.211,-1.039 -0.586,-1.414 C 69.039,202.211 68.531,202 68,202 c -0.531,0 -1.039,0.211 -1.414,0.586 C 66.211,202.961 66,203.469 66,204 c 0,0.531 0.211,1.039 0.586,1.414 0.375,0.375 0.883,0.586 1.414,0.586 0.531,0 1.039,-0.211 1.414,-0.586 C 69.789,205.039 70,204.531 70,204 Z"
       style="fill:#009a5f;fill-opacity:1;fill-rule:evenodd;stroke:none"
       id="path30" /><path
       d="m 75,195 c 0,-0.531 -0.211,-1.039 -0.586,-1.414 C 74.039,193.211 73.531,193 73,193 c -0.531,0 -1.039,0.211 -1.414,0.586 C 71.211,193.961 71,194.469 71,195 c 0,0.531 0.211,1.039 0.586,1.414 0.375,0.375 0.883,0.586 1.414,0.586 0.531,0 1.039,-0.211 1.414,-0.586 C 74.789,196.039 75,195.531 75,195 Z"
       style="fill:#009a5f;fill-opacity:1;fill-rule:evenodd;stroke:none"
       id="path32" /><path
       d="m 79,154 c 0,-0.531 -0.211,-1.039 -0.586,-1.414 C 78.039,152.211 77.531,152 77,152 c -0.531,0 -1.039,0.211 -1.414,0.586 C 75.211,152.961 75,153.469 75,154 c 0,0.531 0.211,1.039 0.586,1.414 0.375,0.375 0.883,0.586 1.414,0.586 0.531,0 1.039,-0.211 1.414,-0.586 C 78.789,155.039 79,154.531 79,154 Z"
       style="fill:#009a5f;fill-opacity:1;fill-rule:evenodd;stroke:none"
       id="path34" /><path
       d="M 84,94 C 84,93.469 83.789,92.961 83.414,92.586 83.039,92.211 82.531,92 82,92 81.469,92 80.961,92.211 80.586,92.586 80.211,92.961 80,93.469 80,94 c 0,0.531 0.211,1.039 0.586,1.414 C 80.961,95.789 81.469,96 82,96 82.531,96 83.039,95.789 83.414,95.414 83.789,95.039 84,94.531 84,94 Z"
       style="fill:#009a5f;fill-opacity:1;fill-rule:evenodd;stroke:none"
       id="path36" /><path
       d="M 84,94 C 84,93.469 83.789,92.961 83.414,92.586 83.039,92.211 82.531,92 82,92 81.469,92 80.961,92.211 80.586,92.586 80.211,92.961 80,93.469 80,94 c 0,0.531 0.211,1.039 0.586,1.414 C 80.961,95.789 81.469,96 82,96 82.531,96 83.039,95.789 83.414,95.414 83.789,95.039 84,94.531 84,94 Z"
       style="fill:#009a5f;fill-opacity:1;fill-rule:evenodd;stroke:none"
       id="path38" /><path
       d="M 85,94 C 85,93.469 84.789,92.961 84.414,92.586 84.039,92.211 83.531,92 83,92 82.469,92 81.961,92.211 81.586,92.586 81.211,92.961 81,93.469 81,94 c 0,0.531 0.211,1.039 0.586,1.414 C 81.961,95.789 82.469,96 83,96 83.531,96 84.039,95.789 84.414,95.414 84.789,95.039 85,94.531 85,94 Z"
       style="fill:#009a5f;fill-opacity:1;fill-rule:evenodd;stroke:none"
       id="path40" /><path
       d="M 85,94 C 85,93.469 84.789,92.961 84.414,92.586 84.039,92.211 83.531,92 83,92 82.469,92 81.961,92.211 81.586,92.586 81.211,92.961 81,93.469 81,94 c 0,0.531 0.211,1.039 0.586,1.414 C 81.961,95.789 82.469,96 83,96 83.531,96 84.039,95.789 84.414,95.414 84.789,95.039 85,94.531 85,94 Z"
       style="fill:#009a5f;fill-opacity:1;fill-rule:evenodd;stroke:none"
       id="path42" /><path
       d="M 86,94 C 86,93.469 85.789,92.961 85.414,92.586 85.039,92.211 84.531,92 84,92 83.469,92 82.961,92.211 82.586,92.586 82.211,92.961 82,93.469 82,94 c 0,0.531 0.211,1.039 0.586,1.414 C 82.961,95.789 83.469,96 84,96 84.531,96 85.039,95.789 85.414,95.414 85.789,95.039 86,94.531 86,94 Z"
       style="fill:#009a5f;fill-opacity:1;fill-rule:evenodd;stroke:none"
       id="path44" /><path
       d="M 89,95 C 89,94.469 88.789,93.961 88.414,93.586 88.039,93.211 87.531,93 87,93 86.469,93 85.961,93.211 85.586,93.586 85.211,93.961 85,94.469 85,95 c 0,0.531 0.211,1.039 0.586,1.414 C 85.961,96.789 86.469,97 87,97 87.531,97 88.039,96.789 88.414,96.414 88.789,96.039 89,95.531 89,95 Z"
       style="fill:#009a5f;fill-opacity:1;fill-rule:evenodd;stroke:none"
       id="path46" /><path
       d="M 93,95 C 93,94.469 92.789,93.961 92.414,93.586 92.039,93.211 91.531,93 91,93 90.469,93 89.961,93.211 89.586,93.586 89.211,93.961 89,94.469 89,95 c 0,0.531 0.211,1.039 0.586,1.414 C 89.961,96.789 90.469,97 91,97 91.531,97 92.039,96.789 92.414,96.414 92.789,96.039 93,95.531 93,95 Z"
       style="fill:#009a5f;fill-opacity:1;fill-rule:evenodd;stroke:none"
       id="path48" /><path
       d="M 98,96 C 98,95.469 97.789,94.961 97.414,94.586 97.039,94.211 96.531,94 96,94 95.469,94 94.961,94.211 94.586,94.586 94.211,94.961 94,95.469 94,96 c 0,0.531 0.211,1.039 0.586,1.414 C 94.961,97.789 95.469,98 96,98 96.531,98 97.039,97.789 97.414,97.414 97.789,97.039 98,96.531 98,96 Z"
       style="fill:#009a5f;fill-opacity:1;fill-rule:evenodd;stroke:none"
       id="path50" /><path
       d="m 102,96 c 0,-0.531 -0.211,-1.039 -0.586,-1.414 C 101.039,94.211 100.531,94 100,94 99.469,94 98.961,94.211 98.586,94.586 98.211,94.961 98,95.469 98,96 c 0,0.531 0.211,1.039 0.586,1.414 C 98.961,97.789 99.469,98 100,98 c 0.531,0 1.039,-0.211 1.414,-0.586 C 101.789,97.039 102,96.531 102,96 Z"
       style="fill:#009a5f;fill-opacity:1;fill-rule:evenodd;stroke:none"
       id="path52" /><path
       d="m 107,97 c 0,-0.531 -0.211,-1.039 -0.586,-1.414 C 106.039,95.211 105.531,95 105,95 c -0.531,0 -1.039,0.211 -1.414,0.586 C 103.211,95.961 103,96.469 103,97 c 0,0.531 0.211,1.039 0.586,1.414 0.375,0.375 0.883,0.586 1.414,0.586 0.531,0 1.039,-0.211 1.414,-0.586 C 106.789,98.039 107,97.531 107,97 Z"
       style="fill:#009a5f;fill-opacity:1;fill-rule:evenodd;stroke:none"
       id="path54" /><path
       d="m 112,97 c 0,-0.531 -0.211,-1.039 -0.586,-1.414 C 111.039,95.211 110.531,95 110,95 c -0.531,0 -1.039,0.211 -1.414,0.586 C 108.211,95.961 108,96.469 108,97 c 0,0.531 0.211,1.039 0.586,1.414 0.375,0.375 0.883,0.586 1.414,0.586 0.531,0 1.039,-0.211 1.414,-0.586 C 111.789,98.039 112,97.531 112,97 Z"
       style="fill:#009a5f;fill-opacity:1;fill-rule:evenodd;stroke:none"
       id="path56" /><path
       d="m 116,98 c 0,-0.531 -0.211,-1.039 -0.586,-1.414 C 115.039,96.211 114.531,96 114,96 c -0.531,0 -1.039,0.211 -1.414,0.586 C 112.211,96.961 112,97.469 112,98 c 0,0.531 0.211,1.039 0.586,1.414 0.375,0.375 0.883,0.586 1.414,0.586 0.531,0 1.039,-0.211 1.414,-0.586 C 115.789,99.039 116,98.531 116,98 Z"
       style="fill:#009a5f;fill-opacity:1;fill-rule:evenodd;stroke:none"
       id="path58" /><path
       d="m 121,98 c 0,-0.531 -0.211,-1.039 -0.586,-1.414 C 120.039,96.211 119.531,96 119,96 c -0.531,0 -1.039,0.211 -1.414,0.586 C 117.211,96.961 117,97.469 117,98 c 0,0.531 0.211,1.039 0.586,1.414 0.375,0.375 0.883,0.586 1.414,0.586 0.531,0 1.039,-0.211 1.414,-0.586 C 120.789,99.039 121,98.531 121,98 Z"
       style="fill:#009a5f;fill-opacity:1;fill-rule:evenodd;stroke:none"
       id="path60" /><path
       d="m 126,99 c 0,-0.531 -0.211,-1.039 -0.586,-1.414 C 125.039,97.211 124.531,97 124,97 c -0.531,0 -1.039,0.211 -1.414,0.586 C 122.211,97.961 122,98.469 122,99 c 0,0.531 0.211,1.039 0.586,1.414 0.375,0.375 0.883,0.586 1.414,0.586 0.531,0 1.039,-0.211 1.414,-0.586 C 125.789,100.039 126,99.531 126,99 Z"
       style="fill:#009a5f;fill-opacity:1;fill-rule:evenodd;stroke:none"
       id="path62" /><path
       d="m 131,100 c 0,-0.531 -0.211,-1.039 -0.586,-1.414 C 130.039,98.211 129.531,98 129,98 c -0.531,0 -1.039,0.211 -1.414,0.586 C 127.211,98.961 127,99.469 127,100 c 0,0.531 0.211,1.039 0.586,1.414 0.375,0.375 0.883,0.586 1.414,0.586 0.531,0 1.039,-0.211 1.414,-0.586 C 130.789,101.039 131,100.531 131,100 Z"
       style="fill:#009a5f;fill-opacity:1;fill-rule:evenodd;stroke:none"
       id="path64" /><path
       d="m 135,100 c 0,-0.531 -0.211,-1.039 -0.586,-1.414 C 134.039,98.211 133.531,98 133,98 c -0.531,0 -1.039,0.211 -1.414,0.586 C 131.211,98.961 131,99.469 131,100 c 0,0.531 0.211,1.039 0.586,1.414 0.375,0.375 0.883,0.586 1.414,0.586 0.531,0 1.039,-0.211 1.414,-0.586 C 134.789,101.039 135,100.531 135,100 Z"
       style="fill:#009a5f;fill-opacity:1;fill-rule:evenodd;stroke:none"
       id="path66" /><path
       d="m 140,101 c 0,-0.531 -0.211,-1.039 -0.586,-1.414 C 139.039,99.211 138.531,99 138,99 c -0.531,0 -1.039,0.211 -1.414,0.586 -0.375,0.375 -0.586,0.883 -0.586,1.414 0,0.531 0.211,1.039 0.586,1.414 0.375,0.375 0.883,0.586 1.414,0.586 0.531,0 1.039,-0.211 1.414,-0.586 C 139.789,102.039 140,101.531 140,101 Z"
       style="fill:#009a5f;fill-opacity:1;fill-rule:evenodd;stroke:none"
       id="path68" /><path
       d="m 145,101 c 0,-0.531 -0.211,-1.039 -0.586,-1.414 C 144.039,99.211 143.531,99 143,99 c -0.531,0 -1.039,0.211 -1.414,0.586 -0.375,0.375 -0.586,0.883 -0.586,1.414 0,0.531 0.211,1.039 0.586,1.414 0.375,0.375 0.883,0.586 1.414,0.586 0.531,0 1.039,-0.211 1.414,-0.586 C 144.789,102.039 145,101.531 145,101 Z"
       style="fill:#009a5f;fill-opacity:1;fill-rule:evenodd;stroke:none"
       id="path70" /><path
       d="m 149,102 c 0,-0.531 -0.211,-1.039 -0.586,-1.414 C 148.039,100.211 147.531,100 147,100 c -0.531,0 -1.039,0.211 -1.414,0.586 -0.375,0.375 -0.586,0.883 -0.586,1.414 0,0.531 0.211,1.039 0.586,1.414 0.375,0.375 0.883,0.586 1.414,0.586 0.531,0 1.039,-0.211 1.414,-0.586 C 148.789,103.039 149,102.531 149,102 Z"
       style="fill:#009a5f;fill-opacity:1;fill-rule:evenodd;stroke:none"
       id="path72" /><path
       d="m 154,102 c 0,-0.531 -0.211,-1.039 -0.586,-1.414 C 153.039,100.211 152.531,100 152,100 c -0.531,0 -1.039,0.211 -1.414,0.586 -0.375,0.375 -0.586,0.883 -0.586,1.414 0,0.531 0.211,1.039 0.586,1.414 0.375,0.375 0.883,0.586 1.414,0.586 0.531,0 1.039,-0.211 1.414,-0.586 C 153.789,103.039 154,102.531 154,102 Z"
       style="fill:#009a5f;fill-opacity:1;fill-rule:evenodd;stroke:none"
       id="path74" /><path
       d="m 159,103 c 0,-0.531 -0.211,-1.039 -0.586,-1.414 C 158.039,101.211 157.531,101 157,101 c -0.531,0 -1.039,0.211 -1.414,0.586 -0.375,0.375 -0.586,0.883 -0.586,1.414 0,0.531 0.211,1.039 0.586,1.414 0.375,0.375 0.883,0.586 1.414,0.586 0.531,0 1.039,-0.211 1.414,-0.586 C 158.789,104.039 159,103.531 159,103 Z"
       style="fill:#009a5f;fill-opacity:1;fill-rule:evenodd;stroke:none"
       id="path76" /><path
       d="m 163,104 c 0,-0.531 -0.211,-1.039 -0.586,-1.414 C 162.039,102.211 161.531,102 161,102 c -0.531,0 -1.039,0.211 -1.414,0.586 -0.375,0.375 -0.586,0.883 -0.586,1.414 0,0.531 0.211,1.039 0.586,1.414 0.375,0.375 0.883,0.586 1.414,0.586 0.531,0 1.039,-0.211 1.414,-0.586 C 162.789,105.039 163,104.531 163,104 Z"
       style="fill:#009a5f;fill-opacity:1;fill-rule:evenodd;stroke:none"
       id="path78" /><path
       d="m 168,105 c 0,-0.531 -0.211,-1.039 -0.586,-1.414 C 167.039,103.211 166.531,103 166,103 c -0.531,0 -1.039,0.211 -1.414,0.586 -0.375,0.375 -0.586,0.883 -0.586,1.414 0,0.531 0.211,1.039 0.586,1.414 0.375,0.375 0.883,0.586 1.414,0.586 0.531,0 1.039,-0.211 1.414,-0.586 C 167.789,106.039 168,105.531 168,105 Z"
       style="fill:#009a5f;fill-opacity:1;fill-rule:evenodd;stroke:none"
       id="path80" /><path
       d="m 173,107 c 0,-0.531 -0.211,-1.039 -0.586,-1.414 C 172.039,105.211 171.531,105 171,105 c -0.531,0 -1.039,0.211 -1.414,0.586 -0.375,0.375 -0.586,0.883 -0.586,1.414 0,0.531 0.211,1.039 0.586,1.414 0.375,0.375 0.883,0.586 1.414,0.586 0.531,0 1.039,-0.211 1.414,-0.586 C 172.789,108.039 173,107.531 173,107 Z"
       style="fill:#009a5f;fill-opacity:1;fill-rule:evenodd;stroke:none"
       id="path82" /><path
       d="m 177,114 c 0,-0.531 -0.211,-1.039 -0.586,-1.414 C 176.039,112.211 175.531,112 175,112 c -0.531,0 -1.039,0.211 -1.414,0.586 -0.375,0.375 -0.586,0.883 -0.586,1.414 0,0.531 0.211,1.039 0.586,1.414 0.375,0.375 0.883,0.586 1.414,0.586 0.531,0 1.039,-0.211 1.414,-0.586 C 176.789,115.039 177,114.531 177,114 Z"
       style="fill:#009a5f;fill-opacity:1;fill-rule:evenodd;stroke:none"
       id="path84" /><path
       d="m 179,114 c 0,-0.531 -0.211,-1.039 -0.586,-1.414 C 178.039,112.211 177.531,112 177,112 c -0.531,0 -1.039,0.211 -1.414,0.586 -0.375,0.375 -0.586,0.883 -0.586,1.414 0,0.531 0.211,1.039 0.586,1.414 0.375,0.375 0.883,0.586 1.414,0.586 0.531,0 1.039,-0.211 1.414,-0.586 C 178.789,115.039 179,114.531 179,114 Z"
       style="fill:#009a5f;fill-opacity:1;fill-rule:evenodd;stroke:none"
       id="path86" /><path
       d="m 181,114 c 0,-0.531 -0.211,-1.039 -0.586,-1.414 C 180.039,112.211 179.531,112 179,112 c -0.531,0 -1.039,0.211 -1.414,0.586 -0.375,0.375 -0.586,0.883 -0.586,1.414 0,0.531 0.211,1.039 0.586,1.414 0.375,0.375 0.883,0.586 1.414,0.586 0.531,0 1.039,-0.211 1.414,-0.586 C 180.789,115.039 181,114.531 181,114 Z"
       style="fill:#009a5f;fill-opacity:1;fill-rule:evenodd;stroke:none"
       id="path88" /><path
       d="m 185,113 c 0,-0.531 -0.211,-1.039 -0.586,-1.414 C 184.039,111.211 183.531,111 183,111 c -0.531,0 -1.039,0.211 -1.414,0.586 -0.375,0.375 -0.586,0.883 -0.586,1.414 0,0.531 0.211,1.039 0.586,1.414 0.375,0.375 0.883,0.586 1.414,0.586 0.531,0 1.039,-0.211 1.414,-0.586 C 184.789,114.039 185,113.531 185,113 Z"
       style="fill:#009a5f;fill-opacity:1;fill-rule:evenodd;stroke:none"
       id="path90" /><path
       d="m 190,112 c 0,-0.531 -0.211,-1.039 -0.586,-1.414 C 189.039,110.211 188.531,110 188,110 c -0.531,0 -1.039,0.211 -1.414,0.586 -0.375,0.375 -0.586,0.883 -0.586,1.414 0,0.531 0.211,1.039 0.586,1.414 0.375,0.375 0.883,0.586 1.414,0.586 0.531,0 1.039,-0.211 1.414,-0.586 C 189.789,113.039 190,112.531 190,112 Z"
       style="fill:#009a5f;fill-opacity:1;fill-rule:evenodd;stroke:none"
       id="path92" /><path
       d="m 195,112 c 0,-0.531 -0.211,-1.039 -0.586,-1.414 C 194.039,110.211 193.531,110 193,110 c -0.531,0 -1.039,0.211 -1.414,0.586 -0.375,0.375 -0.586,0.883 -0.586,1.414 0,0.531 0.211,1.039 0.586,1.414 0.375,0.375 0.883,0.586 1.414,0.586 0.531,0 1.039,-0.211 1.414,-0.586 C 194.789,113.039 195,112.531 195,112 Z"
       style="fill:#009a5f;fill-opacity:1;fill-rule:evenodd;stroke:none"
       id="path94" /><path
       d="m 199,111 c 0,-0.531 -0.211,-1.039 -0.586,-1.414 C 198.039,109.211 197.531,109 197,109 c -0.531,0 -1.039,0.211 -1.414,0.586 -0.375,0.375 -0.586,0.883 -0.586,1.414 0,0.531 0.211,1.039 0.586,1.414 0.375,0.375 0.883,0.586 1.414,0.586 0.531,0 1.039,-0.211 1.414,-0.586 C 198.789,112.039 199,111.531 199,111 Z"
       style="fill:#009a5f;fill-opacity:1;fill-rule:evenodd;stroke:none"
       id="path96" /><path
       d="m 204,111 c 0,-0.531 -0.211,-1.039 -0.586,-1.414 C 203.039,109.211 202.531,109 202,109 c -0.531,0 -1.039,0.211 -1.414,0.586 -0.375,0.375 -0.586,0.883 -0.586,1.414 0,0.531 0.211,1.039 0.586,1.414 0.375,0.375 0.883,0.586 1.414,0.586 0.531,0 1.039,-0.211 1.414,-0.586 C 203.789,112.039 204,111.531 204,111 Z"
       style="fill:#009a5f;fill-opacity:1;fill-rule:evenodd;stroke:none"
       id="path98" /><path
       d="m 209,110 c 0,-0.531 -0.211,-1.039 -0.586,-1.414 C 208.039,108.211 207.531,108 207,108 c -0.531,0 -1.039,0.211 -1.414,0.586 -0.375,0.375 -0.586,0.883 -0.586,1.414 0,0.531 0.211,1.039 0.586,1.414 0.375,0.375 0.883,0.586 1.414,0.586 0.531,0 1.039,-0.211 1.414,-0.586 C 208.789,111.039 209,110.531 209,110 Z"
       style="fill:#009a5f;fill-opacity:1;fill-rule:evenodd;stroke:none"
       id="path100" /><path
       d="m 214,110 c 0,-0.531 -0.211,-1.039 -0.586,-1.414 C 213.039,108.211 212.531,108 212,108 c -0.531,0 -1.039,0.211 -1.414,0.586 -0.375,0.375 -0.586,0.883 -0.586,1.414 0,0.531 0.211,1.039 0.586,1.414 0.375,0.375 0.883,0.586 1.414,0.586 0.531,0 1.039,-0.211 1.414,-0.586 C 213.789,111.039 214,110.531 214,110 Z"
       style="fill:#009a5f;fill-opacity:1;fill-rule:evenodd;stroke:none"
       id="path102" /><path
       d="m 218,109 c 0,-0.531 -0.211,-1.039 -0.586,-1.414 C 217.039,107.211 216.531,107 216,107 c -0.531,0 -1.039,0.211 -1.414,0.586 -0.375,0.375 -0.586,0.883 -0.586,1.414 0,0.531 0.211,1.039 0.586,1.414 0.375,0.375 0.883,0.586 1.414,0.586 0.531,0 1.039,-0.211 1.414,-0.586 C 217.789,110.039 218,109.531 218,109 Z"
       style="fill:#009a5f;fill-opacity:1;fill-rule:evenodd;stroke:none"
       id="path104" /><path
       d="m 223,109 c 0,-0.531 -0.211,-1.039 -0.586,-1.414 C 222.039,107.211 221.531,107 221,107 c -0.531,0 -1.039,0.211 -1.414,0.586 -0.375,0.375 -0.586,0.883 -0.586,1.414 0,0.531 0.211,1.039 0.586,1.414 0.375,0.375 0.883,0.586 1.414,0.586 0.531,0 1.039,-0.211 1.414,-0.586 C 222.789,110.039 223,109.531 223,109 Z"
       style="fill:#009a5f;fill-opacity:1;fill-rule:evenodd;stroke:none"
       id="path106" /><path
       d="m 228,108 c 0,-0.531 -0.211,-1.039 -0.586,-1.414 C 227.039,106.211 226.531,106 226,106 c -0.531,0 -1.039,0.211 -1.414,0.586 -0.375,0.375 -0.586,0.883 -0.586,1.414 0,0.531 0.211,1.039 0.586,1.414 0.375,0.375 0.883,0.586 1.414,0.586 0.531,0 1.039,-0.211 1.414,-0.586 C 227.789,109.039 228,108.531 228,108 Z"
       style="fill:#009a5f;fill-opacity:1;fill-rule:evenodd;stroke:none"
       id="path108" /><path
       d="m 232,107 c 0,-0.531 -0.211,-1.039 -0.586,-1.414 C 231.039,105.211 230.531,105 230,105 c -0.531,0 -1.039,0.211 -1.414,0.586 -0.375,0.375 -0.586,0.883 -0.586,1.414 0,0.531 0.211,1.039 0.586,1.414 0.375,0.375 0.883,0.586 1.414,0.586 0.531,0 1.039,-0.211 1.414,-0.586 C 231.789,108.039 232,107.531 232,107 Z"
       style="fill:#009a5f;fill-opacity:1;fill-rule:evenodd;stroke:none"
       id="path110" /><path
       d="m 237,107 c 0,-0.531 -0.211,-1.039 -0.586,-1.414 C 236.039,105.211 235.531,105 235,105 c -0.531,0 -1.039,0.211 -1.414,0.586 -0.375,0.375 -0.586,0.883 -0.586,1.414 0,0.531 0.211,1.039 0.586,1.414 0.375,0.375 0.883,0.586 1.414,0.586 0.531,0 1.039,-0.211 1.414,-0.586 C 236.789,108.039 237,107.531 237,107 Z"
       style="fill:#009a5f;fill-opacity:1;fill-rule:evenodd;stroke:none"
       id="path112" /><path
       d="m 242,106 c 0,-0.531 -0.211,-1.039 -0.586,-1.414 C 241.039,104.211 240.531,104 240,104 c -0.531,0 -1.039,0.211 -1.414,0.586 -0.375,0.375 -0.586,0.883 -0.586,1.414 0,0.531 0.211,1.039 0.586,1.414 0.375,0.375 0.883,0.586 1.414,0.586 0.531,0 1.039,-0.211 1.414,-0.586 C 241.789,107.039 242,106.531 242,106 Z"
       style="fill:#009a5f;fill-opacity:1;fill-rule:evenodd;stroke:none"
       id="path114" /><path
       d="m 246,106 c 0,-0.531 -0.211,-1.039 -0.586,-1.414 C 245.039,104.211 244.531,104 244,104 c -0.531,0 -1.039,0.211 -1.414,0.586 -0.375,0.375 -0.586,0.883 -0.586,1.414 0,0.531 0.211,1.039 0.586,1.414 0.375,0.375 0.883,0.586 1.414,0.586 0.531,0 1.039,-0.211 1.414,-0.586 C 245.789,107.039 246,106.531 246,106 Z"
       style="fill:#009a5f;fill-opacity:1;fill-rule:evenodd;stroke:none"
       id="path116" /><path
       d="m 251,105 c 0,-0.531 -0.211,-1.039 -0.586,-1.414 C 250.039,103.211 249.531,103 249,103 c -0.531,0 -1.039,0.211 -1.414,0.586 -0.375,0.375 -0.586,0.883 -0.586,1.414 0,0.531 0.211,1.039 0.586,1.414 0.375,0.375 0.883,0.586 1.414,0.586 0.531,0 1.039,-0.211 1.414,-0.586 C 250.789,106.039 251,105.531 251,105 Z"
       style="fill:#009a5f;fill-opacity:1;fill-rule:evenodd;stroke:none"
       id="path118" /><path
       d="m 256,104 c 0,-0.531 -0.211,-1.039 -0.586,-1.414 C 255.039,102.211 254.531,102 254,102 c -0.531,0 -1.039,0.211 -1.414,0.586 -0.375,0.375 -0.586,0.883 -0.586,1.414 0,0.531 0.211,1.039 0.586,1.414 0.375,0.375 0.883,0.586 1.414,0.586 0.531,0 1.039,-0.211 1.414,-0.586 C 255.789,105.039 256,104.531 256,104 Z"
       style="fill:#009a5f;fill-opacity:1;fill-rule:evenodd;stroke:none"
       id="path120" /><path
       d="m 260,103 c 0,-0.531 -0.211,-1.039 -0.586,-1.414 C 259.039,101.211 258.531,101 258,101 c -0.531,0 -1.039,0.211 -1.414,0.586 -0.375,0.375 -0.586,0.883 -0.586,1.414 0,0.531 0.211,1.039 0.586,1.414 0.375,0.375 0.883,0.586 1.414,0.586 0.531,0 1.039,-0.211 1.414,-0.586 C 259.789,104.039 260,103.531 260,103 Z"
       style="fill:#009a5f;fill-opacity:1;fill-rule:evenodd;stroke:none"
       id="path122" /><path
       d="m 265,102 c 0,-0.531 -0.211,-1.039 -0.586,-1.414 C 264.039,100.211 263.531,100 263,100 c -0.531,0 -1.039,0.211 -1.414,0.586 -0.375,0.375 -0.586,0.883 -0.586,1.414 0,0.531 0.211,1.039 0.586,1.414 0.375,0.375 0.883,0.586 1.414,0.586 0.531,0 1.039,-0.211 1.414,-0.586 C 264.789,103.039 265,102.531 265,102 Z"
       style="fill:#009a5f;fill-opacity:1;fill-rule:evenodd;stroke:none"
       id="path124" /><path
       d="m 270,100 c 0,-0.531 -0.211,-1.039 -0.586,-1.414 C 269.039,98.211 268.531,98 268,98 c -0.531,0 -1.039,0.211 -1.414,0.586 C 266.211,98.961 266,99.469 266,100 c 0,0.531 0.211,1.039 0.586,1.414 0.375,0.375 0.883,0.586 1.414,0.586 0.531,0 1.039,-0.211 1.414,-0.586 C 269.789,101.039 270,100.531 270,100 Z"
       style="fill:#009a5f;fill-opacity:1;fill-rule:evenodd;stroke:none"
       id="path126" /><path
       d="m 272,97 c 0,-0.531 -0.211,-1.039 -0.586,-1.414 C 271.039,95.211 270.531,95 270,95 c -0.531,0 -1.039,0.211 -1.414,0.586 C 268.211,95.961 268,96.469 268,97 c 0,0.531 0.211,1.039 0.586,1.414 0.375,0.375 0.883,0.586 1.414,0.586 0.531,0 1.039,-0.211 1.414,-0.586 C 271.789,98.039 272,97.531 272,97 Z"
       style="fill:#009a5f;fill-opacity:1;fill-rule:evenodd;stroke:none"
       id="path128" /><path
       d="m 7.18,208.805 v -2.403"
       style="fill:none;stroke:#666666;stroke-width:0.2;stroke-linecap:butt;stroke-linejoin:miter;stroke-miterlimit:3.25;stroke-dasharray:none;stroke-opacity:1"
       id="path176" /><path
       d="m 16.555,208.805 v -2.403"
       style="fill:none;stroke:#666666;stroke-width:0.2;stroke-linecap:butt;stroke-linejoin:miter;stroke-miterlimit:3.25;stroke-dasharray:none;stroke-opacity:1"
       id="path178" /><path
       d="m 25.926,208.805 v -2.403"
       style="fill:none;stroke:#666666;stroke-width:0.2;stroke-linecap:butt;stroke-linejoin:miter;stroke-miterlimit:3.25;stroke-dasharray:none;stroke-opacity:1"
       id="path180" /><path
       d="m 35.301,208.805 v -4"
       style="fill:none;stroke:#666666;stroke-width:0.2;stroke-linecap:butt;stroke-linejoin:miter;stroke-miterlimit:3.25;stroke-dasharray:none;stroke-opacity:1"
       id="path182" /><path
       d="m 44.672,208.805 v -2.403"
       style="fill:none;stroke:#666666;stroke-width:0.2;stroke-linecap:butt;stroke-linejoin:miter;stroke-miterlimit:3.25;stroke-dasharray:none;stroke-opacity:1"
       id="path184" /><path
       d="m 54.047,208.805 v -2.403"
       style="fill:none;stroke:#666666;stroke-width:0.2;stroke-linecap:butt;stroke-linejoin:miter;stroke-miterlimit:3.25;stroke-dasharray:none;stroke-opacity:1"
       id="path186" /><path
       d="m 63.418,208.805 v -2.403"
       style="fill:none;stroke:#666666;stroke-width:0.2;stroke-linecap:butt;stroke-linejoin:miter;stroke-miterlimit:3.25;stroke-dasharray:none;stroke-opacity:1"
       id="path188" /><path
       d="m 72.793,208.805 v -2.403"
       style="fill:none;stroke:#666666;stroke-width:0.2;stroke-linecap:butt;stroke-linejoin:miter;stroke-miterlimit:3.25;stroke-dasharray:none;stroke-opacity:1"
       id="path190" /><path
       d="m 82.164,208.805 v -4"
       style="fill:none;stroke:#666666;stroke-width:0.2;stroke-linecap:butt;stroke-linejoin:miter;stroke-miterlimit:3.25;stroke-dasharray:none;stroke-opacity:1"
       id="path192" /><text
       style="font-variant:normal;font-weight:normal;font-size:10px;font-family:Arial;-inkscape-font-specification:ArialMT;writing-mode:lr-tb;fill:#000000;fill-opacity:1;fill-rule:nonzero;stroke:none"
       id="text196"
       x="79.164406"
       y="220.804"><tspan
         x="79.164406"
         y="220.804"
         id="tspan194">1</tspan></text><path
       d="m 91.539,208.805 v -2.403"
       style="fill:none;stroke:#666666;stroke-width:0.2;stroke-linecap:butt;stroke-linejoin:miter;stroke-miterlimit:3.25;stroke-dasharray:none;stroke-opacity:1"
       id="path198" /><path
       d="m 100.91,208.805 v -2.403"
       style="fill:none;stroke:#666666;stroke-width:0.2;stroke-linecap:butt;stroke-linejoin:miter;stroke-miterlimit:3.25;stroke-dasharray:none;stroke-opacity:1"
       id="path200" /><path
       d="m 110.281,208.805 v -2.403"
       style="fill:none;stroke:#666666;stroke-width:0.2;stroke-linecap:butt;stroke-linejoin:miter;stroke-miterlimit:3.25;stroke-dasharray:none;stroke-opacity:1"
       id="path202" /><path
       d="m 119.656,208.805 v -2.403"
       style="fill:none;stroke:#666666;stroke-width:0.2;stroke-linecap:butt;stroke-linejoin:miter;stroke-miterlimit:3.25;stroke-dasharray:none;stroke-opacity:1"
       id="path204" /><path
       d="m 129.027,208.805 v -4"
       style="fill:none;stroke:#666666;stroke-width:0.2;stroke-linecap:butt;stroke-linejoin:miter;stroke-miterlimit:3.25;stroke-dasharray:none;stroke-opacity:1"
       id="path206" /><text
       style="font-variant:normal;font-weight:normal;font-size:10px;font-family:Arial;-inkscape-font-specification:ArialMT;writing-mode:lr-tb;fill:#000000;fill-opacity:1;fill-rule:nonzero;stroke:none"
       id="text210"
       x="126.02882"
       y="220.804"><tspan
         x="126.02882"
         y="220.804"
         id="tspan208">2</tspan></text><path
       d="m 138.402,208.805 v -2.403"
       style="fill:none;stroke:#666666;stroke-width:0.2;stroke-linecap:butt;stroke-linejoin:miter;stroke-miterlimit:3.25;stroke-dasharray:none;stroke-opacity:1"
       id="path212" /><path
       d="m 147.773,208.805 v -2.403"
       style="fill:none;stroke:#666666;stroke-width:0.2;stroke-linecap:butt;stroke-linejoin:miter;stroke-miterlimit:3.25;stroke-dasharray:none;stroke-opacity:1"
       id="path214" /><path
       d="m 157.148,208.805 v -2.403"
       style="fill:none;stroke:#666666;stroke-width:0.2;stroke-linecap:butt;stroke-linejoin:miter;stroke-miterlimit:3.25;stroke-dasharray:none;stroke-opacity:1"
       id="path216" /><path
       d="m 166.52,208.805 v -2.403"
       style="fill:none;stroke:#666666;stroke-width:0.2;stroke-linecap:butt;stroke-linejoin:miter;stroke-miterlimit:3.25;stroke-dasharray:none;stroke-opacity:1"
       id="path218" /><path
       d="m 175.895,208.805 v -4"
       style="fill:none;stroke:#666666;stroke-width:0.2;stroke-linecap:butt;stroke-linejoin:miter;stroke-miterlimit:3.25;stroke-dasharray:none;stroke-opacity:1"
       id="path220" /><text
       style="font-variant:normal;font-weight:normal;font-size:10px;font-family:Arial;-inkscape-font-specification:ArialMT;writing-mode:lr-tb;fill:#000000;fill-opacity:1;fill-rule:nonzero;stroke:none"
       id="text224"
       x="172.89323"
       y="220.804"><tspan
         x="172.89323"
         y="220.804"
         id="tspan222">3</tspan></text><path
       d="m 185.266,208.805 v -2.403"
       style="fill:none;stroke:#666666;stroke-width:0.2;stroke-linecap:butt;stroke-linejoin:miter;stroke-miterlimit:3.25;stroke-dasharray:none;stroke-opacity:1"
       id="path226" /><path
       d="m 194.641,208.805 v -2.403"
       style="fill:none;stroke:#666666;stroke-width:0.2;stroke-linecap:butt;stroke-linejoin:miter;stroke-miterlimit:3.25;stroke-dasharray:none;stroke-opacity:1"
       id="path228" /><path
       d="m 204.012,208.805 v -2.403"
       style="fill:none;stroke:#666666;stroke-width:0.2;stroke-linecap:butt;stroke-linejoin:miter;stroke-miterlimit:3.25;stroke-dasharray:none;stroke-opacity:1"
       id="path230" /><path
       d="m 213.383,208.805 v -2.403"
       style="fill:none;stroke:#666666;stroke-width:0.2;stroke-linecap:butt;stroke-linejoin:miter;stroke-miterlimit:3.25;stroke-dasharray:none;stroke-opacity:1"
       id="path232" /><path
       d="m 222.758,208.805 v -4"
       style="fill:none;stroke:#666666;stroke-width:0.2;stroke-linecap:butt;stroke-linejoin:miter;stroke-miterlimit:3.25;stroke-dasharray:none;stroke-opacity:1"
       id="path234" /><text
       style="font-variant:normal;font-weight:normal;font-size:10px;font-family:Arial;-inkscape-font-specification:ArialMT;writing-mode:lr-tb;fill:#000000;fill-opacity:1;fill-rule:nonzero;stroke:none"
       id="text238"
       x="219.75763"
       y="220.804"><tspan
         x="219.75763"
         y="220.804"
         id="tspan236">4</tspan></text><path
       d="m 232.129,208.805 v -2.403"
       style="fill:none;stroke:#666666;stroke-width:0.2;stroke-linecap:butt;stroke-linejoin:miter;stroke-miterlimit:3.25;stroke-dasharray:none;stroke-opacity:1"
       id="path240" /><path
       d="m 241.504,208.805 v -2.403"
       style="fill:none;stroke:#666666;stroke-width:0.2;stroke-linecap:butt;stroke-linejoin:miter;stroke-miterlimit:3.25;stroke-dasharray:none;stroke-opacity:1"
       id="path242" /><path
       d="m 250.875,208.805 v -2.403"
       style="fill:none;stroke:#666666;stroke-width:0.2;stroke-linecap:butt;stroke-linejoin:miter;stroke-miterlimit:3.25;stroke-dasharray:none;stroke-opacity:1"
       id="path244" /><path
       d="m 260.25,208.805 v -2.403"
       style="fill:none;stroke:#666666;stroke-width:0.2;stroke-linecap:butt;stroke-linejoin:miter;stroke-miterlimit:3.25;stroke-dasharray:none;stroke-opacity:1"
       id="path246" /><path
       d="m 269.621,208.805 v -4"
       style="fill:none;stroke:#666666;stroke-width:0.2;stroke-linecap:butt;stroke-linejoin:miter;stroke-miterlimit:3.25;stroke-dasharray:none;stroke-opacity:1"
       id="path248" /><text
       style="font-variant:normal;font-weight:normal;font-size:10px;font-family:Arial;-inkscape-font-specification:ArialMT;writing-mode:lr-tb;fill:#000000;fill-opacity:1;fill-rule:nonzero;stroke:none"
       id="text252"
       x="266.62204"
       y="220.804"><tspan
         x="266.62204"
         y="220.804"
         id="tspan250">5</tspan></text><path
       d="m 278.996,208.805 v -2.403"
       style="fill:none;stroke:#666666;stroke-width:0.2;stroke-linecap:butt;stroke-linejoin:miter;stroke-miterlimit:3.25;stroke-dasharray:none;stroke-opacity:1"
       id="path254" /><path
       d="m 288.367,208.805 v -2.403"
       style="fill:none;stroke:#666666;stroke-width:0.2;stroke-linecap:butt;stroke-linejoin:miter;stroke-miterlimit:3.25;stroke-dasharray:none;stroke-opacity:1"
       id="path256" /><path
       d="m 297.742,208.805 v -2.403"
       style="fill:none;stroke:#666666;stroke-width:0.2;stroke-linecap:butt;stroke-linejoin:miter;stroke-miterlimit:3.25;stroke-dasharray:none;stroke-opacity:1"
       id="path258" /><path
       d="m 307.113,208.805 v -2.403"
       style="fill:none;stroke:#666666;stroke-width:0.2;stroke-linecap:butt;stroke-linejoin:miter;stroke-miterlimit:3.25;stroke-dasharray:none;stroke-opacity:1"
       id="path260" /><path
       d="m 316.488,208.805 v -4"
       style="fill:none;stroke:#666666;stroke-width:0.2;stroke-linecap:butt;stroke-linejoin:miter;stroke-miterlimit:3.25;stroke-dasharray:none;stroke-opacity:1"
       id="path262" /><text
       style="font-variant:normal;font-weight:normal;font-size:10px;font-family:Arial;-inkscape-font-specification:ArialMT;writing-mode:lr-tb;fill:#000000;fill-opacity:1;fill-rule:nonzero;stroke:none"
       id="text266"
       x="313.48645"
       y="220.804"><tspan
         x="313.48645"
         y="220.804"
         id="tspan264">6</tspan></text><path
       d="m 325.859,208.805 v -2.403"
       style="fill:none;stroke:#666666;stroke-width:0.2;stroke-linecap:butt;stroke-linejoin:miter;stroke-miterlimit:3.25;stroke-dasharray:none;stroke-opacity:1"
       id="path268" /><path
       d="m 335.23,208.805 v -2.403"
       style="fill:none;stroke:#666666;stroke-width:0.2;stroke-linecap:butt;stroke-linejoin:miter;stroke-miterlimit:3.25;stroke-dasharray:none;stroke-opacity:1"
       id="path270" /><path
       d="m 344.605,208.805 v -2.403"
       style="fill:none;stroke:#666666;stroke-width:0.2;stroke-linecap:butt;stroke-linejoin:miter;stroke-miterlimit:3.25;stroke-dasharray:none;stroke-opacity:1"
       id="path272" /><path
       d="m 0.5,208.805 h 348"
       style="fill:none;stroke:#666666;stroke-width:0.2;stroke-linecap:butt;stroke-linejoin:miter;stroke-miterlimit:3.25;stroke-dasharray:none;stroke-opacity:1"
       id="path274" /><path
       d="m 35.301,220.105 h 2.398"
       style="fill:none;stroke:#666666;stroke-width:0.2;stroke-linecap:butt;stroke-linejoin:miter;stroke-miterlimit:3.25;stroke-dasharray:none;stroke-opacity:1"
       id="path276" /><path
       d="m 35.301,208.805 h 4"
       style="fill:none;stroke:#666666;stroke-width:0.2;stroke-linecap:butt;stroke-linejoin:miter;stroke-miterlimit:3.25;stroke-dasharray:none;stroke-opacity:1"
       id="path278" /><path
       d="m 35.301,197.504 h 2.398"
       style="fill:none;stroke:#666666;stroke-width:0.2;stroke-linecap:butt;stroke-linejoin:miter;stroke-miterlimit:3.25;stroke-dasharray:none;stroke-opacity:1"
       id="path280" /><path
       d="m 35.301,186.203 h 2.398"
       style="fill:none;stroke:#666666;stroke-width:0.2;stroke-linecap:butt;stroke-linejoin:miter;stroke-miterlimit:3.25;stroke-dasharray:none;stroke-opacity:1"
       id="path282" /><path
       d="m 35.301,174.902 h 2.398"
       style="fill:none;stroke:#666666;stroke-width:0.2;stroke-linecap:butt;stroke-linejoin:miter;stroke-miterlimit:3.25;stroke-dasharray:none;stroke-opacity:1"
       id="path284" /><path
       d="m 35.301,163.602 h 4"
       style="fill:none;stroke:#666666;stroke-width:0.2;stroke-linecap:butt;stroke-linejoin:miter;stroke-miterlimit:3.25;stroke-dasharray:none;stroke-opacity:1"
       id="path286" /><text
       style="font-variant:normal;font-weight:normal;font-size:10px;font-family:Arial;-inkscape-font-specification:ArialMT;writing-mode:lr-tb;fill:#000000;fill-opacity:1;fill-rule:nonzero;stroke:none"
       id="text290"
       x="10.961289"
       y="166.103"><tspan
         x="10.961289 16.521292 19.29129"
         y="166.103"
         sodipodi:role="line"
         id="tspan288">0.2</tspan></text><path
       d="m 35.301,152.305 h 2.398"
       style="fill:none;stroke:#666666;stroke-width:0.2;stroke-linecap:butt;stroke-linejoin:miter;stroke-miterlimit:3.25;stroke-dasharray:none;stroke-opacity:1"
       id="path292" /><path
       d="m 35.301,141.004 h 2.398"
       style="fill:none;stroke:#666666;stroke-width:0.2;stroke-linecap:butt;stroke-linejoin:miter;stroke-miterlimit:3.25;stroke-dasharray:none;stroke-opacity:1"
       id="path294" /><path
       d="m 35.301,129.703 h 2.398"
       style="fill:none;stroke:#666666;stroke-width:0.2;stroke-linecap:butt;stroke-linejoin:miter;stroke-miterlimit:3.25;stroke-dasharray:none;stroke-opacity:1"
       id="path296" /><path
       d="m 35.301,118.402 h 4"
       style="fill:none;stroke:#666666;stroke-width:0.2;stroke-linecap:butt;stroke-linejoin:miter;stroke-miterlimit:3.25;stroke-dasharray:none;stroke-opacity:1"
       id="path298" /><text
       style="font-variant:normal;font-weight:normal;font-size:10px;font-family:Arial;-inkscape-font-specification:ArialMT;writing-mode:lr-tb;fill:#000000;fill-opacity:1;fill-rule:nonzero;stroke:none"
       id="text302"
       x="10.961289"
       y="120.902"><tspan
         x="10.961289 16.521292 19.29129"
         y="120.902"
         sodipodi:role="line"
         id="tspan300">0.4</tspan></text><path
       d="m 35.301,107.102 h 2.398"
       style="fill:none;stroke:#666666;stroke-width:0.2;stroke-linecap:butt;stroke-linejoin:miter;stroke-miterlimit:3.25;stroke-dasharray:none;stroke-opacity:1"
       id="path304" /><path
       d="m 35.301,95.801 h 2.398"
       style="fill:none;stroke:#666666;stroke-width:0.2;stroke-linecap:butt;stroke-linejoin:miter;stroke-miterlimit:3.25;stroke-dasharray:none;stroke-opacity:1"
       id="path306" /><path
       d="m 35.301,84.5 h 2.398"
       style="fill:none;stroke:#666666;stroke-width:0.2;stroke-linecap:butt;stroke-linejoin:miter;stroke-miterlimit:3.25;stroke-dasharray:none;stroke-opacity:1"
       id="path308" /><path
       d="m 35.301,73.199 h 4"
       style="fill:none;stroke:#666666;stroke-width:0.2;stroke-linecap:butt;stroke-linejoin:miter;stroke-miterlimit:3.25;stroke-dasharray:none;stroke-opacity:1"
       id="path310" /><text
       style="font-variant:normal;font-weight:normal;font-size:10px;font-family:Arial;-inkscape-font-specification:ArialMT;writing-mode:lr-tb;fill:#000000;fill-opacity:1;fill-rule:nonzero;stroke:none"
       id="text314"
       x="10.961289"
       y="75.701004"><tspan
         x="10.961289 16.521292 19.29129"
         y="75.701004"
         sodipodi:role="line"
         id="tspan312">0.6</tspan></text><path
       d="m 35.301,61.902 h 2.398"
       style="fill:none;stroke:#666666;stroke-width:0.2;stroke-linecap:butt;stroke-linejoin:miter;stroke-miterlimit:3.25;stroke-dasharray:none;stroke-opacity:1"
       id="path316" /><path
       d="m 35.301,50.602 h 2.398"
       style="fill:none;stroke:#666666;stroke-width:0.2;stroke-linecap:butt;stroke-linejoin:miter;stroke-miterlimit:3.25;stroke-dasharray:none;stroke-opacity:1"
       id="path318" /><path
       d="m 35.301,39.301 h 2.398"
       style="fill:none;stroke:#666666;stroke-width:0.2;stroke-linecap:butt;stroke-linejoin:miter;stroke-miterlimit:3.25;stroke-dasharray:none;stroke-opacity:1"
       id="path320" /><path
       d="m 35.301,28 h 4"
       style="fill:none;stroke:#666666;stroke-width:0.2;stroke-linecap:butt;stroke-linejoin:miter;stroke-miterlimit:3.25;stroke-dasharray:none;stroke-opacity:1"
       id="path322" /><text
       style="font-variant:normal;font-weight:normal;font-size:10px;font-family:Arial;-inkscape-font-specification:ArialMT;writing-mode:lr-tb;fill:#000000;fill-opacity:1;fill-rule:nonzero;stroke:none"
       id="text326"
       x="10.961289"
       y="30.5"><tspan
         x="10.961289 16.521292 19.29129"
         y="30.5"
         sodipodi:role="line"
         id="tspan324">0.8</tspan></text><path
       d="m 35.301,16.699 h 2.398"
       style="fill:none;stroke:#666666;stroke-width:0.2;stroke-linecap:butt;stroke-linejoin:miter;stroke-miterlimit:3.25;stroke-dasharray:none;stroke-opacity:1"
       id="path328" /><path
       d="M 35.301,257.69103 V 15.234"
       style="fill:none;stroke:#666666;stroke-width:0.212349;stroke-linecap:butt;stroke-linejoin:miter;stroke-miterlimit:3.25;stroke-dasharray:none;stroke-opacity:1"
       id="path330" /><text
       xml:space="preserve"
       style="font-size:12px;line-height:1.25;font-family:sans-serif;stroke-width:0.75"
       x="353.83945"
       y="220.39572"
       id="text4910"><tspan
         sodipodi:role="line"
         id="tspan4908"
         style="stroke-width:0.75"
         x="353.83945"
         y="220.39572">t</tspan></text><text
       xml:space="preserve"
       style="font-size:12px;line-height:1.25;font-family:sans-serif;stroke-width:0.75"
       x="29.157055"
       y="6.0484443"
       id="text6662"><tspan
         sodipodi:role="line"
         id="tspan6660"
         style="stroke-width:0.75"
         x="29.157055"
         y="6.0484443">$v\left(H\over 2\right)$</tspan></text></g></svg>
