<?xml version="1.0" encoding="UTF-8" standalone="no"?>
<!-- Created with Inkscape (http://www.inkscape.org/) -->

<svg
   version="1.1"
   id="svg2"
   xml:space="preserve"
   width="466.66666"
   height="316"
   viewBox="0 0 466.66666 316"
   sodipodi:docname="plate_kinematic_tex.svg"
   inkscape:version="1.1.1 (3bf5ae0d25, 2021-09-20)"
   xmlns:inkscape="http://www.inkscape.org/namespaces/inkscape"
   xmlns:sodipodi="http://sodipodi.sourceforge.net/DTD/sodipodi-0.dtd"
   xmlns="http://www.w3.org/2000/svg"
   xmlns:svg="http://www.w3.org/2000/svg"><defs
     id="defs6"><clipPath
       clipPathUnits="userSpaceOnUse"
       id="clipPath134"><path
         d="m 271,73 h 2 v 7.398 h -2 z"
         id="path132" /></clipPath><clipPath
       clipPathUnits="userSpaceOnUse"
       id="clipPath144"><path
         d="m 271,63.359 h 2 V 71 h -2 z"
         id="path142" /></clipPath><clipPath
       clipPathUnits="userSpaceOnUse"
       id="clipPath154"><path
         d="M 263.281,71 H 271 v 2 h -7.719 z"
         id="path152" /></clipPath><clipPath
       clipPathUnits="userSpaceOnUse"
       id="clipPath164"><path
         d="m 273,71 h 7.32 v 2 H 273 Z"
         id="path162" /></clipPath></defs><sodipodi:namedview
     id="namedview4"
     pagecolor="#ffffff"
     bordercolor="#666666"
     borderopacity="1.0"
     inkscape:pageshadow="2"
     inkscape:pageopacity="0.0"
     inkscape:pagecheckerboard="0"
     showgrid="false"
     inkscape:zoom="2.6678572"
     inkscape:cx="-69.344041"
     inkscape:cy="73.654617"
     inkscape:window-width="3440"
     inkscape:window-height="1369"
     inkscape:window-x="-8"
     inkscape:window-y="-8"
     inkscape:window-maximized="1"
     inkscape:current-layer="g8" /><g
     id="g8"
     inkscape:groupmode="layer"
     inkscape:label="plate_kinematic"
     transform="matrix(1.3333333,0,0,1.3333333,0,7.9e-6)"><g
       id="g10"><path
         d="M 0,0 H 350.16 V 237.121 H 0 Z"
         style="fill:none;stroke:#ffffff;stroke-width:1;stroke-linecap:butt;stroke-linejoin:miter;stroke-miterlimit:10;stroke-dasharray:none;stroke-opacity:1"
         id="path14" /><path
         d="m 40.031,132.711 4.731,-0.434 4.73,-0.445 4.731,-0.469 4.73,-0.523 4.731,-0.656 4.726,-1.016 4.731,-4.707 4.73,-21.5 4.731,-30.914 0.148,0.015 0.27,0.024 0.535,0.047 1.07,0.097 2.113,0.196 4.188,0.379 4.73,0.433 4.731,0.43 4.73,0.437 4.731,0.446 4.73,0.457 4.731,0.472 4.73,0.5 4.731,0.536 4.73,0.593 4.73,0.684 4.727,0.836 4.731,1.113 4.73,1.801 4.73,5.754 4.731,15.887 4.73,23.218 4.731,28.414 4.73,31.938 2.368,-0.008 4.621,-0.422 4.73,-0.429 4.731,-0.434 4.73,-0.43 4.73,-0.441 4.731,-0.445 4.727,-0.461 4.73,-0.481 4.73,-0.504 4.731,-0.551 4.73,-0.613 4.731,-0.715 4.73,-0.89 4.731,-1.239 4.73,-2.277 4.731,-8.246 4.73,-17.801 4.731,-24.543 4.73,-29.285 3.609,-24.676"
         style="fill:none;stroke:#009a5f;stroke-width:1.6;stroke-linecap:square;stroke-linejoin:miter;stroke-miterlimit:3.25;stroke-dasharray:none;stroke-opacity:1"
         id="path16" /><path
         d="m 42,133 c 0,-0.531 -0.211,-1.039 -0.586,-1.414 C 41.039,131.211 40.531,131 40,131 c -0.531,0 -1.039,0.211 -1.414,0.586 C 38.211,131.961 38,132.469 38,133 c 0,0.531 0.211,1.039 0.586,1.414 0.375,0.375 0.883,0.586 1.414,0.586 0.531,0 1.039,-0.211 1.414,-0.586 C 41.789,134.039 42,133.531 42,133 Z"
         style="fill:#009a5f;fill-opacity:1;fill-rule:evenodd;stroke:none"
         id="path18" /><path
         d="m 47,132 c 0,-0.531 -0.211,-1.039 -0.586,-1.414 C 46.039,130.211 45.531,130 45,130 c -0.531,0 -1.039,0.211 -1.414,0.586 C 43.211,130.961 43,131.469 43,132 c 0,0.531 0.211,1.039 0.586,1.414 0.375,0.375 0.883,0.586 1.414,0.586 0.531,0 1.039,-0.211 1.414,-0.586 C 46.789,133.039 47,132.531 47,132 Z"
         style="fill:#009a5f;fill-opacity:1;fill-rule:evenodd;stroke:none"
         id="path20" /><path
         d="m 51,132 c 0,-0.531 -0.211,-1.039 -0.586,-1.414 C 50.039,130.211 49.531,130 49,130 c -0.531,0 -1.039,0.211 -1.414,0.586 C 47.211,130.961 47,131.469 47,132 c 0,0.531 0.211,1.039 0.586,1.414 0.375,0.375 0.883,0.586 1.414,0.586 0.531,0 1.039,-0.211 1.414,-0.586 C 50.789,133.039 51,132.531 51,132 Z"
         style="fill:#009a5f;fill-opacity:1;fill-rule:evenodd;stroke:none"
         id="path22" /><path
         d="m 56,131 c 0,-0.531 -0.211,-1.039 -0.586,-1.414 C 55.039,129.211 54.531,129 54,129 c -0.531,0 -1.039,0.211 -1.414,0.586 C 52.211,129.961 52,130.469 52,131 c 0,0.531 0.211,1.039 0.586,1.414 0.375,0.375 0.883,0.586 1.414,0.586 0.531,0 1.039,-0.211 1.414,-0.586 C 55.789,132.039 56,131.531 56,131 Z"
         style="fill:#009a5f;fill-opacity:1;fill-rule:evenodd;stroke:none"
         id="path24" /><path
         d="m 61,131 c 0,-0.531 -0.211,-1.039 -0.586,-1.414 C 60.039,129.211 59.531,129 59,129 c -0.531,0 -1.039,0.211 -1.414,0.586 C 57.211,129.961 57,130.469 57,131 c 0,0.531 0.211,1.039 0.586,1.414 0.375,0.375 0.883,0.586 1.414,0.586 0.531,0 1.039,-0.211 1.414,-0.586 C 60.789,132.039 61,131.531 61,131 Z"
         style="fill:#009a5f;fill-opacity:1;fill-rule:evenodd;stroke:none"
         id="path26" /><path
         d="m 66,130 c 0,-0.531 -0.211,-1.039 -0.586,-1.414 C 65.039,128.211 64.531,128 64,128 c -0.531,0 -1.039,0.211 -1.414,0.586 C 62.211,128.961 62,129.469 62,130 c 0,0.531 0.211,1.039 0.586,1.414 0.375,0.375 0.883,0.586 1.414,0.586 0.531,0 1.039,-0.211 1.414,-0.586 C 65.789,131.039 66,130.531 66,130 Z"
         style="fill:#009a5f;fill-opacity:1;fill-rule:evenodd;stroke:none"
         id="path28" /><path
         d="m 70,129 c 0,-0.531 -0.211,-1.039 -0.586,-1.414 C 69.039,127.211 68.531,127 68,127 c -0.531,0 -1.039,0.211 -1.414,0.586 C 66.211,127.961 66,128.469 66,129 c 0,0.531 0.211,1.039 0.586,1.414 0.375,0.375 0.883,0.586 1.414,0.586 0.531,0 1.039,-0.211 1.414,-0.586 C 69.789,130.039 70,129.531 70,129 Z"
         style="fill:#009a5f;fill-opacity:1;fill-rule:evenodd;stroke:none"
         id="path30" /><path
         d="m 75,124 c 0,-0.531 -0.211,-1.039 -0.586,-1.414 C 74.039,122.211 73.531,122 73,122 c -0.531,0 -1.039,0.211 -1.414,0.586 C 71.211,122.961 71,123.469 71,124 c 0,0.531 0.211,1.039 0.586,1.414 0.375,0.375 0.883,0.586 1.414,0.586 0.531,0 1.039,-0.211 1.414,-0.586 C 74.789,125.039 75,124.531 75,124 Z"
         style="fill:#009a5f;fill-opacity:1;fill-rule:evenodd;stroke:none"
         id="path32" /><path
         d="m 80,103 c 0,-0.531 -0.211,-1.039 -0.586,-1.414 C 79.039,101.211 78.531,101 78,101 c -0.531,0 -1.039,0.211 -1.414,0.586 C 76.211,101.961 76,102.469 76,103 c 0,0.531 0.211,1.039 0.586,1.414 0.375,0.375 0.883,0.586 1.414,0.586 0.531,0 1.039,-0.211 1.414,-0.586 C 79.789,104.039 80,103.531 80,103 Z"
         style="fill:#009a5f;fill-opacity:1;fill-rule:evenodd;stroke:none"
         id="path34" /><path
         d="M 85,72 C 85,71.469 84.789,70.961 84.414,70.586 84.039,70.211 83.531,70 83,70 82.469,70 81.961,70.211 81.586,70.586 81.211,70.961 81,71.469 81,72 c 0,0.531 0.211,1.039 0.586,1.414 C 81.961,73.789 82.469,74 83,74 83.531,74 84.039,73.789 84.414,73.414 84.789,73.039 85,72.531 85,72 Z"
         style="fill:#009a5f;fill-opacity:1;fill-rule:evenodd;stroke:none"
         id="path36" /><path
         d="M 85,72 C 85,71.469 84.789,70.961 84.414,70.586 84.039,70.211 83.531,70 83,70 82.469,70 81.961,70.211 81.586,70.586 81.211,70.961 81,71.469 81,72 c 0,0.531 0.211,1.039 0.586,1.414 C 81.961,73.789 82.469,74 83,74 83.531,74 84.039,73.789 84.414,73.414 84.789,73.039 85,72.531 85,72 Z"
         style="fill:#009a5f;fill-opacity:1;fill-rule:evenodd;stroke:none"
         id="path38" /><path
         d="M 85,72 C 85,71.469 84.789,70.961 84.414,70.586 84.039,70.211 83.531,70 83,70 82.469,70 81.961,70.211 81.586,70.586 81.211,70.961 81,71.469 81,72 c 0,0.531 0.211,1.039 0.586,1.414 C 81.961,73.789 82.469,74 83,74 83.531,74 84.039,73.789 84.414,73.414 84.789,73.039 85,72.531 85,72 Z"
         style="fill:#009a5f;fill-opacity:1;fill-rule:evenodd;stroke:none"
         id="path40" /><path
         d="M 86,72 C 86,71.469 85.789,70.961 85.414,70.586 85.039,70.211 84.531,70 84,70 83.469,70 82.961,70.211 82.586,70.586 82.211,70.961 82,71.469 82,72 c 0,0.531 0.211,1.039 0.586,1.414 C 82.961,73.789 83.469,74 84,74 84.531,74 85.039,73.789 85.414,73.414 85.789,73.039 86,72.531 86,72 Z"
         style="fill:#009a5f;fill-opacity:1;fill-rule:evenodd;stroke:none"
         id="path42" /><path
         d="M 87,72 C 87,71.469 86.789,70.961 86.414,70.586 86.039,70.211 85.531,70 85,70 84.469,70 83.961,70.211 83.586,70.586 83.211,70.961 83,71.469 83,72 c 0,0.531 0.211,1.039 0.586,1.414 C 83.961,73.789 84.469,74 85,74 85.531,74 86.039,73.789 86.414,73.414 86.789,73.039 87,72.531 87,72 Z"
         style="fill:#009a5f;fill-opacity:1;fill-rule:evenodd;stroke:none"
         id="path44" /><path
         d="M 89,72 C 89,71.469 88.789,70.961 88.414,70.586 88.039,70.211 87.531,70 87,70 86.469,70 85.961,70.211 85.586,70.586 85.211,70.961 85,71.469 85,72 c 0,0.531 0.211,1.039 0.586,1.414 C 85.961,73.789 86.469,74 87,74 87.531,74 88.039,73.789 88.414,73.414 88.789,73.039 89,72.531 89,72 Z"
         style="fill:#009a5f;fill-opacity:1;fill-rule:evenodd;stroke:none"
         id="path46" /><path
         d="M 93,73 C 93,72.469 92.789,71.961 92.414,71.586 92.039,71.211 91.531,71 91,71 90.469,71 89.961,71.211 89.586,71.586 89.211,71.961 89,72.469 89,73 c 0,0.531 0.211,1.039 0.586,1.414 C 89.961,74.789 90.469,75 91,75 91.531,75 92.039,74.789 92.414,74.414 92.789,74.039 93,73.531 93,73 Z"
         style="fill:#009a5f;fill-opacity:1;fill-rule:evenodd;stroke:none"
         id="path48" /><path
         d="M 98,73 C 98,72.469 97.789,71.961 97.414,71.586 97.039,71.211 96.531,71 96,71 95.469,71 94.961,71.211 94.586,71.586 94.211,71.961 94,72.469 94,73 c 0,0.531 0.211,1.039 0.586,1.414 C 94.961,74.789 95.469,75 96,75 96.531,75 97.039,74.789 97.414,74.414 97.789,74.039 98,73.531 98,73 Z"
         style="fill:#009a5f;fill-opacity:1;fill-rule:evenodd;stroke:none"
         id="path50" /><path
         d="m 102,74 c 0,-0.531 -0.211,-1.039 -0.586,-1.414 C 101.039,72.211 100.531,72 100,72 99.469,72 98.961,72.211 98.586,72.586 98.211,72.961 98,73.469 98,74 c 0,0.531 0.211,1.039 0.586,1.414 C 98.961,75.789 99.469,76 100,76 c 0.531,0 1.039,-0.211 1.414,-0.586 C 101.789,75.039 102,74.531 102,74 Z"
         style="fill:#009a5f;fill-opacity:1;fill-rule:evenodd;stroke:none"
         id="path52" /><path
         d="m 107,74 c 0,-0.531 -0.211,-1.039 -0.586,-1.414 C 106.039,72.211 105.531,72 105,72 c -0.531,0 -1.039,0.211 -1.414,0.586 C 103.211,72.961 103,73.469 103,74 c 0,0.531 0.211,1.039 0.586,1.414 0.375,0.375 0.883,0.586 1.414,0.586 0.531,0 1.039,-0.211 1.414,-0.586 C 106.789,75.039 107,74.531 107,74 Z"
         style="fill:#009a5f;fill-opacity:1;fill-rule:evenodd;stroke:none"
         id="path54" /><path
         d="m 112,75 c 0,-0.531 -0.211,-1.039 -0.586,-1.414 C 111.039,73.211 110.531,73 110,73 c -0.531,0 -1.039,0.211 -1.414,0.586 C 108.211,73.961 108,74.469 108,75 c 0,0.531 0.211,1.039 0.586,1.414 0.375,0.375 0.883,0.586 1.414,0.586 0.531,0 1.039,-0.211 1.414,-0.586 C 111.789,76.039 112,75.531 112,75 Z"
         style="fill:#009a5f;fill-opacity:1;fill-rule:evenodd;stroke:none"
         id="path56" /><path
         d="m 117,75 c 0,-0.531 -0.211,-1.039 -0.586,-1.414 C 116.039,73.211 115.531,73 115,73 c -0.531,0 -1.039,0.211 -1.414,0.586 C 113.211,73.961 113,74.469 113,75 c 0,0.531 0.211,1.039 0.586,1.414 0.375,0.375 0.883,0.586 1.414,0.586 0.531,0 1.039,-0.211 1.414,-0.586 C 116.789,76.039 117,75.531 117,75 Z"
         style="fill:#009a5f;fill-opacity:1;fill-rule:evenodd;stroke:none"
         id="path58" /><path
         d="m 121,75 c 0,-0.531 -0.211,-1.039 -0.586,-1.414 C 120.039,73.211 119.531,73 119,73 c -0.531,0 -1.039,0.211 -1.414,0.586 C 117.211,73.961 117,74.469 117,75 c 0,0.531 0.211,1.039 0.586,1.414 0.375,0.375 0.883,0.586 1.414,0.586 0.531,0 1.039,-0.211 1.414,-0.586 C 120.789,76.039 121,75.531 121,75 Z"
         style="fill:#009a5f;fill-opacity:1;fill-rule:evenodd;stroke:none"
         id="path60" /><path
         d="m 126,76 c 0,-0.531 -0.211,-1.039 -0.586,-1.414 C 125.039,74.211 124.531,74 124,74 c -0.531,0 -1.039,0.211 -1.414,0.586 C 122.211,74.961 122,75.469 122,76 c 0,0.531 0.211,1.039 0.586,1.414 0.375,0.375 0.883,0.586 1.414,0.586 0.531,0 1.039,-0.211 1.414,-0.586 C 125.789,77.039 126,76.531 126,76 Z"
         style="fill:#009a5f;fill-opacity:1;fill-rule:evenodd;stroke:none"
         id="path62" /><path
         d="m 131,77 c 0,-0.531 -0.211,-1.039 -0.586,-1.414 C 130.039,75.211 129.531,75 129,75 c -0.531,0 -1.039,0.211 -1.414,0.586 C 127.211,75.961 127,76.469 127,77 c 0,0.531 0.211,1.039 0.586,1.414 0.375,0.375 0.883,0.586 1.414,0.586 0.531,0 1.039,-0.211 1.414,-0.586 C 130.789,78.039 131,77.531 131,77 Z"
         style="fill:#009a5f;fill-opacity:1;fill-rule:evenodd;stroke:none"
         id="path64" /><path
         d="m 135,77 c 0,-0.531 -0.211,-1.039 -0.586,-1.414 C 134.039,75.211 133.531,75 133,75 c -0.531,0 -1.039,0.211 -1.414,0.586 C 131.211,75.961 131,76.469 131,77 c 0,0.531 0.211,1.039 0.586,1.414 0.375,0.375 0.883,0.586 1.414,0.586 0.531,0 1.039,-0.211 1.414,-0.586 C 134.789,78.039 135,77.531 135,77 Z"
         style="fill:#009a5f;fill-opacity:1;fill-rule:evenodd;stroke:none"
         id="path66" /><path
         d="m 140,78 c 0,-0.531 -0.211,-1.039 -0.586,-1.414 C 139.039,76.211 138.531,76 138,76 c -0.531,0 -1.039,0.211 -1.414,0.586 C 136.211,76.961 136,77.469 136,78 c 0,0.531 0.211,1.039 0.586,1.414 0.375,0.375 0.883,0.586 1.414,0.586 0.531,0 1.039,-0.211 1.414,-0.586 C 139.789,79.039 140,78.531 140,78 Z"
         style="fill:#009a5f;fill-opacity:1;fill-rule:evenodd;stroke:none"
         id="path68" /><path
         d="m 145,79 c 0,-0.531 -0.211,-1.039 -0.586,-1.414 C 144.039,77.211 143.531,77 143,77 c -0.531,0 -1.039,0.211 -1.414,0.586 C 141.211,77.961 141,78.469 141,79 c 0,0.531 0.211,1.039 0.586,1.414 0.375,0.375 0.883,0.586 1.414,0.586 0.531,0 1.039,-0.211 1.414,-0.586 C 144.789,80.039 145,79.531 145,79 Z"
         style="fill:#009a5f;fill-opacity:1;fill-rule:evenodd;stroke:none"
         id="path70" /><path
         d="m 150,80 c 0,-0.531 -0.211,-1.039 -0.586,-1.414 C 149.039,78.211 148.531,78 148,78 c -0.531,0 -1.039,0.211 -1.414,0.586 C 146.211,78.961 146,79.469 146,80 c 0,0.531 0.211,1.039 0.586,1.414 0.375,0.375 0.883,0.586 1.414,0.586 0.531,0 1.039,-0.211 1.414,-0.586 C 149.789,81.039 150,80.531 150,80 Z"
         style="fill:#009a5f;fill-opacity:1;fill-rule:evenodd;stroke:none"
         id="path72" /><path
         d="m 154,82 c 0,-0.531 -0.211,-1.039 -0.586,-1.414 C 153.039,80.211 152.531,80 152,80 c -0.531,0 -1.039,0.211 -1.414,0.586 C 150.211,80.961 150,81.469 150,82 c 0,0.531 0.211,1.039 0.586,1.414 0.375,0.375 0.883,0.586 1.414,0.586 0.531,0 1.039,-0.211 1.414,-0.586 C 153.789,83.039 154,82.531 154,82 Z"
         style="fill:#009a5f;fill-opacity:1;fill-rule:evenodd;stroke:none"
         id="path74" /><path
         d="m 159,87 c 0,-0.531 -0.211,-1.039 -0.586,-1.414 C 158.039,85.211 157.531,85 157,85 c -0.531,0 -1.039,0.211 -1.414,0.586 C 155.211,85.961 155,86.469 155,87 c 0,0.531 0.211,1.039 0.586,1.414 0.375,0.375 0.883,0.586 1.414,0.586 0.531,0 1.039,-0.211 1.414,-0.586 C 158.789,88.039 159,87.531 159,87 Z"
         style="fill:#009a5f;fill-opacity:1;fill-rule:evenodd;stroke:none"
         id="path76" /><path
         d="m 164,103 c 0,-0.531 -0.211,-1.039 -0.586,-1.414 C 163.039,101.211 162.531,101 162,101 c -0.531,0 -1.039,0.211 -1.414,0.586 -0.375,0.375 -0.586,0.883 -0.586,1.414 0,0.531 0.211,1.039 0.586,1.414 0.375,0.375 0.883,0.586 1.414,0.586 0.531,0 1.039,-0.211 1.414,-0.586 C 163.789,104.039 164,103.531 164,103 Z"
         style="fill:#009a5f;fill-opacity:1;fill-rule:evenodd;stroke:none"
         id="path78" /><path
         d="m 169,126 c 0,-0.531 -0.211,-1.039 -0.586,-1.414 C 168.039,124.211 167.531,124 167,124 c -0.531,0 -1.039,0.211 -1.414,0.586 -0.375,0.375 -0.586,0.883 -0.586,1.414 0,0.531 0.211,1.039 0.586,1.414 0.375,0.375 0.883,0.586 1.414,0.586 0.531,0 1.039,-0.211 1.414,-0.586 C 168.789,127.039 169,126.531 169,126 Z"
         style="fill:#009a5f;fill-opacity:1;fill-rule:evenodd;stroke:none"
         id="path80" /><path
         d="m 173,155 c 0,-0.531 -0.211,-1.039 -0.586,-1.414 C 172.039,153.211 171.531,153 171,153 c -0.531,0 -1.039,0.211 -1.414,0.586 -0.375,0.375 -0.586,0.883 -0.586,1.414 0,0.531 0.211,1.039 0.586,1.414 0.375,0.375 0.883,0.586 1.414,0.586 0.531,0 1.039,-0.211 1.414,-0.586 C 172.789,156.039 173,155.531 173,155 Z"
         style="fill:#009a5f;fill-opacity:1;fill-rule:evenodd;stroke:none"
         id="path82" /><path
         d="m 178,187 c 0,-0.531 -0.211,-1.039 -0.586,-1.414 C 177.039,185.211 176.531,185 176,185 c -0.531,0 -1.039,0.211 -1.414,0.586 -0.375,0.375 -0.586,0.883 -0.586,1.414 0,0.531 0.211,1.039 0.586,1.414 0.375,0.375 0.883,0.586 1.414,0.586 0.531,0 1.039,-0.211 1.414,-0.586 C 177.789,188.039 178,187.531 178,187 Z"
         style="fill:#009a5f;fill-opacity:1;fill-rule:evenodd;stroke:none"
         id="path84" /><path
         d="m 180,187 c 0,-0.531 -0.211,-1.039 -0.586,-1.414 C 179.039,185.211 178.531,185 178,185 c -0.531,0 -1.039,0.211 -1.414,0.586 -0.375,0.375 -0.586,0.883 -0.586,1.414 0,0.531 0.211,1.039 0.586,1.414 0.375,0.375 0.883,0.586 1.414,0.586 0.531,0 1.039,-0.211 1.414,-0.586 C 179.789,188.039 180,187.531 180,187 Z"
         style="fill:#009a5f;fill-opacity:1;fill-rule:evenodd;stroke:none"
         id="path86" /><path
         d="m 185,186 c 0,-0.531 -0.211,-1.039 -0.586,-1.414 C 184.039,184.211 183.531,184 183,184 c -0.531,0 -1.039,0.211 -1.414,0.586 -0.375,0.375 -0.586,0.883 -0.586,1.414 0,0.531 0.211,1.039 0.586,1.414 0.375,0.375 0.883,0.586 1.414,0.586 0.531,0 1.039,-0.211 1.414,-0.586 C 184.789,187.039 185,186.531 185,186 Z"
         style="fill:#009a5f;fill-opacity:1;fill-rule:evenodd;stroke:none"
         id="path88" /><path
         d="m 190,186 c 0,-0.531 -0.211,-1.039 -0.586,-1.414 C 189.039,184.211 188.531,184 188,184 c -0.531,0 -1.039,0.211 -1.414,0.586 -0.375,0.375 -0.586,0.883 -0.586,1.414 0,0.531 0.211,1.039 0.586,1.414 0.375,0.375 0.883,0.586 1.414,0.586 0.531,0 1.039,-0.211 1.414,-0.586 C 189.789,187.039 190,186.531 190,186 Z"
         style="fill:#009a5f;fill-opacity:1;fill-rule:evenodd;stroke:none"
         id="path90" /><path
         d="m 195,185 c 0,-0.531 -0.211,-1.039 -0.586,-1.414 C 194.039,183.211 193.531,183 193,183 c -0.531,0 -1.039,0.211 -1.414,0.586 -0.375,0.375 -0.586,0.883 -0.586,1.414 0,0.531 0.211,1.039 0.586,1.414 0.375,0.375 0.883,0.586 1.414,0.586 0.531,0 1.039,-0.211 1.414,-0.586 C 194.789,186.039 195,185.531 195,185 Z"
         style="fill:#009a5f;fill-opacity:1;fill-rule:evenodd;stroke:none"
         id="path92" /><path
         d="m 199,185 c 0,-0.531 -0.211,-1.039 -0.586,-1.414 C 198.039,183.211 197.531,183 197,183 c -0.531,0 -1.039,0.211 -1.414,0.586 -0.375,0.375 -0.586,0.883 -0.586,1.414 0,0.531 0.211,1.039 0.586,1.414 0.375,0.375 0.883,0.586 1.414,0.586 0.531,0 1.039,-0.211 1.414,-0.586 C 198.789,186.039 199,185.531 199,185 Z"
         style="fill:#009a5f;fill-opacity:1;fill-rule:evenodd;stroke:none"
         id="path94" /><path
         d="m 204,185 c 0,-0.531 -0.211,-1.039 -0.586,-1.414 C 203.039,183.211 202.531,183 202,183 c -0.531,0 -1.039,0.211 -1.414,0.586 -0.375,0.375 -0.586,0.883 -0.586,1.414 0,0.531 0.211,1.039 0.586,1.414 0.375,0.375 0.883,0.586 1.414,0.586 0.531,0 1.039,-0.211 1.414,-0.586 C 203.789,186.039 204,185.531 204,185 Z"
         style="fill:#009a5f;fill-opacity:1;fill-rule:evenodd;stroke:none"
         id="path96" /><path
         d="m 209,184 c 0,-0.531 -0.211,-1.039 -0.586,-1.414 C 208.039,182.211 207.531,182 207,182 c -0.531,0 -1.039,0.211 -1.414,0.586 -0.375,0.375 -0.586,0.883 -0.586,1.414 0,0.531 0.211,1.039 0.586,1.414 0.375,0.375 0.883,0.586 1.414,0.586 0.531,0 1.039,-0.211 1.414,-0.586 C 208.789,185.039 209,184.531 209,184 Z"
         style="fill:#009a5f;fill-opacity:1;fill-rule:evenodd;stroke:none"
         id="path98" /><path
         d="m 213,184 c 0,-0.531 -0.211,-1.039 -0.586,-1.414 C 212.039,182.211 211.531,182 211,182 c -0.531,0 -1.039,0.211 -1.414,0.586 -0.375,0.375 -0.586,0.883 -0.586,1.414 0,0.531 0.211,1.039 0.586,1.414 0.375,0.375 0.883,0.586 1.414,0.586 0.531,0 1.039,-0.211 1.414,-0.586 C 212.789,185.039 213,184.531 213,184 Z"
         style="fill:#009a5f;fill-opacity:1;fill-rule:evenodd;stroke:none"
         id="path100" /><path
         d="m 218,183 c 0,-0.531 -0.211,-1.039 -0.586,-1.414 C 217.039,181.211 216.531,181 216,181 c -0.531,0 -1.039,0.211 -1.414,0.586 -0.375,0.375 -0.586,0.883 -0.586,1.414 0,0.531 0.211,1.039 0.586,1.414 0.375,0.375 0.883,0.586 1.414,0.586 0.531,0 1.039,-0.211 1.414,-0.586 C 217.789,184.039 218,183.531 218,183 Z"
         style="fill:#009a5f;fill-opacity:1;fill-rule:evenodd;stroke:none"
         id="path102" /><path
         d="m 223,183 c 0,-0.531 -0.211,-1.039 -0.586,-1.414 C 222.039,181.211 221.531,181 221,181 c -0.531,0 -1.039,0.211 -1.414,0.586 -0.375,0.375 -0.586,0.883 -0.586,1.414 0,0.531 0.211,1.039 0.586,1.414 0.375,0.375 0.883,0.586 1.414,0.586 0.531,0 1.039,-0.211 1.414,-0.586 C 222.789,184.039 223,183.531 223,183 Z"
         style="fill:#009a5f;fill-opacity:1;fill-rule:evenodd;stroke:none"
         id="path104" /><path
         d="m 228,182 c 0,-0.531 -0.211,-1.039 -0.586,-1.414 C 227.039,180.211 226.531,180 226,180 c -0.531,0 -1.039,0.211 -1.414,0.586 -0.375,0.375 -0.586,0.883 -0.586,1.414 0,0.531 0.211,1.039 0.586,1.414 0.375,0.375 0.883,0.586 1.414,0.586 0.531,0 1.039,-0.211 1.414,-0.586 C 227.789,183.039 228,182.531 228,182 Z"
         style="fill:#009a5f;fill-opacity:1;fill-rule:evenodd;stroke:none"
         id="path106" /><path
         d="m 232,182 c 0,-0.531 -0.211,-1.039 -0.586,-1.414 C 231.039,180.211 230.531,180 230,180 c -0.531,0 -1.039,0.211 -1.414,0.586 -0.375,0.375 -0.586,0.883 -0.586,1.414 0,0.531 0.211,1.039 0.586,1.414 0.375,0.375 0.883,0.586 1.414,0.586 0.531,0 1.039,-0.211 1.414,-0.586 C 231.789,183.039 232,182.531 232,182 Z"
         style="fill:#009a5f;fill-opacity:1;fill-rule:evenodd;stroke:none"
         id="path108" /><path
         d="m 237,181 c 0,-0.531 -0.211,-1.039 -0.586,-1.414 C 236.039,179.211 235.531,179 235,179 c -0.531,0 -1.039,0.211 -1.414,0.586 -0.375,0.375 -0.586,0.883 -0.586,1.414 0,0.531 0.211,1.039 0.586,1.414 0.375,0.375 0.883,0.586 1.414,0.586 0.531,0 1.039,-0.211 1.414,-0.586 C 236.789,182.039 237,181.531 237,181 Z"
         style="fill:#009a5f;fill-opacity:1;fill-rule:evenodd;stroke:none"
         id="path110" /><path
         d="m 242,180 c 0,-0.531 -0.211,-1.039 -0.586,-1.414 C 241.039,178.211 240.531,178 240,178 c -0.531,0 -1.039,0.211 -1.414,0.586 -0.375,0.375 -0.586,0.883 -0.586,1.414 0,0.531 0.211,1.039 0.586,1.414 0.375,0.375 0.883,0.586 1.414,0.586 0.531,0 1.039,-0.211 1.414,-0.586 C 241.789,181.039 242,180.531 242,180 Z"
         style="fill:#009a5f;fill-opacity:1;fill-rule:evenodd;stroke:none"
         id="path112" /><path
         d="m 247,179 c 0,-0.531 -0.211,-1.039 -0.586,-1.414 C 246.039,177.211 245.531,177 245,177 c -0.531,0 -1.039,0.211 -1.414,0.586 -0.375,0.375 -0.586,0.883 -0.586,1.414 0,0.531 0.211,1.039 0.586,1.414 0.375,0.375 0.883,0.586 1.414,0.586 0.531,0 1.039,-0.211 1.414,-0.586 C 246.789,180.039 247,179.531 247,179 Z"
         style="fill:#009a5f;fill-opacity:1;fill-rule:evenodd;stroke:none"
         id="path114" /><path
         d="m 251,176 c 0,-0.531 -0.211,-1.039 -0.586,-1.414 C 250.039,174.211 249.531,174 249,174 c -0.531,0 -1.039,0.211 -1.414,0.586 -0.375,0.375 -0.586,0.883 -0.586,1.414 0,0.531 0.211,1.039 0.586,1.414 0.375,0.375 0.883,0.586 1.414,0.586 0.531,0 1.039,-0.211 1.414,-0.586 C 250.789,177.039 251,176.531 251,176 Z"
         style="fill:#009a5f;fill-opacity:1;fill-rule:evenodd;stroke:none"
         id="path116" /><path
         d="m 256,168 c 0,-0.531 -0.211,-1.039 -0.586,-1.414 C 255.039,166.211 254.531,166 254,166 c -0.531,0 -1.039,0.211 -1.414,0.586 -0.375,0.375 -0.586,0.883 -0.586,1.414 0,0.531 0.211,1.039 0.586,1.414 0.375,0.375 0.883,0.586 1.414,0.586 0.531,0 1.039,-0.211 1.414,-0.586 C 255.789,169.039 256,168.531 256,168 Z"
         style="fill:#009a5f;fill-opacity:1;fill-rule:evenodd;stroke:none"
         id="path118" /><path
         d="m 261,150 c 0,-0.531 -0.211,-1.039 -0.586,-1.414 C 260.039,148.211 259.531,148 259,148 c -0.531,0 -1.039,0.211 -1.414,0.586 -0.375,0.375 -0.586,0.883 -0.586,1.414 0,0.531 0.211,1.039 0.586,1.414 0.375,0.375 0.883,0.586 1.414,0.586 0.531,0 1.039,-0.211 1.414,-0.586 C 260.789,151.039 261,150.531 261,150 Z"
         style="fill:#009a5f;fill-opacity:1;fill-rule:evenodd;stroke:none"
         id="path120" /><path
         d="m 265,126 c 0,-0.531 -0.211,-1.039 -0.586,-1.414 C 264.039,124.211 263.531,124 263,124 c -0.531,0 -1.039,0.211 -1.414,0.586 -0.375,0.375 -0.586,0.883 -0.586,1.414 0,0.531 0.211,1.039 0.586,1.414 0.375,0.375 0.883,0.586 1.414,0.586 0.531,0 1.039,-0.211 1.414,-0.586 C 264.789,127.039 265,126.531 265,126 Z"
         style="fill:#009a5f;fill-opacity:1;fill-rule:evenodd;stroke:none"
         id="path122" /><path
         d="m 270,97 c 0,-0.531 -0.211,-1.039 -0.586,-1.414 C 269.039,95.211 268.531,95 268,95 c -0.531,0 -1.039,0.211 -1.414,0.586 C 266.211,95.961 266,96.469 266,97 c 0,0.531 0.211,1.039 0.586,1.414 0.375,0.375 0.883,0.586 1.414,0.586 0.531,0 1.039,-0.211 1.414,-0.586 C 269.789,98.039 270,97.531 270,97 Z"
         style="fill:#009a5f;fill-opacity:1;fill-rule:evenodd;stroke:none"
         id="path124" /><path
         d="m 274,72 c 0,-0.531 -0.211,-1.039 -0.586,-1.414 C 273.039,70.211 272.531,70 272,70 c -0.531,0 -1.039,0.211 -1.414,0.586 C 270.211,70.961 270,71.469 270,72 c 0,0.531 0.211,1.039 0.586,1.414 0.375,0.375 0.883,0.586 1.414,0.586 0.531,0 1.039,-0.211 1.414,-0.586 C 273.789,73.039 274,72.531 274,72 Z"
         style="fill:#009a5f;fill-opacity:1;fill-rule:evenodd;stroke:none"
         id="path126" /></g><path
       d="m 6.918,133.141 v -2.399"
       style="fill:none;stroke:#666666;stroke-width:0.2;stroke-linecap:butt;stroke-linejoin:miter;stroke-miterlimit:3.25;stroke-dasharray:none;stroke-opacity:1"
       id="path174" /><path
       d="m 16.379,133.141 v -2.399"
       style="fill:none;stroke:#666666;stroke-width:0.2;stroke-linecap:butt;stroke-linejoin:miter;stroke-miterlimit:3.25;stroke-dasharray:none;stroke-opacity:1"
       id="path176" /><path
       d="m 25.84,133.141 v -2.399"
       style="fill:none;stroke:#666666;stroke-width:0.2;stroke-linecap:butt;stroke-linejoin:miter;stroke-miterlimit:3.25;stroke-dasharray:none;stroke-opacity:1"
       id="path178" /><path
       d="m 35.301,133.141 v -4"
       style="fill:none;stroke:#666666;stroke-width:0.2;stroke-linecap:butt;stroke-linejoin:miter;stroke-miterlimit:3.25;stroke-dasharray:none;stroke-opacity:1"
       id="path180" /><path
       d="m 44.762,133.141 v -2.399"
       style="fill:none;stroke:#666666;stroke-width:0.2;stroke-linecap:butt;stroke-linejoin:miter;stroke-miterlimit:3.25;stroke-dasharray:none;stroke-opacity:1"
       id="path182" /><path
       d="m 54.223,133.141 v -2.399"
       style="fill:none;stroke:#666666;stroke-width:0.2;stroke-linecap:butt;stroke-linejoin:miter;stroke-miterlimit:3.25;stroke-dasharray:none;stroke-opacity:1"
       id="path184" /><path
       d="m 63.684,133.141 v -2.399"
       style="fill:none;stroke:#666666;stroke-width:0.2;stroke-linecap:butt;stroke-linejoin:miter;stroke-miterlimit:3.25;stroke-dasharray:none;stroke-opacity:1"
       id="path186" /><path
       d="m 73.141,133.141 v -2.399"
       style="fill:none;stroke:#666666;stroke-width:0.2;stroke-linecap:butt;stroke-linejoin:miter;stroke-miterlimit:3.25;stroke-dasharray:none;stroke-opacity:1"
       id="path188" /><path
       d="m 82.602,133.141 v -4"
       style="fill:none;stroke:#666666;stroke-width:0.2;stroke-linecap:butt;stroke-linejoin:miter;stroke-miterlimit:3.25;stroke-dasharray:none;stroke-opacity:1"
       id="path190" /><text
       style="font-variant:normal;font-weight:normal;font-size:10px;font-family:Arial;-inkscape-font-specification:ArialMT;writing-mode:lr-tb;fill:#000000;fill-opacity:1;fill-rule:nonzero;stroke:none"
       id="text194"
       x="79.602875"
       y="145.14128"><tspan
         x="79.602875"
         y="145.14128"
         id="tspan192">1</tspan></text><path
       d="m 92.062,133.141 v -2.399"
       style="fill:none;stroke:#666666;stroke-width:0.2;stroke-linecap:butt;stroke-linejoin:miter;stroke-miterlimit:3.25;stroke-dasharray:none;stroke-opacity:1"
       id="path196" /><path
       d="m 101.523,133.141 v -2.399"
       style="fill:none;stroke:#666666;stroke-width:0.2;stroke-linecap:butt;stroke-linejoin:miter;stroke-miterlimit:3.25;stroke-dasharray:none;stroke-opacity:1"
       id="path198" /><path
       d="m 110.984,133.141 v -2.399"
       style="fill:none;stroke:#666666;stroke-width:0.2;stroke-linecap:butt;stroke-linejoin:miter;stroke-miterlimit:3.25;stroke-dasharray:none;stroke-opacity:1"
       id="path200" /><path
       d="m 120.445,133.141 v -2.399"
       style="fill:none;stroke:#666666;stroke-width:0.2;stroke-linecap:butt;stroke-linejoin:miter;stroke-miterlimit:3.25;stroke-dasharray:none;stroke-opacity:1"
       id="path202" /><path
       d="m 129.906,133.141 v -4"
       style="fill:none;stroke:#666666;stroke-width:0.2;stroke-linecap:butt;stroke-linejoin:miter;stroke-miterlimit:3.25;stroke-dasharray:none;stroke-opacity:1"
       id="path204" /><text
       style="font-variant:normal;font-weight:normal;font-size:10px;font-family:Arial;-inkscape-font-specification:ArialMT;writing-mode:lr-tb;fill:#000000;fill-opacity:1;fill-rule:nonzero;stroke:none"
       id="text208"
       x="126.90575"
       y="145.14128"><tspan
         x="126.90575"
         y="145.14128"
         id="tspan206">2</tspan></text><path
       d="m 139.367,133.141 v -2.399"
       style="fill:none;stroke:#666666;stroke-width:0.2;stroke-linecap:butt;stroke-linejoin:miter;stroke-miterlimit:3.25;stroke-dasharray:none;stroke-opacity:1"
       id="path210" /><path
       d="m 148.828,133.141 v -2.399"
       style="fill:none;stroke:#666666;stroke-width:0.2;stroke-linecap:butt;stroke-linejoin:miter;stroke-miterlimit:3.25;stroke-dasharray:none;stroke-opacity:1"
       id="path212" /><path
       d="m 158.289,133.141 v -2.399"
       style="fill:none;stroke:#666666;stroke-width:0.2;stroke-linecap:butt;stroke-linejoin:miter;stroke-miterlimit:3.25;stroke-dasharray:none;stroke-opacity:1"
       id="path214" /><path
       d="m 167.75,133.141 v -2.399"
       style="fill:none;stroke:#666666;stroke-width:0.2;stroke-linecap:butt;stroke-linejoin:miter;stroke-miterlimit:3.25;stroke-dasharray:none;stroke-opacity:1"
       id="path216" /><path
       d="m 177.207,133.141 v -4"
       style="fill:none;stroke:#666666;stroke-width:0.2;stroke-linecap:butt;stroke-linejoin:miter;stroke-miterlimit:3.25;stroke-dasharray:none;stroke-opacity:1"
       id="path218" /><text
       style="font-variant:normal;font-weight:normal;font-size:10px;font-family:Arial;-inkscape-font-specification:ArialMT;writing-mode:lr-tb;fill:#000000;fill-opacity:1;fill-rule:nonzero;stroke:none"
       id="text222"
       x="174.20863"
       y="145.14128"><tspan
         x="174.20863"
         y="145.14128"
         id="tspan220">3</tspan></text><path
       d="m 186.668,133.141 v -2.399"
       style="fill:none;stroke:#666666;stroke-width:0.2;stroke-linecap:butt;stroke-linejoin:miter;stroke-miterlimit:3.25;stroke-dasharray:none;stroke-opacity:1"
       id="path224" /><path
       d="m 196.129,133.141 v -2.399"
       style="fill:none;stroke:#666666;stroke-width:0.2;stroke-linecap:butt;stroke-linejoin:miter;stroke-miterlimit:3.25;stroke-dasharray:none;stroke-opacity:1"
       id="path226" /><path
       d="m 205.59,133.141 v -2.399"
       style="fill:none;stroke:#666666;stroke-width:0.2;stroke-linecap:butt;stroke-linejoin:miter;stroke-miterlimit:3.25;stroke-dasharray:none;stroke-opacity:1"
       id="path228" /><path
       d="m 215.051,133.141 v -2.399"
       style="fill:none;stroke:#666666;stroke-width:0.2;stroke-linecap:butt;stroke-linejoin:miter;stroke-miterlimit:3.25;stroke-dasharray:none;stroke-opacity:1"
       id="path230" /><path
       d="m 224.512,133.141 v -4"
       style="fill:none;stroke:#666666;stroke-width:0.2;stroke-linecap:butt;stroke-linejoin:miter;stroke-miterlimit:3.25;stroke-dasharray:none;stroke-opacity:1"
       id="path232" /><text
       style="font-variant:normal;font-weight:normal;font-size:10px;font-family:Arial;-inkscape-font-specification:ArialMT;writing-mode:lr-tb;fill:#000000;fill-opacity:1;fill-rule:nonzero;stroke:none"
       id="text236"
       x="221.51151"
       y="145.14128"><tspan
         x="221.51151"
         y="145.14128"
         id="tspan234">4</tspan></text><path
       d="m 233.973,133.141 v -2.399"
       style="fill:none;stroke:#666666;stroke-width:0.2;stroke-linecap:butt;stroke-linejoin:miter;stroke-miterlimit:3.25;stroke-dasharray:none;stroke-opacity:1"
       id="path238" /><path
       d="m 243.434,133.141 v -2.399"
       style="fill:none;stroke:#666666;stroke-width:0.2;stroke-linecap:butt;stroke-linejoin:miter;stroke-miterlimit:3.25;stroke-dasharray:none;stroke-opacity:1"
       id="path240" /><path
       d="m 252.895,133.141 v -2.399"
       style="fill:none;stroke:#666666;stroke-width:0.2;stroke-linecap:butt;stroke-linejoin:miter;stroke-miterlimit:3.25;stroke-dasharray:none;stroke-opacity:1"
       id="path242" /><path
       d="m 262.355,133.141 v -2.399"
       style="fill:none;stroke:#666666;stroke-width:0.2;stroke-linecap:butt;stroke-linejoin:miter;stroke-miterlimit:3.25;stroke-dasharray:none;stroke-opacity:1"
       id="path244" /><path
       d="m 271.812,133.141 v -4"
       style="fill:none;stroke:#666666;stroke-width:0.2;stroke-linecap:butt;stroke-linejoin:miter;stroke-miterlimit:3.25;stroke-dasharray:none;stroke-opacity:1"
       id="path246" /><text
       style="font-variant:normal;font-weight:normal;font-size:10px;font-family:Arial;-inkscape-font-specification:ArialMT;writing-mode:lr-tb;fill:#000000;fill-opacity:1;fill-rule:nonzero;stroke:none"
       id="text250"
       x="268.81439"
       y="145.14128"><tspan
         x="268.81439"
         y="145.14128"
         id="tspan248">5</tspan></text><path
       d="m 281.273,133.141 v -2.399"
       style="fill:none;stroke:#666666;stroke-width:0.2;stroke-linecap:butt;stroke-linejoin:miter;stroke-miterlimit:3.25;stroke-dasharray:none;stroke-opacity:1"
       id="path252" /><path
       d="m 290.734,133.141 v -2.399"
       style="fill:none;stroke:#666666;stroke-width:0.2;stroke-linecap:butt;stroke-linejoin:miter;stroke-miterlimit:3.25;stroke-dasharray:none;stroke-opacity:1"
       id="path254" /><path
       d="m 300.195,133.141 v -2.399"
       style="fill:none;stroke:#666666;stroke-width:0.2;stroke-linecap:butt;stroke-linejoin:miter;stroke-miterlimit:3.25;stroke-dasharray:none;stroke-opacity:1"
       id="path256" /><path
       d="m 309.656,133.141 v -2.399"
       style="fill:none;stroke:#666666;stroke-width:0.2;stroke-linecap:butt;stroke-linejoin:miter;stroke-miterlimit:3.25;stroke-dasharray:none;stroke-opacity:1"
       id="path258" /><path
       d="m 319.117,133.141 v -4"
       style="fill:none;stroke:#666666;stroke-width:0.2;stroke-linecap:butt;stroke-linejoin:miter;stroke-miterlimit:3.25;stroke-dasharray:none;stroke-opacity:1"
       id="path260" /><text
       style="font-variant:normal;font-weight:normal;font-size:10px;font-family:Arial;-inkscape-font-specification:ArialMT;writing-mode:lr-tb;fill:#000000;fill-opacity:1;fill-rule:nonzero;stroke:none"
       id="text264"
       x="316.11725"
       y="145.14128"><tspan
         x="316.11725"
         y="145.14128"
         id="tspan262">6</tspan></text><path
       d="m 328.578,133.141 v -2.399"
       style="fill:none;stroke:#666666;stroke-width:0.2;stroke-linecap:butt;stroke-linejoin:miter;stroke-miterlimit:3.25;stroke-dasharray:none;stroke-opacity:1"
       id="path266" /><path
       d="m 338.039,133.141 v -2.399"
       style="fill:none;stroke:#666666;stroke-width:0.2;stroke-linecap:butt;stroke-linejoin:miter;stroke-miterlimit:3.25;stroke-dasharray:none;stroke-opacity:1"
       id="path268" /><path
       d="m 347.5,133.141 v -2.399"
       style="fill:none;stroke:#666666;stroke-width:0.2;stroke-linecap:butt;stroke-linejoin:miter;stroke-miterlimit:3.25;stroke-dasharray:none;stroke-opacity:1"
       id="path270" /><path
       d="m 0.5,133.141 h 348"
       style="fill:none;stroke:#666666;stroke-width:0.2;stroke-linecap:butt;stroke-linejoin:miter;stroke-miterlimit:3.25;stroke-dasharray:none;stroke-opacity:1"
       id="path272" /><path
       d="m 35.301,220.758 h 2.398"
       style="fill:none;stroke:#666666;stroke-width:0.2;stroke-linecap:butt;stroke-linejoin:miter;stroke-miterlimit:3.25;stroke-dasharray:none;stroke-opacity:1"
       id="path276" /><path
       d="m 35.301,211.996 h 2.398"
       style="fill:none;stroke:#666666;stroke-width:0.2;stroke-linecap:butt;stroke-linejoin:miter;stroke-miterlimit:3.25;stroke-dasharray:none;stroke-opacity:1"
       id="path278" /><path
       d="m 35.301,203.234 h 4"
       style="fill:none;stroke:#666666;stroke-width:0.2;stroke-linecap:butt;stroke-linejoin:miter;stroke-miterlimit:3.25;stroke-dasharray:none;stroke-opacity:1"
       id="path280" /><text
       style="font-variant:normal;font-weight:normal;font-size:10px;font-family:MathematicaSans;-inkscape-font-specification:MathematicaSans;writing-mode:lr-tb;fill:#000000;fill-opacity:1;fill-rule:nonzero;stroke:none"
       id="text284"
       x="5.5413089"
       y="205.73547"><tspan
         x="5.5413089"
         y="205.73547"
         id="tspan282">-</tspan></text><text
       style="font-variant:normal;font-weight:normal;font-size:10px;font-family:Arial;-inkscape-font-specification:ArialMT;writing-mode:lr-tb;fill:#000000;fill-opacity:1;fill-rule:nonzero;stroke:none"
       id="text288"
       x="11.531309"
       y="205.73547"><tspan
         x="11.531309 17.091309 19.861309"
         y="205.73547"
         sodipodi:role="line"
         id="tspan286">0.4</tspan></text><path
       d="m 35.301,194.473 h 2.398"
       style="fill:none;stroke:#666666;stroke-width:0.2;stroke-linecap:butt;stroke-linejoin:miter;stroke-miterlimit:3.25;stroke-dasharray:none;stroke-opacity:1"
       id="path290" /><path
       d="m 35.301,185.711 h 2.398"
       style="fill:none;stroke:#666666;stroke-width:0.2;stroke-linecap:butt;stroke-linejoin:miter;stroke-miterlimit:3.25;stroke-dasharray:none;stroke-opacity:1"
       id="path292" /><path
       d="m 35.301,176.949 h 2.398"
       style="fill:none;stroke:#666666;stroke-width:0.2;stroke-linecap:butt;stroke-linejoin:miter;stroke-miterlimit:3.25;stroke-dasharray:none;stroke-opacity:1"
       id="path294" /><path
       d="m 35.301,168.188 h 4"
       style="fill:none;stroke:#666666;stroke-width:0.2;stroke-linecap:butt;stroke-linejoin:miter;stroke-miterlimit:3.25;stroke-dasharray:none;stroke-opacity:1"
       id="path296" /><text
       style="font-variant:normal;font-weight:normal;font-size:10px;font-family:MathematicaSans;-inkscape-font-specification:MathematicaSans;writing-mode:lr-tb;fill:#000000;fill-opacity:1;fill-rule:nonzero;stroke:none"
       id="text300"
       x="5.5413089"
       y="170.68839"><tspan
         x="5.5413089"
         y="170.68839"
         id="tspan298">-</tspan></text><text
       style="font-variant:normal;font-weight:normal;font-size:10px;font-family:Arial;-inkscape-font-specification:ArialMT;writing-mode:lr-tb;fill:#000000;fill-opacity:1;fill-rule:nonzero;stroke:none"
       id="text304"
       x="11.531309"
       y="170.68839"><tspan
         x="11.531309 17.091309 19.861309"
         y="170.68839"
         sodipodi:role="line"
         id="tspan302">0.2</tspan></text><path
       d="m 35.301,159.426 h 2.398"
       style="fill:none;stroke:#666666;stroke-width:0.2;stroke-linecap:butt;stroke-linejoin:miter;stroke-miterlimit:3.25;stroke-dasharray:none;stroke-opacity:1"
       id="path306" /><path
       d="m 35.301,150.664 h 2.398"
       style="fill:none;stroke:#666666;stroke-width:0.2;stroke-linecap:butt;stroke-linejoin:miter;stroke-miterlimit:3.25;stroke-dasharray:none;stroke-opacity:1"
       id="path308" /><path
       d="m 35.301,141.902 h 2.398"
       style="fill:none;stroke:#666666;stroke-width:0.2;stroke-linecap:butt;stroke-linejoin:miter;stroke-miterlimit:3.25;stroke-dasharray:none;stroke-opacity:1"
       id="path310" /><path
       d="m 35.301,133.141 h 4"
       style="fill:none;stroke:#666666;stroke-width:0.2;stroke-linecap:butt;stroke-linejoin:miter;stroke-miterlimit:3.25;stroke-dasharray:none;stroke-opacity:1"
       id="path312" /><path
       d="m 35.301,124.379 h 2.398"
       style="fill:none;stroke:#666666;stroke-width:0.2;stroke-linecap:butt;stroke-linejoin:miter;stroke-miterlimit:3.25;stroke-dasharray:none;stroke-opacity:1"
       id="path314" /><path
       d="m 35.301,115.617 h 2.398"
       style="fill:none;stroke:#666666;stroke-width:0.2;stroke-linecap:butt;stroke-linejoin:miter;stroke-miterlimit:3.25;stroke-dasharray:none;stroke-opacity:1"
       id="path316" /><path
       d="m 35.301,106.855 h 2.398"
       style="fill:none;stroke:#666666;stroke-width:0.2;stroke-linecap:butt;stroke-linejoin:miter;stroke-miterlimit:3.25;stroke-dasharray:none;stroke-opacity:1"
       id="path318" /><path
       d="m 35.301,98.094 h 4"
       style="fill:none;stroke:#666666;stroke-width:0.2;stroke-linecap:butt;stroke-linejoin:miter;stroke-miterlimit:3.25;stroke-dasharray:none;stroke-opacity:1"
       id="path320" /><text
       style="font-variant:normal;font-weight:normal;font-size:10px;font-family:Arial;-inkscape-font-specification:ArialMT;writing-mode:lr-tb;fill:#000000;fill-opacity:1;fill-rule:nonzero;stroke:none"
       id="text324"
       x="11.541307"
       y="100.59419"><tspan
         x="11.541307 17.101309 19.871307"
         y="100.59419"
         sodipodi:role="line"
         id="tspan322">0.2</tspan></text><path
       d="m 35.301,89.332 h 2.398"
       style="fill:none;stroke:#666666;stroke-width:0.2;stroke-linecap:butt;stroke-linejoin:miter;stroke-miterlimit:3.25;stroke-dasharray:none;stroke-opacity:1"
       id="path326" /><path
       d="m 35.301,80.57 h 2.398"
       style="fill:none;stroke:#666666;stroke-width:0.2;stroke-linecap:butt;stroke-linejoin:miter;stroke-miterlimit:3.25;stroke-dasharray:none;stroke-opacity:1"
       id="path328" /><path
       d="m 35.301,71.809 h 2.398"
       style="fill:none;stroke:#666666;stroke-width:0.2;stroke-linecap:butt;stroke-linejoin:miter;stroke-miterlimit:3.25;stroke-dasharray:none;stroke-opacity:1"
       id="path330" /><path
       d="m 35.301,63.047 h 4"
       style="fill:none;stroke:#666666;stroke-width:0.2;stroke-linecap:butt;stroke-linejoin:miter;stroke-miterlimit:3.25;stroke-dasharray:none;stroke-opacity:1"
       id="path332" /><text
       style="font-variant:normal;font-weight:normal;font-size:10px;font-family:Arial;-inkscape-font-specification:ArialMT;writing-mode:lr-tb;fill:#000000;fill-opacity:1;fill-rule:nonzero;stroke:none"
       id="text336"
       x="11.541307"
       y="65.547096"><tspan
         x="11.541307 17.101309 19.871307"
         y="65.547096"
         sodipodi:role="line"
         id="tspan334">0.4</tspan></text><path
       d="m 35.301,54.285 h 2.398"
       style="fill:none;stroke:#666666;stroke-width:0.2;stroke-linecap:butt;stroke-linejoin:miter;stroke-miterlimit:3.25;stroke-dasharray:none;stroke-opacity:1"
       id="path338" /><path
       d="m 35.301,45.523 h 2.398"
       style="fill:none;stroke:#666666;stroke-width:0.2;stroke-linecap:butt;stroke-linejoin:miter;stroke-miterlimit:3.25;stroke-dasharray:none;stroke-opacity:1"
       id="path340" /><path
       d="m 35.301,36.762 h 2.398"
       style="fill:none;stroke:#666666;stroke-width:0.2;stroke-linecap:butt;stroke-linejoin:miter;stroke-miterlimit:3.25;stroke-dasharray:none;stroke-opacity:1"
       id="path342" /><path
       d="m 35.347185,18.319727 h 2.398"
       style="fill:none;stroke:#666666;stroke-width:0.2;stroke-linecap:butt;stroke-linejoin:miter;stroke-miterlimit:3.25;stroke-dasharray:none;stroke-opacity:1"
       id="path338-4" /><path
       d="m 35.347185,9.5577273 h 2.398"
       style="fill:none;stroke:#666666;stroke-width:0.2;stroke-linecap:butt;stroke-linejoin:miter;stroke-miterlimit:3.25;stroke-dasharray:none;stroke-opacity:1"
       id="path340-8" /><path
       d="m 35.347185,0.79672734 h 2.398"
       style="fill:none;stroke:#666666;stroke-width:0.2;stroke-linecap:butt;stroke-linejoin:miter;stroke-miterlimit:3.25;stroke-dasharray:none;stroke-opacity:1"
       id="path342-3" /><path
       d="m 35.301,28 h 4"
       style="fill:none;stroke:#666666;stroke-width:0.2;stroke-linecap:butt;stroke-linejoin:miter;stroke-miterlimit:3.25;stroke-dasharray:none;stroke-opacity:1"
       id="path344" /><text
       style="font-variant:normal;font-weight:normal;font-size:10px;font-family:Arial;-inkscape-font-specification:ArialMT;writing-mode:lr-tb;fill:#000000;fill-opacity:1;fill-rule:nonzero;stroke:none"
       id="text348"
       x="11.541307"
       y="30.5"><tspan
         x="11.541307 17.101309 19.871307"
         y="30.5"
         sodipodi:role="line"
         id="tspan346">0.6</tspan></text><path
       d="M 35.301,220.758 V -8.6330457"
       style="fill:none;stroke:#666666;stroke-width:0.206548;stroke-linecap:butt;stroke-linejoin:miter;stroke-miterlimit:3.25;stroke-dasharray:none;stroke-opacity:1"
       id="path350" /><text
       xml:space="preserve"
       style="font-size:12px;line-height:1.25;font-family:sans-serif;stroke-width:0.75"
       x="344.29568"
       y="151.07661"
       id="text4910"><tspan
         sodipodi:role="line"
         id="tspan4908"
         style="stroke-width:0.75"
         x="344.29568"
         y="151.07661">t</tspan></text><text
       xml:space="preserve"
       style="font-size:12px;line-height:1.25;font-family:sans-serif;stroke-width:0.75"
       x="31.160622"
       y="-16.988871"
       id="text6662"><tspan
         sodipodi:role="line"
         id="tspan6660"
         style="stroke-width:0.75"
         x="31.160622"
         y="-16.988871">$v\left(H\over 2\right)$</tspan></text></g></svg>
